<svg xmlns="http://www.w3.org/2000/svg" width="90" height="90.5" viewBox="0 0 90 90.5">
  <g id="t6-ic9" transform="translate(-9227 9345)">
    <rect id="Rectangle_33286" data-name="Rectangle 33286" width="90" height="90" transform="translate(9227 -9345)" fill="none"/>
    <g id="Group_98839" data-name="Group 98839" transform="translate(7753.576 -9679.5)">
      <path id="Trazado_151883" data-name="Trazado 151883" d="M1547.413,419.939l-.96-.96V360.363l-14.213-14.214h-40.425l-.875-1.231a3.964,3.964,0,0,0-3.781,3.96v70.879a3.964,3.964,0,0,0,3.964,3.964h52.33a3.963,3.963,0,0,0,3.96-3.782Z" transform="translate(-0.025 -0.035)" fill="#70c4ff"/>
      <path id="Trazado_151884" data-name="Trazado 151884" d="M1490.957,344.918c-.007.157,0,70.525,0,71.063a3.964,3.964,0,0,0,3.964,3.964h52.507V361.325l-16.411-16.411h-40.062Z" transform="translate(-0.038 -0.035)" fill="#3ca8f4"/>
      <path id="Trazado_151885" data-name="Trazado 151885" d="M1555.814,351.61l-10.991-4.021-5.542-10.95H1499.4a3.964,3.964,0,0,0-3.964,3.964v70.879a3.964,3.964,0,0,0,3.964,3.964h49.855c1.635,0,3.943-.2,4.536-1.721l2.022-.806Z" transform="translate(-0.054 -0.006)" fill="#eaf6ff"/>
      <rect id="Rectangle_34235" data-name="Rectangle 34235" width="44.84" height="15.943" transform="translate(1502.919 391.797)" fill="#8ad24a"/>
      <rect id="Rectangle_34236" data-name="Rectangle 34236" width="5.979" height="15.943" transform="translate(1541.78 391.797)" fill="#75b33f"/>
      <rect id="Rectangle_34237" data-name="Rectangle 34237" width="44.84" height="46.833" transform="translate(1502.919 344.964)" fill="#70c4ff"/>
      <path id="Trazado_151887" data-name="Trazado 151887" d="M1550.534,353.1v58.432a3.964,3.964,0,0,1-3.964,3.964h5.462a3.964,3.964,0,0,0,3.964-3.964V353.1l-5.462-2.744Z" transform="translate(-0.236 -0.055)" fill="#d8ecfe"/>
      <path id="Trazado_151886" data-name="Trazado 151886" d="M1527.809,395.7h-43.486a2.378,2.378,0,0,1-2.379-2.379V374.312a2.379,2.379,0,0,1,2.379-2.379h43.486a2.379,2.379,0,0,1,2.378,2.379v19.011a2.378,2.378,0,0,1-2.378,2.379Z" transform="translate(-0.006 -0.131)" fill="#fde947"/>
      <path id="Trazado_151888" data-name="Trazado 151888" d="M1543.4,353.05h12.448l-16.411-16.411v12.448A3.964,3.964,0,0,0,1543.4,353.05Z" transform="translate(-0.211 -0.006)" fill="#b3dafe"/>
      <circle id="Ellipse_4536" data-name="Ellipse 4536" cx="3.488" cy="3.488" r="3.488" transform="translate(1521.851 350.943)" fill="#fde947"/>
      <path id="Path_154019" data-name="Path 154019" d="M1536.9,364.982l10.089,18.793v8.7H1530.28l-.368-19.464-2.011-1.119-19.991,0,6.068-11.9h3.381l5.979,11.335,6.432.556,3.141-6.909Z" transform="translate(-0.099 -0.089)" fill="#a6fc58"/>
      <g id="_000000ff" data-name="#000000ff" transform="translate(1480.122 335)">
        <path id="Path_154020" data-name="Path 154020" d="M1498.677,335h40.415a3.714,3.714,0,0,1,1.547,1.178q7.816,7.817,15.627,15.636c.571.5.444,1.314.458,1.993q-.015,19.87-.005,39.739a1.381,1.381,0,0,1-.934,1.455,1.305,1.305,0,0,1-1.682-1.279q-.013-19.815,0-39.634-2.71,0-5.419,0,0,25.788,0,51.573a3.1,3.1,0,0,1-3.166,3.148q-20.4,0-40.808,0a3.073,3.073,0,0,1-3.033-2.974c-.022-3.022,0-6.045-.016-9.067-1.8-.011-3.6-.007-5.406-.007q0,7.261,0,14.521a2.692,2.692,0,0,0,1.542,2.565,4.4,4.4,0,0,0,2,.253q25.849-.006,51.7,0a2.69,2.69,0,0,0,2.611-2.619c0-3.754.007-7.506,0-11.259a1.562,1.562,0,0,1,.3-1.118,1.292,1.292,0,0,1,1.86-.167,1.542,1.542,0,0,1,.462,1.272c0,3.7,0,7.4,0,11.1a5.425,5.425,0,0,1-1.067,3.285,5.305,5.305,0,0,1-3.988,2.118c-1.073.047-2.146.005-3.22.019-.078,1.786.285,3.7-.579,5.356a5.384,5.384,0,0,1-4.554,2.92H1490.4a5.626,5.626,0,0,1-2.811-.992,5.27,5.27,0,0,1-2.227-4.291c-.01-7.651.009-15.3-.007-22.95a7.517,7.517,0,0,1-3.041-.324,3.745,3.745,0,0,1-2.183-3.431c-.01-5.976,0-11.952-.007-17.927a7.635,7.635,0,0,1,.162-2.114,3.679,3.679,0,0,1,2.957-2.611,19.693,19.693,0,0,1,2.114-.045c.018-2.164-.019-4.33.007-6.494a1.321,1.321,0,0,1,1.048-1.366,1.3,1.3,0,0,1,1.545,1.214c.041,2.214,0,4.431.016,6.647,1.886,0,3.771,0,5.655,0q.006-12.205,0-24.413a20.247,20.247,0,0,0-3.858.151,2.659,2.659,0,0,0-1.794,2.492c-.033,3.039.027,6.08-.024,9.119a1.3,1.3,0,0,1-1.858,1.09,1.51,1.51,0,0,1-.74-1.606c.018-2.873-.007-5.744,0-8.614a5.3,5.3,0,0,1,3.393-4.894c1.557-.59,3.251-.293,4.876-.366a20.4,20.4,0,0,1,.209-4.42,5.37,5.37,0,0,1,4.841-3.855m-2.423,5.275q-.014,15.018,0,30.036c1.8,0,3.6.011,5.4,0,.018-8.021,0-16.044.013-24.065a3.053,3.053,0,0,1,3.044-3h32.911c0-1.871,0-3.744,0-5.616q-19.36,0-38.723,0a2.659,2.659,0,0,0-2.648,2.639m43.984-.789c.01,3.138-.014,6.278,0,9.414a2.712,2.712,0,0,0,2.6,2.583q4.7,0,9.4,0-5.976-6.02-12-12m-35.828,6.479a.966.966,0,0,0-.15.625q-.008,11.862,0,23.721c.978.011,1.958,0,2.938.009,1.615-2.945,3.209-5.9,4.814-8.854a7.126,7.126,0,0,1,1.18-1.811,3.607,3.607,0,0,1,5.662.936q2.65,4.852,5.275,9.717a25.961,25.961,0,0,1,4.5.18c1.02-1.843,2-3.709,3.029-5.545a3.5,3.5,0,0,1,6.135.123c2.766,5.059,5.49,10.143,8.271,15.193q.024-13.083.006-26.169c-1.15-.012-2.3.021-3.449-.016a5.287,5.287,0,0,1-4.511-3.072c-.754-1.605-.407-3.423-.488-5.132q-16.193-.007-32.385,0a2.137,2.137,0,0,0-.83.1m10.338,15.933c-1.52,2.807-3.059,5.6-4.562,8.418,3.658-.016,7.316.013,10.974,0-1.445-2.723-2.952-5.415-4.4-8.135-.193-.342-.379-.765-.8-.864a1,1,0,0,0-1.209.584m19.074,4.513c-1.026,1.905-2.084,3.794-3.089,5.713a6.331,6.331,0,0,1,.417,1.8c.018,5.62,0,11.239.007,16.859q7.46.007,14.917,0c-.015-1.659.036-3.322-.022-4.98-.883-1.793-1.9-3.522-2.832-5.289q-3.8-7-7.594-13.992c-.156-.283-.34-.6-.677-.688a.938.938,0,0,0-1.127.579m-50.5,6.63a1.157,1.157,0,0,0-.574,1.162q.01,9.413,0,18.823a1.114,1.114,0,0,0,1.215,1.139q21.716,0,43.429,0a1.106,1.106,0,0,0,1.164-1.151c.017-6.271,0-12.542.008-18.815a1.117,1.117,0,0,0-1.179-1.268q-21.616-.016-43.229-.007a1.984,1.984,0,0,0-.837.12m47.843,20.348a3.78,3.78,0,0,1-2.132,3.028,6.432,6.432,0,0,1-2.878.342c-7.3.007-14.593-.008-21.89,0-.014,2.853,0,5.706-.009,8.559.009.294-.035.7.3.84.636.06,1.277.013,1.916.023q19.519,0,39.036,0a.472.472,0,0,0,.56-.53c.015-4.09.007-8.181,0-12.27q-7.454,0-14.908,0m-43.192,3.375q0,11.475,0,22.95a2.663,2.663,0,0,0,2.667,2.649H1543.2a2.688,2.688,0,0,0,2.622-2.452c.035-1.061,0-2.124.007-3.187q-23.459,0-46.915,0a5.343,5.343,0,0,1-4.95-3.467,9.74,9.74,0,0,1-.33-3.538c-.009-4.318.005-8.634,0-12.954C1491.741,396.76,1489.856,396.754,1487.97,396.765Z" transform="translate(-1480.122 -335)"/>
        <path id="Path_154021" data-name="Path 154021" d="M1524.811,349.414a5,5,0,1,1-4.011,4.982,5.013,5.013,0,0,1,4.011-4.982m.343,2.595a2.378,2.378,0,1,0,2.965,1.87A2.388,2.388,0,0,0,1525.153,352.008Z" transform="translate(-1480.267 -335.051)"/>
      </g>
      <g id="Group_98838" data-name="Group 98838" transform="translate(1489.63 376.59)">
        <path id="Path_154022" data-name="Path 154022" d="M1491.623,388.264c.4,0,.594-.244.594-1.695v-9.411c0-.385,1.5-.419,1.975-.419.314,0,.646.192.646.472v9.673c0,2.621-1,3.756-2.918,3.756a4.716,4.716,0,0,1-1.955-.385c-.3-.122-.351-.367-.263-.7.122-.367.524-1.589.874-1.485A3.1,3.1,0,0,0,1491.623,388.264Z" transform="translate(-1489.663 -376.738)"/>
        <path id="Path_154023" data-name="Path 154023" d="M1499.172,377.367c0-.315.453-.454.82-.454h3.826c3.248,0,4.7.751,4.7,3.878v.506c0,3.18-1.363,3.878-4.7,3.878h-2.044v4.069c0,.28-.314.454-.647.454-.437,0-1.956-.053-1.956-.436Zm2.6,1.886v3.581h2.044c1.677,0,1.991-.262,1.991-1.538v-.506c0-1.241-.314-1.538-1.991-1.538Z" transform="translate(-1489.697 -376.739)"/>
        <path id="Path_154024" data-name="Path 154024" d="M1514.8,384.441c0,2.062.367,2.9,2.639,2.9h.14a7.768,7.768,0,0,0,1.432-.123v-3.86c0-.35,1.607-.436,2.061-.436a.608.608,0,0,1,.542.611v4.628a.656.656,0,0,1-.279.647,8,8,0,0,1-3.755.891h-.14c-3.581,0-5.328-1.206-5.328-4.839v-3.283c0-3.634,1.747-4.839,5.328-4.839h.14c.89,0,3.475.3,3.475,1.013,0,.261-.576,1.816-.909,1.729a8.788,8.788,0,0,0-2.567-.4h-.14c-2.272,0-2.639.856-2.639,2.918Z" transform="translate(-1489.743 -376.738)"/>
      </g>
    </g>
  </g>
</svg>
