<svg xmlns="http://www.w3.org/2000/svg" width="80" height="80" viewBox="0 0 80 80">
  <g id="t1-ic1" transform="translate(-310 -1276)">
    <rect id="Rectangle_33096" data-name="Rectangle 33096" width="80" height="80" transform="translate(310 1276)" fill="none"/>
    <g id="libro" transform="translate(242.934 1276)">
      <path id="Path_151326" data-name="Path 151326" d="M86.566,78.1a7.06,7.06,0,0,1,7.06-7.06h38.829a7.06,7.06,0,0,0,7.06-7.06V14.559a7.06,7.06,0,0,0-7.06-7.06H93.626a7.06,7.06,0,0,0-7.06,7.06Z" transform="translate(-6.328 -6.327)" fill="#fde947"/>
      <path id="Path_151327" data-name="Path 151327" d="M351.66,7.5h-5.295a7.06,7.06,0,0,1,7.06,7.06V63.976a7.06,7.06,0,0,1-7.056,7.06h5.291a7.06,7.06,0,0,0,7.06-7.06V14.559A7.06,7.06,0,0,0,351.66,7.5Z" transform="translate(-225.533 -6.327)" fill="#fdc647"/>
      <path id="Path_151328" data-name="Path 151328" d="M139.514,368.954a7.06,7.06,0,0,1-7.06,7.06H93.626a7.06,7.06,0,0,0,0,14.119h38.829a7.06,7.06,0,0,0,7.06-7.06Z" transform="translate(-6.328 -311.305)" fill="#dcf3f4"/>
      <path id="Path_151329" data-name="Path 151329" d="M353.432,375.791v7.282a7.06,7.06,0,0,1-7.058,7.06h5.293a7.06,7.06,0,0,0,7.06-7.06V368.954A7.063,7.063,0,0,1,353.432,375.791Z" transform="translate(-225.541 -311.305)" fill="#b0cdcf"/>
      <rect id="Rectangle_33190" data-name="Rectangle 33190" width="21.18" height="5.295" transform="translate(97.887 47.059)" fill="#7dc9ff"/>
      <rect id="Rectangle_33191" data-name="Rectangle 33191" width="5.295" height="5.295" transform="translate(113.771 47.059)" fill="#3ca8f4"/>
      <path id="Path_151330" data-name="Path 151330" d="M223.267,75.27a16.3,16.3,0,0,0,0,28.238,16.3,16.3,0,0,0,0-28.238Z" transform="translate(-114.79 -63.509)" fill="#a6fc58"/>
      <path id="Path_151331" data-name="Path 151331" d="M253,75.27a16.364,16.364,0,0,0-2.647,1.91,16.29,16.29,0,0,1,0,24.419,16.387,16.387,0,0,0,2.647,1.91,16.3,16.3,0,0,0,0-28.239Z" transform="translate(-144.523 -63.509)" fill="#8ad24a"/>
      <path id="Path_151332" data-name="Path 151332" d="M216.353,98.2l.009,0a1.177,1.177,0,0,0,.13.064l.007,0a1.137,1.137,0,0,0,.125.042l.035.009c.035.009.07.015.106.021l.036.005a1.079,1.079,0,0,0,.279,0l.036-.005c.036-.005.071-.012.106-.021l.035-.009a1.171,1.171,0,0,0,.125-.042l.007,0a1.163,1.163,0,0,0,.13-.064l.009,0a17.474,17.474,0,0,0,0-30.267,1.171,1.171,0,0,0-1.174,0,17.474,17.474,0,0,0,0,30.267Zm.587-27.881a15.125,15.125,0,0,1,1.172,24.661v-7.66l2.882-1.44a1.172,1.172,0,1,0-1.048-2.1l-1.834.917V79.533a1.172,1.172,0,0,0-2.344,0v1.634l-1.834-.917a1.172,1.172,0,1,0-1.048,2.1l2.882,1.441v11.19a15.126,15.126,0,0,1,1.172-24.662Z" transform="translate(-108.463 -57.182)"/>
      <path id="Path_151333" data-name="Path 151333" d="M126.126,0H87.3a8.241,8.241,0,0,0-8.232,8.232V71.768h0A8.241,8.241,0,0,0,87.3,80h38.829a8.241,8.241,0,0,0,8.232-8.232V8.232A8.241,8.241,0,0,0,126.126,0ZM81.41,66.021V8.231A5.894,5.894,0,0,1,87.3,2.344h38.828a5.894,5.894,0,0,1,5.888,5.888V57.649a5.9,5.9,0,0,1-5.888,5.888H87.3q-.214,0-.426.011c-.047,0-.093.008-.14.011-.094.006-.187.012-.28.022-.056.006-.112.014-.167.021-.083.01-.165.019-.247.032-.059.009-.116.021-.175.031-.078.014-.156.026-.233.042-.06.012-.12.028-.18.042s-.148.033-.221.052-.121.034-.181.052-.142.039-.212.061-.119.04-.179.061-.138.046-.206.071-.117.046-.176.07-.134.052-.2.08-.115.052-.173.078-.13.058-.194.089-.113.058-.17.087-.126.064-.187.1-.111.063-.166.1-.121.069-.181.106-.108.069-.162.1-.117.075-.174.114-.1.074-.157.112-.113.08-.167.122-.1.079-.151.119-.108.085-.161.129-.1.084-.146.127-.1.09-.153.136-.094.089-.141.134-.1.094-.146.142Zm50.6-2.625v8.372a5.9,5.9,0,0,1-5.888,5.888H87.3a5.9,5.9,0,0,1-5.77-4.715h23.006a1.172,1.172,0,1,0,0-2.344H81.527a5.908,5.908,0,0,1,2.966-4,5.847,5.847,0,0,1,2.5-.7q.15-.008.3-.008h38.829q.214,0,.426-.011c.047,0,.094-.007.141-.011.093-.006.187-.012.28-.022.056-.006.112-.014.168-.021.083-.01.166-.019.247-.032.059-.009.117-.021.175-.031.078-.014.156-.026.233-.042.061-.013.12-.028.181-.042s.147-.033.22-.052.121-.035.182-.052.141-.039.211-.061.12-.041.18-.061.137-.045.2-.07.119-.047.178-.07.132-.052.2-.079.117-.053.175-.079.128-.058.192-.088.114-.058.171-.088.125-.063.186-.1.112-.064.167-.1.12-.069.179-.105.109-.07.163-.1.116-.074.172-.113.105-.075.158-.112.112-.079.166-.121.1-.08.153-.12.107-.084.159-.128.1-.085.148-.128.1-.089.152-.135.095-.09.142-.135.1-.094.145-.142Z"/>
      <path id="Path_151334" data-name="Path 151334" d="M277.557,451.815h-5.295a1.172,1.172,0,0,0,0,2.344h5.295a1.172,1.172,0,0,0,0-2.344Z" transform="translate(-162.02 -381.219)"/>
      <path id="Path_151335" data-name="Path 151335" d="M125.423,54.585a1.172,1.172,0,0,0,1.172-1.172v-7.06a1.172,1.172,0,1,0-2.344,0v7.06A1.172,1.172,0,0,0,125.423,54.585Z" transform="translate(-38.125 -38.122)"/>
      <path id="Path_151336" data-name="Path 151336" d="M125.423,165.893a1.172,1.172,0,0,0,1.172-1.172V128.072a1.172,1.172,0,0,0-2.344,0v36.649A1.172,1.172,0,0,0,125.423,165.893Z" transform="translate(-38.125 -107.072)"/>
      <path id="Path_151337" data-name="Path 151337" d="M193.193,301.319h21.179a1.172,1.172,0,0,0,1.172-1.172v-5.295a1.172,1.172,0,0,0-1.172-1.172H193.193a1.172,1.172,0,0,0-1.172,1.172v5.295A1.172,1.172,0,0,0,193.193,301.319Zm1.172-5.295H213.2v2.951H194.365Z" transform="translate(-95.306 -247.793)"/>
    </g>
  </g>
</svg>
