<svg xmlns="http://www.w3.org/2000/svg" width="181" height="182" viewBox="0 0 181 182">
  <g id="t2-ic4" transform="translate(-451.5 -2386)">
    <ellipse id="Ellipse_4069" data-name="Ellipse 4069" cx="90.5" cy="91" rx="90.5" ry="91" transform="translate(451.5 2386)" fill="#fff"/>
    <g id="factory" transform="translate(492.5 2427)">
      <g id="Group_96810" data-name="Group 96810" transform="translate(3.32 1.562)">
        <path id="Path_151183" data-name="Path 151183" d="M43.518,345.8h83v30.9h-83Z" transform="translate(-38.339 -279.823)" fill="#dfdde2"/>
        <path id="Path_151184" data-name="Path 151184" d="M43.518,345.8h83v3.516h-83Z" transform="translate(-38.339 -279.823)" fill="#c6c1c8"/>
        <path id="Path_151185" data-name="Path 151185" d="M108.406,307.106H18.953A1.953,1.953,0,0,0,17,309.059v3.651a1.953,1.953,0,0,0,1.953,1.953h89.453a1.953,1.953,0,0,0,1.953-1.953v-3.651A1.953,1.953,0,0,0,108.406,307.106Z" transform="translate(-17 -248.687)" fill="#fde947"/>
        <path id="Path_151186" data-name="Path 151186" d="M108.406,319.752H18.953A1.953,1.953,0,0,1,17,317.8v3.516a1.953,1.953,0,0,0,1.953,1.953h89.453a1.953,1.953,0,0,0,1.953-1.953V317.8A1.953,1.953,0,0,1,108.406,319.752Z" transform="translate(-17 -257.291)" fill="#fdc647"/>
        <path id="Path_151187" data-name="Path 151187" d="M333.833,278.594H306.761v-5.061a1.859,1.859,0,0,1,1.859-1.859h23.353a1.859,1.859,0,0,1,1.859,1.859Z" transform="translate(-250.167 -220.175)" fill="#465e7b"/>
        <path id="Path_151188" data-name="Path 151188" d="M306.761,289.106h27.072v3.516H306.761Z" transform="translate(-250.167 -234.202)" fill="#3a4e65"/>
        <path id="Path_151189" data-name="Path 151189" d="M72.318,214.487l-1.632,18.09H84.692l-1.631-18.09Z" transform="translate(-60.2 -174.158)" fill="#ecf4ff"/>
        <path id="Path_151190" data-name="Path 151190" d="M70.686,292.622H84.692l-.317-3.516H71Z" transform="translate(-60.2 -234.202)" fill="#ddeafb"/>
        <path id="Path_151191" data-name="Path 151191" d="M190.156,214.487l-1.631,18.09h14.006l-1.632-18.09Z" transform="translate(-155.024 -174.158)" fill="#ecf4ff"/>
        <path id="Path_151192" data-name="Path 151192" d="M188.525,292.622h14.006l-.317-3.516H188.842Z" transform="translate(-155.024 -234.202)" fill="#ddeafb"/>
        <path id="Path_151193" data-name="Path 151193" d="M341.721,125.718h0c0-.048,0-.095,0-.143a5.984,5.984,0,0,0-11.694-1.79,7.108,7.108,0,1,0-.28,13.663,5.983,5.983,0,0,0,11.416.21c.184.017.37.027.558.027a5.983,5.983,0,0,0,0-11.967Z" transform="translate(-261.479 -97.797)" fill="#f1f1f4"/>
        <path id="Path_151194" data-name="Path 151194" d="M341.723,172.185H341.7a.8.8,0,0,0-.73.486,5.983,5.983,0,0,1-10.946.02.985.985,0,0,0-1.046-.583,7.111,7.111,0,0,1-7.936-5.272,7.109,7.109,0,0,0,8.709,8.629,5.983,5.983,0,0,0,11.416.21c.184.017.37.027.558.027a5.987,5.987,0,0,0,5.72-7.741A5.987,5.987,0,0,1,341.723,172.185Z" transform="translate(-261.48 -135.813)" fill="#dfdde2"/>
        <path id="Path_151195" data-name="Path 151195" d="M82.475,14.406a8.29,8.29,0,0,0-1.01.064,7.191,7.191,0,0,0-12.571-2.311,8.693,8.693,0,0,0-13.579-.551,8.555,8.555,0,0,0-15.535,4.95c0,.224.011.445.028.664a7.921,7.921,0,1,0,3.621,15.236v8.208h7.121V33.171A7.922,7.922,0,0,0,60.97,29.61a8.235,8.235,0,0,0,5.472,3.334v7.722h7.121V30.536a8.236,8.236,0,0,0,2-3.414,8.239,8.239,0,1,0,6.915-12.716Z" transform="translate(-29.499 -8)" fill="#f1f1f4"/>
        <path id="Path_151196" data-name="Path 151196" d="M89.783,182.911l-.691-7.664h-9.36l-.691,7.664Z" transform="translate(-66.923 -142.582)" fill="#fde947"/>
        <path id="Path_151197" data-name="Path 151197" d="M207.621,182.911l-.691-7.664h-9.36l-.691,7.664Z" transform="translate(-161.746 -142.582)" fill="#fde947"/>
        <path id="Path_151198" data-name="Path 151198" d="M88.312,157.247h7.121v3.516H88.312Z" transform="translate(-74.384 -128.097)" fill="#dfdde2"/>
        <path id="Path_151199" data-name="Path 151199" d="M206.151,157.247h7.121v3.516h-7.121Z" transform="translate(-169.207 -128.097)" fill="#dfdde2"/>
        <g id="Group_96808" data-name="Group 96808" transform="translate(17.832 75.48)">
          <path id="Path_151200" data-name="Path 151200" d="M113.486,404.167h-3.232a1.953,1.953,0,0,1-1.953-1.953v-5.8a1.953,1.953,0,0,1,1.953-1.953h3.232a1.953,1.953,0,0,1,1.953,1.953v5.8A1.953,1.953,0,0,1,113.486,404.167Z" transform="translate(-108.301 -394.46)" fill="#7dc9ff"/>
          <path id="Path_151201" data-name="Path 151201" d="M199.77,404.167h-3.232a1.953,1.953,0,0,1-1.953-1.953v-5.8a1.953,1.953,0,0,1,1.953-1.953h3.232a1.953,1.953,0,0,1,1.953,1.953v5.8A1.953,1.953,0,0,1,199.77,404.167Z" transform="translate(-177.733 -394.46)" fill="#7dc9ff"/>
          <path id="Path_151202" data-name="Path 151202" d="M286.053,404.167h-3.232a1.953,1.953,0,0,1-1.953-1.953v-5.8a1.953,1.953,0,0,1,1.953-1.953h3.232a1.953,1.953,0,0,1,1.953,1.953v5.8A1.953,1.953,0,0,1,286.053,404.167Z" transform="translate(-247.164 -394.46)" fill="#7dc9ff"/>
          <path id="Path_151203" data-name="Path 151203" d="M372.337,404.167h-3.232a1.953,1.953,0,0,1-1.953-1.953v-5.8a1.953,1.953,0,0,1,1.953-1.953h3.232a1.953,1.953,0,0,1,1.953,1.953v5.8A1.953,1.953,0,0,1,372.337,404.167Z" transform="translate(-316.595 -394.46)" fill="#7dc9ff"/>
        </g>
        <g id="Group_96809" data-name="Group 96809" transform="translate(17.832 79.719)">
          <path id="Path_151204" data-name="Path 151204" d="M113.486,418.112h-3.232a1.953,1.953,0,0,1-1.953-1.953v3.516a1.953,1.953,0,0,0,1.953,1.953h3.232a1.953,1.953,0,0,0,1.953-1.953v-3.516A1.953,1.953,0,0,1,113.486,418.112Z" transform="translate(-108.301 -416.159)" fill="#3ca8f4"/>
          <path id="Path_151205" data-name="Path 151205" d="M199.77,418.112h-3.232a1.953,1.953,0,0,1-1.953-1.953v3.516a1.953,1.953,0,0,0,1.953,1.953h3.232a1.953,1.953,0,0,0,1.953-1.953v-3.516A1.953,1.953,0,0,1,199.77,418.112Z" transform="translate(-177.733 -416.159)" fill="#3ca8f4"/>
          <path id="Path_151206" data-name="Path 151206" d="M286.053,418.112h-3.232a1.953,1.953,0,0,1-1.953-1.953v3.516a1.953,1.953,0,0,0,1.953,1.953h3.232a1.953,1.953,0,0,0,1.953-1.953v-3.516A1.953,1.953,0,0,1,286.053,418.112Z" transform="translate(-247.164 -416.159)" fill="#3ca8f4"/>
          <path id="Path_151207" data-name="Path 151207" d="M372.337,418.112h-3.232a1.953,1.953,0,0,1-1.953-1.953v3.516a1.953,1.953,0,0,0,1.953,1.953h3.232a1.953,1.953,0,0,0,1.953-1.953v-3.516A1.953,1.953,0,0,1,372.337,418.112Z" transform="translate(-316.595 -416.159)" fill="#3ca8f4"/>
        </g>
      </g>
      <g id="Group_96811" data-name="Group 96811" transform="translate(0 0)">
        <path id="Path_151208" data-name="Path 151208" d="M98.532,97.065H93.049V69.041h1.765a3.429,3.429,0,0,0,3.425-3.425V61.958a3.429,3.429,0,0,0-3.425-3.425H88.526v-3.6A3.334,3.334,0,0,0,85.2,51.6H61.8a3.334,3.334,0,0,0-3.33,3.33v3.6h-6.3L49.963,34.065a1.467,1.467,0,0,0-1.116-1.293V24.615a9.79,9.79,0,0,0,.923-1.276A9.723,9.723,0,1,0,56.308,6.418h-.025A8.679,8.679,0,0,0,42.743,3.464,10.172,10.172,0,0,0,29.2,2.939,10.043,10.043,0,0,0,18.007.871a1.468,1.468,0,0,0,1.2,2.68,7.048,7.048,0,0,1,2.9-.615,7.125,7.125,0,0,1,5.8,3,1.478,1.478,0,0,0,2.3.112,7.243,7.243,0,0,1,11.315.46,1.477,1.477,0,0,0,2.343.029A5.7,5.7,0,0,1,48.4,4.3a5.777,5.777,0,0,1,5.492,4.072c.3,1.116,1.492,1.087,2.417.978a6.788,6.788,0,1,1-5.7,10.475,1.477,1.477,0,0,0-2.639.385,6.811,6.811,0,0,1-1.645,2.812,1.467,1.467,0,0,0-.415,1.022v8.681h-4.2V26.46a1.467,1.467,0,0,0-1.253-1.452,6.82,6.82,0,0,1-4.507-2.747,1.478,1.478,0,0,0-2.5.189,6.469,6.469,0,0,1-8.511,2.91,1.468,1.468,0,0,0-2.093,1.328v6.041h-4.2V25.973a1.478,1.478,0,0,0-2.019-1.36,6.47,6.47,0,0,1-8.9-6,6.5,6.5,0,0,1,5.939-6.446A1.647,1.647,0,0,0,15,10.042a7.037,7.037,0,0,1,.712-3.105,1.468,1.468,0,1,0-2.639-1.285,9.921,9.921,0,0,0-.992,3.805A9.4,9.4,0,0,0,15.717,27.9v4.873A1.467,1.467,0,0,0,14.6,34.065L12.394,58.533H5.186a3.429,3.429,0,0,0-3.425,3.425v3.658a3.429,3.429,0,0,0,3.425,3.425H6.951V97.064H1.468a1.468,1.468,0,0,0,0,2.936H98.532a1.468,1.468,0,1,0,0-2.935Zm-58.068-61.4h6.7l.428,4.744H40.036Zm-.693,7.679h8.081l1.37,15.189H38.4ZM27.7,28.91A9.362,9.362,0,0,0,34.941,25.5a9.8,9.8,0,0,0,3.836,2.135v5.132a1.467,1.467,0,0,0-1.116,1.293L35.454,58.533H29.11L26.9,34.065a1.467,1.467,0,0,0-1.116-1.293V28.716A9.409,9.409,0,0,0,27.7,28.91ZM17.4,35.665h6.7l.428,4.744H16.976Zm-.693,7.679h8.081l1.37,15.189H15.341Zm-6.825,25.7h23.53a1.468,1.468,0,1,0,0-2.936H5.186a.49.49,0,0,1-.489-.489V61.958a.49.49,0,0,1,.489-.489H73.218a1.468,1.468,0,1,0,0-2.936H61.4v-3.6a.4.4,0,0,1,.395-.395H85.2a.4.4,0,0,1,.395.395v3.6h-6.5a1.468,1.468,0,1,0,0,2.936H94.814a.49.49,0,0,1,.489.489v3.658a.49.49,0,0,1-.489.489H39.287a1.468,1.468,0,1,0,0,2.936H90.114V97.064H9.886Z" transform="translate(0 0)"/>
        <path id="Path_151209" data-name="Path 151209" d="M107.161,387.216h-3.238a3.429,3.429,0,0,0-3.425,3.425v5.812a3.429,3.429,0,0,0,3.425,3.425h3.238a3.429,3.429,0,0,0,3.425-3.425v-5.812A3.429,3.429,0,0,0,107.161,387.216Zm.489,9.237a.49.49,0,0,1-.489.489h-3.238a.49.49,0,0,1-.489-.489v-5.812a.49.49,0,0,1,.489-.489h3.238a.49.49,0,0,1,.489.489Z" transform="translate(-80.869 -311.588)"/>
        <path id="Path_151210" data-name="Path 151210" d="M193.614,387.216h-3.238a3.429,3.429,0,0,0-3.425,3.425v5.812a3.429,3.429,0,0,0,3.425,3.425h3.238a3.429,3.429,0,0,0,3.425-3.425v-5.812A3.429,3.429,0,0,0,193.614,387.216Zm.489,9.237a.49.49,0,0,1-.489.489h-3.238a.49.49,0,0,1-.489-.489v-5.812a.49.49,0,0,1,.489-.489h3.238a.49.49,0,0,1,.489.489Z" transform="translate(-150.437 -311.588)"/>
        <path id="Path_151211" data-name="Path 151211" d="M280.066,387.216h-3.238a3.429,3.429,0,0,0-3.425,3.425v5.812a3.429,3.429,0,0,0,3.425,3.425h3.238a3.429,3.429,0,0,0,3.425-3.425v-5.812A3.429,3.429,0,0,0,280.066,387.216Zm.489,9.237a.49.49,0,0,1-.489.489h-3.238a.49.49,0,0,1-.489-.489v-5.812a.49.49,0,0,1,.489-.489h3.238a.49.49,0,0,1,.489.489Z" transform="translate(-220.004 -311.588)"/>
        <path id="Path_151212" data-name="Path 151212" d="M366.519,387.216h-3.238a3.429,3.429,0,0,0-3.425,3.425v5.812a3.429,3.429,0,0,0,3.425,3.425h3.238a3.429,3.429,0,0,0,3.425-3.425v-5.812A3.429,3.429,0,0,0,366.519,387.216Zm.489,9.237a.49.49,0,0,1-.489.489h-3.238a.49.49,0,0,1-.489-.489v-5.812a.49.49,0,0,1,.489-.489h3.238a.49.49,0,0,1,.489.489Z" transform="translate(-289.572 -311.588)"/>
        <path id="Path_151213" data-name="Path 151213" d="M313.431,124.283a8.59,8.59,0,0,0,9.5,8.541,7.462,7.462,0,0,0,13.322.037,7.463,7.463,0,0,0,.963-14.788,7.466,7.466,0,0,0-13.966-2.292,8.594,8.594,0,0,0-9.816,8.5Zm8.589-5.654a5.652,5.652,0,0,1,1.672.251,1.467,1.467,0,0,0,1.834-.963,4.528,4.528,0,0,1,8.848,1.355,1.483,1.483,0,0,0,1.485,1.611,4.527,4.527,0,0,1-.017,9.055,1.632,1.632,0,0,0-1.951.976,4.527,4.527,0,0,1-8.638-.158,1.47,1.47,0,0,0-1.784-1.006,5.654,5.654,0,1,1-1.45-11.12Z" transform="translate(-252.214 -89.971)"/>
      </g>
    </g>
  </g>
</svg>
