<svg xmlns="http://www.w3.org/2000/svg" width="175.001" height="175" viewBox="0 0 175.001 175">
  <g id="t2-ic6" transform="translate(0.001 -0.001)">
    <ellipse id="Ellipse_4396" data-name="Ellipse 4396" cx="7.239" cy="7.048" rx="7.239" ry="7.048" transform="translate(29.525 67.649)" fill="#e0e0e0"/>
    <path id="Path_151338" data-name="Path 151338" d="M101.465,197.92a7.36,7.36,0,0,0-3.166.717,6.957,6.957,0,0,1,0,12.662,7.36,7.36,0,0,0,3.166.717,7.05,7.05,0,1,0,0-14.1Z" transform="translate(-64.701 -130.271)" fill="#ccc"/>
    <ellipse id="Ellipse_4397" data-name="Ellipse 4397" cx="7.239" cy="7.048" rx="7.239" ry="7.048" transform="translate(136.022 84.733)" fill="#e0e0e0"/>
    <path id="Path_151339" data-name="Path 151339" d="M413.045,247.9a7.36,7.36,0,0,0-3.166.717,6.956,6.956,0,0,1,0,12.662,7.36,7.36,0,0,0,3.166.717,7.05,7.05,0,1,0,0-14.1Z" transform="translate(-269.784 -163.17)" fill="#ccc"/>
    <ellipse id="Ellipse_4398" data-name="Ellipse 4398" cx="7.239" cy="7.048" rx="7.239" ry="7.048" transform="translate(22.286 108.995)" fill="#e0e0e0"/>
    <path id="Path_151340" data-name="Path 151340" d="M80.286,318.886a7.354,7.354,0,0,0-3.166.717,6.956,6.956,0,0,1,0,12.662,7.36,7.36,0,0,0,3.166.717,7.05,7.05,0,1,0,0-14.1Z" transform="translate(-50.761 -209.891)" fill="#ccc"/>
    <path id="Path_151341" data-name="Path 151341" d="M322.758,37.57a23.82,23.82,0,0,0-6.553.918,17.954,17.954,0,0,1-.447,33.415,18.194,18.194,0,0,1-5.391,7.424,23.582,23.582,0,0,0,12.39,3.488c12.833,0,23.236-10.128,23.236-22.623s-10.4-22.623-23.236-22.623Z" transform="translate(-204.286 -24.728)" fill="#a0a0a0"/>
    <path id="Path_151342" data-name="Path 151342" d="M109.362,73.187A19.649,19.649,0,0,1,114,60.517c-.046-.546-.076-1.1-.076-1.655a19.675,19.675,0,0,1,.221-2.933,19.063,19.063,0,0,0-5.726-.877,18.142,18.142,0,1,0,0,36.27,18.933,18.933,0,0,0,8.981-2.246,19.843,19.843,0,0,1-8.034-15.889Z" transform="translate(-59.099 -36.235)" fill="#a0a0a0"/>
    <path id="Path_151343" data-name="Path 151343" d="M219.876,35.323a18.386,18.386,0,0,0-18.627-18.135A18.9,18.9,0,0,0,191.292,20,20.61,20.61,0,0,0,172.215,7.516c-11.378,0-20.6,8.98-20.6,20.058,0,.558.029,1.108.076,1.655a19.653,19.653,0,0,0-4.633,12.67c0,11.078,9.224,20.058,20.6,20.058a21.008,21.008,0,0,0,8.112-1.617V83.79h17.047V63.741a18.567,18.567,0,0,0,15.45-11.619,18.147,18.147,0,0,0,11.609-16.8Z" transform="translate(-96.793 -4.946)" fill="#e0e0e0"/>
    <path id="Path_151344" data-name="Path 151344" d="M135.944,73.2a19.649,19.649,0,0,1,4.633-12.67c-.046-.546-.076-1.1-.076-1.655a19.675,19.675,0,0,1,.221-2.933,19.057,19.057,0,0,0-5.286-.869c-.058.652-.093,1.311-.093,1.978,0,.633.034,1.257.085,1.877A22.33,22.33,0,0,0,138.8,90.953a18.842,18.842,0,0,0,5.177-1.861A19.843,19.843,0,0,1,135.944,73.2Z" transform="translate(-85.681 -36.251)" fill="#8e8e8e"/>
    <path id="Path_151345" data-name="Path 151345" d="M316.205,38.488a17.954,17.954,0,0,1-.447,33.415,18.193,18.193,0,0,1-5.39,7.424,23.494,23.494,0,0,0,5.547,2.485,21.261,21.261,0,0,0,3.827-6.3A21.131,21.131,0,0,0,323.1,37.579c-.116,0-.23-.009-.346-.009a23.82,23.82,0,0,0-6.553.918Z" transform="translate(-204.286 -24.728)" fill="#8e8e8e"/>
    <path id="Path_151346" data-name="Path 151346" d="M233.665,20A20.61,20.61,0,0,0,214.588,7.515a21.318,21.318,0,0,0-3.04.219.448.448,0,0,1-.116.037c6.622,1,13.119,6.906,16.231,12.815a1.791,1.791,0,0,0,2.38.746A18.861,18.861,0,0,1,233.666,20h0Z" transform="translate(-139.166 -4.946)" fill="#ccc"/>
    <path id="Path_151347" data-name="Path 151347" d="M277.177,35.813a19.148,19.148,0,0,0-3.172.265,18.284,18.284,0,0,1,15.467,17.87c0,7.6-3.86,11.1-10.668,13.8-2.265,5.831-8.34,9.059-14.886,10.072a1.737,1.737,0,0,0-1.505,1.694v22.9h6.331V82.367a18.567,18.567,0,0,0,15.45-11.619,18.147,18.147,0,0,0,11.609-16.8,18.385,18.385,0,0,0-18.626-18.135Z" transform="translate(-172.722 -23.572)" fill="#ccc"/>
    <path id="Path_151348" data-name="Path 151348" d="M177.378,324.261s-50.065-24.675-71.555-90.122a5.088,5.088,0,0,0-4.853-3.467H83.923a5.088,5.088,0,0,0-4.853,3.467C57.58,299.586,7.515,324.261,7.515,324.261Z" transform="translate(-4.947 -151.828)" fill="#8ad24a"/>
    <path id="Path_151349" data-name="Path 151349" d="M273.6,234.139a5.088,5.088,0,0,0-4.853-3.467h-6.331a5.088,5.088,0,0,1,4.853,3.467c21.49,65.447,67.88,90.122,67.88,90.122h10.006S295.088,299.586,273.6,234.139Z" transform="translate(-172.722 -151.828)" fill="#77b540"/>
    <path id="Path_151350" data-name="Path 151350" d="M195.985,253c2.387.664,2.816,11.481,8.163,11.481s5.776-10.817,8.163-11.481c3.274-.911,6.773,10.128,18.763,11.948a171.523,171.523,0,0,1-13.55-30.8,5.088,5.088,0,0,0-4.853-3.467H195.625a5.088,5.088,0,0,0-4.853,3.467,171.522,171.522,0,0,1-13.55,30.8C189.211,263.123,192.711,252.085,195.985,253Z" transform="translate(-116.649 -151.828)" fill="#fde947"/>
    <path id="Path_151351" data-name="Path 151351" d="M267.267,234.138a186.85,186.85,0,0,0,11.482,27.471,19.848,19.848,0,0,0,8.4,3.333,171.527,171.527,0,0,1-13.55-30.8,5.088,5.088,0,0,0-4.853-3.467h-6.331A5.089,5.089,0,0,1,267.267,234.138Z" transform="translate(-172.722 -151.828)" fill="#f7bc45"/>
    <path id="Path_151352" data-name="Path 151352" d="M173.567,409.991c-.259-.127-26.126-13.113-48.2-44.479a2.568,2.568,0,1,0-4.2,2.956,159.56,159.56,0,0,0,41.9,41.258H11.9a147.02,147.02,0,0,0,16.157-12.439,2.569,2.569,0,0,0-3.4-3.852c-12.917,11.4-23.127,16.506-23.227,16.555a2.568,2.568,0,0,0,1.135,4.872H172.431a2.569,2.569,0,0,0,1.136-4.872Z" transform="translate(0 -239.863)"/>
    <path id="Path_151353" data-name="Path 151353" d="M248.486,355.18v23.477a2.569,2.569,0,0,0,5.137,0V355.18a2.569,2.569,0,1,0-5.137,0Z" transform="translate(-163.555 -232.089)"/>
    <path id="Path_151354" data-name="Path 151354" d="M295.094,356.167a2.568,2.568,0,0,0-1.763,3.176c.2.7,5.117,17.348,22.752,31.048a2.569,2.569,0,1,0,3.152-4.057c-16.187-12.576-20.887-28.141-20.965-28.406a2.569,2.569,0,0,0-3.175-1.761Z" transform="translate(-193.006 -234.364)"/>
    <path id="Path_151355" data-name="Path 151355" d="M152.328,380.771a56.246,56.246,0,0,1-19,27.586,2.568,2.568,0,0,0,2.925,4.223,60.412,60.412,0,0,0,20.99-30.306,2.568,2.568,0,0,0-4.912-1.5Z" transform="translate(-87.032 -249.427)"/>
    <path id="Path_151356" data-name="Path 151356" d="M103.467,57.656a21.671,21.671,0,0,0,8.71-1.83,23.85,23.85,0,0,0,18.382,3.1V76.714a7.589,7.589,0,0,0-4.725,4.8,163.661,163.661,0,0,1-39.684,65.155,2.568,2.568,0,1,0,3.639,3.626A166.328,166.328,0,0,0,116.4,115.42c7.456-1.558,11.736-6.273,14.619-9.452.506-.558,1.127-1.243,1.632-1.732.245.6.509,1.346.713,1.923,1.274,3.607,3.2,9.058,8.289,9.058s7.014-5.451,8.288-9.058c.2-.577.468-1.324.713-1.923.505.488,1.127,1.174,1.632,1.732,2.887,3.183,7.174,7.906,14.649,9.458q1.289,2.25,2.642,4.454a2.568,2.568,0,0,0,4.376-2.69,168.7,168.7,0,0,1-16.484-35.68,7.59,7.59,0,0,0-4.725-4.8V60.99a21.31,21.31,0,0,0,7.709-3.313,26.236,26.236,0,0,0,12.172,2.98c14.229,0,25.8-11.3,25.8-25.192s-11.576-25.192-25.8-25.192a26.415,26.415,0,0,0-6.4.788,21.623,21.623,0,0,0-16.443.492,23.376,23.376,0,0,0-42.533,5.031,21.686,21.686,0,0,0-3.782-.335,20.977,20.977,0,0,0-21.2,20.7,20.979,20.979,0,0,0,21.2,20.7Zm59.788,50.993a27.587,27.587,0,0,1-7.164-6.133c-2.146-2.366-4.174-4.6-6.964-3.824-2.215.616-3.056,3-4.03,5.756-.792,2.243-1.989,5.632-3.445,5.632s-2.652-3.389-3.445-5.632c-.974-2.758-1.816-5.139-4.03-5.756-2.79-.776-4.818,1.458-6.964,3.824a27.66,27.66,0,0,1-7.129,6.113,176.156,176.156,0,0,0,10.631-25.518,2.512,2.512,0,0,1,2.413-1.7h17.047a2.512,2.512,0,0,1,2.413,1.7A175.7,175.7,0,0,0,163.255,108.65Zm30.037-73.185c0,11.058-9.272,20.054-20.667,20.054a21.156,21.156,0,0,1-8.059-1.59,20.7,20.7,0,0,0,3.024-4.8,20.432,20.432,0,0,0,5.657-33.7C184.355,15.747,193.292,24.609,193.292,35.465ZM103.467,21.386a16.555,16.555,0,0,1,2.962.269c-.026.6-.032,1.2-.008,1.8a22.243,22.243,0,0,0-3.6,6.99,2.569,2.569,0,0,0,4.91,1.509,17.2,17.2,0,0,1,3.286-6.022c.818-.976.525-2.141.525-3.3,0-9.643,8.09-17.489,18.033-17.489a17.978,17.978,0,0,1,16.708,10.908A2.594,2.594,0,0,0,150,17.238a16.369,16.369,0,0,1,8.607-2.429,15.836,15.836,0,0,1,16.058,15.567,15.522,15.522,0,0,1-9.987,14.412,2.569,2.569,0,0,0-1.447,1.457,16.1,16.1,0,0,1-13.318,9.994,2.569,2.569,0,0,0-2.306,2.555v17.48H135.7V55.393a2.593,2.593,0,0,0-3.558-2.37,18.392,18.392,0,0,1-7.123,1.419,17.828,17.828,0,0,1-17.579-13.57,2.569,2.569,0,0,0-5,1.18,22.427,22.427,0,0,0,5.214,9.926,16.561,16.561,0,0,1-4.184.542A15.836,15.836,0,0,1,87.409,36.953a15.837,15.837,0,0,1,16.059-15.567Z" transform="translate(-54.152)"/>
    <path id="Path_151357" data-name="Path 151357" d="M88.674,209.638a9.618,9.618,0,1,0-9.807-9.616A9.724,9.724,0,0,0,88.674,209.638Zm0-14.1A4.483,4.483,0,1,1,84,200.021,4.583,4.583,0,0,1,88.674,195.542Z" transform="translate(-51.911 -125.324)"/>
    <path id="Path_151358" data-name="Path 151358" d="M390.447,250.005a9.809,9.809,0,1,0,9.807-9.616A9.724,9.724,0,0,0,390.447,250.005Zm14.478,0a4.674,4.674,0,1,1-4.67-4.479A4.583,4.583,0,0,1,404.925,250.005Z" transform="translate(-256.994 -158.224)"/>
    <path id="Path_151359" data-name="Path 151359" d="M67.5,330.6a9.618,9.618,0,1,0-9.807-9.616A9.724,9.724,0,0,0,67.5,330.6Zm0-14.1a4.483,4.483,0,1,1-4.67,4.479A4.583,4.583,0,0,1,67.5,316.509Z" transform="translate(-37.972 -204.945)"/>
  </g>
</svg>
