<svg xmlns="http://www.w3.org/2000/svg" width="181" height="182" viewBox="0 0 181 182">
  <g id="t2-ic5" transform="translate(-968.5 -2386)">
    <ellipse id="Ellipse_4378" data-name="Ellipse 4378" cx="90.5" cy="91" rx="90.5" ry="91" transform="translate(968.5 2386)" fill="#fff"/>
    <g id="Group_96834" data-name="Group 96834" transform="translate(997.5 2403)">
      <g id="Group_96833" data-name="Group 96833" transform="translate(9.724 27.448)">
        <g id="Group_96825" data-name="Group 96825" transform="translate(14.431 8.621)">
          <path id="Path_151360" data-name="Path 151360" d="M120.253,80a37.736,37.736,0,0,1,21.793,6.9H123.7a3.458,3.458,0,0,0-3.448,3.448,3.473,3.473,0,0,0,3.448,3.448h6.9a3.458,3.458,0,0,1,3.448,3.448,3.473,3.473,0,0,1-3.448,3.448H118.529a3.458,3.458,0,0,0-3.448,3.448,3.473,3.473,0,0,0,3.448,3.448h18.966a3.458,3.458,0,0,1,3.448,3.448,3.473,3.473,0,0,0,3.448,3.448h13.638c.1,1.138.155,2.276.155,3.448,0,1.155-.052,2.31-.155,3.448H124.46a3.464,3.464,0,0,0-3.276,2.362l-.138.448a3.464,3.464,0,0,1-3.276,2.362h-4.414A3.458,3.458,0,0,0,109.908,130v1.724a3.458,3.458,0,0,1-3.448,3.448h-1.724a3.458,3.458,0,0,0-3.448,3.448,3.473,3.473,0,0,0,3.448,3.448H116.8a3.458,3.458,0,0,1,3.448,3.448,3.473,3.473,0,0,0,3.448,3.448h11.276A6.8,6.8,0,0,0,137.7,151.6,37.913,37.913,0,0,1,82.96,124.828H96.115a3.458,3.458,0,0,0,3.448-3.448,3.473,3.473,0,0,0-3.448-3.448,3.448,3.448,0,0,1,0-6.9h5.172a3.458,3.458,0,0,0,3.448-3.448,3.473,3.473,0,0,0-3.448-3.448H84.926a37.708,37.708,0,0,1,6.069-10.345h6.845a8.624,8.624,0,0,0,8.621-8.621,8.719,8.719,0,0,0-.345-2.431A37.749,37.749,0,0,1,120.253,80Z" transform="translate(-82.96 -80)" fill="#7dc9ff"/>
        </g>
        <g id="Group_96826" data-name="Group 96826" transform="translate(32.759 50)">
          <path id="Path_151361" data-name="Path 151361" d="M191.172,272h33.569a37.565,37.565,0,0,1-2.19,9.69A10.11,10.11,0,0,0,218,280.621a10.329,10.329,0,0,0-10.19,8.638c-.052,0-.1-.017-.155-.017a6.887,6.887,0,0,0-5.966,10.345H190.414a3.473,3.473,0,0,1-3.448-3.448,3.458,3.458,0,0,0-3.448-3.448H171.448A3.473,3.473,0,0,1,168,289.241a3.458,3.458,0,0,1,3.448-3.448h1.724a3.458,3.458,0,0,0,3.448-3.448v-1.724a3.458,3.458,0,0,1,3.448-3.448h4.414a3.464,3.464,0,0,0,3.276-2.362l.138-.448A3.464,3.464,0,0,1,191.172,272Z" transform="translate(-168 -272)" fill="#a6fc58"/>
        </g>
        <g id="Group_96827" data-name="Group 96827" transform="translate(13.793 32.759)">
          <path id="Path_151362" data-name="Path 151362" d="M101.4,193.017a3.371,3.371,0,0,1,1.017,2.431,3.458,3.458,0,0,1-3.448,3.448H93.793a3.448,3.448,0,0,0,0,6.9,3.473,3.473,0,0,1,3.448,3.448,3.458,3.458,0,0,1-3.448,3.448H80.638a36.394,36.394,0,0,1-.638-6.9A37.449,37.449,0,0,1,82.6,192H98.966A3.371,3.371,0,0,1,101.4,193.017Z" transform="translate(-80 -192)" fill="#a6fc58"/>
        </g>
        <g id="Group_96828" data-name="Group 96828" transform="translate(46.552 15.517)">
          <path id="Path_151363" data-name="Path 151363" d="M274.948,139.586H261.31a3.473,3.473,0,0,1-3.448-3.448,3.458,3.458,0,0,0-3.448-3.448H235.448A3.473,3.473,0,0,1,232,129.241a3.458,3.458,0,0,1,3.448-3.448h12.069a3.473,3.473,0,0,0,3.448-3.448,3.458,3.458,0,0,0-3.448-3.448h-6.9a3.473,3.473,0,0,1-3.448-3.448A3.458,3.458,0,0,1,240.621,112h18.345A37.839,37.839,0,0,1,274.948,139.586Z" transform="translate(-232 -112)" fill="#a6fc58"/>
        </g>
        <g id="Group_96829" data-name="Group 96829" transform="translate(0)">
          <path id="Path_151364" data-name="Path 151364" d="M53.586,51.362a8.719,8.719,0,0,1,.345,2.431,8.624,8.624,0,0,1-8.621,8.621H22.9a6.9,6.9,0,0,1,0-13.793c.052,0,.1.017.155.017A10.329,10.329,0,0,1,33.241,40a10.352,10.352,0,0,1,9.224,5.69A8.471,8.471,0,0,1,52.19,48.6,8.5,8.5,0,0,1,53.586,51.362Z" transform="translate(-16 -40)" fill="#e8e8e8"/>
        </g>
        <g id="Group_96830" data-name="Group 96830" transform="translate(65.517 58.621)">
          <path id="Path_151365" data-name="Path 151365" d="M323.655,333.6a6.8,6.8,0,0,1-2.724-2.638,6.887,6.887,0,0,1,5.965-10.345c.052,0,.1.017.155.017A10.329,10.329,0,0,1,337.241,312a10.11,10.11,0,0,1,4.552,1.069,10.275,10.275,0,0,1,4.672,4.621,8.606,8.606,0,1,1,2.845,16.724H326.9a6.843,6.843,0,0,1-3.241-.81Z" transform="translate(-320 -312)" fill="#e8e8e8"/>
        </g>
        <g id="Group_96831" data-name="Group 96831" transform="translate(81.034 6.897)">
          <path id="Path_151366" data-name="Path 151366" d="M397.172,72a5.189,5.189,0,1,1-4.155,2.1A5.165,5.165,0,0,1,397.172,72Z" transform="translate(-392 -72)" fill="#fde947"/>
        </g>
        <g id="Group_96832" data-name="Group 96832" transform="translate(12.069 75.862)">
          <path id="Path_151367" data-name="Path 151367" d="M81.328,400.259a5.177,5.177,0,1,1,1.017-3.086A5.143,5.143,0,0,1,81.328,400.259Z" transform="translate(-72 -392)" fill="#fde947"/>
        </g>
      </g>
      <path id="Path_151368" data-name="Path 151368" d="M224.927,27.448a46.637,46.637,0,0,1,28.1,9.484,6.877,6.877,0,0,0,8.969,8.969,46.514,46.514,0,0,1,8.342,38.4,1.419,1.419,0,0,0,1.028,1.691l.536.138a1.474,1.474,0,0,0,1.807-1.1,49.951,49.951,0,0,0-8.958-41.2,6.784,6.784,0,0,0,1.461-5.464,6.933,6.933,0,0,0-5.675-5.652,6.781,6.781,0,0,0-5.435,1.466,49.942,49.942,0,0,0-37.193-9.69,1.748,1.748,0,0,0-1.487,2.034l.028.156a1.543,1.543,0,0,0,1.746,1.252,47.13,47.13,0,0,1,6.736-.484ZM258.961,36.1a3.449,3.449,0,1,1-2.97,2.97A3.452,3.452,0,0,1,258.961,36.1Z" transform="translate(-163.479)"/>
      <path id="Path_151369" data-name="Path 151369" d="M74,232.991a46.646,46.646,0,0,1-28.1-9.483,6.877,6.877,0,0,0-8.969-8.971A46.5,46.5,0,0,1,30.6,169.57a1.592,1.592,0,0,0-.85-2.047l-.13-.055a1.72,1.72,0,0,0-2.28.969,49.941,49.941,0,0,0,6.84,48.173,6.782,6.782,0,0,0-1.464,5.449,6.93,6.93,0,0,0,5.665,5.665,6.781,6.781,0,0,0,5.449-1.464A50.106,50.106,0,0,0,74,236.439a49.539,49.539,0,0,0,19.74-4.049,1.783,1.783,0,0,0,.908-2.4h0a1.668,1.668,0,0,0-2.176-.807A46.114,46.114,0,0,1,74,232.991Zm-34.033-8.649a3.449,3.449,0,1,1,2.97-2.97A3.452,3.452,0,0,1,39.967,224.341Z" transform="translate(-12.552 -112.439)"/>
      <path id="Path_151370" data-name="Path 151370" d="M104.552,95.793a9.578,9.578,0,0,0-2.022.219,12.04,12.04,0,0,0-3.426-3.4,39.549,39.549,0,0,0-50.817-49.7c-.1-.207-.212-.41-.329-.609.009-.016.017-.033.026-.048-.569-1.011-2.1-3-5.9-4.625h0a10.266,10.266,0,0,0-3.049-.461,9.579,9.579,0,0,0-2.022.219,12.029,12.029,0,0,0-3.879-3.681,13.349,13.349,0,0,0-3.21-1.345,12.071,12.071,0,0,0-14.541,8.343,8.622,8.622,0,0,0,1.24,17.153H28.738a39.652,39.652,0,0,0,32.71,62.069,39.187,39.187,0,0,0,17.483-4.081,8.561,8.561,0,0,0,3.207.633h22.414a10.345,10.345,0,0,0,0-20.69ZM97.241,75.1H85.586a1.727,1.727,0,0,1-1.724-1.724,5.179,5.179,0,0,0-5.172-5.172H59.724a1.724,1.724,0,0,1,0-3.448H71.793a5.172,5.172,0,1,0,0-10.345H64.9a1.724,1.724,0,0,1,0-3.448H82.619A36.182,36.182,0,0,1,97.241,75.1ZM16.621,54.414a5.179,5.179,0,0,1-.171-10.355l1.779.048.245-1.466a8.607,8.607,0,0,1,16.181-2.45l.683,1.35,1.428-.5a6.8,6.8,0,0,1,2.269-.421,6.9,6.9,0,1,1,0,13.793Zm8.621,25.862a36.265,36.265,0,0,1,2.081-12.069h15.16a1.724,1.724,0,1,1,0,3.448H37.31A5.172,5.172,0,1,0,37.31,82a1.724,1.724,0,1,1,0,3.448H25.655A36.05,36.05,0,0,1,25.241,80.276Zm36.207,36.207A36.239,36.239,0,0,1,26.322,88.9H37.31a5.172,5.172,0,0,0,0-10.345,1.724,1.724,0,1,1,0-3.448h5.172a5.172,5.172,0,0,0,0-10.345H28.755a36,36,0,0,1,4.29-6.9h5.99A10.355,10.355,0,0,0,49.379,47.517a10.151,10.151,0,0,0-.091-1.3,35.665,35.665,0,0,1,27.481,1.3H64.9a5.172,5.172,0,1,0,0,10.345h6.9a1.724,1.724,0,1,1,0,3.448H59.724a5.172,5.172,0,0,0,0,10.345H78.69a1.727,1.727,0,0,1,1.724,1.724,5.179,5.179,0,0,0,5.172,5.172H97.567c.028.576.088,1.141.088,1.724s-.048,1.15-.076,1.724H65.657a5.168,5.168,0,0,0-4.909,3.54l-.15.453a1.72,1.72,0,0,1-1.634,1.179H54.552a5.179,5.179,0,0,0-5.172,5.172v1.724a1.727,1.727,0,0,1-1.724,1.724H45.931a5.172,5.172,0,0,0,0,10.345H58a1.727,1.727,0,0,1,1.724,1.724,5.179,5.179,0,0,0,5.172,5.172h10.39c.134.176.276.347.422.512A35.756,35.756,0,0,1,61.448,116.483Zm12.069-8.621a8.613,8.613,0,0,0,.174,1.724H64.9a1.727,1.727,0,0,1-1.724-1.724A5.179,5.179,0,0,0,58,102.69H45.931a1.724,1.724,0,1,1,0-3.448h1.724a5.179,5.179,0,0,0,5.172-5.172V92.345a1.727,1.727,0,0,1,1.724-1.724h4.412a5.168,5.168,0,0,0,4.909-3.54l.15-.453a1.72,1.72,0,0,1,1.634-1.179h31.6a36.127,36.127,0,0,1-1.3,5.7,12.071,12.071,0,0,0-3.472-.528h0A12.016,12.016,0,0,0,80.9,99.329,8.636,8.636,0,0,0,73.517,107.862Zm31.034,5.172H82.138a5.179,5.179,0,0,1-.171-10.355l1.779.048.245-1.466a8.607,8.607,0,0,1,16.181-2.45l.683,1.35,1.428-.5a6.8,6.8,0,0,1,2.269-.421,6.9,6.9,0,1,1,0,13.793Z" transform="translate(0 -6.276)"/>
    </g>
  </g>
</svg>
