<svg xmlns="http://www.w3.org/2000/svg" width="82" height="81.999" viewBox="0 0 82 81.999">
  <g id="t2-ic2" transform="translate(-2 -2)">
    <g id="Stroke_copy" data-name="Stroke copy" transform="translate(3.356 3.367)">
      <g id="Group_96822" data-name="Group 96822">
        <g id="Group_96820" data-name="Group 96820" transform="translate(12.289 24.6)">
          <path id="Path_151325" data-name="Path 151325" d="M27.333,0A27.333,27.333,0,1,1,0,27.333,27.333,27.333,0,0,1,27.333,0Z" transform="translate(0.021 0)" fill="#7dc9ff"/>
          <path id="Path_151296" data-name="Path 151296" d="M48.905,63.523A27.285,27.285,0,0,1,24.325,24.3,27.322,27.322,0,1,0,63.919,59.013,27.2,27.2,0,0,1,48.905,63.523Z" transform="translate(-11.985 -19.79)" fill="#3ca8f4"/>
          <path id="Path_151297" data-name="Path 151297" d="M27.949,62.638a27.47,27.47,0,0,0,5.536.562c.922,0,1.834-.049,2.733-.137V55l-5.467,2.733Z" transform="translate(-6.131 -8.534)" fill="#8ad24a"/>
          <path id="Path_151298" data-name="Path 151298" d="M53.208,24.9A27.252,27.252,0,0,0,13.5,39.051l5.182,5.182-1.367,4.1V53.8h-4.9A27.37,27.37,0,0,0,27.735,73.13l7.347-8.4-9.567-4.1,12.3-6.833-9.567-4.1-4.1-8.2,4.1-5.467L39.182,41.5l4.1-5.467L54.215,33.3Z" transform="translate(-11.828 -21)" fill="#a6fc58"/>
          <path id="Path_151299" data-name="Path 151299" d="M57.5,44.313a27.184,27.184,0,0,0-2.972-12.35L38.368,47.047l5.467,5.467-6.84,18.239A27.319,27.319,0,0,0,57.5,44.313Z" transform="translate(-2.814 -16.98)" fill="#c4f236"/>
          <path id="Path_151300" data-name="Path 151300" d="M35.083,63.512,27.73,71.9A27.4,27.4,0,0,1,12.41,52.579h4.906V47.112l1.367-4.1-5.18-5.18a27.415,27.415,0,0,1,10.605-13.5A27.351,27.351,0,0,0,30.587,56.6l-5.07,2.815Z" transform="translate(-11.829 -19.779)" fill="#8ad24a"/>
          <path id="Path_151301" data-name="Path 151301" d="M54.767,49.69A27.361,27.361,0,0,1,37,64.259l3.772-10.072A26.986,26.986,0,0,0,54.767,49.69Z" transform="translate(-2.813 -10.48)" fill="#8ad24a"/>
        </g>
        <g id="Group_96821" data-name="Group 96821">
          <path id="Path_151302" data-name="Path 151302" d="M73.036,26.233a5.452,5.452,0,0,0-4-5.244A4.092,4.092,0,0,0,66.2,13.933c-.064,0-.124.016-.187.019a5.423,5.423,0,0,0-.693-1.61,4.078,4.078,0,0,0-5.68-5.766,5.442,5.442,0,0,0-4.373-2.21,5.544,5.544,0,0,0-.983.1,4.049,4.049,0,0,0-5.877-.379A15.61,15.61,0,0,0,42.7,3H38.107a7.2,7.2,0,0,0-1.2.1l-2.64.447a7.291,7.291,0,0,0-5.718,9.5L29.3,15.3h2.733l2-3.991A2.67,2.67,0,0,1,36.42,9.833h1.342a2.67,2.67,0,0,1,1.889.782L41.8,12.766a2.672,2.672,0,0,0,2.733.645,2.664,2.664,0,0,1,3.026,1.013,5.415,5.415,0,0,0,6.362,7.51c0,.067-.02.137-.02.2a4.088,4.088,0,0,0,3.523,4.041,5.411,5.411,0,0,0,6.218,8.011,4.088,4.088,0,1,0,7.182-3.579,5.445,5.445,0,0,0,2.21-4.373Z" transform="translate(6.241 -3)" fill="#93999a"/>
          <path id="Path_151303" data-name="Path 151303" d="M67.744,30.086a4.868,4.868,0,0,1-5.173-1.42A5.278,5.278,0,0,1,60.736,24.8a5.43,5.43,0,0,1,.79-2.724A4.088,4.088,0,0,1,58,18.033c0-.068.016-.137.021-.2-1.484.391-3.12.394-5.256-1.745a5.07,5.07,0,0,1-1.6-3.767,5.442,5.442,0,0,1,.487-2,2.661,2.661,0,0,0-3.08-.994A2.6,2.6,0,0,1,45.9,8.666a4.611,4.611,0,0,1-1.014-4.973l.2-.493A15.57,15.57,0,0,0,42.7,3H38.107a7.2,7.2,0,0,0-1.2.1l-2.64.447a7.291,7.291,0,0,0-5.718,9.5L29.3,15.3h2.733l2-3.991A2.67,2.67,0,0,1,36.42,9.833h1.342a2.67,2.67,0,0,1,1.889.782L41.8,12.766a2.672,2.672,0,0,0,2.733.645,2.664,2.664,0,0,1,3.026,1.013,5.415,5.415,0,0,0,6.362,7.51c0,.067-.02.137-.02.2a4.088,4.088,0,0,0,3.523,4.041,5.411,5.411,0,0,0,6.218,8.011,4.089,4.089,0,0,0,8.025-1.119h0a4.082,4.082,0,0,1-3.925-2.981Z" transform="translate(6.241 -3)" fill="#656b76"/>
          <path id="Path_151304" data-name="Path 151304" d="M28.6,3.727a4.284,4.284,0,0,0-3.417.667l-.615.41a1.789,1.789,0,0,1-2.034.066l-1.49-.995a1.777,1.777,0,0,0-2.553.717,1.747,1.747,0,0,1-1.532.922h-.608A8.883,8.883,0,0,1,12.4,4.43a2.684,2.684,0,0,0-1.2-.282A2.733,2.733,0,0,0,8.467,6.882,2.733,2.733,0,0,0,6.175,11.1a4.085,4.085,0,0,0-1.261,7.443,3.963,3.963,0,0,0,0,4.018,4.078,4.078,0,0,0,1.121,7.4A4.049,4.049,0,0,0,7.055,34.48,4.073,4.073,0,0,0,6.5,41.891a2.733,2.733,0,1,0,3.936,0,4.085,4.085,0,0,0,2.132-3.577,3.857,3.857,0,0,0-.041-.4,2.688,2.688,0,0,0,2.094.312A2.733,2.733,0,0,0,16.2,34.051,2.713,2.713,0,0,0,17.592,30a4.084,4.084,0,0,0,.137-7.927,4.078,4.078,0,0,0,.3-1.525,4.1,4.1,0,0,0,1.525-7.9,1.164,1.164,0,0,1,.161-.78L21.006,9.94a1.179,1.179,0,0,1,2.031.115,1.114,1.114,0,0,0,1.328.638l1.054-.351a1.2,1.2,0,0,1,1.66,1.357l-.846,3.382h4.1l.9-3.618A15.525,15.525,0,0,0,31.7,7.71h0A4.111,4.111,0,0,0,28.6,3.727Z" transform="translate(-2.99 -2.782)" fill="#93999a"/>
          <path id="Path_151305" data-name="Path 151305" d="M44.6,29.933H20V19H39.133L44.6,24.467Z" transform="translate(3.244 2.866)" fill="#fde947"/>
          <rect id="Rectangle_33188" data-name="Rectangle 33188" width="5.467" height="10.933" transform="translate(23.244 10.933)" fill="#57b7eb"/>
          <rect id="Rectangle_33189" data-name="Rectangle 33189" width="5.467" height="10.933" transform="translate(34.177 10.933)" fill="#57b7eb"/>
          <path id="Path_151306" data-name="Path 151306" d="M25.5,51.833a2.713,2.713,0,0,0-2.05.943,2.713,2.713,0,0,0-2.05-.943c-.083,0-.163.018-.243.025A4.086,4.086,0,0,0,17.3,49.1a4.1,4.1,0,1,0-8.2,0,4.1,4.1,0,1,0,1.577,7.883,2.733,2.733,0,0,0,5.046,0,4.092,4.092,0,0,0,3.868-.383,2.7,2.7,0,0,0,3.859-.243,2.733,2.733,0,1,0,2.05-4.524Z" transform="translate(-2.257 12.4)" fill="#93999a"/>
          <circle id="Ellipse_4395" data-name="Ellipse 4395" cx="2.733" cy="2.733" r="2.733" transform="translate(0.01 49.2)" fill="#93999a"/>
          <path id="Path_151307" data-name="Path 151307" d="M60.13,36.1a2.6,2.6,0,0,0-.359.037,2.722,2.722,0,0,0-2.374-1.4c-.083,0-.163.018-.243.025a4.082,4.082,0,0,0-7.842.41,2.713,2.713,0,0,0-4.051,1.394,2.733,2.733,0,1,0-1.531,5,2.683,2.683,0,0,0,.348-.056,2.71,2.71,0,0,0,4.768,0,2.484,2.484,0,0,0,.35.056,2.292,2.292,0,0,0,.239-.037,4.066,4.066,0,0,0,7.038,1.23,2.677,2.677,0,0,0,3.3-1.245,2.489,2.489,0,0,0,.353.052,2.733,2.733,0,1,0,0-5.467Z" transform="translate(10.946 7.632)" fill="#93999a"/>
          <path id="Path_151308" data-name="Path 151308" d="M68.167,49.733a2.716,2.716,0,0,0-1.367.379,2.624,2.624,0,0,0-2.289-.208,3.984,3.984,0,0,0-4.134-1.412,4.073,4.073,0,0,0-6.519.291,5.423,5.423,0,0,0-6.833,2.389A4.149,4.149,0,0,0,46.3,51.1a4.07,4.07,0,0,0-2.733,1.065A4.084,4.084,0,0,0,36.734,55.2a2.733,2.733,0,1,0,2.523,3.783,4.055,4.055,0,0,0,4.31-.748A4.07,4.07,0,0,0,46.3,59.3a2.733,2.733,0,0,0,4.968,1.568,5.458,5.458,0,0,0,10.065-2.934,5.544,5.544,0,0,0-.1-.983,4.26,4.26,0,0,0,.429-.41h.029A2.724,2.724,0,0,0,66.8,55.2a2.408,2.408,0,0,0-.037-.359l.041-.022a2.69,2.69,0,0,0,1.363.381,2.733,2.733,0,0,0,0-5.467Z" transform="translate(8.376 13.133)" fill="#93999a"/>
          <path id="Path_151309" data-name="Path 151309" d="M61.924,35.5a2.71,2.71,0,0,1-1.79.683,2.489,2.489,0,0,1-.353-.049,2.677,2.677,0,0,1-3.3,1.245,4.066,4.066,0,0,1-7.038-1.23,2.29,2.29,0,0,1-.239.034,2.483,2.483,0,0,1-.35-.053,2.71,2.71,0,0,1-4.768,0,2.683,2.683,0,0,1-.348.053,2.71,2.71,0,0,1-1.79-.683,2.722,2.722,0,0,0,1.79,4.783,2.682,2.682,0,0,0,.348-.056,2.71,2.71,0,0,0,4.768,0,2.484,2.484,0,0,0,.35.056,2.29,2.29,0,0,0,.239-.037,4.066,4.066,0,0,0,7.038,1.23,2.677,2.677,0,0,0,3.3-1.245,2.489,2.489,0,0,0,.353.052,2.722,2.722,0,0,0,1.79-4.783Z" transform="translate(10.943 8.916)" fill="#656b76"/>
          <path id="Path_151310" data-name="Path 151310" d="M57.235,57.386a5.447,5.447,0,0,1-4.6-2.532,2.733,2.733,0,0,1-4.968-1.568,4.07,4.07,0,0,1-2.733-1.065,4.055,4.055,0,0,1-4.31.748,2.733,2.733,0,0,1-4.783.481,2.733,2.733,0,1,0,3.417,3.619,4.055,4.055,0,0,0,4.31-.748A4.07,4.07,0,0,0,46.3,57.386a2.733,2.733,0,0,0,4.968,1.568,5.458,5.458,0,0,0,10.065-2.934c0-.159-.031-.308-.046-.462A5.434,5.434,0,0,1,57.235,57.386Z" transform="translate(8.375 15.047)" fill="#656b76"/>
          <path id="Path_151311" data-name="Path 151311" d="M62.725,49.944a5.393,5.393,0,0,1-7.577,2.031,5.181,5.181,0,0,1,.081.8,5.426,5.426,0,0,1-.851,2.906A2.694,2.694,0,0,0,56.6,56.877a2.733,2.733,0,0,0,2.733-2.733,2.408,2.408,0,0,0-.037-.359l.041-.022a2.69,2.69,0,0,0,1.363.381A2.733,2.733,0,0,0,62.96,49.88C62.882,49.907,62.8,49.924,62.725,49.944Z" transform="translate(15.848 14.189)" fill="#93999a"/>
          <path id="Path_151312" data-name="Path 151312" d="M25.5,52.733a2.713,2.713,0,0,1-2.05-.943,2.7,2.7,0,0,1-3.859.243,4.092,4.092,0,0,1-3.868.383,2.733,2.733,0,0,1-5.046,0A4.077,4.077,0,0,1,5.251,50,4.048,4.048,0,0,0,5,51.367a4.1,4.1,0,0,0,5.677,3.783,2.733,2.733,0,0,0,5.046,0,4.092,4.092,0,0,0,3.868-.383,2.7,2.7,0,0,0,3.859-.243,2.72,2.72,0,0,0,4.4-3.157A2.725,2.725,0,0,1,25.5,52.733Z" transform="translate(-2.256 14.233)" fill="#656b76"/>
          <path id="Path_151313" data-name="Path 151313" d="M7.1,43.034A2.722,2.722,0,0,1,4.615,39.18a2.733,2.733,0,1,0,3.608,3.608,2.72,2.72,0,0,1-1.121.246Z" transform="translate(-2.992 10.266)" fill="#656b76"/>
          <path id="Path_151314" data-name="Path 151314" d="M11.542,40.846a2.528,2.528,0,0,1-.254-.616,2.733,2.733,0,0,1,.683-2.587,4.073,4.073,0,0,1,.556-7.411,4.049,4.049,0,0,1-1.021-4.524,4.078,4.078,0,0,1-1.126-7.4,3.963,3.963,0,0,1,0-4.018,4.085,4.085,0,0,1,1.261-7.443,2.673,2.673,0,0,1-.085-2.806A2.568,2.568,0,0,0,11.2,4,2.733,2.733,0,0,0,8.467,6.733a2.733,2.733,0,0,0-2.292,4.215,4.085,4.085,0,0,0-1.261,7.443,3.963,3.963,0,0,0,0,4.018,4.078,4.078,0,0,0,1.121,7.4,4.049,4.049,0,0,0,1.021,4.524A4.073,4.073,0,0,0,6.5,41.743a2.733,2.733,0,1,0,3.936,0,4.183,4.183,0,0,0,1.107-.9Z" transform="translate(-2.99 -2.633)" fill="#656b76"/>
          <path id="Path_151315" data-name="Path 151315" d="M30.733,16.467V11H28V21.933h5.467V19.2A2.733,2.733,0,0,1,30.733,16.467Z" transform="translate(6.177 -0.067)" fill="#4891d3"/>
          <path id="Path_151316" data-name="Path 151316" d="M22.733,16.467V11H20V21.933h5.467V19.2A2.733,2.733,0,0,1,22.733,16.467Z" transform="translate(3.244 -0.067)" fill="#4891d3"/>
          <path id="Path_151317" data-name="Path 151317" d="M31.185,25.833A8.453,8.453,0,0,1,22.892,19H20V29.933H44.6v-4.1Z" transform="translate(3.244 2.866)" fill="#fdc647"/>
        </g>
      </g>
    </g>
    <g id="Stroke_Cut_copy_2" data-name="Stroke Cut copy 2" transform="translate(2 2)">
      <g id="Group_96823" data-name="Group 96823">
        <path id="Path_151318" data-name="Path 151318" d="M36.467,45A1.367,1.367,0,0,0,35.1,46.367a3.732,3.732,0,0,1-1.666,3.112L31.608,50.7a1.367,1.367,0,1,0,1.517,2.274l1.826-1.218a6.46,6.46,0,0,0,2.882-5.386A1.367,1.367,0,0,0,36.467,45Z" transform="translate(8.634 13.766)"/>
        <path id="Path_151319" data-name="Path 151319" d="M39.338,39.125a1.367,1.367,0,0,0-2.274-1.517l-.336.5A4.3,4.3,0,0,1,31.8,39.8a1.368,1.368,0,1,0-.864,2.6A7.036,7.036,0,0,0,39,39.632Z" transform="translate(8.266 10.833)"/>
        <path id="Path_151320" data-name="Path 151320" d="M27.1,22H24.367a1.367,1.367,0,1,0,0,2.733H27.1A1.367,1.367,0,1,0,27.1,22Z" transform="translate(5.7 5.333)"/>
        <path id="Path_151321" data-name="Path 151321" d="M30.367,22a1.367,1.367,0,1,0,0,2.733H33.1A1.367,1.367,0,1,0,33.1,22Z" transform="translate(7.9 5.333)"/>
        <path id="Path_151322" data-name="Path 151322" d="M10.2,42.1a4.1,4.1,0,1,0-4.1,4.1A4.1,4.1,0,0,0,10.2,42.1Zm-5.467,0A1.367,1.367,0,1,1,6.1,43.467,1.367,1.367,0,0,1,4.733,42.1Z" transform="translate(-1.999 11.2)"/>
        <path id="Path_151323" data-name="Path 151323" d="M79.169,54.967a4.019,4.019,0,0,0-1.367.243A3.939,3.939,0,0,0,75.961,55a5.277,5.277,0,0,0-4.108-1.367,5.43,5.43,0,0,0-7.446.176,6.906,6.906,0,0,0-7.075,2.527,5.886,5.886,0,0,0-2.763.745,5.409,5.409,0,0,0-2.733-.745,5.475,5.475,0,0,0-5.34,4.291,4.11,4.11,0,0,0-2.748,3.007l-4.823,2.411a1.375,1.375,0,0,0-.575.547L36.056,70.6a26.213,26.213,0,0,1-2.964-.924L39.2,62.7a1.367,1.367,0,0,0-.489-2.157L31.7,57.537l9.865-5.48a1.367,1.367,0,0,0-.126-2.45l-9.107-3.9-3.5-7,2.91-3.87L41.658,39.8a1.367,1.367,0,0,0,1.7-.41l3.809-5.078,10.463-2.616a1.367,1.367,0,1,0-.664-2.651L46.037,31.774a1.367,1.367,0,0,0-.761.506l-3.417,4.554-9.914-4.957a1.367,1.367,0,0,0-1.7.4l-4.1,5.467a1.367,1.367,0,0,0-.13,1.431l4.1,8.2a1.367,1.367,0,0,0,.683.645L37.8,51.029l-9.865,5.48a1.41,1.41,0,0,0-.312.239,4,4,0,0,0-3.807.148,4.066,4.066,0,0,0-1.4-.507A5.467,5.467,0,0,0,18.9,53.737a5.467,5.467,0,0,0-10.66,0,5.467,5.467,0,0,0,2.195,10.708,4.1,4.1,0,0,0,6.265,0,5.49,5.49,0,0,0,3.183-.381,3.963,3.963,0,0,0,.912.335A28.563,28.563,0,0,0,57.931,69.4a4.045,4.045,0,0,0,4.183.026,6.825,6.825,0,0,0,11.5-3.8,4.044,4.044,0,0,0,1.454.273,4.108,4.108,0,0,0,3.869-2.733,4.1,4.1,0,1,0,.231-8.2Zm-32.8,13.415a4.029,4.029,0,0,0,4.5-1.2,5.457,5.457,0,0,0,3.7-.659,5.467,5.467,0,0,0,1.557.614c.016.051.041.1.059.145a25.777,25.777,0,0,1-9.815,3.758ZM35.9,62.315l-5.426,6.2a26.014,26.014,0,0,1-6.061-4.291A4.03,4.03,0,0,0,29.9,59.75Zm-16.707-.98a2.754,2.754,0,0,1-2.576.254,1.367,1.367,0,0,0-1.788.735,1.367,1.367,0,0,1-2.523,0,1.37,1.37,0,0,0-1.788-.738A2.733,2.733,0,1,1,9.47,56.333a1.367,1.367,0,0,0,1.367-1.367,2.733,2.733,0,1,1,5.467,0,1.367,1.367,0,0,0,1.367,1.367,2.733,2.733,0,0,1,2.565,1.841,1.5,1.5,0,0,0,1.535.892,1.354,1.354,0,0,1,1.021.476,1.41,1.41,0,0,0,2.058,0,1.367,1.367,0,1,1,0,1.782,1.41,1.41,0,0,0-2.058,0,1.33,1.33,0,0,1-1.922.123A1.367,1.367,0,0,0,19.195,61.335Zm19.7,9.8L40.517,68.3l3.119-1.559v4.57c-.455.023-.909.052-1.367.052A25.833,25.833,0,0,1,38.9,71.137Zm39.6-10.9a1.442,1.442,0,0,0-1.387,0,1.4,1.4,0,0,0-.683,1.42,1.249,1.249,0,0,1,.011.142,1.367,1.367,0,0,1-1.367,1.367,1.346,1.346,0,0,1-1.182-.705,1.409,1.409,0,0,0-1.319-.692,1.367,1.367,0,0,0-.928.461,2.753,2.753,0,0,1-.287.273,1.367,1.367,0,0,0-.461,1.287,4.086,4.086,0,0,1-7.47,2.936A1.367,1.367,0,0,0,62.3,66.1h-.03a1.367,1.367,0,0,0-1.118.581,1.367,1.367,0,0,1-2.483-.777A1.367,1.367,0,0,0,57.3,64.533a2.7,2.7,0,0,1-1.819-.712,1.367,1.367,0,0,0-1.829,0,2.7,2.7,0,0,1-2.87.5A1.367,1.367,0,0,0,49,65.058a1.367,1.367,0,1,1-1.261-1.891A1.367,1.367,0,0,0,49.1,61.8a2.733,2.733,0,0,1,2.733-2.733,2.7,2.7,0,0,1,1.819.712,1.367,1.367,0,0,0,1.829,0,2.7,2.7,0,0,1,1.819-.712,2.613,2.613,0,0,1,.477.052,1.367,1.367,0,0,0,1.432-.676,4.149,4.149,0,0,1,5.122-1.8,1.367,1.367,0,0,0,1.65-.489,2.8,2.8,0,0,1,4.34-.191,1.367,1.367,0,0,0,1.367.455,2.62,2.62,0,0,1,2.754.942,1.367,1.367,0,0,0,1.525.428,1.24,1.24,0,0,1,1.14.1,1.367,1.367,0,0,0,1.375,0,1.361,1.361,0,1,1,.011,2.345Z" transform="translate(-1.269 7.9)"/>
        <path id="Path_151324" data-name="Path 151324" d="M5.383,22.826A1.367,1.367,0,0,0,3.45,22.9a5.439,5.439,0,0,0,1.332,8.443,5.305,5.305,0,0,0-.049.722,5.393,5.393,0,0,0,.661,2.6,5.422,5.422,0,0,0-.354,8.147,4.142,4.142,0,0,0-.18,2.58,4.071,4.071,0,0,0,3.121,2.985,4.171,4.171,0,0,0,.851.092,4.1,4.1,0,0,0,3.8-5.654,5.458,5.458,0,0,0,1.5-2.546,4.1,4.1,0,0,0,4.161-5.057,4.079,4.079,0,0,0,1.42-3.842,5.447,5.447,0,0,0,.525-9.181,5.467,5.467,0,0,0,1.387-9.567l.724-1.086a2.431,2.431,0,0,0,2.821,1.043l.9-.387L25.8,13.22a1.341,1.341,0,0,0-.57,1.08V32.814A28.441,28.441,0,0,0,14.3,55.3a1.367,1.367,0,0,0,2.733,0,26.088,26.088,0,0,1,.891-6.743l3.007,3.007-1.093,3.3a1.367,1.367,0,0,0-.071.437v2.733a1.367,1.367,0,1,0,2.733,0V55.521l1.3-3.89a1.367,1.367,0,0,0-.331-1.4l-4.577-4.577a25.766,25.766,0,0,1,6.385-9.293,1.349,1.349,0,0,0,1.326,1.17H51.2a1.367,1.367,0,0,0,1.367-1.367V31.215A25.83,25.83,0,0,1,65.315,42.139a5.413,5.413,0,0,0-2.48,2.288,4.149,4.149,0,0,0-3.844,1.42A4.1,4.1,0,0,0,55.013,52.6l-4.748,4.432A1.367,1.367,0,0,0,50.231,59l4.1,4.1a1.367,1.367,0,1,0,1.933-1.933l-3.1-3.1,4.459-4.161c.031,0,.06.012.09.015a4.064,4.064,0,0,0,5.519.547,5.419,5.419,0,0,0,7.992.8,4.059,4.059,0,0,0,3.526-1.349,4.1,4.1,0,0,0,1.975-7.487A1.367,1.367,0,0,0,75.2,48.7a1.367,1.367,0,0,1-.733,2.5h-.008l-.2-.033a1.382,1.382,0,0,0-1.367.692,1.263,1.263,0,0,1-1.647.622,1.367,1.367,0,0,0-1.525.428,2.7,2.7,0,0,1-4.682-.82,1.367,1.367,0,0,0-1.416-.916l-.124.018-.165-.027a1.367,1.367,0,0,0-1.367.694,1.387,1.387,0,0,1-2.375,0,1.367,1.367,0,0,0-1.38-.7c-.081.011-.161.027-.165.044a1.367,1.367,0,1,1,.765-2.5,1.367,1.367,0,0,0,2.05-.683,1.39,1.39,0,0,1,2.019-.7,1.367,1.367,0,0,0,2.075-.839,2.709,2.709,0,0,1,2.446-2.1h.023c.061,0,.122-.016.184-.016a2.733,2.733,0,0,1,2.565,1.841,1.367,1.367,0,0,0,2.582-.9,5.467,5.467,0,0,0-4.521-3.626A28.581,28.581,0,0,0,49.911,27.473l-3.2-3.2a1.367,1.367,0,0,0-.973-.4H44.367V14.3a1.328,1.328,0,0,0-.193-.659l.676-1.354a1.3,1.3,0,0,1,1.167-.72h1.342a1.313,1.313,0,0,1,.922.381L50.433,14.1a4.018,4.018,0,0,0,4.131.976,1.268,1.268,0,0,1,1,.082,6.676,6.676,0,0,0-.269,1.876,6.833,6.833,0,0,0,7.01,6.833,5.514,5.514,0,0,0,2.855,3.511,6.649,6.649,0,0,0-.3,1.956,6.792,6.792,0,0,0,7.56,6.788,5.454,5.454,0,0,0,10.206-2.688,5.353,5.353,0,0,0-.469-2.195A6.735,6.735,0,0,0,84,26.6a6.833,6.833,0,0,0-3.28-5.812,5.412,5.412,0,0,0,.547-2.388,5.476,5.476,0,0,0-4.66-5.408c-.03-.074-.063-.148-.1-.22a5.363,5.363,0,0,0,.656-2.572,5.449,5.449,0,0,0-8.759-4.346A1.367,1.367,0,0,0,70.06,8.032a2.7,2.7,0,0,1,1.64-.566,2.713,2.713,0,0,1,2.143,4.4,1.367,1.367,0,0,0-.071,1.583,4.038,4.038,0,0,1,.517,1.205,1.4,1.4,0,0,0,1.382,1.028c.074,0,.146-.012.13-.018A2.733,2.733,0,0,1,78.533,18.4a2.7,2.7,0,0,1-.849,1.968,1.367,1.367,0,0,0,.577,2.3A4.069,4.069,0,0,1,79.6,29.88a1.367,1.367,0,0,0-.273,1.92,2.717,2.717,0,1,1-4.776,2.377,1.367,1.367,0,0,0-1.7-.935,4.013,4.013,0,0,1-1.153.191,4.1,4.1,0,0,1-4.1-4.1,4.033,4.033,0,0,1,.6-2.09,1.367,1.367,0,0,0-.98-2.05,2.724,2.724,0,0,1-2.349-2.614c0-.041.019-.169.022-.212a1.367,1.367,0,0,0-1.715-1.389,4.023,4.023,0,0,1-1.04.154,4.1,4.1,0,0,1-4.1-4.1,4.058,4.058,0,0,1,.37-1.68,1.367,1.367,0,0,0-.124-1.345A4,4,0,0,0,53.7,12.481a1.3,1.3,0,0,1-1.335-.314l-2.151-2.151a4.008,4.008,0,0,0-2.855-1.182H46.017a4.015,4.015,0,0,0-3.612,2.232l-.933,1.868H39.433a5.916,5.916,0,0,1,4.66-7.679l2.642-.44a5.967,5.967,0,0,1,.968-.081h4.591a14.159,14.159,0,0,1,5.21.993,1.375,1.375,0,0,0,1.422-.266,2.759,2.759,0,0,1,3.911.254,1.367,1.367,0,0,0,1.287.462,4.107,4.107,0,0,1,.742-.077,1.367,1.367,0,0,0,0-2.733,3.917,3.917,0,0,0-.487.02,5.538,5.538,0,0,0-6.613-.477A16.858,16.858,0,0,0,52.293,2H47.7a8.726,8.726,0,0,0-1.423.118l-2.64.44A8.61,8.61,0,0,0,36.7,13.248a1.341,1.341,0,0,0-.529,1.052v9.567H33.433V14.3a1.346,1.346,0,0,0-.693-1.163l.19-.757a16.881,16.881,0,0,0,.5-4.086,5.494,5.494,0,0,0-4.129-5.3,5.635,5.635,0,0,0-4.51.853l-.616.41a.471.471,0,0,1-.518.066l-1.486-.991A3.029,3.029,0,0,0,19.731,2.9a3.266,3.266,0,0,0-2.072,1.64.38.38,0,0,1-.338.193h-.608a7.493,7.493,0,0,1-3.336-.942,4.013,4.013,0,0,0-1.811-.425,4.1,4.1,0,0,0-3.924,2.91A4.1,4.1,0,0,0,4.794,10.9a5.454,5.454,0,0,0-.245,9.378,1.367,1.367,0,0,0,1.462-2.31,2.72,2.72,0,0,1,.838-4.957,1.367,1.367,0,0,0,.839-2.075,1.367,1.367,0,0,1,1.145-2.1A1.367,1.367,0,0,0,10.2,7.467,1.367,1.367,0,0,1,11.567,6.1a1.316,1.316,0,0,1,.592.137,10.076,10.076,0,0,0,4.555,1.23h.608a3.106,3.106,0,0,0,2.742-1.64.528.528,0,0,1,.327-.273.307.307,0,0,1,.264.048l1.487.991a3.153,3.153,0,0,0,3.553-.066l.618-.41a2.911,2.911,0,0,1,2.311-.481A2.759,2.759,0,0,1,30.7,8.293a14.113,14.113,0,0,1-.422,3.417l-.3,1.216H28.692l.079-.317a2.505,2.505,0,0,0-.724-2.449,2.67,2.67,0,0,0-2.694-.537l-.8.266a2.546,2.546,0,0,0-4.319-.13L18.947,11.7a2.512,2.512,0,0,0-.383,1.685,1.367,1.367,0,0,0,.849,1.121A2.733,2.733,0,0,1,18.4,19.767a1.367,1.367,0,0,0-1.367,1.367,2.733,2.733,0,0,1-.2,1.017,1.367,1.367,0,0,0,.912,1.827,2.717,2.717,0,0,1-.092,5.277,1.367,1.367,0,0,0-.839,2.075,1.334,1.334,0,0,1,.221.738,1.367,1.367,0,0,1-.92,1.281,1.367,1.367,0,0,0-.683,2.05,1.367,1.367,0,0,1-.79,2.086,1.317,1.317,0,0,1-1.044-.159,1.367,1.367,0,0,0-2.068,1.305l.038.271a2.733,2.733,0,0,1-1.425,2.379,1.367,1.367,0,0,0-.325,2.144,1.367,1.367,0,1,1-1.965,0,1.367,1.367,0,0,0-.325-2.144,2.706,2.706,0,0,1,.369-4.932,1.367,1.367,0,0,0,.456-2.285,2.694,2.694,0,0,1-.884-2,2.733,2.733,0,0,1,.2-1.017,1.367,1.367,0,0,0-.912-1.827A2.733,2.733,0,0,1,4.733,26.6a2.7,2.7,0,0,1,.725-1.841A1.367,1.367,0,0,0,5.383,22.826ZM30.7,15.667V18.4H27.967V15.667Zm19.133,15.6V34.8H27.967V26.6h17.2ZM38.9,15.667h2.733V18.4H38.9Zm0,5.467h2.733v2.733H38.9ZM27.967,23.866V21.133H30.7v2.733Z" transform="translate(-2 -2)"/>
      </g>
    </g>
  </g>
</svg>
