<svg xmlns="http://www.w3.org/2000/svg" width="150" height="150" viewBox="0 0 150 150">
  <g id="t3-ic9" transform="translate(-720.5 -2224)">
    <circle id="Ellipse_4383" data-name="Ellipse 4383" cx="75" cy="75" r="75" transform="translate(720.5 2224)" fill="#fff"/>
    <g id="industrial" transform="translate(744.349 2246)">
      <g id="Group_97101" data-name="Group 97101" transform="translate(2.764 2.613)">
        <g id="Group_97091" data-name="Group 97091" transform="translate(0 67.742)">
          <path id="Path_151860" data-name="Path 151860" d="M27.806,44l6.452,29.032H2L8.452,44Z" transform="translate(-2 -44)" fill="#fde947"/>
        </g>
        <g id="Group_97092" data-name="Group 97092" transform="translate(32.258 67.742)">
          <path id="Path_151861" data-name="Path 151861" d="M47.806,44l6.452,29.032H22L28.452,44Z" transform="translate(-22 -44)" fill="#8ad24a"/>
        </g>
        <g id="Group_97093" data-name="Group 97093" transform="translate(64.516 67.742)">
          <path id="Path_151862" data-name="Path 151862" d="M67.806,44l6.452,29.032H42L48.452,44Z" transform="translate(-42 -44)" fill="#fde947"/>
        </g>
        <g id="Group_97094" data-name="Group 97094" transform="translate(3.226 58.065)">
          <path id="Path_151863" data-name="Path 151863" d="M29.806,40.613a2.617,2.617,0,0,1-.274,1.161l-2.952,5.9H7.226l-2.952-5.9A2.61,2.61,0,0,1,6.613,38H27.194A2.6,2.6,0,0,1,29.806,40.613Z" transform="translate(-4 -38)" fill="#8ad24a"/>
        </g>
        <g id="Group_97095" data-name="Group 97095" transform="translate(35.484 58.065)">
          <path id="Path_151864" data-name="Path 151864" d="M49.806,40.613a2.617,2.617,0,0,1-.274,1.161l-2.952,5.9H27.226l-2.952-5.9A2.61,2.61,0,0,1,26.613,38H47.194A2.6,2.6,0,0,1,49.806,40.613Z" transform="translate(-24 -38)" fill="#fde947"/>
        </g>
        <g id="Group_97096" data-name="Group 97096" transform="translate(67.742 58.065)">
          <path id="Path_151865" data-name="Path 151865" d="M69.806,40.613a2.617,2.617,0,0,1-.274,1.161l-2.952,5.9H47.226l-2.952-5.9A2.61,2.61,0,0,1,46.613,38H67.194A2.6,2.6,0,0,1,69.806,40.613Z" transform="translate(-44 -38)" fill="#8ad24a"/>
        </g>
        <g id="Group_97097" data-name="Group 97097" transform="translate(0 19.355)">
          <path id="Path_151866" data-name="Path 151866" d="M26.194,14v8.065l2.694,2.694a7.313,7.313,0,0,1-.484,10.79l-3.758,3.129a9.137,9.137,0,0,0-.613,13.484l.548.548h-12.9l-.548-.548a9.137,9.137,0,0,1,.613-13.484l4.806-4a4.425,4.425,0,0,0,1.581-3.387A4.406,4.406,0,0,0,13.742,26.9h-6.9a4.839,4.839,0,0,1,0-9.677H21.355A3.235,3.235,0,0,0,24.581,14Z" transform="translate(-2 -14)" fill="#ccd1d9"/>
        </g>
        <g id="Group_97098" data-name="Group 97098" transform="translate(9.677 3.226)">
          <path id="Path_151867" data-name="Path 151867" d="M51.548,5.613a4.832,4.832,0,0,0,4.839,4.839H49.935a4.827,4.827,0,0,0-3.419,1.419,4.64,4.64,0,0,0-1.161,1.9l-.258-.1H38.645a8.025,8.025,0,0,0-7.9,6.468l-.161-.016H20.9A3.249,3.249,0,0,0,17.677,16.9H14.452a6.452,6.452,0,1,1,0-12.9H51.839A4.471,4.471,0,0,0,51.548,5.613Z" transform="translate(-8 -4)" fill="#ccd1d9"/>
        </g>
        <g id="Group_97099" data-name="Group 97099" transform="translate(32.258 9.677)">
          <path id="Path_151868" data-name="Path 151868" d="M36.774,11.323a4.64,4.64,0,0,1,1.161-1.9A4.827,4.827,0,0,1,41.355,8H63.935a8.065,8.065,0,1,1,0,16.129H54a6.2,6.2,0,0,0-5.161,9.629l1.081,1.613a6.564,6.564,0,0,1,1.113,3.661,6.559,6.559,0,0,1-4.145,6.113l-.21.081a5.912,5.912,0,0,0-1.984,9.661l1.5,1.5H33.29l-2-3a7.241,7.241,0,0,1-1.226-4.048A7.248,7.248,0,0,1,33.742,43l4.016-2.29A7.152,7.152,0,0,0,34.21,27.355H30.065A8.067,8.067,0,0,1,22,19.29a7.45,7.45,0,0,1,.161-1.6,8.025,8.025,0,0,1,7.9-6.468h6.452Z" transform="translate(-22 -8)" fill="#ccd1d9"/>
        </g>
        <g id="Group_97100" data-name="Group 97100" transform="translate(53.226)">
          <path id="Path_151869" data-name="Path 151869" d="M78.548,7.774a5.656,5.656,0,0,1-1,3.226,5.713,5.713,0,0,1-2.629,2.129l-.355.145a6.484,6.484,0,0,0-.935,11.581l.516.306a9.1,9.1,0,0,1,4.4,7.79,9.132,9.132,0,0,1-5.71,8.435l-4.871,1.935a8.839,8.839,0,0,0-4.613,12.161l2.29,4.581H55.968l-2.5-1.871a9.873,9.873,0,0,1-.242-15.613l.968-.774a9.012,9.012,0,0,0,.742-13.419l-.581-.581h1.613a8.065,8.065,0,0,0,0-16.129H39.839A4.832,4.832,0,0,1,35,6.839a4.471,4.471,0,0,1,.29-1.613,4.577,4.577,0,0,1,1.129-1.806A4.827,4.827,0,0,1,39.839,2H72.774a5.768,5.768,0,0,1,5.774,5.774Z" transform="translate(-35 -2)" fill="#ccd1d9"/>
        </g>
      </g>
      <path id="Path_151870" data-name="Path 151870" d="M101.55,101,94.785,70.565l2.7-5.389A4.224,4.224,0,0,0,93.7,59.065H87.632l-1.847-3.7a7.217,7.217,0,0,1,3.774-9.931l4.869-1.947a10.7,10.7,0,0,0,1.529-19.1l-.5-.3a4.874,4.874,0,0,1,.7-8.7l.358-.144A7.383,7.383,0,0,0,93.768,1H60.829a6.431,6.431,0,0,0-5.555,3.226H18.893a8.065,8.065,0,0,0,0,16.129h3.226a1.613,1.613,0,0,1,0,3.226H7.6a6.452,6.452,0,0,0,0,12.9h6.9A2.781,2.781,0,0,1,16.279,41.4l-4.808,4.006a10.729,10.729,0,0,0-2.4,13.656H8.6a4.224,4.224,0,0,0-3.777,6.111l2.7,5.389L.753,101Zm-40.1-38.71a1,1,0,0,1,.892,1.442l-2.5,5.01H42.471l-2.5-5.008a.985.985,0,0,1-.106-.447,1,1,0,0,1,1-1Zm-2.584-4.247A4.3,4.3,0,0,1,60.3,51.01l.211-.084A8.194,8.194,0,0,0,64.29,38.769L63.209,37.15a4.58,4.58,0,0,1,3.81-7.118h7.658l.113.113a7.4,7.4,0,0,1-.608,11.01l-.981.784a11.472,11.472,0,0,0-.818,17.2,4.221,4.221,0,0,0-3.49,4.148,4.266,4.266,0,0,0,.445,1.889l2.7,5.389L67.28,91.953,62.527,70.565l2.7-5.389a4.224,4.224,0,0,0-3.777-6.111H59.884ZM42.768,71.968H59.537l5.734,25.806H37.034Zm54.76,25.806H69.292l5.734-25.806H91.795ZM94.7,63.287a.992.992,0,0,1-.1.445l-2.5,5.01H74.729l-2.5-5.008a.985.985,0,0,1-.106-.447,1,1,0,0,1,1-1H93.7a1,1,0,0,1,1,1ZM60.829,4.226H93.768a4.158,4.158,0,0,1,1.544,8.019l-.358.142a8.06,8.06,0,0,0-5.092,7.521,8.143,8.143,0,0,0,3.932,6.947l.5.3A7.467,7.467,0,0,1,93.232,40.5l-4.869,1.948A10.444,10.444,0,0,0,82.9,56.813l1.126,2.252H77.495l-2.074-1.556a8.256,8.256,0,0,1-.2-13.05l.981-.784a10.6,10.6,0,0,0,2.442-13.8,9.672,9.672,0,0,0-1.681-19.2H60.829a3.226,3.226,0,0,1,0-6.452Zm-47.8,54.761a7.525,7.525,0,0,1,.5-11.1l4.808-4.006A6.007,6.007,0,0,0,14.5,33.258H7.6a3.226,3.226,0,0,1,0-6.452H22.119a4.839,4.839,0,1,0,0-9.677H18.893a4.839,4.839,0,0,1,0-9.677H54.377a6.385,6.385,0,0,0,.9,3.226h-.9a6.452,6.452,0,0,0,0,12.9V20.355a3.226,3.226,0,0,1,0-6.452H76.958a6.452,6.452,0,1,1,0,12.9H67.019a7.8,7.8,0,0,0-6.492,12.132l1.081,1.621a4.971,4.971,0,0,1-2.29,7.371l-.211.084a7.512,7.512,0,0,0-3.529,11.05h-8.4l-1.519-2.281a5.692,5.692,0,0,1,1.911-8.1l4.01-2.29a8.757,8.757,0,0,0-4.345-16.361H43.087a6.452,6.452,0,1,1,0-12.9H44.7V13.9H43.087a9.677,9.677,0,1,0,0,19.355h4.145a5.532,5.532,0,0,1,2.745,10.335l-4.01,2.29a8.916,8.916,0,0,0-3,12.689l.327.492h-2.44a4.224,4.224,0,0,0-3.779,6.111l2.7,5.389L35.022,91.953,30.269,70.565l2.7-5.389a4.224,4.224,0,0,0-3.777-6.111H26.013l-.077-.077a7.525,7.525,0,0,1,.5-11.1L30.2,44.753a8.923,8.923,0,0,0,.6-13.165l-2.7-2.7-2.281,2.281,2.7,2.7a5.7,5.7,0,0,1-.382,8.4l-3.76,3.132a10.731,10.731,0,0,0-2.4,13.658h-8.86ZM8.6,62.29H29.187a1,1,0,0,1,.892,1.442l-2.5,5.01H10.213l-2.5-5.008a.985.985,0,0,1-.106-.447,1,1,0,0,1,1-1Zm1.91,9.677H27.279l5.734,25.806H4.776Z" transform="translate(0 0)"/>
    </g>
  </g>
</svg>
