<svg xmlns="http://www.w3.org/2000/svg" width="89.312" height="107.174" viewBox="0 0 89.312 107.174">
  <g id="t3-ic2" transform="translate(-56 -16)">
    <path id="Path_151371" data-name="Path 151371" d="M327.311,479.205a5.333,5.333,0,0,0,3.726,1.518H334.3a3.572,3.572,0,0,1-2.526-1.046A3.572,3.572,0,0,0,327.311,479.205Z" transform="translate(-210.733 -359.335)" fill="#48add9"/>
    <path id="Path_151372" data-name="Path 151372" d="M347.358,153.175a11.008,11.008,0,0,0,0,6.962l.656,1.969a10.983,10.983,0,0,1,.565,3.481v25.007a5.36,5.36,0,0,1-5.359,5.359h-3.878a3.556,3.556,0,0,1-1.369-.272,3.636,3.636,0,0,1-1-.63c-.056-.047-.109-.1-.159-.145s-.1-.1-.154-.145c-.089-.078-.181-.152-.277-.221-.049-.038-.1-.071-.152-.107a3.579,3.579,0,0,0-4.468.473,3.574,3.574,0,0,1-2.528,1.047h-3.878A5.36,5.36,0,0,1,320,190.595V165.587a10.98,10.98,0,0,1,.565-3.481l.656-1.969a11.008,11.008,0,0,0,0-6.962l-.656-1.969a10.98,10.98,0,0,1-.565-3.481V140.3a21.439,21.439,0,0,1,3.99-12.454l4.941-6.918V112h10.717v8.931l4.939,6.915A21.42,21.42,0,0,1,348.58,140.3v7.422a10.983,10.983,0,0,1-.565,3.481l-.031.092Z" transform="translate(-205.054 -74.565)" fill="#348fd9"/>
    <path id="Path_151373" data-name="Path 151373" d="M379.649,140.3v7.422a10.983,10.983,0,0,1-.565,3.481l-.031.092-.625,1.878a11.007,11.007,0,0,0,0,6.962l.656,1.969a10.983,10.983,0,0,1,.565,3.481v25.007a5.36,5.36,0,0,1-5.359,5.359h-3.572a4.483,4.483,0,0,1-2.675-.9c-.056-.047-.109-.1-.159-.145s-.1-.1-.154-.145c-.089-.078-.181-.152-.277-.221-.051-.036-.1-.071-.154-.1l0,0a5.334,5.334,0,0,0,1.63-3.838V165.587a10.982,10.982,0,0,0-.565-3.481l-.656-1.969a11.008,11.008,0,0,1,0-6.962l.625-1.878.031-.092a10.982,10.982,0,0,0,.565-3.481V140.3a21.421,21.421,0,0,0-3.992-12.457L360,120.931V112h10.717v8.931l4.939,6.915A21.42,21.42,0,0,1,379.649,140.3Z" transform="translate(-236.123 -74.565)" fill="#3086cd"/>
    <path id="Path_151374" data-name="Path 151374" d="M330.717,237.435l-1.786,3.572,1.786,3.572v3.572l-1.786,3.572,1.786,3.573v3.572l-1.786,3.572,1.786,3.573v7.145a3.676,3.676,0,0,1-2.554,3.572h-2.8A5.36,5.36,0,0,1,320,271.373V246.366a10.98,10.98,0,0,1,.565-3.481l.656-1.969a11.008,11.008,0,0,0,0-6.962l-.656-1.969A10.98,10.98,0,0,1,320,228.5v-7.422a21.414,21.414,0,0,1,.612-5.081h2.961v7.145l5.171,2.586a3.573,3.573,0,0,1,1.974,3.2Z" transform="translate(-205.054 -155.344)" fill="#3086cd"/>
    <path id="Path_151375" data-name="Path 151375" d="M110.442,61.511v54.034a12.057,12.057,0,0,1-19.291,9.646,6.551,6.551,0,0,0-7.859,0A12.058,12.058,0,0,1,64.1,117.128a12.347,12.347,0,0,1-.1-1.583V61.511A23.219,23.219,0,0,1,80.071,39.424L80.076,24h14.29V39.422A23.2,23.2,0,0,1,110.442,61.511Z" transform="translate(-6.214 -6.214)" fill="#3ca8f4"/>
    <path id="Path_151376" data-name="Path 151376" d="M110.8,156.31v54.034a12.057,12.057,0,0,1-19.291,9.646,6.551,6.551,0,0,0-7.859,0,12.058,12.058,0,0,1-19.189-8.063c15.295-10.537,31.616-30.085,43.953-65.877A23.1,23.1,0,0,1,110.8,156.31Z" transform="translate(-6.571 -101.012)" fill="#48add9"/>
    <rect id="Rectangle_33192" data-name="Rectangle 33192" width="46.233" height="39.273" transform="translate(57.988 59.045)" fill="#fde947"/>
    <rect id="Rectangle_33193" data-name="Rectangle 33193" width="14.417" height="4.971" transform="translate(73.897 28.72)" fill="#48add9"/>
    <path id="Path_151377" data-name="Path 151377" d="M161.216,208v39.3H129.37c8.5-9.286,16.833-21.984,24.17-39.3Z" transform="translate(-56.988 -149.13)" fill="#fdc647"/>
    <path id="Path_151378" data-name="Path 151378" d="M263.221,241.007l1.786,3.572v3.572l-1.786,3.572,1.786,3.573v3.572l-1.786,3.572,1.786,3.573v7.145a3.572,3.572,0,0,1-3.572,3.572H243.572A3.572,3.572,0,0,1,240,273.16v-7.145l1.786-3.573L240,258.87V255.3l1.786-3.573L240,248.152V244.58l1.786-3.572L240,237.435v-8.509a3.573,3.573,0,0,1,1.974-3.2l5.171-2.585V216h10.717v7.145l5.171,2.586a3.572,3.572,0,0,1,1.974,3.2v8.509Z" transform="translate(-142.917 -155.344)" fill="#60d1e0"/>
    <path id="Path_151379" data-name="Path 151379" d="M302.29,237.435l-1.786,3.572,1.786,3.572v3.572l-1.786,3.572,1.786,3.573v3.572l-1.786,3.572,1.786,3.573v7.145a3.572,3.572,0,0,1-3.572,3.572h-7.145a3.572,3.572,0,0,0,3.573-3.572v-7.145l-1.786-3.573,1.786-3.572V255.3l-1.786-3.573,1.786-3.572V244.58l-1.786-3.572,1.786-3.572v-8.509a3.573,3.573,0,0,0-1.974-3.2L288,223.145V216h7.145v7.145l5.171,2.586a3.573,3.573,0,0,1,1.974,3.2Z" transform="translate(-180.199 -155.344)" fill="#5ac6d4"/>
    <ellipse id="Ellipse_4399" data-name="Ellipse 4399" cx="5.468" cy="3.48" rx="5.468" ry="3.48" transform="translate(104.221 57.056)" fill="#3fb7c7"/>
    <path id="Path_151380" data-name="Path 151380" d="M350.071,120.593l-4.6-6.447v-8.36A1.786,1.786,0,0,0,343.688,104H332.97a1.786,1.786,0,0,0-1.786,1.786v8.36l-4.6,6.445a23.243,23.243,0,0,0-1.388,2.187l3.119,1.742a19.661,19.661,0,0,1,1.176-1.853l4.93-6.913a1.786,1.786,0,0,0,.332-1.036v-7.145H341.9v7.145a1.786,1.786,0,0,0,.332,1.037l4.935,6.92a19.3,19.3,0,0,1,2.414,4.547h-13.04v3.572H350.52a19.946,19.946,0,0,1,.313,3.3v.268h-14.29v3.572h14.29v3.572h-14.29v3.572h13.6l-.43,1.311a12.69,12.69,0,0,0,0,8.088l.646,1.972a9.229,9.229,0,0,1,.48,2.919h-14.29v3.572h14.29v3.572h-14.29v3.572h14.29v3.572h-14.29v3.572h14.29v7.145a3.576,3.576,0,0,1-3.572,3.572h-3.876a1.791,1.791,0,0,1-1.273-.53,5.448,5.448,0,0,0-7.564,0l2.526,2.526a1.791,1.791,0,0,1,2.512,0,5.34,5.34,0,0,0,3.8,1.577h3.876a7.153,7.153,0,0,0,7.145-7.145V159.373a12.782,12.782,0,0,0-.66-4.04l-.646-1.972a9.124,9.124,0,0,1,0-5.846l.647-1.975a16.039,16.039,0,0,0,.494-1.975,13.748,13.748,0,0,0,.163-2.055V134.1a23.748,23.748,0,0,0-.658-5.513A22.856,22.856,0,0,0,350.071,120.593Z" transform="translate(-209.093 -68.351)"/>
    <path id="Path_151381" data-name="Path 151381" d="M56,55.3v54.034a13.859,13.859,0,0,0,13.843,13.843,13.72,13.72,0,0,0,8.309-2.771,4.762,4.762,0,0,1,5.711,0,13.762,13.762,0,0,0,7.795,2.761l.133-3.571a10.187,10.187,0,0,1-5.778-2.045,8.351,8.351,0,0,0-10.009,0,10.169,10.169,0,0,1-6.16,2.053,10.283,10.283,0,0,1-10.271-10.271V99.953H91.725V96.381H59.572V60.656h39.3V57.084h-39.3V55.3a21.385,21.385,0,0,1,14.84-20.4,1.785,1.785,0,0,0,1.236-1.7V28.5H86.366v4.7A1.785,1.785,0,0,0,87.6,34.9a21.352,21.352,0,0,1,14.778,18.747l3.562-.272a24.9,24.9,0,0,0-16-21.438V28.5h3.572V24.931H89.938V17.786A1.786,1.786,0,0,0,88.152,16H73.862a1.786,1.786,0,0,0-1.786,1.786v7.145H68.5V28.5h3.572v3.434A24.94,24.94,0,0,0,56,55.3ZM75.648,19.572H86.366v5.359H75.648Z"/>
    <path id="Path_151382" data-name="Path 151382" d="M123.57,118.039l1.978,2.974a14.41,14.41,0,0,1,3.544-1.708l-1.1-3.4a17.973,17.973,0,0,0-4.423,2.133Z" transform="translate(-52.483 -77.599)"/>
    <path id="Path_151383" data-name="Path 151383" d="M92.036,147.38a14.312,14.312,0,0,1,3.882-8.3L93.341,136.6a17.916,17.916,0,0,0-4.857,10.386Z" transform="translate(-25.231 -93.672)"/>
    <rect id="Rectangle_33194" data-name="Rectangle 33194" width="3.977" height="3.977" transform="translate(62.96 64.016)"/>
    <rect id="Rectangle_33195" data-name="Rectangle 33195" width="3.977" height="15.908" transform="translate(62.96 71.473)"/>
    <rect id="Rectangle_33196" data-name="Rectangle 33196" width="3.977" height="5.468" transform="translate(102.233 74.953)"/>
    <path id="Path_151384" data-name="Path 151384" d="M246.29,192c-4.007,0-7.145,2.354-7.145,5.359V203.4l-4.175,2.1a5.336,5.336,0,0,0-2.97,4.8v8.5a1.787,1.787,0,0,0,.189.8l1.387,2.773-1.387,2.774a1.787,1.787,0,0,0-.188.8v3.572a1.787,1.787,0,0,0,.189.8l1.387,2.773-1.387,2.774a1.787,1.787,0,0,0-.188.8v3.572a1.787,1.787,0,0,0,.189.8l1.387,2.773-1.387,2.774a1.787,1.787,0,0,0-.188.8v7.145a5.367,5.367,0,0,0,5.359,5.359h17.862a5.678,5.678,0,0,0,1.214-.137,5.351,5.351,0,0,0,4.145-5.222v-7.145a1.787,1.787,0,0,0-.189-.8L259,243.8l1.387-2.774a1.786,1.786,0,0,0,.188-.8v-3.572a1.787,1.787,0,0,0-.189-.8L259,233.084l1.387-2.774a1.786,1.786,0,0,0,.188-.8v-3.572a1.787,1.787,0,0,0-.189-.8L259,222.366l1.387-2.774a1.786,1.786,0,0,0,.188-.8v-8.5a5.333,5.333,0,0,0-2.968-4.794l-4.177-2.1v-6.042C253.435,194.354,250.3,192,246.29,192Zm0,3.572c2.181,0,3.572,1.058,3.572,1.786s-1.392,1.786-3.572,1.786-3.573-1.058-3.573-1.786S244.109,195.572,246.29,195.572Zm9.722,13.119a1.781,1.781,0,0,1,1,1.6v8.081l-1.1,2.208H240.931v3.572H255.9l1.1,2.208v2.73l-1.1,2.208H240.931v3.572H255.9l1.1,2.208v2.73l-1.1,2.208H240.931v3.572H255.9l1.1,2.208v6.724a1.805,1.805,0,0,1-1.354,1.736,2.092,2.092,0,0,1-.433.05H237.359a1.792,1.792,0,0,1-1.422-.711,1.756,1.756,0,0,1-.365-1.075v-6.724l1.6-3.195a1.788,1.788,0,0,0,0-1.6l-1.6-3.195v-2.73l1.6-3.195a1.788,1.788,0,0,0,0-1.6l-1.6-3.195v-2.73l1.6-3.195a1.788,1.788,0,0,0,0-1.6l-1.6-3.195v-8.081a1.784,1.784,0,0,1,1-1.6l5.162-2.59a1.784,1.784,0,0,0,.986-1.6v-2.509a9.193,9.193,0,0,0,7.145,0V204.5a1.784,1.784,0,0,0,.986,1.6Z" transform="translate(-136.703 -136.703)"/>
  </g>
</svg>
