<svg xmlns="http://www.w3.org/2000/svg" width="150" height="150" viewBox="0 0 150 150">
  <g id="t3-ic10" transform="translate(-1141.5 -2224)">
    <circle id="Ellipse_4384" data-name="Ellipse 4384" cx="75" cy="75" r="75" transform="translate(1141.5 2224)" fill="#fff"/>
    <g id="suelo" transform="translate(1155.5 2238)">
      <path id="Path_151820" data-name="Path 151820" d="M111,24v87H24V25.5L28.5,24,36,28.5,48,24h6l9,4.5L72,24h6l9,3,6-3,6,3Z" transform="translate(-6.5 -6.5)" fill="#db8638"/>
      <path id="Path_151821" data-name="Path 151821" d="M111,139v63H24V137.5h4.5L33,142l7.5-3,4.5,3,9-6h3l6,6h4.5l3-3h3l3-3H90l4.5,3Z" transform="translate(-6.5 -97.5)" fill="#c47220"/>
      <path id="Path_151822" data-name="Path 151822" d="M111,294v31.5H24v-33l4.5-4.5h6l15,6,4.5-4.5h4.5l3,3h12l7.5-3h7.5L102,294Z" transform="translate(-6.5 -221)" fill="#b66514"/>
      <g id="Group_97090" data-name="Group 97090" transform="translate(25 76)">
        <path id="Path_151823" data-name="Path 151823" d="M64,380.5l4.5-4.5h3l3,3H79v4.5l-7.5,6h-3Z" transform="translate(-64 -368.5)" fill="#a2590d"/>
        <path id="Path_151824" data-name="Path 151824" d="M184,345v-6l3-3,4.5,4.5Z" transform="translate(-161.5 -336)" fill="#a2590d"/>
        <path id="Path_151825" data-name="Path 151825" d="M216,401.5l3,9,12-4.5-3-6Z" transform="translate(-187.5 -388)" fill="#a2590d"/>
        <path id="Path_151826" data-name="Path 151826" d="M304,355l4.5,4.5,4.5-3V355l-7.5-3Z" transform="translate(-259 -349)" fill="#a2590d"/>
        <path id="Path_151827" data-name="Path 151827" d="M408,396.5l9-4.5v9l-4.5,1.5Z" transform="translate(-343.5 -381.5)" fill="#a2590d"/>
      </g>
      <path id="Path_151828" data-name="Path 151828" d="M105.423,16.318a1.5,1.5,0,0,0-1.287-.273L92.675,18.91l-5.5-2.752a1.5,1.5,0,0,0-1.342,0L80.385,18.88l-8.41-2.8A1.5,1.5,0,0,0,71.5,16h-6a1.5,1.5,0,0,0-.671.158L56.5,20.323l-8.329-4.165A1.5,1.5,0,0,0,47.5,16h-6a1.5,1.5,0,0,0-.527.1L29.651,20.341l-6.879-4.128a1.5,1.5,0,0,0-1.246-.137l-4.5,1.5A1.5,1.5,0,0,0,16,19v85.5a1.5,1.5,0,0,0,1.5,1.5h87a1.5,1.5,0,0,0,1.5-1.5v-87a1.5,1.5,0,0,0-.577-1.182Zm-83.6,2.823,6.908,4.145a1.5,1.5,0,0,0,1.3.118L41.772,19h5.374l8.683,4.342a1.5,1.5,0,0,0,1.342,0L65.854,19h5.4l8.769,2.923a1.5,1.5,0,0,0,1.145-.081L86.5,19.177l5.329,2.665a1.5,1.5,0,0,0,1.035.114L103,19.421V40H88.454l-4.122-2.748A1.5,1.5,0,0,0,83.5,37H70a1.5,1.5,0,0,0-1.061.439L66.379,40H64a1.5,1.5,0,0,0-1.061.439L60.379,43H57.121l-5.561-5.561A1.5,1.5,0,0,0,50.5,37h-3a1.5,1.5,0,0,0-.832.252L38.5,42.7l-3.668-2.445a1.5,1.5,0,0,0-1.389-.145L26.861,42.74l-3.8-3.8A1.5,1.5,0,0,0,22,38.5H19V20.081ZM103,43V71.5H95.744L82.475,67.077A1.5,1.5,0,0,0,82,67H74.5a1.5,1.5,0,0,0-.557.107L66.711,70H55.621l-2.561-2.561A1.5,1.5,0,0,0,52,67H47.5a1.5,1.5,0,0,0-1.061.439l-3.8,3.8L28.557,65.607A1.5,1.5,0,0,0,28,65.5H22a1.5,1.5,0,0,0-1.061.439L19,67.879V41.5h2.379l4.061,4.061a1.5,1.5,0,0,0,1.618.332l6.767-2.707,3.844,2.562a1.5,1.5,0,0,0,1.664,0L47.954,40h1.925l5.561,5.561A1.5,1.5,0,0,0,56.5,46H61a1.5,1.5,0,0,0,1.061-.439L64.621,43H67a1.5,1.5,0,0,0,1.061-.439L70.621,40H83.046l4.122,2.748A1.5,1.5,0,0,0,88,43ZM19,103V72.121L22.621,68.5h5.09l14.732,5.893a1.5,1.5,0,0,0,1.618-.332L48.121,70h3.257l2.561,2.561A1.5,1.5,0,0,0,55,73H67a1.5,1.5,0,0,0,.557-.107L74.789,70h6.968l13.269,4.423a1.5,1.5,0,0,0,.474.077H103V103Z" transform="translate(0 0)"/>
      <path id="Path_151829" data-name="Path 151829" d="M72.5,371H68.621l-2.561-2.561A1.5,1.5,0,0,0,65,368H62a1.5,1.5,0,0,0-1.061.439l-4.5,4.5a1.5,1.5,0,0,0-.281,1.731l4.5,9A1.5,1.5,0,0,0,62,384.5h3a1.5,1.5,0,0,0,.937-.329l7.5-6A1.5,1.5,0,0,0,74,377v-4.5a1.5,1.5,0,0,0-1.5-1.5ZM71,376.279,64.474,381.5H62.927l-3.6-7.2,3.3-3.3h1.757l2.561,2.561A1.5,1.5,0,0,0,68,374h3Z" transform="translate(-32.5 -286)"/>
      <path id="Path_151830" data-name="Path 151830" d="M176.761,339.805a1.5,1.5,0,0,0,1.511-.019l7.5-4.5a1.5,1.5,0,0,0,.289-2.347l-4.5-4.5a1.5,1.5,0,0,0-2.121,0l-3,3A1.5,1.5,0,0,0,176,332.5v6a1.5,1.5,0,0,0,.761,1.305ZM179,333.121l1.5-1.5,2.081,2.081L179,335.85Z" transform="translate(-130 -253.5)"/>
      <path id="Path_151831" data-name="Path 151831" d="M222.841,392.829a1.5,1.5,0,0,0-1.528-.818l-12,1.5a1.5,1.5,0,0,0-1.237,1.963l3,9a1.5,1.5,0,0,0,1.95.93l12-4.5a1.5,1.5,0,0,0,.815-2.075Zm-9.411,9.22-1.929-5.787,9.131-1.141,1.78,3.56Z" transform="translate(-156 -305.5)"/>
      <path id="Path_151832" data-name="Path 151832" d="M302.832,354.246l4.5-3A1.5,1.5,0,0,0,308,350v-1.5a1.5,1.5,0,0,0-.943-1.393l-7.5-3a1.5,1.5,0,0,0-1.9.722l-1.5,3a1.5,1.5,0,0,0,.281,1.731l4.5,4.5A1.5,1.5,0,0,0,302.832,354.246Zm-3.507-6.044.4-.8,4.977,1.991-2.51,1.674Z" transform="translate(-227.5 -266.499)"/>
      <path id="Path_151833" data-name="Path 151833" d="M411.288,384.224a1.5,1.5,0,0,0-1.46-.066l-9,4.5a1.5,1.5,0,0,0-.529,2.242l4.5,6a1.5,1.5,0,0,0,1.675.523l4.5-1.5A1.5,1.5,0,0,0,412,394.5v-9A1.5,1.5,0,0,0,411.288,384.224ZM409,393.419l-2.449.816-2.773-3.7L409,387.927Z" transform="translate(-312 -299)"/>
      <path id="Path_151834" data-name="Path 151834" d="M72,328h3v3H72Z" transform="translate(-45.5 -253.5)"/>
      <path id="Path_151835" data-name="Path 151835" d="M136,448h3v3h-3Z" transform="translate(-97.5 -351)"/>
      <path id="Path_151836" data-name="Path 151836" d="M176,432h3v3h-3Z" transform="translate(-130 -338)"/>
      <path id="Path_151837" data-name="Path 151837" d="M248,352h3v3h-3Z" transform="translate(-188.5 -273)"/>
      <path id="Path_151838" data-name="Path 151838" d="M352,416h3v3h-3Z" transform="translate(-273 -325)"/>
      <path id="Path_151839" data-name="Path 151839" d="M392,336h3v3h-3Z" transform="translate(-305.5 -260)"/>
      <path id="Path_151840" data-name="Path 151840" d="M424,352h3v3h-3Z" transform="translate(-331.5 -273)"/>
      <path id="Path_151841" data-name="Path 151841" d="M328,440h3v3h-3Z" transform="translate(-253.5 -344.5)"/>
      <path id="Path_151842" data-name="Path 151842" d="M64,240h4.5v3H64Z" transform="translate(-39 -182)"/>
      <path id="Path_151843" data-name="Path 151843" d="M96,192h4.5v3H96Z" transform="translate(-65 -143)"/>
      <path id="Path_151844" data-name="Path 151844" d="M48,104h4.5v3H48Z" transform="translate(-26 -71.5)"/>
      <path id="Path_151845" data-name="Path 151845" d="M280,200h4.5v3H280Z" transform="translate(-214.5 -149.5)"/>
      <path id="Path_151846" data-name="Path 151846" d="M304,232h4.5v3H304Z" transform="translate(-234 -175.5)"/>
      <path id="Path_151847" data-name="Path 151847" d="M384,192h4.5v3H384Z" transform="translate(-299 -143)"/>
      <path id="Path_151848" data-name="Path 151848" d="M400,240h4.5v3H400Z" transform="translate(-312 -182)"/>
      <path id="Path_151849" data-name="Path 151849" d="M128,240h3v3h-3Z" transform="translate(-91 -182)"/>
      <path id="Path_151850" data-name="Path 151850" d="M216,248h3v3h-3Z" transform="translate(-162.5 -188.5)"/>
      <path id="Path_151851" data-name="Path 151851" d="M344,88h3v3h-3Z" transform="translate(-266.5 -58.5)"/>
      <path id="Path_151852" data-name="Path 151852" d="M424,64h3v3h-3Z" transform="translate(-331.5 -39)"/>
      <path id="Path_151853" data-name="Path 151853" d="M432,112h3v3h-3Z" transform="translate(-338 -78)"/>
      <path id="Path_151854" data-name="Path 151854" d="M208,72h3v3h-3Z" transform="translate(-156 -45.5)"/>
      <path id="Path_151855" data-name="Path 151855" d="M224,112h3v3h-3Z" transform="translate(-169 -78)"/>
      <path id="Path_151856" data-name="Path 151856" d="M440,256h3v3h-3Z" transform="translate(-344.5 -195)"/>
      <path id="Path_151857" data-name="Path 151857" d="M168,200h4.5v3H168Z" transform="translate(-123.5 -149.5)"/>
      <path id="Path_151858" data-name="Path 151858" d="M304,64h4.5v3H304Z" transform="translate(-234 -39)"/>
      <path id="Path_151859" data-name="Path 151859" d="M104.8,70.8h3v3h-3Z" transform="translate(-72.153 -44.523)"/>
    </g>
  </g>
</svg>
