<svg xmlns="http://www.w3.org/2000/svg" width="106.339" height="105.519" viewBox="0 0 106.339 105.519">
  <g id="t3-ic6" transform="translate(0 -1.976)">
    <circle id="Ellipse_4406" data-name="Ellipse 4406" cx="6.723" cy="6.723" r="6.723" transform="translate(10.318 84.432)" fill="#fde947"/>
    <path id="Path_151437" data-name="Path 151437" d="M243.14,347.4v4.362a2.285,2.285,0,0,1-2.285,2.285h-4.569A2.285,2.285,0,0,1,234,351.766V347.4Z" transform="translate(-185.4 -273.685)" fill="#d8d8e4"/>
    <path id="Path_151438" data-name="Path 151438" d="M187.048,167.035H153.816A5.815,5.815,0,0,1,148,161.219h0a5.815,5.815,0,0,1,5.815-5.815h33.231a5.815,5.815,0,0,1,5.815,5.815h0A5.815,5.815,0,0,1,187.048,167.035Z" transform="translate(-117.262 -121.562)" fill="#fde947"/>
    <path id="Path_151439" data-name="Path 151439" d="M209.232,211.4v11.631a16.615,16.615,0,0,1-16.616,16.616h0A16.615,16.615,0,0,1,176,223.035V211.4" transform="translate(-139.447 -165.931)" fill="#fde947"/>
    <g id="Group_96843" data-name="Group 96843" transform="translate(37.593 14.734)">
      <path id="Path_151440" data-name="Path 151440" d="M185.155,63.4h0A4.154,4.154,0,0,0,181,67.558V82.512h8.308V67.558A4.154,4.154,0,0,0,185.155,63.4Z" transform="translate(-181.001 -63.404)" fill="#d8d8e4"/>
      <path id="Path_151441" data-name="Path 151441" d="M295.155,63.4h0A4.154,4.154,0,0,0,291,67.558V82.512h8.308V67.558A4.154,4.154,0,0,0,295.155,63.4Z" transform="translate(-268.155 -63.404)" fill="#d8d8e4"/>
    </g>
    <path id="Path_151442" data-name="Path 151442" d="M17.042,163.878a8.762,8.762,0,0,0-3.933.926,49.324,49.324,0,0,1,.1-56.653,2.077,2.077,0,0,0-3.383-2.41,53.207,53.207,0,0,0,.1,61.757,8.8,8.8,0,0,0,13.336,11.4h0a8.8,8.8,0,0,0-6.222-15.022Zm3.285,12.085a4.646,4.646,0,1,1,0-6.57A4.651,4.651,0,0,1,20.327,175.963Z" transform="translate(0 -81.523)"/>
    <path id="Path_151443" data-name="Path 151443" d="M191.17,135.545a48.409,48.409,0,0,1-19.839,8.448,5.685,5.685,0,0,1-6.72-5.581V123.189h.181a4.367,4.367,0,0,0,4.362-4.362v-3.507A18.723,18.723,0,0,0,181.2,97.851V88.017a7.891,7.891,0,0,0-1.038-15.435V59.635a6.231,6.231,0,1,0-12.462,0V72.512H157.316V59.635a6.231,6.231,0,1,0-12.462,0V72.582a7.891,7.891,0,0,0-1.038,15.435v9.833a18.723,18.723,0,0,0,12.046,17.47v3.507a4.366,4.366,0,0,0,4.362,4.362h.234v15.224a9.836,9.836,0,0,0,9.837,9.829,9.939,9.939,0,0,0,1.781-.161,52.531,52.531,0,0,0,21.527-9.168,2.077,2.077,0,0,0-2.432-3.367ZM171.854,59.635a2.077,2.077,0,1,1,4.154,0V72.512h-4.154Zm-22.846,0a2.077,2.077,0,1,1,4.154,0V72.512h-4.154ZM142.154,80.4a3.743,3.743,0,0,1,3.738-3.739h33.231a3.738,3.738,0,1,1,0,7.477H145.893A3.743,3.743,0,0,1,142.154,80.4Zm5.815,17.446V88.3h29.077v9.554a14.539,14.539,0,1,1-29.077,0Zm12.046,20.977v-2.451a18.73,18.73,0,0,0,4.985,0v2.451a.208.208,0,0,1-.208.208h-2.206l-.052,0-.052,0h-2.259A.208.208,0,0,1,160.016,118.828Z" transform="translate(-109.338 -40.747)"/>
    <path id="Path_151444" data-name="Path 151444" d="M420.533,421.967l-.047.049a2.077,2.077,0,0,0,2.994,2.879l.047-.049a2.077,2.077,0,0,0-2.994-2.879Z" transform="translate(-332.711 -332.274)"/>
    <path id="Path_151445" data-name="Path 151445" d="M188.252,51.145a53.286,53.286,0,0,0-83.811-39.459,2.077,2.077,0,0,0,2.4,3.392c19.289-13.637,46.392-11.362,63.045,5.291a48.73,48.73,0,0,1,4.947,63.546,2.077,2.077,0,1,0,3.353,2.452A53.174,53.174,0,0,0,188.252,51.145Z" transform="translate(-82.054 0)"/>
    <path id="Path_151446" data-name="Path 151446" d="M72.783,78.836a2.072,2.072,0,0,0,1.475-.615l.034-.034a2.077,2.077,0,1,0-2.951-2.924l-.034.034a2.077,2.077,0,0,0,1.475,3.539Z" transform="translate(-56.021 -57.578)"/>
    <path id="Path_151447" data-name="Path 151447" d="M237.453,243.415l4.3-7.591a2.077,2.077,0,0,0-1.807-3.1h-1.484l2.734-3.453a2.077,2.077,0,0,0-3.257-2.578l-5.4,6.819a2.077,2.077,0,0,0,1.629,3.366h2.214l-2.543,4.491a2.077,2.077,0,1,0,3.615,2.047Z" transform="translate(-183.887 -177.42)"/>
  </g>
</svg>
