<svg xmlns="http://www.w3.org/2000/svg" width="150" height="150" viewBox="0 0 150 150">
  <g id="t3-ic13" transform="translate(-1141.5 -2664)">
    <circle id="Ellipse_4385" data-name="Ellipse 4385" cx="75" cy="75" r="75" transform="translate(1141.5 2664)" fill="#fff"/>
    <g id="planta" transform="translate(1182.499 2689)">
      <path id="Path_151088" data-name="Path 151088" d="M133.411,32.45a18.583,18.583,0,0,1-.6-4.6c0-7.3,4.707-13.542,6.96-16.115a1.563,1.563,0,0,1,2.352,0c2.254,2.573,6.96,8.819,6.96,16.115,0,9.594-8.136,17.371-8.136,17.371a63.327,63.327,0,0,1-4.109-5.151,23.172,23.172,0,0,1-3.429-7.617Zm0,0" transform="translate(-106.872 -9.012)" fill="#a6fc58"/>
      <path id="Path_151089" data-name="Path 151089" d="M162.371,11.73a1.562,1.562,0,0,0-2.352,0c-.565.645-1.286,1.523-2.046,2.589,2.273,3.184,4.913,8.06,4.913,13.525,0,5.435-2.612,10.287-4.875,13.472,1.79,2.37,3.185,3.9,3.185,3.9s8.136-7.777,8.136-17.371c0-7.3-4.707-13.542-6.96-16.115Zm0,0" transform="translate(-127.117 -9.009)" fill="#8ad24a"/>
      <path id="Path_151090" data-name="Path 151090" d="M234.3,126.187c1.037-.153,1.946-.24,2.664-.287a1.562,1.562,0,0,1,1.662,1.663c-.225,3.413-1.314,11.157-6.474,16.316-6.784,6.784-18.037,6.53-18.037,6.53s-.254-11.252,6.53-18.036a18.231,18.231,0,0,1,5.061-3.584,33.356,33.356,0,0,1,8.594-2.6Zm0,0" transform="translate(-172.298 -101.307)" fill="#a6fc58"/>
      <path id="Path_151091" data-name="Path 151091" d="M236.968,125.9c-.718.048-1.627.134-2.664.287a32.523,32.523,0,0,0-4.293.98,1.581,1.581,0,0,1,.025.4c-.225,3.413-1.314,11.157-6.474,16.316a21.832,21.832,0,0,1-9.413,5.268c-.04.8-.03,1.262-.03,1.262s11.253.254,18.037-6.53c5.16-5.159,6.248-12.9,6.474-16.316a1.562,1.562,0,0,0-1.662-1.663Zm0,0" transform="translate(-172.297 -101.307)" fill="#8ad24a"/>
      <path id="Path_151092" data-name="Path 151092" d="M29.2,203.634c6.784,6.784,6.53,18.036,6.53,18.036s-11.253.254-18.037-6.53c-5.16-5.159-6.248-12.9-6.474-16.316a1.562,1.562,0,0,1,1.663-1.662c3.413.225,11.158,1.314,16.318,6.473Zm0,0" transform="translate(-9.022 -158.65)" fill="#a6fc58"/>
      <path id="Path_151093" data-name="Path 151093" d="M29.356,203.634c-5.16-5.159-12.905-6.248-16.318-6.473a1.56,1.56,0,0,0-1.628,1.223,21.785,21.785,0,0,1,9.351,5.25c5.406,5.405,6.343,13.648,6.5,16.775a31.8,31.8,0,0,0,8.623,1.261s.255-11.252-6.529-18.036Zm0,0" transform="translate(-9.181 -158.65)" fill="#8ad24a"/>
      <path id="Path_151094" data-name="Path 151094" d="M7.505,427.105s-.818-7.153,8.992-8.175c5.853-.61,4.088-8.379,10.014-10.218,6.3-1.955,8.136,4.045,13.08,3.474,5.314-.613,7.153-3.679,11.649-2.657s4.312,7.9,11.444,8.583c8.584.817,9.811,4.7,10.015,8.991H7.505Zm0,0" transform="translate(-6.025 -328.569)" fill="#fde947"/>
      <path id="Path_151095" data-name="Path 151095" d="M216.308,422.251c-7.132-.68-6.948-7.561-11.444-8.583-2.663-.605-4.393.223-6.465,1.126,2.559,2.276,3.532,6.906,9.316,7.457,8.584.817,9.811,4.7,10.014,8.992h8.594c-.2-4.292-1.431-8.175-10.014-8.992Zm0,0" transform="translate(-159.648 -332.706)" fill="#fdc647"/>
      <path id="Path_151096" data-name="Path 151096" d="M56.8,88.086c-3.4-.323-4.771-2.283-6.229-4.359-1.253-1.785-2.547-3.629-5.03-4.193-3.029-.689-5.118.224-7.138,1.108a22.406,22.406,0,0,1-2.86,1.093V56.949l6.567-6.38c1.977-.01,12.214-.389,18.785-6.96,7.145-7.144,6.97-18.62,6.959-19.1a1.464,1.464,0,0,0-1.431-1.431,30.014,30.014,0,0,0-4.63.359,1.466,1.466,0,0,0,.43,2.9c1.044-.155,1.956-.237,2.656-.28-.2,3.148-1.186,10.622-6.054,15.488-3.99,3.989-9.76,5.372-13.438,5.849L56.864,36.235a1.466,1.466,0,0,0-2.042-2.1L43.6,45.034c.534-3.68,1.964-9.11,5.786-12.933a17.878,17.878,0,0,1,4.68-3.309,1.466,1.466,0,0,0-1.309-2.621,20.818,20.818,0,0,0-5.442,3.859c-6.038,6.038-6.848,15.169-6.948,18.145l-4.826,4.689V36.809c1.788-1.863,8.137-9.1,8.137-17.973,0-10.1-8.239-18.095-8.589-18.43a1.466,1.466,0,0,0-2.025,0c-.35.335-8.589,8.326-8.589,18.43A20.079,20.079,0,0,0,25.12,23.8a1.466,1.466,0,0,0,2.838-.725,17.182,17.182,0,0,1-.553-4.24c0-6.86,4.588-12.858,6.673-15.23,2.087,2.367,6.67,8.35,6.67,15.23,0,5.511-2.961,10.465-5.207,13.43V15.975a1.466,1.466,0,0,0-2.93,0v16.3c-.453-.6-.933-1.269-1.413-2.013a1.465,1.465,0,0,0-2.463,1.585,33.989,33.989,0,0,0,3.876,4.959V67.3l-4.44-4.57c-.01-1.974-.388-12.212-6.961-18.784C14.067,36.8,2.589,36.978,2.105,36.99A1.465,1.465,0,0,0,.674,38.421c-.011.485-.186,11.961,6.959,19.1,6.039,6.038,15.17,6.848,18.147,6.947l6.834,7.034V82.178a7.869,7.869,0,0,1-3.63-1.625c-2.776-1.812-5.616-2.857-8.929-1.809-3.046.964-4.6,3.454-5.862,6.2-1.092,2.383-1.81,3.741-3.87,3.956-3.835.4-6.68,1.723-8.454,3.934A8.516,8.516,0,0,0,.025,98.7,1.465,1.465,0,0,0,1.481,100H11.03a1.466,1.466,0,0,0,0-2.93H3.038a5.57,5.57,0,0,1,1.113-2.4c1.267-1.579,3.445-2.538,6.474-2.853,3.825-.4,5.159-3.31,6.23-5.65.9-1.966,1.867-3.911,4.066-4.626,2.466-.8,4.42.131,6.461,1.464,1.707,1.115,3.643,2.378,6.353,2.066a19.065,19.065,0,0,0,5.842-1.747c1.873-.819,3.226-1.411,5.315-.936,1.315.3,2.1,1.342,3.281,3.02,1.608,2.29,3.609,5.141,8.35,5.593,6.646.633,8.156,3.041,8.562,6.068H19.038a1.466,1.466,0,0,0,0,2.93H66.675a1.478,1.478,0,0,0,1.463-1.534C67.918,93.846,66.4,89,56.8,88.085ZM9.7,55.455c-4.85-4.849-5.848-12.331-6.051-15.485,3.156.2,10.637,1.2,15.486,6.051,3.99,3.99,5.373,9.76,5.851,13.438L13.838,47.979a1.465,1.465,0,0,0-2.1,2.042L22.631,61.234C18.946,60.7,13.513,59.263,9.7,55.455Zm0,0" transform="translate(0)"/>
      <path id="Path_151097" data-name="Path 151097" d="M105.858,447.3a1.466,1.466,0,0,0,0,2.93A1.466,1.466,0,0,0,105.858,447.3Zm0,0" transform="translate(-84.043 -359.937)"/>
      <path id="Path_151098" data-name="Path 151098" d="M183.291,469.273a1.466,1.466,0,0,0,0,2.93A1.466,1.466,0,0,0,183.291,469.273Zm0,0" transform="translate(-146.352 -377.618)"/>
      <path id="Path_151099" data-name="Path 151099" d="M224.1,442.07a1.466,1.466,0,0,0,0,2.93A1.466,1.466,0,0,0,224.1,442.07Zm0,0" transform="translate(-179.191 -355.728)"/>
    </g>
  </g>
</svg>
