<svg xmlns="http://www.w3.org/2000/svg" width="181" height="182" viewBox="0 0 181 182">
  <g id="t4-ic3" transform="translate(-1128.5 -824)">
    <ellipse id="Ellipse_4391" data-name="Ellipse 4391" cx="90.5" cy="91" rx="90.5" ry="91" transform="translate(1128.5 824)" fill="#fff"/>
    <g id="field" transform="translate(1169.502 864.499)">
      <path id="Path_151533" data-name="Path 151533" d="M105,216.164h44.206v21.6H105Zm0,0" transform="translate(-84.494 -173.542)" fill="#fde947"/>
      <path id="Path_151534" data-name="Path 151534" d="M147.594,256.594V250H139v3.786Zm0,0" transform="translate(-111.853 -200.766)" fill="#e59730"/>
      <path id="Path_151535" data-name="Path 151535" d="M29.154,299.771a90.06,90.06,0,0,1,28.174-28.847l.433-.607A90.1,90.1,0,0,0,10,256.625v48.022H26.178Zm0,0" transform="translate(-8.048 -206.1)" fill="#7ebf43"/>
      <path id="Path_151536" data-name="Path 151536" d="M92.832,304.511l2.976-4.875a90.137,90.137,0,0,1,76.939-43.179v48.054Zm0,0" transform="translate(-74.702 -205.965)" fill="#a0e557"/>
      <path id="Path_151537" data-name="Path 151537" d="M105,170.834l10.937-11,10.937,11Zm0,0" transform="translate(-84.494 -128.212)" fill="#e59730"/>
      <path id="Path_151538" data-name="Path 151538" d="M194.269,170.834l-10.937-11H161l10.937,11Zm0,0" transform="translate(-129.556 -128.212)" fill="#fdba47"/>
      <g id="Group_96868" data-name="Group 96868" transform="translate(1.952 2.454)">
        <path id="Path_151539" data-name="Path 151539" d="M362.346,52.953c-14.58-11.723-14.58-30.73,0-42.453C376.926,22.223,376.926,41.23,362.346,52.953Zm0,0" transform="translate(-284.73 -10.5)" fill="#b2ed7e"/>
        <path id="Path_151540" data-name="Path 151540" d="M29.939,78.428c-11.023-8.863-11.023-23.233,0-32.1C40.962,55.2,40.962,69.565,29.939,78.428Zm0,0" transform="translate(-19.392 -39.334)" fill="#b2ed7e"/>
        <path id="Path_151541" data-name="Path 151541" d="M45.2,339.9A75.536,75.536,0,0,0,10,331.125v15.723a59.667,59.667,0,0,1,24.386,5.247" transform="translate(-10 -268.503)" fill="#b2ed7e"/>
      </g>
      <path id="Path_151542" data-name="Path 151542" d="M180.547,364.461a76.08,76.08,0,0,1,62.784-33.5V346.68a60.269,60.269,0,0,0-42.539,17.781Zm0,0" transform="translate(-145.285 -265.914)" fill="#7ebf43"/>
      <path id="Path_151543" data-name="Path 151543" d="M318.69,401.457a62.41,62.41,0,0,0-43.924,18.357,1.953,1.953,0,0,0,2.769,2.755,58.478,58.478,0,0,1,41.154-17.206,1.953,1.953,0,0,0,0-3.906Zm0,0" transform="translate(-220.644 -322.645)"/>
      <path id="Path_151544" data-name="Path 151544" d="M194.552,388.651a1.952,1.952,0,0,0-2.711-.525,77.092,77.092,0,0,0-20.966,20.979,1.953,1.953,0,1,0,3.243,2.178,73.183,73.183,0,0,1,19.909-19.921,1.953,1.953,0,0,0,.525-2.711Zm0,0" transform="translate(-137.235 -311.648)"/>
      <path id="Path_151545" data-name="Path 151545" d="M390.8,320.957a76.813,76.813,0,0,0-25.687,4.433,1.953,1.953,0,1,0,1.3,3.682,72.921,72.921,0,0,1,24.384-4.209,1.953,1.953,0,0,0,0-3.906Zm0,0" transform="translate(-292.758 -257.867)"/>
      <path id="Path_151546" data-name="Path 151546" d="M27.982,87.1A89.02,89.02,0,0,1,79.957,54.353l.011,0a87.051,87.051,0,0,1,18.078-1.905,1.953,1.953,0,1,0,0-3.905,91.909,91.909,0,0,0-16.524,1.5V45.826C88.581,39.85,92.456,32.019,92.456,23.68c0-8.622-4.142-16.7-11.664-22.749a1.954,1.954,0,0,0-2.448,0C70.823,6.979,66.68,15.058,66.68,23.68c0,8.339,3.876,16.17,10.934,22.146v5.015a92.48,92.48,0,0,0-10.95,3.217V42.622a1.946,1.946,0,0,0-.568-1.376h0l-10.937-11a1.955,1.955,0,0,0-1.385-.576H31.444a1.953,1.953,0,0,0-1.385.576l-10.937,11h0a1.947,1.947,0,0,0-.568,1.377v7.458q-2.042-.374-4.1-.657V42.462C19.79,37.87,22.719,31.881,22.719,25.5c0-6.666-3.2-12.905-9-17.57a1.953,1.953,0,0,0-2.448,0c-5.8,4.665-9,10.9-9,17.57,0,6.38,2.929,12.369,8.267,16.961v6.514q-4.272-.4-8.594-.4a1.953,1.953,0,1,0,0,3.906A88.092,88.092,0,0,1,46.311,64.449a92.2,92.2,0,0,0-9.225,7.166A77.7,77.7,0,0,0,1.952,63.123a1.953,1.953,0,1,0,0,3.906,73.734,73.734,0,0,1,32.065,7.423,92.305,92.305,0,0,0-8.306,9.194,61.1,61.1,0,0,0-23.759-4.8,1.953,1.953,0,1,0,0,3.906,57.161,57.161,0,0,1,21.326,4.123q-2.024,2.813-3.838,5.779l-2.976,4.876A1.953,1.953,0,1,0,19.8,99.564l2.976-4.876a86.709,86.709,0,0,1,5.016-7.339,1.848,1.848,0,0,0,.193-.252Zm42.6-63.418c0-6.942,3.176-13.518,8.981-18.671,5.805,5.153,8.981,11.729,8.981,18.671a24.314,24.314,0,0,1-7.028,16.777V25.5a1.953,1.953,0,1,0-3.906,0V40.457A24.311,24.311,0,0,1,70.587,23.68ZM6.185,25.5A18.277,18.277,0,0,1,12.5,12.027,18.275,18.275,0,0,1,18.813,25.5a17.658,17.658,0,0,1-4.361,11.434v-13a1.953,1.953,0,1,0-3.906,0v13A17.658,17.658,0,0,1,6.185,25.5ZM60.017,40.669H43.194l-7.054-7.1H52.963ZM31.444,34.39l6.242,6.279H25.2ZM22.46,44.576H40.428V57q-1.358-.625-2.734-1.206V49.23a1.953,1.953,0,0,0-1.953-1.953H27.147a1.954,1.954,0,0,0-1.953,1.953v2.322q-1.362-.355-2.734-.67Zm11.328,9.673q-2.323-.856-4.687-1.586V51.183h4.687Zm10.547,4.658V44.576H62.759v11a91.669,91.669,0,0,0-9.784,4.748q-1.52.853-3,1.765Q47.2,60.4,44.334,58.907Zm0,0"/>
      <path id="Path_151547" data-name="Path 151547" d="M399.351,84.406a1.956,1.956,0,1,0-1.38-.573A1.966,1.966,0,0,0,399.351,84.406Zm0,0" transform="translate(-319.783 -64.374)"/>
      <path id="Path_151548" data-name="Path 151548" d="M318.241,363.409a1.951,1.951,0,1,0,1.381-.573A1.97,1.97,0,0,0,318.241,363.409Zm0,0" transform="translate(-255.625 -291.567)"/>
    </g>
  </g>
</svg>
