<svg xmlns="http://www.w3.org/2000/svg" width="82.632" height="69.415" viewBox="0 0 82.632 69.415">
  <g id="t4-ic10" transform="translate(-0.007 -81.909)">
    <g id="Group_97153" data-name="Group 97153" transform="translate(3.789 83.119)">
      <path id="Path_152006" data-name="Path 152006" d="M60.05,136.784,42.569,144.04,28.62,136.784c2.654-3.02,5.892-8.345,5.892-13.647V106.159l-6.693-3.8-3.5-1.981c-.425-.238-.888-.4-.888-.888V95.279c0-.485.43-1.061.888-.888l10.188,3.93V90.334a.918.918,0,0,1,.915-.915h2.21c.9,0,.9-.055,1.409.718l6,9.1,1.789-8.519c.32-1.523.425-1.3,1.967-1.3h4.433a.919.919,0,0,1,.919.915v32.8c0,5.3,3.239,10.628,5.893,13.647Z" transform="translate(-23.437 -89.407)" fill="#935d38" fill-rule="evenodd"/>
    </g>
    <g id="Group_97155" data-name="Group 97155" transform="translate(29.664 83.13)">
      <path id="Path_152008" data-name="Path 152008" d="M188.606,123.2v-32.8a.919.919,0,0,0-.919-.915h-3.925a.918.918,0,0,1,.915.915v32.8c0,5.3,3.825,12.064,6.473,15.084l3.349-1.437C191.845,133.824,188.606,128.5,188.606,123.2Z" transform="translate(-183.761 -89.479)" fill="#7f4d2a" fill-rule="evenodd"/>
    </g>
    <g id="Group_97157" data-name="Group 97157" transform="translate(1.218 130.495)">
      <path id="Path_152010" data-name="Path 152010" d="M8.756,402.568H86.47a1.254,1.254,0,0,0,1.249-1.249V384.2a1.254,1.254,0,0,0-1.249-1.249H8.756A1.254,1.254,0,0,0,7.507,384.2v17.12a1.253,1.253,0,0,0,1.249,1.249Z" transform="translate(-7.507 -382.95)" fill="#fde947" fill-rule="evenodd"/>
    </g>
    <g id="Group_97158" data-name="Group 97158" transform="translate(75.642 130.495)">
      <path id="Path_152011" data-name="Path 152011" d="M474.423,384.2a1.254,1.254,0,0,0-1.249-1.249h-4.538a1.254,1.254,0,0,1,1.249,1.249v17.12a1.254,1.254,0,0,1-1.249,1.249h4.538a1.253,1.253,0,0,0,1.249-1.249Z" transform="translate(-468.636 -382.95)" fill="#fdc647" fill-rule="evenodd"/>
    </g>
    <g id="Group_97159" data-name="Group 97159" transform="translate(0.007 81.909)">
      <path id="Path_152023" data-name="Path 152023" d="M80.18,129.285H54.089a1.21,1.21,0,1,0,0,2.421h4.516l1.359,6.624L56.76,148.9H41.116l.756-5.038,5.361-4.042,4.888,2.653a1.21,1.21,0,1,0,1.155-2.128L47.7,137.324a1.211,1.211,0,0,0-1.306.1l-5.4,4.074-2.155-2.908a1.21,1.21,0,0,0-1.945,1.441l2.583,3.485-.809,5.39H2.466a.044.044,0,0,1-.038-.039V137.136l5.4.8-.14,4.011a1.21,1.21,0,0,0,.67,1.126l5.417,2.7a1.21,1.21,0,1,0,1.08-2.167l-4.72-2.352.151-4.314a1.21,1.21,0,0,0-1.033-1.24l-6.826-1.009v-2.945a.044.044,0,0,1,.038-.038H26.313l-.76,5.034-5.983,4.516a1.21,1.21,0,1,0,1.458,1.932l5.4-4.077,2.155,2.911a1.21,1.21,0,0,0,1.946-1.44l-2.583-3.489.813-5.386H48.476a1.21,1.21,0,0,0,0-2.421H40.958c-2.6-3.1-5.239-7.862-5.239-12.437v-9.04a1.21,1.21,0,0,0-2.421,0v9.04c0,4.486,2.164,9.059,4.6,12.437H19.72A26.191,26.191,0,0,0,23.157,116.5a1.21,1.21,0,1,0-2.421,0,23.245,23.245,0,0,1-3.905,12.784H11.476c2.434-3.378,4.6-7.951,4.6-12.437V99.87a1.21,1.21,0,0,0-.613-1.053L5,92.892V89.525l9.43,3.637a1.21,1.21,0,0,0,1.646-1.129V84.341h2.2c.044.064,5.842,8.854,5.842,8.854l-1.576,7.517a1.211,1.211,0,1,0,2.37.5S28.43,84.42,28.452,84.331l4.847.01V102a1.21,1.21,0,1,0,2.421,0V93.313l3.621-2.949,6.632,1.279a1.21,1.21,0,0,0,.458-2.377l-4.643-.9,2.305-1.877a1.211,1.211,0,0,0-1.529-1.877L35.72,90.191V84.045a2.13,2.13,0,0,0-2.13-2.125s-4.783,0-4.928-.007a2.5,2.5,0,0,0-1.814.427A2.977,2.977,0,0,0,26,84.181l-1.192,5.677L20.407,83.18a2.146,2.146,0,0,0-2.219-1.261H15.78a2.128,2.128,0,0,0-2.125,2.125v6.224l-8.548-3.3a1.7,1.7,0,0,0-1.591.206,2.256,2.256,0,0,0-.937,1.813V93.2a2.093,2.093,0,0,0,1.349,1.859l2.247,1.272-5.8,5.685a1.21,1.21,0,1,0,1.694,1.729l2.037-2,.923,3.3a1.211,1.211,0,0,0,2.332-.652L6.075,99.821l2.29-2.243,5.289,3v16.273c0,4.575-2.644,9.339-5.239,12.437H2.466a2.462,2.462,0,0,0-2.459,2.459v17.12a2.462,2.462,0,0,0,2.459,2.46H80.18a2.462,2.462,0,0,0,2.459-2.46v-17.12a2.462,2.462,0,0,0-2.459-2.459Zm.038,19.579a.044.044,0,0,1-.038.039H59.29l2.657-8.765,5.233,2.736a1.211,1.211,0,0,0,.869.1l4.794-1.263a1.211,1.211,0,1,0-.617-2.341l-4.341,1.143-5.6-2.929-1.206-5.875h19.1a.044.044,0,0,1,.038.038Z" transform="translate(-0.007 -81.909)"/>
    </g>
  </g>
</svg>
