<svg id="t4-ic9" xmlns="http://www.w3.org/2000/svg" width="89.998" height="90" viewBox="0 0 89.998 90">
  <path id="Path_152024" data-name="Path 152024" d="M10,371.551h9.491v6.067a16.863,16.863,0,1,0,33.727,0v-6.067H96.482v22.93H10Zm0,0" transform="translate(-8.242 -306.239)" fill="#fdc647"/>
  <path id="Path_152025" data-name="Path 152025" d="M262.427,255.418,268.012,261h7.9a7.9,7.9,0,1,1-13.486-5.586Zm0,0" transform="translate(-231.638 -210.52)" fill="#feda9b"/>
  <path id="Path_152026" data-name="Path 152026" d="M139.222,28.887,107.86,10.779a5.716,5.716,0,1,0-5.716,9.9l29.686,17.139" transform="translate(-66.677 -8.252)" fill="#fde947"/>
  <path id="Path_152027" data-name="Path 152027" d="M10,128.981v-5.246a5.231,5.231,0,0,1,1.533-3.7L33.278,98.294a5.235,5.235,0,0,1,3.7-1.533h3.129a5.233,5.233,0,0,1,5.232,5.232v26.988a5.232,5.232,0,0,1-5.232,5.232H15.235A5.233,5.233,0,0,1,10,128.981Zm0,0" transform="translate(42.901 -79.753)" fill="#fde947"/>
  <path id="Path_152028" data-name="Path 152028" d="M60.52,123.857a5.229,5.229,0,0,1,1.533-3.7L83.793,98.416a5.238,5.238,0,0,1,3.181-1.507v24.9a3.487,3.487,0,0,1-3.487,3.487H60.52Zm0,0" transform="translate(-7.615 -79.875)" fill="#bde4ff"/>
  <path id="Path_152029" data-name="Path 152029" d="M287.793,41.66V73.848a3.4,3.4,0,0,0,6.8,0V49.821" transform="translate(-255.184 -34.337)" fill="#fff075"/>
  <path id="Path_152030" data-name="Path 152030" d="M330.5,424.234l-6.376.248a5.172,5.172,0,0,0-3.457,8.825l3.082,3.082a5.172,5.172,0,0,0,8.825-3.457l.248-6.377Zm0,0" transform="translate(-298.929 -349.662)" fill="#8ad24a"/>
  <path id="Path_152031" data-name="Path 152031" d="M297.509,400.183l-4.84,2.392-3.014-3.014,2.389-4.843Zm0,0" transform="translate(-258.427 -325.335)" fill="#8ad24a"/>
  <path id="Path_152032" data-name="Path 152032" d="M413.245,310.438l2.918,5.9-3.676,3.675-5.905-2.912Zm0,0" transform="translate(-397.635 -255.869)" fill="#8ad24a"/>
  <path id="Path_152033" data-name="Path 152033" d="M345.88,350.177l.248,6.377a5.172,5.172,0,0,0,8.825,3.456l3.082-3.082a5.172,5.172,0,0,0-3.456-8.825l-6.377-.248Zm0,0" transform="translate(-330.352 -286.709)" fill="#8ad24a"/>
  <path id="Path_152034" data-name="Path 152034" d="M52.277,130.274a1.758,1.758,0,1,1,1.243-.515A1.772,1.772,0,0,1,52.277,130.274Zm0,0" transform="translate(27.082 -104.476)"/>
  <path id="Path_152035" data-name="Path 152035" d="M318.242,135.68a1.758,1.758,0,1,1-1.243.515A1.762,1.762,0,0,1,318.242,135.68Zm0,0" transform="translate(-285.634 -111.83)"/>
  <path id="Path_152036" data-name="Path 152036" d="M41.765,414.748a1.758,1.758,0,0,1,2.486,0l.777.776a1.758,1.758,0,1,1-2.486,2.486l-.777-.776A1.758,1.758,0,0,1,41.765,414.748Zm0,0" transform="translate(37.205 -341.419)"/>
  <path id="Path_152037" data-name="Path 152037" d="M145.093,413.862a1.758,1.758,0,0,1,2.486,2.486l-.8.8a1.758,1.758,0,0,1-2.486-2.486Zm0,0" transform="translate(-83.369 -340.689)"/>
  <path id="Path_152038" data-name="Path 152038" d="M66.836,471.6l.469.469a1.758,1.758,0,0,1-2.486,2.486l-.468-.468a1.758,1.758,0,0,1,2.486-2.486Zm0,0" transform="translate(10.958 -388.281)"/>
  <path id="Path_152039" data-name="Path 152039" d="M195.3,469.292a1.758,1.758,0,0,1,2.486,2.486l-.813.813a1.758,1.758,0,0,1-2.486-2.486Zm0,0" transform="translate(-142.403 -386.375)"/>
  <path id="Path_152040" data-name="Path 152040" d="M1.758,63.553H9.68l-1.51-.744A1.757,1.757,0,0,1,7.7,59.989l6.663-6.664a1.758,1.758,0,0,1,2.819.464l2.808,5.681,4.3.167a6.93,6.93,0,0,1,4.631,11.825l-1.512,1.512,2.521-.1,2.106-4.27a1.758,1.758,0,0,1,2.819-.466l5.464,5.464a1.758,1.758,0,0,1-.464,2.819l-4.269,2.11L35.4,83.339a6.941,6.941,0,0,1-.191,1.367,15.119,15.119,0,0,0,8-13.328V65.311a1.758,1.758,0,0,1,1.758-1.758h7.18a7.166,7.166,0,0,1,1.41-9.037c-.128-.111-.253-.225-.373-.345a6.945,6.945,0,0,1-2.047-4.943V43.982a6.946,6.946,0,0,1,2.047-4.942l9.1-9.1-21.125-12.2V39.511a5.156,5.156,0,0,1-7.215,4.729l-.67.664L37.1,48.726h7.171a1.758,1.758,0,0,1,1.758,1.758,9.657,9.657,0,1,1-16.486-6.829l0,0,0,0L31.4,41.821a5.13,5.13,0,0,1-.548-2.31V32.638a1.758,1.758,0,0,1,3.516,0v6.873a1.642,1.642,0,0,0,3.285,0V15.717l-3.063-1.768c-.076-.044-.148-.09-.222-.136v4.763a1.758,1.758,0,0,1-3.516,0V7.323a1.77,1.77,0,0,1,.012-.2A7.47,7.47,0,0,1,42.061,1L73.233,19l1.7-1.7a6.944,6.944,0,0,1,4.942-2.047h3.129A7,7,0,0,1,90,22.242V49.229a6.976,6.976,0,0,1-2.422,5.285,7.165,7.165,0,0,1,1.331,9.172,1.757,1.757,0,0,1-.667,3.383H46.734v4.31a18.644,18.644,0,0,1-17.8,18.6c-.15.01-.3.016-.45.016h-.046c-.11,0-.22,0-.331,0A18.642,18.642,0,0,1,9.491,71.379v-4.31H1.758a1.758,1.758,0,0,1,0-3.516Zm34.617-6.928a6.153,6.153,0,0,0,5.886-4.384H36.375a1.758,1.758,0,0,1-1.243-.515l-4.163-4.163a6.146,6.146,0,0,0,5.406,9.062ZM40.3,4.049A3.958,3.958,0,1,0,36.346,10.9L64.864,27.37l5.8-5.795ZM83.007,52.7a3.478,3.478,0,0,0,3.475-3.474V22.241a3.479,3.479,0,0,0-3.475-3.474H79.878a3.455,3.455,0,0,0-2.457,1.018L66.39,30.815l-.008.008-10.7,10.7a3.449,3.449,0,0,0-1,2.138H75.873A1.731,1.731,0,0,0,77.6,41.934V31.071a1.758,1.758,0,0,1,3.516,0V41.934a5.251,5.251,0,0,1-5.245,5.245H54.662v2.05A3.474,3.474,0,0,0,58.136,52.7Zm-.192,10.85a3.667,3.667,0,0,0,0-7.334H58.329a3.667,3.667,0,1,0,0,7.334ZM15.121,57.544l-3.2,3.2,2.576,1.27,1.893-1.893Zm11.994,7.563a3.4,3.4,0,0,0-2.955-1.956l-5.609-.218-1.235,1.235.218,5.609a3.414,3.414,0,0,0,5.825,2.281L24.513,70.9h0l1.926-1.927a3.421,3.421,0,0,0,.674-3.869Zm6.993,7.254-.746,1.513,1.231,1.231,1.512-.747Zm-4.173,13.8A3.4,3.4,0,0,0,31.892,83.2l.218-5.609-1.236-1.236-5.609.218A3.414,3.414,0,0,0,22.984,82.4l3.082,3.082a3.421,3.421,0,0,0,2.284.994c.144,0,.288,0,.431-.012a3.388,3.388,0,0,0,1.154-.308ZM13.007,71.379a15.1,15.1,0,0,0,6.681,12.532,6.95,6.95,0,0,1-.558-6.877c.1-.215.216-.42.336-.621a6.924,6.924,0,0,1-5.446-6.5l-.167-4.3L13,65.191c0,.04.006.079.006.119v6.068Zm0,0" transform="translate(0 0)"/>
  <path id="Path_152041" data-name="Path 152041" d="M32.09,330.684a1.756,1.756,0,1,1-1.244.515A1.771,1.771,0,0,1,32.09,330.684Zm0,0" transform="translate(50.818 -272.556)"/>
  <path id="Path_152042" data-name="Path 152042" d="M169,332.442a1.758,1.758,0,1,1,.515,1.243A1.772,1.772,0,0,1,169,332.442Zm0,0" transform="translate(-112.22 -272.556)"/>
</svg>
