<svg id="t4-ic4" xmlns="http://www.w3.org/2000/svg" width="100" height="100" viewBox="0 0 100 100">
  <path id="Path_151100" data-name="Path 151100" d="M155.453,123.227A32.224,32.224,0,1,1,123.233,91,32.223,32.223,0,0,1,155.453,123.227Z" transform="translate(-73.227 -73.227)" fill="#7dc9ff"/>
  <path id="Path_151101" data-name="Path 151101" d="M123.243,269.6A32.232,32.232,0,0,1,91.73,244.118a32.839,32.839,0,0,1-.575-3.741,32.226,32.226,0,1,0,64.308,3.051c0-1.022-.05-2.031-.143-3.028A32.223,32.223,0,0,1,123.243,269.6Z" transform="translate(-73.237 -193.428)" fill="#3ca8f4"/>
  <g id="Group_96797" data-name="Group 96797" transform="translate(6.707 8.789)">
    <path id="Path_151102" data-name="Path 151102" d="M386.092,394.55s9.408,1.688,14.509-3.124,3.961-14.3,3.961-14.3-9.408-1.688-14.509,3.124S386.092,394.55,386.092,394.55Z" transform="translate(-317.303 -312.025)" fill="#a6fc58"/>
    <path id="Path_151103" data-name="Path 151103" d="M52.052,45.109s1.688,9.408-3.124,14.509-14.3,3.961-14.3,3.961S32.938,54.17,37.75,49.07s14.3-3.961,14.3-3.961Z" transform="translate(-34.339 -45)" fill="#a6fc58"/>
    <path id="Path_151104" data-name="Path 151104" d="M321.254,110.844l-1.851,4.083,3.064,8.338-4.432,6.9,5.01,4.428,3.779-2.215,3.516,4.559,7.671-.676A32.223,32.223,0,0,0,321.254,110.844Z" transform="translate(-262.626 -97.984)" fill="#a6fc58"/>
    <path id="Path_151105" data-name="Path 151105" d="M176.846,146.055l8.53-5.378,7.617,3.906-4.943,14.664,5.92,8.041L190,176.224l-13.219-9.766Z" transform="translate(-148.962 -121.99)" fill="#a6fc58"/>
    <path id="Path_151106" data-name="Path 151106" d="M116.84,323.651l-3.122-7.406-12.291-2.6a32.266,32.266,0,0,0,24.1,20.387l1.368-6.508Z" transform="translate(-88.324 -261.179)" fill="#a6fc58"/>
    <path id="Path_151107" data-name="Path 151107" d="M297.4,289.114v4.764l5.408-.272,5.266,2.745,1.667-3.527-6.17-6.38Z" transform="translate(-246.018 -239.288)" fill="#c7efbc"/>
  </g>
  <g id="Group_96798" data-name="Group 96798" transform="translate(19.811 61.26)">
    <path id="Path_151108" data-name="Path 151108" d="M126.754,328.195l-1.229,5.844a.029.029,0,0,1-.014,0,31.585,31.585,0,0,1-4.543-1.227c-.007,0-.5-.176-.975-.359h0c-.464-.181-.8-.322-.949-.385,0,0-.006,0-.008,0-6.345-2.741-11.913-8.341-12.225-9.119a32.068,32.068,0,0,1-5.379-9.287.007.007,0,0,1,0-.006l3.5.74a32.225,32.225,0,0,0,21.822,13.8Z" transform="translate(-101.43 -313.65)" fill="#8ad24a"/>
  </g>
  <g id="Group_96799" data-name="Group 96799" transform="translate(9.84 11.425)">
    <path id="Path_151109" data-name="Path 151109" d="M272.277,358.343h2.93v2.93h-2.93Z" transform="translate(-228.938 -299.779)" fill="#3ca8f4"/>
    <path id="Path_151110" data-name="Path 151110" d="M304.277,358.343h2.93v2.93h-2.93Z" transform="translate(-254.688 -299.779)" fill="#3ca8f4"/>
    <path id="Path_151111" data-name="Path 151111" d="M0,0H2.929V9.008H0Z" transform="matrix(0.981, -0.195, 0.195, 0.981, 68.225, 65.843)" fill="#8ad24a"/>
    <path id="Path_151112" data-name="Path 151112" d="M0,0H2.93V7.751H0Z" transform="matrix(0.251, -0.968, 0.968, 0.251, 75.041, 72)" fill="#8ad24a"/>
    <path id="Path_151113" data-name="Path 151113" d="M0,0H2.93V9.008H0Z" transform="matrix(0.195, -0.981, 0.981, 0.195, 0, 2.874)" fill="#8ad24a"/>
    <path id="Path_151114" data-name="Path 151114" d="M0,0H2.93V7.751H0Z" transform="matrix(0.968, -0.251, 0.251, 0.968, 3.871, 7.608)" fill="#8ad24a"/>
  </g>
  <g id="Outline_33_" transform="translate(0)">
    <path id="Path_151115" data-name="Path 151115" d="M14.326,169.124l-2.752-1.006c-.344.941-.663,1.9-.949,2.865l2.808.837C13.7,170.916,14,170.009,14.326,169.124Z" transform="translate(-8.55 -135.282)"/>
    <path id="Path_151116" data-name="Path 151116" d="M7.066,198.392l-2.853-.664c-.227.976-.427,1.972-.595,2.959l2.888.49c.158-.929.346-1.866.56-2.785Z" transform="translate(-2.911 -159.109)"/>
    <path id="Path_151117" data-name="Path 151117" d="M106.934,14.645a50.01,50.01,0,0,0-61.5-7.267c-2.455-.167-10.308-.285-14.8,4.476-5.258,5.573-3.574,15.359-3.5,15.773l.191,1.066,1.076.129a22.481,22.481,0,0,0,2.492.123c3.365,0,9.35-.611,13.051-4.533,4.413-4.677,3.937-12.32,3.625-14.9A47.077,47.077,0,0,1,118.649,50a47.665,47.665,0,0,1-.468,6.663l2.9.411a50.59,50.59,0,0,0,.5-7.074A49.673,49.673,0,0,0,106.934,14.645Zm-74.172-.781c2.6-2.755,6.891-3.456,9.842-3.583L29.752,23.9C29.7,20.953,30.151,16.631,32.762,13.864ZM41.81,22.4c-2.647,2.806-7.047,3.481-10,3.589l13-13.781c.063,2.955-.355,7.386-3,10.192Z" transform="translate(-21.579)"/>
    <path id="Path_151118" data-name="Path 151118" d="M479.625,335.16l2.717,1.1c.37-.917.717-1.858,1.031-2.8l-2.778-.93C480.3,333.412,479.973,334.3,479.625,335.16Z" transform="translate(-385.948 -267.581)"/>
    <path id="Path_151119" data-name="Path 151119" d="M488.787,307.213l2.83.759c.26-.969.493-1.957.693-2.938l-2.871-.586C489.251,305.371,489.032,306.3,488.787,307.213Z" transform="translate(-393.321 -244.985)"/>
    <path id="Path_151120" data-name="Path 151120" d="M95.291,256.254l-1.066-.191c-.414-.074-10.2-1.759-15.773,3.5-4.624,4.362-4.645,11.9-4.49,14.575A47.079,47.079,0,0,1,2.93,233.616,47.822,47.822,0,0,1,3.2,228.5l-2.913-.315A50.794,50.794,0,0,0,0,233.616a50.007,50.007,0,0,0,75.79,42.841,26.892,26.892,0,0,0,3.544.23c3.444,0,8.323-.651,11.677-3.815,5.573-5.258,4.46-15.125,4.41-15.543Zm-14.829,5.439c2.756-2.6,7.081-3.05,10.033-3.005L76.879,271.535C77.007,268.584,77.707,264.293,80.462,261.693ZM89,270.741c-2.805,2.647-7.237,3.065-10.192,3l13.781-13C92.48,263.695,91.805,268.094,89,270.741Z" transform="translate(0 -183.616)"/>
    <path id="Path_151121" data-name="Path 151121" d="M189.61,160.165l-5.972-8.112,5.1-15.138-9.483-4.863-9.918,6.252-.068,21.951,15.284,11.291Zm-17.4-1.384.059-18.857,7.143-4.5,5.751,2.949-4.783,14.191,5.867,7.969-2.882,6.489Z" transform="translate(-136.21 -106.261)"/>
    <path id="Path_151122" data-name="Path 151122" d="M302.709,291.157l2.75-5.82L297.88,277.5l-7.983,3.454v7.267l6.548-.329Zm-9.882-8.278,4.357-1.885,4.761,4.923-.583,1.233-4.268-2.225-4.267.214Z" transform="translate(-233.276 -223.301)"/>
    <path id="Path_151123" data-name="Path 151123" d="M95.913,143.294a33.675,33.675,0,1,0-11.646-19.053,33.751,33.751,0,0,0,11.646,19.053ZM89.47,130.467l8.785,1.855,3.066,7.273,9.47,3.654-.806,3.833A31.049,31.049,0,0,1,89.47,130.467Zm58.2-17.54-5.373.473-3.813-4.945-3.977,2.33-3.273-2.893,4.146-6.453-3.109-8.459.933-2.057A30.821,30.821,0,0,1,147.67,112.927ZM93.316,97.834a30.731,30.731,0,0,1,37.311-8.32l-1.519,3.352,3.02,8.217-4.717,7.34,6.746,5.963,3.582-2.1,3.218,4.172,6.979-.615c.019.447.031.9.031,1.347a30.793,30.793,0,0,1-30.755,30.762,30.384,30.384,0,0,1-4.351-.314l1.309-6.225-10.634-4.1-3.177-7.538-12.237-2.584a30.336,30.336,0,0,1-.99-3.557,30.668,30.668,0,0,1,6.184-25.8Z" transform="translate(-67.205 -67.191)"/>
  </g>
</svg>
