<svg xmlns="http://www.w3.org/2000/svg" width="190" height="160" viewBox="0 0 190 160">
  <g id="t4-ic12" transform="translate(-180.5 -6169)">
    <path id="Rectangle_33197" data-name="Rectangle 33197" d="M50,0h90a50,50,0,0,1,50,50V69a0,0,0,0,1,0,0H0a0,0,0,0,1,0,0V50A50,50,0,0,1,50,0Z" transform="translate(180.5 6260)" fill="#fffad1"/>
    <g id="guardar" transform="translate(196.501 6168.999)">
      <path id="Path_151059" data-name="Path 151059" d="M47.329,333.965H75.664l-1.868-20.3a15.578,15.578,0,0,0-8.706-12.585l-14.623-7.1-13-13.735a3.8,3.8,0,0,0-4.717-.643,3.723,3.723,0,0,0-1.3,4.939L35.617,291l-2.183-1.064a34.208,34.208,0,0,1-16.157-16.6l-3.055-6.724a3.516,3.516,0,0,0-6.588,2.4l3.214,11.569c1.357,4.279,6.47,14.3,9.666,17.449,6.986,6.891,19.616,13.754,23.28,17.715,3.932,4.251,3.535,18.22,3.535,18.22Zm0,0" transform="translate(-5.16 -181.881)" fill="#fcd7c3"/>
      <path id="Path_151060" data-name="Path 151060" d="M125.488,345.555a15.578,15.578,0,0,0-8.706-12.586l-14.623-7.1-13-13.735a3.8,3.8,0,0,0-4.717-.643,3.723,3.723,0,0,0-1.3,4.939l4.163,6.466,9.918,10.077S105.7,343,106.2,348.428l1.6,17.426h19.555Zm0,0" transform="translate(-56.851 -213.769)" fill="#f9c7ac"/>
      <path id="Path_151061" data-name="Path 151061" d="M126.823,459.234h28.7a3.089,3.089,0,0,1,3.09,3.09v7.966a3.089,3.089,0,0,1-3.09,3.09h-28.7a3.089,3.089,0,0,1-3.088-3.09v-7.966A3.089,3.089,0,0,1,126.823,459.234Zm0,0" transform="translate(-85.068 -315.722)" fill="#3ca8f4"/>
      <path id="Path_151062" data-name="Path 151062" d="M306.647,333.965H278.312l1.868-20.3a15.578,15.578,0,0,1,8.706-12.585l14.623-7.1,13-13.735a3.8,3.8,0,0,1,4.717-.643,3.723,3.723,0,0,1,1.3,4.939L318.36,291l2.181-1.064a34.209,34.209,0,0,0,16.157-16.6l3.055-6.724a3.516,3.516,0,0,1,6.588,2.4l-3.214,11.569c-1.357,4.279-6.47,14.3-9.666,17.449-6.986,6.891-19.616,13.754-23.28,17.715-3.932,4.251-3.535,18.22-3.535,18.22Zm0,0" transform="translate(-191.34 -181.881)" fill="#fcd7c3"/>
      <path id="Path_151063" data-name="Path 151063" d="M362.739,264.832l-8.571,21.174c-8.761,11.89-40.991,25.967-44.656,29.928-3.932,4.251-3.536,18.22-3.536,18.22h19.683s-.4-13.97,3.536-18.22c3.665-3.961,16.294-10.825,23.28-17.715,3.2-3.152,8.308-13.17,9.666-17.449l3.214-11.569a3.516,3.516,0,0,0-2.616-4.37Zm0,0" transform="translate(-210.351 -182.071)" fill="#f9c7ac"/>
      <path id="Path_151064" data-name="Path 151064" d="M300.367,459.234h-28.7a3.089,3.089,0,0,0-3.09,3.09v7.966a3.089,3.089,0,0,0,3.09,3.09h28.7a3.089,3.089,0,0,0,3.088-3.09v-7.966A3.089,3.089,0,0,0,300.367,459.234Zm0,0" transform="translate(-184.645 -315.722)" fill="#3ca8f4"/>
      <path id="Path_151065" data-name="Path 151065" d="M149.654,8.832a51.783,51.783,0,1,0,38.835,62.085A51.783,51.783,0,0,0,149.654,8.832Zm0,0" transform="translate(-59.287 -5.154)" fill="#7dc9ff"/>
      <path id="Path_151066" data-name="Path 151066" d="M241.708,8.836a51.6,51.6,0,0,0-21.567-.369c.584.114,1.167.234,1.752.369a51.788,51.788,0,0,1-1.68,101.288,51.78,51.78,0,0,0,21.5-101.288Zm0,0" transform="translate(-151.347 -5.158)" fill="#3ca8f4"/>
      <path id="Path_151067" data-name="Path 151067" d="M144.623,76.224c-5.977-1.523-10.011-20.676-23.053-17.44-4.174,1.035-15.562-8.422-14.363-11.134,2.909-6.583-3.048-8.881.043-12.752,1.681-2.1,3.767-4.43,6.477-2.137s1.713,7.057,4.139,7.518,4.081-5.173,5.537-8.357c5.244-11.466,20.032-7.748,24.846-12.325,3.66-3.481,5.153-7.7,4.562-10.794A51.778,51.778,0,0,0,91.055,46.952c4.631,7.637,15.418,14.033,18.894,16.409a2.615,2.615,0,0,1,.787,3.486c-1.982,3.365-4.706,10.118,1.366,15.129,8.408,6.94,8.4,10.157,4.984,17.335-.864,1.814-1.514,3.336-2.007,4.628a51.627,51.627,0,0,0,12.059,5.155,33.911,33.911,0,0,1,12.044-10.233c5.024-2.227,15.01-1.572,17.462-12.217,1.165-5.057-6.045-8.9-12.022-10.42Zm0,0" transform="translate(-62.601 -5.159)" fill="#a6fc58"/>
      <path id="Path_151068" data-name="Path 151068" d="M221.9,8.839a51.641,51.641,0,0,1,17.648,7.73,10.928,10.928,0,0,0,2.018-7.762,51.572,51.572,0,0,0-21.414-.334c.582.112,1.166.233,1.748.367Zm0,0" transform="translate(-151.355 -5.161)" fill="#8ad24a"/>
      <path id="Path_151069" data-name="Path 151069" d="M353.221,86.366a51.805,51.805,0,0,0-24.414-56.393c-3.219,8.163,6.656,11.521,5.609,14.21a5.651,5.651,0,0,0,.293,3.782,4.65,4.65,0,0,1-1.406,5.212c-2.656,2.155-6.259,5.667-6.958,9.32-1.719,8.969,1.349,12.726,4.677,15.472,5.154,4.254,9.056,2.764,11.156,5.887,4.55,6.766-16.539,24.685-9.442,33.106a51.574,51.574,0,0,0,20.486-30.6Zm0,0" transform="translate(-224.024 -20.606)" fill="#a6fc58"/>
      <path id="Path_151070" data-name="Path 151070" d="M358.3,86.366a51.805,51.805,0,0,0-24.414-56.393c-3.219,8.163,6.656,11.521,5.609,14.21a5.651,5.651,0,0,0,.293,3.782,4.65,4.65,0,0,1-1.406,5.212c-.743.6-1.561,1.316-2.369,2.106a51.5,51.5,0,0,1,3.513,24.869c3.466,1.622,6.125,1.317,7.731,3.7,4.55,6.766-16.539,24.685-9.442,33.107a51.577,51.577,0,0,0,20.486-30.6Zm0,0" transform="translate(-229.1 -20.606)" fill="#8ad24a"/>
      <path id="Path_151071" data-name="Path 151071" d="M164.447,98.06c31.832-22.847,29.462-70.873-4.189-90.636a2.2,2.2,0,0,0-.331-.19,54.2,54.2,0,0,0-63.284,6.661,2.343,2.343,0,1,0,3.134,3.485A49.546,49.546,0,0,1,142.1,5.553c-.216,2.554-1.995,5.319-3.938,7.167-3.817,3.63-19.624.5-25.365,13.051a65.112,65.112,0,0,1-2.9,6.417c-.5-1.758-.916-4.519-3.131-6.393a5.6,5.6,0,0,0-4.227-1.478c-2.654.26-4.495,2.566-5.6,3.943-2.325,2.913-1.29,5.527-.536,7.438.7,1.766,1.3,3.291.179,5.831-1.077,2.438,1.16,5.1,1.895,5.973,3.013,3.584,10.573,9.526,15.179,8.385,11.244-2.8,14.428,15.53,21.913,17.439,5.605,1.429,11,4.672,10.317,7.625-2.095,9.092-10.721,8.2-16.13,10.6a36.758,36.758,0,0,0-11.993,9.656,49.411,49.411,0,0,1-8.214-3.459q.531-1.238,1.174-2.6c3.917-8.223,3.658-12.5-5.608-20.153-4.441-3.666-2.908-8.623-.839-12.135a4.972,4.972,0,0,0-1.484-6.61c-3.342-2.286-13.13-8.146-17.7-14.889a48.938,48.938,0,0,1,8.514-17.328A2.344,2.344,0,1,0,89.9,21.181a54.125,54.125,0,0,0,74.019,77.252,2.158,2.158,0,0,0,.53-.374Zm-.68-5.363c-.4-3.619,2.88-9.049,5.84-13.948,3.881-6.421,7.545-12.485,4.631-16.82-2.762-4.108-6.84-2.45-11.611-6.388-2.8-2.308-5.4-5.231-3.867-13.225.433-2.266,2.612-5.087,6.134-7.943a7.01,7.01,0,0,0,2.134-7.83,3.687,3.687,0,0,1-.314-2.135c1.682-4.318-5.442-6.642-6.06-11.218,27.628,18.74,28.982,58.831,3.113,79.507ZM83.891,47.369c5.344,5.916,12.682,10.3,16.265,12.755a.269.269,0,0,1,.09.36c-4.172,7.084-3.483,13.693,1.893,18.13,8.893,7.34,6.782,8.918,3.358,16.711A49.478,49.478,0,0,1,83.891,47.369Zm38.924,55.163a32.12,32.12,0,0,1,8.85-6.7c4.467-1.979,16.01-1.725,18.8-13.835,1.461-6.342-5.841-11.209-13.727-13.219-4.3-1.1-9.553-21.082-24.2-17.446-.3.07-1.744-.1-4.457-1.791-3.781-2.352-6.527-5.381-7.028-6.53a11.046,11.046,0,0,0-.281-9.043c-.717-1.813-.731-2.073-.161-2.787.422-.529,1.707-2.136,2.389-2.2a1.292,1.292,0,0,1,.743.392c1.934,1.636.947,7.22,5.216,8.032,4.565.867,6.382-5.913,8.107-9.686,4.672-10.214,18.654-6.2,24.334-11.6a16.9,16.9,0,0,0,5.292-9.467,49.555,49.555,0,0,1,9.45,3.826c-1.433,6.826,4.489,10.746,6.032,12.766a8.168,8.168,0,0,0,.448,4.9,2.319,2.319,0,0,1-.678,2.6c-3.1,2.512-6.963,6.409-7.786,10.7-1.923,10.039,1.7,14.592,5.487,17.723,8.813,7.274,16.36-.055,5.952,17.167-3.9,6.46-8.263,13.677-5.907,19.307a49.3,49.3,0,0,1-36.874,6.9Zm0,0" transform="translate(-54.123 0)"/>
      <path id="Path_151072" data-name="Path 151072" d="M37.186,312.492a2.344,2.344,0,1,0,3.8-2.744C37.908,305.484,24.277,298.36,17,291.184c-2.822-2.784-7.769-12.4-9.066-16.453L4.732,263.2a1.175,1.175,0,0,1,2.244-.692c3.732,7.957,4.052,9.579,5.923,11.99a47.276,47.276,0,0,0,16.166,13.246l9.982,10.037a2.344,2.344,0,0,0,3.324-3.306L32.3,284.349l-3.971-6.169a1.381,1.381,0,0,1,2.285-1.506C44.238,291,43.586,290.567,44.289,290.909l14.625,7.1c7.983,3.878,7.412,12.334,7.6,12.936a2.344,2.344,0,0,0,4.669-.43l-.206-2.244A18.025,18.025,0,0,0,60.963,293.8l-14.241-6.918L34,273.432a6.158,6.158,0,0,0-7.647-1,6.081,6.081,0,0,0-2.742,6.3,42.437,42.437,0,0,1-7.009-7.1c-1.345-1.733-1.387-2.522-5.358-11.056a5.96,5.96,0,0,0-6.659-3.4,5.864,5.864,0,0,0-4.37,7.288c4.314,15.527,2.944,10.717,3.239,11.652,1.478,4.66,6.771,14.977,10.255,18.411,3.969,3.915,9.54,7.719,14.454,11.074,2.039,1.392,7.825,5.239,9.023,6.9Zm0,0" transform="translate(0 -176.71)"/>
      <path id="Path_151073" data-name="Path 151073" d="M343.352,257.321a5.851,5.851,0,0,0-7.207,3.129c-4.011,8.624-4.055,9.424-5.405,11.162a42.4,42.4,0,0,1-7.009,7.1,6.082,6.082,0,0,0-2.742-6.3,6.164,6.164,0,0,0-7.664,1.018l-12.706,13.428-14.24,6.918c-10.625,5.161-10.018,16.166-10.233,16.821a2.344,2.344,0,1,0,4.668.43c.189-.6-.386-9.149,7.614-13.034,15.305-7.493,14.75-7.018,15.3-7.6l12.982-13.721a1.381,1.381,0,0,1,2.3,1.488l-3.97,6.169-10.073,10.129a2.347,2.347,0,0,0,1.663,4c1.78,0,1.853-1.216,11.643-10.729,9.111-4.543,16.1-12.051,18.076-16.406l4.061-8.936a1.175,1.175,0,0,1,2.166.908l-3.173,11.417c-1.3,4.054-6.244,13.669-9.065,16.453-7.258,7.159-20.866,14.272-23.966,18.536a2.344,2.344,0,1,0,3.79,2.759c2.358-3.239,16.016-10.607,23.467-17.957,3.483-3.435,8.777-13.753,10.255-18.412.3-.937-.916,3.3,3.208-11.542a5.918,5.918,0,0,0-3.744-7.231Zm0,0" transform="translate(-189.844 -176.695)"/>
      <path id="Path_151074" data-name="Path 151074" d="M150.387,451.727H121.681a5.44,5.44,0,0,0-5.435,5.435v7.968a5.44,5.44,0,0,0,5.435,5.433h28.706a5.44,5.44,0,0,0,5.433-5.433v-7.968A5.44,5.44,0,0,0,150.387,451.727Zm.746,13.4a.747.747,0,0,1-.746.746H121.681a.747.747,0,0,1-.746-.746v-7.968a.747.747,0,0,1,.746-.746h28.706a.747.747,0,0,1,.746.746Zm0,0" transform="translate(-79.92 -310.561)"/>
      <path id="Path_151075" data-name="Path 151075" d="M295.25,451.727H266.542a5.44,5.44,0,0,0-5.433,5.435v7.968a5.44,5.44,0,0,0,5.433,5.433H295.25a5.44,5.44,0,0,0,5.433-5.433v-7.968A5.44,5.44,0,0,0,295.25,451.727Zm.745,13.4a.746.746,0,0,1-.745.746H266.542a.746.746,0,0,1-.745-.746v-7.968a.746.746,0,0,1,.745-.746H295.25a.746.746,0,0,1,.745.746Zm0,0" transform="translate(-179.513 -310.561)"/>
    </g>
  </g>
</svg>
