<svg xmlns="http://www.w3.org/2000/svg" width="181" height="182" viewBox="0 0 181 182">
  <g id="t4-ic2" transform="translate(-709.5 -824)">
    <ellipse id="Ellipse_4390" data-name="Ellipse 4390" cx="90.5" cy="91" rx="90.5" ry="91" transform="translate(709.5 824)" fill="#fff"/>
    <g id="Fill_Outline" data-name="Fill Outline" transform="translate(748.5 863.002)">
      <g id="Stroke_copy" data-name="Stroke copy" transform="translate(3.66 3.667)">
        <g id="Group_96866" data-name="Group 96866">
          <g id="Group_96863" data-name="Group 96863" transform="translate(9.971)">
            <path id="Path_151508" data-name="Path 151508" d="M74.68,29.336a5,5,0,0,0-5-5c-.078,0-.152.02-.228.023a6.657,6.657,0,0,0-1.755-3.1,6.58,6.58,0,0,0,.317-1.927A6.667,6.667,0,0,0,58.8,13.178a4.98,4.98,0,0,0-8.833,1.188c-.1,0-.195-.03-.3-.03a6.65,6.65,0,0,0-5.484,2.887,4.988,4.988,0,0,0-4.508-2.887c-.1,0-.2.023-.3.03A4.988,4.988,0,0,0,29.681,16c0,.078.02.152.023.228A6.633,6.633,0,0,0,26.822,17.8a5,5,0,1,0-1.528,7.63,6.618,6.618,0,0,0,11.147,1.5,6.63,6.63,0,0,0,12.833,1.288,6.56,6.56,0,0,0,8.573,1.952,6.657,6.657,0,0,0,2.407,1.888,4.928,4.928,0,0,0,1.76,6.5A4.95,4.95,0,0,0,61.347,41a5,5,0,1,0,7.667-4.217,4.95,4.95,0,0,0,.667-2.45,5,5,0,0,0,5-5Z" transform="translate(-2.979 2.33)" fill="#656b76"/>
            <path id="Path_151509" data-name="Path 151509" d="M69.679,37.257a5,5,0,0,1-5-5,4.95,4.95,0,0,1,.667-2.45,4.928,4.928,0,0,1-1.76-6.5,6.657,6.657,0,0,1-2.407-1.883,6.56,6.56,0,0,1-8.572-1.955,6.63,6.63,0,0,1-12.833-1.288,6.618,6.618,0,0,1-11.147-1.5,4.943,4.943,0,0,1-6.913-2.567,4.985,4.985,0,1,0,3.58,9.233,6.618,6.618,0,0,0,11.147,1.5,6.63,6.63,0,0,0,12.833,1.288,6.56,6.56,0,0,0,8.572,1.955,6.657,6.657,0,0,0,2.407,1.888,4.928,4.928,0,0,0,1.76,6.5,4.95,4.95,0,0,0-.667,2.445,5,5,0,0,0,10,0,4.851,4.851,0,0,0-.4-1.848A4.968,4.968,0,0,1,69.679,37.257Z" transform="translate(-2.977 4.409)" fill="#464a51"/>
            <path id="Path_151510" data-name="Path 151510" d="M78.333,81H35l.715-1.788A129.814,129.814,0,0,0,45,31H68.333a129.813,129.813,0,0,0,9.285,48.211Z" transform="translate(8.369 15.666)" fill="#93999a"/>
            <path id="Path_151511" data-name="Path 151511" d="M73.616,67.648A13.247,13.247,0,0,1,61,57.178,129.667,129.667,0,0,1,58.333,31H45a129.813,129.813,0,0,1-9.285,48.21L35,81H78.333l-.715-1.788q-2.285-5.692-4-11.563Z" transform="translate(8.369 15.666)" fill="#656b76"/>
            <path id="Path_151512" data-name="Path 151512" d="M41,25H64.333V35H41Z" transform="translate(12.368 11.666)" fill="#fde947"/>
            <path id="Path_151513" data-name="Path 151513" d="M41,25H54.333V35H41Z" transform="translate(12.368 11.666)" fill="#e59730"/>
            <path id="Path_151514" data-name="Path 151514" d="M65.68,21.333a5,5,0,0,0-5-5c-.078,0-.152.02-.228.023a6.657,6.657,0,0,0-1.755-3.1,6.58,6.58,0,0,0,.317-1.927A6.667,6.667,0,0,0,49.8,5.175a4.98,4.98,0,0,0-8.825,1.188c-.1,0-.195-.03-.3-.03A6.65,6.65,0,0,0,35.2,9.22a4.988,4.988,0,0,0-4.516-2.887c-.1,0-.2.023-.3.03A4.988,4.988,0,0,0,20.681,8c0,.078.02.152.023.228A6.633,6.633,0,0,0,17.822,9.8a5,5,0,1,0-1.528,7.63,6.618,6.618,0,0,0,11.147,1.5,6.63,6.63,0,0,0,12.833,1.288,6.56,6.56,0,0,0,8.573,1.952,6.657,6.657,0,0,0,2.407,1.888,4.928,4.928,0,0,0,1.76,6.5A4.95,4.95,0,0,0,52.347,33a5,5,0,1,0,7.667-4.217,4.95,4.95,0,0,0,.667-2.45,5,5,0,0,0,5-5Z" transform="translate(-8.979 -3)" fill="#d0d8da"/>
            <path id="Path_151515" data-name="Path 151515" d="M60.679,29.257a5,5,0,0,1-5-5,4.95,4.95,0,0,1,.667-2.45,4.928,4.928,0,0,1-1.76-6.5,6.657,6.657,0,0,1-2.407-1.883,6.56,6.56,0,0,1-8.572-1.955,6.63,6.63,0,0,1-12.833-1.288,6.618,6.618,0,0,1-11.147-1.5,4.943,4.943,0,0,1-6.913-2.567,4.985,4.985,0,1,0,3.58,9.233,6.618,6.618,0,0,0,11.147,1.5,6.63,6.63,0,0,0,12.833,1.288,6.56,6.56,0,0,0,8.572,1.955,6.657,6.657,0,0,0,2.407,1.888,4.928,4.928,0,0,0,1.76,6.5,4.95,4.95,0,0,0-.667,2.445,5,5,0,1,0,10,0,4.852,4.852,0,0,0-.4-1.848,4.968,4.968,0,0,1-1.267.182Z" transform="translate(-8.977 -0.924)" fill="#93999a"/>
            <path id="Path_151516" data-name="Path 151516" d="M73.333,83.666H20l1.567-4.7A164.3,164.3,0,0,0,30,27H63.333a164.3,164.3,0,0,0,8.434,51.968Z" transform="translate(-1.631 13)" fill="#d0d8da"/>
            <path id="Path_151517" data-name="Path 151517" d="M26,20H59.333V31.667H26Z" transform="translate(2.369 8.333)" fill="#fde947"/>
            <path id="Path_151518" data-name="Path 151518" d="M70.118,73.666H50.166A13.295,13.295,0,0,1,37.055,57.94,163.939,163.939,0,0,0,40,27H30a164.3,164.3,0,0,1-8.434,51.968L20,83.666H73.333l-1.567-4.7c-.587-1.757-1.123-3.525-1.648-5.3Z" transform="translate(-1.631 13)" fill="#93999a"/>
            <path id="Path_151519" data-name="Path 151519" d="M26,20H36V31.667H26Z" transform="translate(2.369 8.333)" fill="#fdba47"/>
          </g>
          <g id="Group_96865" data-name="Group 96865" transform="translate(0 40.257)">
            <path id="Path_151532" data-name="Path 151532" d="M28.168,0A28.168,28.168,0,1,1,0,28.168,28.168,28.168,0,0,1,28.168,0Z" transform="translate(0.305 0)" fill="#fde947"/>
            <path id="Path_151520" data-name="Path 151520" d="M44.669,72.99A28.3,28.3,0,0,1,21.774,28.014,28.315,28.315,0,1,0,54.231,71.3a28.2,28.2,0,0,1-9.562,1.69Z" transform="translate(-2.996 -26.581)" fill="#fdba47"/>
            <g id="Group_96864" data-name="Group 96864" transform="translate(6.673 9.325)">
              <circle id="Ellipse_4408" data-name="Ellipse 4408" cx="3.275" cy="3.275" r="3.275" transform="translate(18.525 15.568)" fill="#656b76"/>
              <path id="Path_151521" data-name="Path 151521" d="M23.667,42.847l-5.833-10.1A21.64,21.64,0,0,0,7,51.5H18.667a9.986,9.986,0,0,1,5-8.654Z" transform="translate(-7 -32.749)" fill="#656b76"/>
              <path id="Path_151522" data-name="Path 151522" d="M24.333,50.539a9.942,9.942,0,0,1-5-1.347L13.5,59.289a21.547,21.547,0,0,0,21.65,0l-5.817-10.1a9.942,9.942,0,0,1-5,1.347Z" transform="translate(-2.667 -21.788)" fill="#656b76"/>
              <path id="Path_151523" data-name="Path 151523" d="M28.833,32.75,23,42.847A9.985,9.985,0,0,1,28,51.5H39.667A21.64,21.64,0,0,0,28.832,32.75Z" transform="translate(3.666 -32.75)" fill="#656b76"/>
            </g>
            <path id="Path_151524" data-name="Path 151524" d="M15.483,50.5H7a21.647,21.647,0,0,1,7.346-16.246,28.615,28.615,0,0,0-.679,6.246,28.09,28.09,0,0,0,1.817,10Z" transform="translate(-0.327 -22.423)" fill="#464a51"/>
            <path id="Path_151525" data-name="Path 151525" d="M35.143,58.517a21.515,21.515,0,0,1-21.633,0l4.7-8.167a28.015,28.015,0,0,0,16.617,7.6Z" transform="translate(4.013 -11.691)" fill="#464a51"/>
          </g>
        </g>
      </g>
      <g id="Stroke_Cut_copy_2" data-name="Stroke Cut copy 2" transform="translate(2 1.999)">
        <g id="Group_96867" data-name="Group 96867">
          <path id="Path_151526" data-name="Path 151526" d="M101.881,99.715l-.715-1.788A127.585,127.585,0,0,1,92,50.333v-10a1.667,1.667,0,0,0-1.667-1.667h-4.26A6.6,6.6,0,0,0,87,35.333a6.678,6.678,0,0,0-5.685-6.595,8.232,8.232,0,0,0-1.135-1.925,7.43,7.43,0,0,0,.153-1.48,8.282,8.282,0,0,0-3.268-6.618,1.667,1.667,0,0,0-2.028,2.647,4.842,4.842,0,0,1,1.72,5.412,1.667,1.667,0,0,0,.42,1.667,4.978,4.978,0,0,1,1.315,2.323,1.645,1.645,0,0,0,1.685,1.252c.09,0,.178-.015.157-.022a3.333,3.333,0,1,1,0,6.667H77V32a1.667,1.667,0,0,0-1.667-1.667H67.706a6.655,6.655,0,0,0-1.013-1.372c.05-.153.092-.307.13-.463a6.667,6.667,0,0,0-.5-13.093,8.232,8.232,0,0,0-1.135-1.925A7.431,7.431,0,0,0,65.333,12,8.343,8.343,0,0,0,57,3.667a8.212,8.212,0,0,0-2,.245,6.645,6.645,0,0,0-10.947,2.57,1.667,1.667,0,1,0,3.148,1.1,3.312,3.312,0,0,1,5.875-.793,1.667,1.667,0,0,0,2.012.6A5,5,0,0,1,62,12a4.936,4.936,0,0,1-.243,1.44,1.667,1.667,0,0,0,.42,1.667,4.978,4.978,0,0,1,1.315,2.323,1.64,1.64,0,0,0,1.685,1.252c.09,0,.178-.015.157-.022a3.333,3.333,0,1,1,0,6.667,1.667,1.667,0,0,0-1.667,1.667,3.267,3.267,0,0,1-.45,1.627,1.667,1.667,0,0,0,.053,1.713H59.063a1.642,1.642,0,0,0-.5-.525A3.315,3.315,0,0,1,57,27a3.27,3.27,0,0,1,.388-1.513,1.667,1.667,0,0,0-.787-2.282,4.957,4.957,0,0,1-1.8-1.418,1.667,1.667,0,0,0-2.093-.418A4.923,4.923,0,0,1,46.28,19.9a1.667,1.667,0,0,0-2.925.418,4.963,4.963,0,0,1-9.612-.963,1.667,1.667,0,0,0-2.93-.833,4.95,4.95,0,0,1-8.35-1.118,1.667,1.667,0,0,0-2.28-.79A3.333,3.333,0,1,1,21.2,11.542a1.667,1.667,0,0,0,2.408.147,4.985,4.985,0,0,1,2.167-1.167,1.667,1.667,0,0,0,1.245-1.688A.513.513,0,0,0,27,8.667a3.322,3.322,0,0,1,6.463-1.088,1.645,1.645,0,0,0,1.683,1.115c.04,0,.147-.022.187-.027a3.3,3.3,0,0,1,3,1.928A1.667,1.667,0,0,0,41.35,9.177,6.7,6.7,0,0,0,36.1,5.38,6.652,6.652,0,0,0,23.73,7.689a8.463,8.463,0,0,0-1.157.6A6.6,6.6,0,0,0,18.667,7a6.667,6.667,0,1,0,0,13.333,6.4,6.4,0,0,0,1.545-.19A8.333,8.333,0,0,0,27,23.667a8.137,8.137,0,0,0,.948-.065A6.588,6.588,0,0,0,27,27a6.667,6.667,0,0,0,6.667,6.667,6.4,6.4,0,0,0,1.545-.19,8.352,8.352,0,0,0,5.121,3.333v6.357a30,30,0,0,0-35.9,40.666,1.667,1.667,0,0,0,1.532,1.008,1.648,1.648,0,0,0,.667-.137A1.667,1.667,0,0,0,7.5,82.523,26.646,26.646,0,0,1,53.333,56.06a1.667,1.667,0,0,0,2.667-2,29.967,29.967,0,0,0-12.333-9.71V33.667h30V42H52a1.667,1.667,0,0,0,0,3.333H73.675a165.611,165.611,0,0,0,8.51,50.833l.833,2.508H52a1.667,1.667,0,0,0,0,3.333H85.333a1.667,1.667,0,0,0,1.58-2.193l-1.567-4.7A162.342,162.342,0,0,1,77,43.667V42H88.666v6.667h-6.53a1.667,1.667,0,1,0,0,3.333h6.54a130.833,130.833,0,0,0,9.2,46.666H92A1.667,1.667,0,1,0,92,102h8.333a1.667,1.667,0,0,0,1.548-2.285ZM42,30.333A1.667,1.667,0,0,0,40.333,32v1.363a5.017,5.017,0,0,1-2.87-2.628,1.667,1.667,0,0,0-2.28-.79,3.307,3.307,0,1,1-2.868-5.955,8.24,8.24,0,0,0,13-.35,8.3,8.3,0,0,0,7.782,1.2,8.772,8.772,0,0,0,.755.612A6.334,6.334,0,0,0,53.666,27a6.578,6.578,0,0,0,.93,3.333Z" transform="translate(-2 -1.999)"/>
          <path id="Path_151527" data-name="Path 151527" d="M59.733,49.137A29.78,29.78,0,0,0,57.3,37.3a1.667,1.667,0,1,0-3.063,1.317A26.646,26.646,0,0,1,8.4,65.077a1.667,1.667,0,1,0-2.667,2,29.973,29.973,0,0,0,54-17.94Z" transform="translate(0.267 20.863)"/>
          <path id="Path_151528" data-name="Path 151528" d="M17,46a5,5,0,1,0,5-5A5,5,0,0,0,17,46Zm6.667,0A1.667,1.667,0,1,1,22,44.333,1.667,1.667,0,0,1,23.667,46Z" transform="translate(8 24)"/>
          <path id="Path_151529" data-name="Path 151529" d="M19.952,32.584a1.667,1.667,0,0,0-2.285-.608A23.41,23.41,0,0,0,6,52.167a1.667,1.667,0,0,0,1.667,1.667H19.333A1.667,1.667,0,0,0,21,52.167a8.363,8.363,0,0,1,4.167-7.212,1.667,1.667,0,0,0,.608-2.275ZM17.787,50.5H9.4a20.1,20.1,0,0,1,8.53-14.745l4.187,7.253A11.738,11.738,0,0,0,17.787,50.5Z" transform="translate(0.667 17.833)"/>
          <path id="Path_151530" data-name="Path 151530" d="M30.427,48.25a1.667,1.667,0,0,0-1.267.167,8.415,8.415,0,0,1-8.323,0,1.667,1.667,0,0,0-2.278.608l-5.833,10.1a1.667,1.667,0,0,0,.607,2.275,23.208,23.208,0,0,0,23.32,0,1.667,1.667,0,0,0,.608-2.275l-5.833-10.1A1.667,1.667,0,0,0,30.427,48.25ZM16.485,59.287l4.18-7.248a11.75,11.75,0,0,0,8.657,0l4.185,7.253a20.143,20.143,0,0,1-17.022,0Z" transform="translate(5.001 28.795)"/>
          <path id="Path_151531" data-name="Path 151531" d="M42,52.166A23.41,23.41,0,0,0,30.334,31.975a1.667,1.667,0,0,0-2.278.608l-5.833,10.1a1.667,1.667,0,0,0,.608,2.275A8.363,8.363,0,0,1,27,52.166a1.667,1.667,0,0,0,1.667,1.667H40.334A1.667,1.667,0,0,0,42,52.166ZM30.214,50.5a11.738,11.738,0,0,0-4.333-7.492l4.187-7.253A20.1,20.1,0,0,1,38.6,50.5Z" transform="translate(11.332 17.834)"/>
        </g>
      </g>
    </g>
  </g>
</svg>
