<svg xmlns="http://www.w3.org/2000/svg" width="94.897" height="100" viewBox="0 0 94.897 100">
  <g id="t4-ic5" transform="translate(0 -0.001)">
    <path id="Path_152043" data-name="Path 152043" d="M14.886,441.75a8.154,8.154,0,0,0-6.579,2.856,3.855,3.855,0,0,0-.783,2.071c-.206,4.031,6.834,7.329,15.548,7.329,8.289,0,13.175-2.84,35.521-2.84,4.831,0,15.418.274,23.63.274a25.41,25.41,0,0,0,16.349-5.4c1.864-1.5.662-4.289-1.841-4.289Zm0,0" transform="translate(-6.051 -355.47)" fill="#8ad24a"/>
    <path id="Path_152044" data-name="Path 152044" d="M340.989,14.756H329.973V8.771A1.271,1.271,0,0,1,331.244,7.5h8.473a1.271,1.271,0,0,1,1.272,1.271Zm0,0" transform="translate(-265.525 -6.035)" fill="#3ca8f4"/>
    <path id="Path_152045" data-name="Path 152045" d="M119.539,51.5h57.59v77.579h-57.59Zm0,0" transform="translate(-96.191 -41.444)" fill="#fde947"/>
    <path id="Path_152046" data-name="Path 152046" d="M350.41,51.5h12.5v77.579h-12.5Zm0,0" transform="translate(-281.97 -41.444)" fill="#fdc647"/>
    <g id="Group_97160" data-name="Group 97160" transform="translate(19.174 6.311)">
      <path id="Path_152047" data-name="Path 152047" d="M160.963,38.639h-59.65a3.144,3.144,0,0,1-3.144-3.144v-.042a3.144,3.144,0,0,1,3.144-3.144h59.65a3.144,3.144,0,0,1,3.144,3.144v.042A3.144,3.144,0,0,1,160.963,38.639Zm0,0" transform="translate(-98.168 -32.309)" fill="#ff8426"/>
      <path id="Path_152048" data-name="Path 152048" d="M160.963,240.233h-59.65a3.144,3.144,0,0,1-3.144-3.144v-.042a3.144,3.144,0,0,1,3.144-3.144h59.65a3.144,3.144,0,0,1,3.144,3.144v.042A3.144,3.144,0,0,1,160.963,240.233Zm0,0" transform="translate(-98.168 -194.529)" fill="#ff8426"/>
      <path id="Path_152049" data-name="Path 152049" d="M160.963,434.912h-59.65a3.144,3.144,0,0,1-3.144-3.144v-.042a3.144,3.144,0,0,1,3.144-3.144h59.65a3.144,3.144,0,0,1,3.144,3.144v.042A3.144,3.144,0,0,1,160.963,434.912Zm0,0" transform="translate(-98.168 -351.185)" fill="#ff8426"/>
    </g>
    <path id="Path_152050" data-name="Path 152050" d="M204.718,166.807a19.954,19.954,0,1,0-19.953,20.218A20.087,20.087,0,0,0,204.718,166.807Zm0,0" transform="translate(-132.623 -117.958)" fill="#e7eced"/>
    <path id="Path_152051" data-name="Path 152051" d="M242.228,146.589a19.689,19.689,0,0,0-6.005.933,20.307,20.307,0,0,1,0,38.57,19.712,19.712,0,0,0,6.005.932,20.22,20.22,0,0,0,0-40.436Zm0,0" transform="translate(-190.085 -117.958)" fill="#d8d8d8"/>
    <path id="Path_152052" data-name="Path 152052" d="M235.882,213.961a7.546,7.546,0,0,1-7.545-7.546c0-7.545,7.545-15.625,7.545-15.625s7.546,8.08,7.546,15.625A7.546,7.546,0,0,1,235.882,213.961Zm0,0" transform="translate(-183.739 -153.525)" fill="#8ad24a"/>
    <path id="Path_152053" data-name="Path 152053" d="M291.242,32.308V49.184a3.334,3.334,0,0,0,6.667,0V43.3a3.333,3.333,0,0,1,6.667,0v1.482a1.648,1.648,0,0,0,.108.626,3.5,3.5,0,0,0,4.092,2.029,3.392,3.392,0,0,0,2.466-3.3V32.308Zm0,0" transform="translate(-234.358 -25.998)" fill="#8ad24a"/>
    <path id="Path_152054" data-name="Path 152054" d="M228.776,183.753c-.324.347-7.94,8.594-7.94,16.625a9.011,9.011,0,1,0,18.021,0c0-8.031-7.616-16.278-7.94-16.625A1.466,1.466,0,0,0,228.776,183.753Zm1.07,22.707a6.088,6.088,0,0,1-6.081-6.081c0-5.218,4.086-10.9,6.081-13.369,2,2.466,6.081,8.151,6.081,13.369A6.088,6.088,0,0,1,229.846,206.459Zm0,0" transform="translate(-177.703 -147.489)"/>
    <path id="Path_152055" data-name="Path 152055" d="M90.68,84.815H86.1a4.618,4.618,0,0,0-3.7-2.551V53.458a4.615,4.615,0,0,0,4.174-4.588v-.042A4.615,4.615,0,0,0,82.4,44.24V14.085A4.614,4.614,0,0,0,86.577,9.5V9.455a4.614,4.614,0,0,0-4.61-4.609H76.929V2.737A2.739,2.739,0,0,0,74.192,0H65.719a2.739,2.739,0,0,0-2.736,2.736v2.11H22.318a4.614,4.614,0,0,0-4.609,4.609V9.5a4.615,4.615,0,0,0,4.173,4.588V44.241a4.615,4.615,0,0,0-4.173,4.588v.042a4.615,4.615,0,0,0,4.173,4.588V82.264a4.615,4.615,0,0,0-4.173,4.588v.041a4.614,4.614,0,0,0,4.609,4.61h59.65a4.616,4.616,0,0,0,4.53-3.758H90.68c1.074,0,1.727,1.034.921,1.684a24.029,24.029,0,0,1-15.429,5.077c-20.962,0-31.163-1.266-50.292,1.67a55.742,55.742,0,0,1-8.858.9c-8,0-14.229-2.974-14.085-5.789.1-2,3.04-3.537,5.9-3.537h4.388a1.465,1.465,0,1,0,0-2.93H8.835c-6.921,0-11.48,5.862-7.132,10.438C4.486,98.182,10.356,100,17.021,100a57.931,57.931,0,0,0,9.3-.93c18.822-2.889,28.482-1.636,49.847-1.636a26.926,26.926,0,0,0,17.268-5.726c2.943-2.373,1.126-6.894-2.76-6.894ZM24.813,82.242V53.479h6.406a21.364,21.364,0,0,0,41.849,0h6.406V82.242ZM70.63,48.849A18.489,18.489,0,1,1,52.143,30.1,18.643,18.643,0,0,1,70.63,48.849Zm13.017-.021v.042a1.682,1.682,0,0,1-1.68,1.679H73.494a21.989,21.989,0,0,0,0-3.4h8.473a1.681,1.681,0,0,1,1.68,1.679Zm0-39.374V9.5a1.681,1.681,0,0,1-1.68,1.679H78.349v-3.4h3.619a1.681,1.681,0,0,1,1.68,1.679ZM66.967,12.5a4.889,4.889,0,0,0-4.881,4.907v5.711a1.913,1.913,0,0,1-1.74,1.93,1.871,1.871,0,0,1-2-1.865V7.776H75.419V18.165a1.867,1.867,0,0,1-3.672.53,5.452,5.452,0,0,1-.065-1.394,4.8,4.8,0,0,0-4.716-4.8ZM65.913,2.93H74V4.846H65.913ZM20.639,9.5V9.455a1.681,1.681,0,0,1,1.679-1.679h33.1V23.186a4.8,4.8,0,0,0,9.6,0V17.3a1.869,1.869,0,0,1,3.738,0,9.819,9.819,0,0,0,.359,2.731,4.8,4.8,0,0,0,9.237-1.815V14.106h1.125V44.219H73.067a21.364,21.364,0,0,0-41.849,0H24.813V14.106H51a1.465,1.465,0,1,0,0-2.93H22.318A1.681,1.681,0,0,1,20.639,9.5Zm0,39.374v-.042a1.681,1.681,0,0,1,1.679-1.68h8.473a22.1,22.1,0,0,0,0,3.4H22.318a1.681,1.681,0,0,1-1.679-1.679ZM83.647,86.894a1.681,1.681,0,0,1-1.68,1.679H22.318a1.681,1.681,0,0,1-1.679-1.679v-.042a1.681,1.681,0,0,1,1.679-1.68h59.65a1.682,1.682,0,0,1,1.68,1.68Zm0,0" transform="translate(0)"/>
  </g>
</svg>
