<svg xmlns="http://www.w3.org/2000/svg" width="295" height="210" viewBox="0 0 295 210">
  <g id="t5-ic2" transform="translate(-285.5 -1275)">
    <rect id="Rectangle_33167" data-name="Rectangle 33167" width="295" height="210" transform="translate(285.5 1275)" fill="none" opacity="0.2"/>
    <g id="Group_97015" data-name="Group 97015" transform="translate(333.5 1279)">
      <g id="Group_96965" data-name="Group 96965" transform="translate(0 45.099)">
        <path id="Path_151661" data-name="Path 151661" d="M3327.775-627.759a98.632,98.632,0,0,1-28.924-71.552A103.231,103.231,0,0,1,3316-755.046a.855.855,0,0,1,1.185-.243.855.855,0,0,1,.243,1.185,101.52,101.52,0,0,0-16.87,54.813,96.935,96.935,0,0,0,28.423,70.322,96.934,96.934,0,0,0,70.322,28.423,101.913,101.913,0,0,0,48.312-12.915.856.856,0,0,1,1.164.33.855.855,0,0,1-.33,1.164,103.631,103.631,0,0,1-49.125,13.132A98.633,98.633,0,0,1,3327.775-627.759Z" transform="translate(-3298.844 755.43)" fill="#0f2771"/>
      </g>
      <g id="Group_96966" data-name="Group 96966" transform="translate(33.738 0)">
        <path id="Path_151662" data-name="Path 151662" d="M3576.008-770.038a.855.855,0,0,1-.023-1.186c2.04-2.2,3.995-4.532,5.812-6.92a.855.855,0,0,1,1.2-.163.855.855,0,0,1,.163,1.2c-1.85,2.431-3.841,4.8-5.917,7.046a.856.856,0,0,1-1.209.047ZM3436.624-914.232a.815.815,0,0,1-.069-.078.856.856,0,0,1,.145-1.2c2.5-1.965,4.983-3.8,7.365-5.461a.854.854,0,0,1,1.191.213.855.855,0,0,1-.213,1.191c-2.356,1.64-4.807,3.458-7.286,5.4A.856.856,0,0,1,3436.624-914.232Zm150.414,129.7a.855.855,0,0,1-.122-1.054c1.579-2.553,3.052-5.213,4.379-7.907a.855.855,0,0,1,1.145-.389.855.855,0,0,1,.389,1.146c-1.351,2.742-2.852,5.451-4.459,8.05a.856.856,0,0,1-1.178.278A.857.857,0,0,1,3587.038-784.537ZM3451.612-924.606a.853.853,0,0,1-.132-.17.856.856,0,0,1,.3-1.172c2.706-1.6,5.437-3.055,8.116-4.323a.855.855,0,0,1,1.139.407.855.855,0,0,1-.407,1.139c-2.632,1.246-5.315,2.675-7.977,4.25A.856.856,0,0,1,3451.612-924.606Zm143.48,123.725a.856.856,0,0,1-.2-.908c1.063-2.809,2-5.7,2.79-8.6a.856.856,0,0,1,1.051-.6.856.856,0,0,1,.6,1.05c-.8,2.949-1.759,5.894-2.841,8.754a.855.855,0,0,1-1.1.5A.85.85,0,0,1,3595.092-800.88Zm-127-131.483a.855.855,0,0,1-.2-.322.856.856,0,0,1,.525-1.09,87,87,0,0,1,8.833-2.582.856.856,0,0,1,1.03.635.856.856,0,0,1-.635,1.03,85.367,85.367,0,0,0-8.66,2.532A.856.856,0,0,1,3468.089-932.363Zm131.788,113.9a.854.854,0,0,1-.239-.75c.507-2.965.873-5.984,1.088-8.972a.856.856,0,0,1,.915-.792.855.855,0,0,1,.792.915c-.219,3.044-.592,6.118-1.108,9.138a.855.855,0,0,1-.987.7A.852.852,0,0,1,3599.876-818.463ZM3485.8-936.6a.849.849,0,0,1-.242-.484.856.856,0,0,1,.727-.968c2.889-.412,5.875-.727,9.127-.964a.855.855,0,0,1,.915.792.855.855,0,0,1-.791.915c-3.213.234-6.16.545-9.01.951A.853.853,0,0,1,3485.8-936.6Zm115.377,99.961a.852.852,0,0,1-.25-.58c-.081-2.788-.291-5.919-.608-9.055a.856.856,0,0,1,.766-.937.855.855,0,0,1,.937.765c.32,3.175.534,6.348.616,9.176a.856.856,0,0,1-.83.88A.854.854,0,0,1,3601.173-836.64Zm-97.2-101.168a.856.856,0,0,1-.249-.667.855.855,0,0,1,.915-.792c2.961.213,6.036.588,9.138,1.113a.855.855,0,0,1,.7.986.856.856,0,0,1-.986.7c-3.049-.516-6.068-.884-8.976-1.093A.851.851,0,0,1,3503.975-937.808Zm95.39,83a.846.846,0,0,1-.239-.466c-.5-3.032-1.086-6.028-1.753-8.9a.855.855,0,0,1,.64-1.027.856.856,0,0,1,1.027.64c.675,2.913,1.273,5.947,1.775,9.015a.855.855,0,0,1-.707.982A.853.853,0,0,1,3599.365-854.81Zm-77.407-79.995a.855.855,0,0,1-.225-.818.856.856,0,0,1,1.041-.617c2.925.748,5.889,1.627,8.811,2.615a.855.855,0,0,1,.536,1.084.855.855,0,0,1-1.084.537c-2.882-.974-5.8-1.841-8.687-2.578A.854.854,0,0,1,3521.958-934.805Zm73.251,62.224a.856.856,0,0,1-.211-.348c-.935-2.977-1.978-5.837-3.1-8.5a.856.856,0,0,1,.456-1.121.856.856,0,0,1,1.121.457c1.143,2.715,2.205,5.626,3.156,8.654a.855.855,0,0,1-.56,1.072A.856.856,0,0,1,3595.209-872.581Zm-55.972-56.4a.856.856,0,0,1-.184-.937.856.856,0,0,1,1.12-.457c2.824,1.188,5.628,2.489,8.334,3.868a.855.855,0,0,1,.374,1.151.855.855,0,0,1-1.15.374c-2.67-1.36-5.436-2.643-8.221-3.815A.848.848,0,0,1,3539.238-928.977Zm16.249,8.286a.856.856,0,0,1-.125-1.049.855.855,0,0,1,1.176-.286c2.652,1.615,5.228,3.331,7.656,5.1a.855.855,0,0,1,.188,1.2.856.856,0,0,1-1.2.188c-2.39-1.741-4.927-3.431-7.539-5.022A.854.854,0,0,1,3555.487-920.691Zm32.579,31.342a.859.859,0,0,1-.138-.181,57.553,57.553,0,0,0-5.023-7.447.856.856,0,0,1,.133-1.2.854.854,0,0,1,1.2.133,59.253,59.253,0,0,1,5.174,7.669.855.855,0,0,1-.319,1.167A.856.856,0,0,1,3588.066-889.349Zm-17.858-20.582a.855.855,0,0,1-.037-1.17.856.856,0,0,1,1.208-.077,86.493,86.493,0,0,1,6.586,6.442.855.855,0,0,1-.053,1.208.847.847,0,0,1-1.209-.053,84.814,84.814,0,0,0-6.456-6.313C3570.234-909.905,3570.22-909.918,3570.208-909.931Z" transform="translate(-3436.372 939.269)" fill="#0f2771"/>
      </g>
      <g id="Group_97014" data-name="Group 97014" transform="translate(25.442 20.531)">
        <g id="Group_96972" data-name="Group 96972" transform="translate(0 5.874)">
          <g id="Group_96970" data-name="Group 96970" transform="translate(1.666 8.038)">
            <g id="Group_96967" data-name="Group 96967" transform="translate(0 32.261)">
              <path id="Path_151663" data-name="Path 151663" d="M3410.587-626.525a1.106,1.106,0,0,1-1.1-1.038c-.092-1.493-.138-3.011-.138-4.511,0-1.2.029-2.41.088-3.608a1.1,1.1,0,0,1,1.158-1.05,1.1,1.1,0,0,1,1.05,1.158c-.056,1.162-.085,2.341-.085,3.5,0,1.455.045,2.928.134,4.376a1.106,1.106,0,0,1-1.036,1.171Zm.773-15.956a1.132,1.132,0,0,1-.174-.014,1.105,1.105,0,0,1-.919-1.265,74.278,74.278,0,0,1,1.705-7.94,1.105,1.105,0,0,1,1.358-.775,1.106,1.106,0,0,1,.775,1.358,72.1,72.1,0,0,0-1.655,7.7A1.106,1.106,0,0,1,3411.361-642.481Zm4.209-15.409a1.1,1.1,0,0,1-.407-.078,1.106,1.106,0,0,1-.62-1.435,73.519,73.519,0,0,1,3.406-7.372,1.106,1.106,0,0,1,1.495-.458,1.106,1.106,0,0,1,.458,1.495,71.441,71.441,0,0,0-3.3,7.15A1.106,1.106,0,0,1,3415.57-657.89Z" transform="translate(-3409.347 667.363)" fill="#0f2771"/>
            </g>
            <g id="Group_96968" data-name="Group 96968" transform="translate(45.492 126.106)">
              <path id="Path_151664" data-name="Path 151664" d="M3619.23-269.74l-.061,0c-1.208-.066-2.433-.163-3.641-.288-1.478-.153-2.969-.352-4.43-.592a1.106,1.106,0,0,1-.912-1.27,1.107,1.107,0,0,1,1.27-.912c1.418.233,2.865.426,4.3.575,1.173.121,2.361.215,3.534.279a1.105,1.105,0,0,1,1.043,1.164A1.105,1.105,0,0,1,3619.23-269.74Zm8,0a1.106,1.106,0,0,1-1.1-1.045,1.106,1.106,0,0,1,1.043-1.165,71.5,71.5,0,0,0,7.827-.868,1.107,1.107,0,0,1,1.273.908,1.106,1.106,0,0,1-.908,1.273,73.673,73.673,0,0,1-8.07.895Zm-23.76-2.591a1.108,1.108,0,0,1-.3-.041,73.6,73.6,0,0,1-7.689-2.615,1.105,1.105,0,0,1-.611-1.439,1.106,1.106,0,0,1,1.439-.612,71.386,71.386,0,0,0,7.457,2.536,1.106,1.106,0,0,1,.767,1.362A1.106,1.106,0,0,1,3603.467-272.333Zm39.512-.046a1.106,1.106,0,0,1-1.063-.8,1.106,1.106,0,0,1,.761-1.366,71.6,71.6,0,0,0,7.446-2.567,1.106,1.106,0,0,1,1.441.606,1.105,1.105,0,0,1-.606,1.441,73.759,73.759,0,0,1-7.677,2.647A1.1,1.1,0,0,1,3642.979-272.378Zm14.791-6.031a1.105,1.105,0,0,1-.973-.578,1.105,1.105,0,0,1,.444-1.5,72.209,72.209,0,0,0,6.707-4.132,1.105,1.105,0,0,1,1.538.278,1.105,1.105,0,0,1-.278,1.539,74.382,74.382,0,0,1-6.913,4.259A1.1,1.1,0,0,1,3657.77-278.41Z" transform="translate(-3594.788 284.817)" fill="#0f2771"/>
            </g>
            <g id="Group_96969" data-name="Group 96969" transform="translate(102.529)">
              <path id="Path_151665" data-name="Path 151665" d="M3866.182-757.176a1.107,1.107,0,0,1-1.028-.7,71.807,71.807,0,0,0-3.314-7.145,1.105,1.105,0,0,1,.456-1.5,1.106,1.106,0,0,1,1.5.456,74.09,74.09,0,0,1,3.417,7.365,1.105,1.105,0,0,1-.618,1.436A1.1,1.1,0,0,1,3866.182-757.176Zm-7.505-14.1a1.1,1.1,0,0,1-.914-.483,72.374,72.374,0,0,0-4.791-6.253,1.107,1.107,0,0,1,.121-1.559,1.105,1.105,0,0,1,1.559.12,74.514,74.514,0,0,1,4.938,6.445,1.106,1.106,0,0,1-.29,1.536A1.1,1.1,0,0,1,3858.677-771.274Zm-10.394-12.13a1.1,1.1,0,0,1-.756-.3,71.926,71.926,0,0,0-6.035-5.063,1.105,1.105,0,0,1-.222-1.548,1.106,1.106,0,0,1,1.548-.222,74.3,74.3,0,0,1,6.221,5.219,1.106,1.106,0,0,1,.051,1.563A1.1,1.1,0,0,1,3848.283-783.4Zm-12.784-9.578a1.1,1.1,0,0,1-.561-.154,71.4,71.4,0,0,0-7-3.619,1.105,1.105,0,0,1-.556-1.461,1.105,1.105,0,0,1,1.461-.556,73.571,73.571,0,0,1,7.214,3.731,1.106,1.106,0,0,1,.391,1.514A1.1,1.1,0,0,1,3835.5-792.983Z" transform="translate(-3827.29 798.869)" fill="#0f2771"/>
            </g>
          </g>
          <g id="Group_96971" data-name="Group 96971" transform="translate(0 0)">
            <circle id="Ellipse_4414" data-name="Ellipse 4414" cx="53.385" cy="53.385" r="53.385" transform="translate(0 75.498) rotate(-45)" fill="#fde947"/>
          </g>
        </g>
        <g id="Group_96986" data-name="Group 96986" transform="translate(84.064 55.586)">
          <g id="Group_96980" data-name="Group 96980">
            <g id="Group_96973" data-name="Group 96973">
              <path id="Path_151666" data-name="Path 151666" d="M3749.181-548a37.822,37.822,0,0,1,3.4-22.414c5.664-10.958,5.89-18.18,2.718-27.52,0,0,1.586.346,4.192-1.148s2.89-1.948,5.817-2.214a52.57,52.57,0,0,0-6.8-11.83c-4.192-5.23-6.911-11.456,3.4-11.954s12.008-1.495,17.672,2.74,9.175,12.577,9.855,16.064,2.6,9.96,2.6,9.96l6.763-1.368,6,.374a41.144,41.144,0,0,1,0,11.207c-.793,7.1-2.807,12.079.353,21.543s5.425,12.328,5.2,16.562Z" transform="translate(-3747.874 626.391)" fill="#8ad24a"/>
              <path id="Path_151667" data-name="Path 151667" d="M3807.706-549.75h-61.17a.845.845,0,0,1-.829-.682,38.294,38.294,0,0,1,3.477-22.967c5.253-10.164,5.951-17.193,2.668-26.859a.845.845,0,0,1,.17-.836.845.845,0,0,1,.811-.263,6.025,6.025,0,0,0,3.59-1.056c.417-.239.774-.452,1.092-.641a8.976,8.976,0,0,1,3.926-1.549,50.947,50.947,0,0,0-6.236-10.591c-3.414-4.26-4.608-7.61-3.55-9.957.932-2.068,3.407-3.171,7.568-3.372,1.659-.08,3.095-.173,4.358-.255,6.627-.43,8.86-.575,13.86,3.162,6.084,4.548,9.538,13.29,10.179,16.579.529,2.717,1.842,7.343,2.362,9.139l6-1.214a.851.851,0,0,1,.221-.015l6,.374a.846.846,0,0,1,.778.684,41.693,41.693,0,0,1,.01,11.461c-.168,1.5-.39,2.911-.6,4.272-.813,5.161-1.515,9.619.918,16.909,1.149,3.442,2.184,6.017,3.016,8.087,1.483,3.691,2.378,5.918,2.224,8.788A.846.846,0,0,1,3807.706-549.75Zm-60.448-1.692h59.614c-.059-2.146-.83-4.066-2.116-7.266-.84-2.09-1.886-4.692-3.051-8.182-2.564-7.681-1.8-12.551-.984-17.708.211-1.343.43-2.732.594-4.2a44.95,44.95,0,0,0,.1-10.311l-5.209-.324-6.653,1.346a.846.846,0,0,1-.979-.589c-.079-.266-1.938-6.552-2.618-10.039-.67-3.438-4.154-11.528-9.531-15.548-4.5-3.363-6.244-3.25-12.737-2.829-1.273.083-2.717.176-4.386.257-2.349.113-5.314.618-6.107,2.377-.765,1.7.386,4.532,3.328,8.2a52.874,52.874,0,0,1,6.923,12.048.848.848,0,0,1-.066.755.847.847,0,0,1-.645.4,7.791,7.791,0,0,0-4.358,1.451c-.324.193-.689.41-1.115.654a9.368,9.368,0,0,1-3.449,1.25c3.031,9.607,2.165,16.826-3.131,27.073C3746-563.548,3746.895-554.03,3747.258-551.442Z" transform="translate(-3745.229 628.992)" fill="#0f2771"/>
            </g>
            <g id="Group_96974" data-name="Group 96974" transform="translate(40.789 27.865)">
              <path id="Path_151668" data-name="Path 151668" d="M3915.439-464.028a.846.846,0,0,1-.74-.435c-6.842-12.3-1.106-24.511,2.32-31.807.458-.973.889-1.893,1.229-2.684,2.725-6.349,2.54-15.493,2.537-15.585a.847.847,0,0,1,.826-.866.837.837,0,0,1,.866.825c.009.389.2,9.6-2.674,16.293-.351.817-.788,1.749-1.251,2.736-3.29,7-8.795,18.724-2.374,30.265a.846.846,0,0,1-.328,1.151A.844.844,0,0,1,3915.439-464.028Z" transform="translate(-3911.497 515.406)" fill="#0f2771"/>
            </g>
            <g id="Group_96975" data-name="Group 96975" transform="translate(7.047 0.063)">
              <path id="Path_151669" data-name="Path 151669" d="M3793-625.287s3.115,1.652,7.25,9.124c2.94,5.313,7.279,13.365,6.746,20.173,0,0-1.028.581-3.6-.789s-10.078-3.445-11.437-3.362c0,0-3.927-12.784-9.062-16.437-4.279-3.044-6.8-4.591-4.807-6.525.824-.8,1.555-1.842,7.317-1.877Z" transform="translate(-3776.557 626.133)" fill="#fff"/>
              <path id="Path_151670" data-name="Path 151670" d="M3803.7-597.627a7.163,7.163,0,0,1-3.3-1.009c-2.441-1.3-9.839-3.333-10.988-3.264a.845.845,0,0,1-.86-.6c-.039-.125-3.9-12.552-8.744-16l-.824-.584c-3.054-2.161-4.9-3.464-5.026-5.119a2.65,2.65,0,0,1,.944-2.119l.125-.123c1.08-1.071,2.411-1.961,7.775-1.993l7.562-.306a.838.838,0,0,1,.431.1c.136.072,3.386,1.857,7.594,9.461,3.589,6.484,7.373,13.962,6.849,20.649a.847.847,0,0,1-.427.67A2.286,2.286,0,0,1,3803.7-597.627Zm-13.708-5.923a48.265,48.265,0,0,1,11.205,3.421,5.892,5.892,0,0,0,2.39.808c.2-6.6-4.083-14.347-6.678-19.036-3.376-6.1-6.048-8.2-6.738-8.677l-7.327.3c-5.14.031-5.962.847-6.624,1.5l-.139.136c-.46.446-.441.692-.435.773.067.862,2.036,2.255,4.316,3.868l.828.586C3785.533-616.5,3789.157-606.11,3789.994-603.55Z" transform="translate(-3773.954 628.736)" fill="#0f2771"/>
            </g>
            <g id="Group_96976" data-name="Group 96976" transform="translate(11.973 4.673)">
              <path id="Path_151671" data-name="Path 151671" d="M3797.484-602.8s.764-3.158,5.634-3.594,9.745.727,11.556,3.134Z" transform="translate(-3796.637 607.332)" fill="#fff"/>
              <path id="Path_151672" data-name="Path 151672" d="M3794.881-604.57a.835.835,0,0,1-.207-.026.841.841,0,0,1-.615-1.013c.037-.153.968-3.753,6.381-4.238,5.437-.487,10.38.907,12.307,3.468a.846.846,0,0,1-.167,1.185.846.846,0,0,1-1.185-.167c-1.539-2.045-6.083-3.223-10.8-2.8-4.15.371-4.862,2.854-4.89,2.959A.854.854,0,0,1,3794.881-604.57Z" transform="translate(-3794.035 609.943)" fill="#0f2771"/>
            </g>
            <g id="Group_96977" data-name="Group 96977" transform="translate(28.66 14.761)">
              <path id="Path_151673" data-name="Path 151673" d="M3869.675-565.371a56.949,56.949,0,0,0-4.17,11.436l3.826,2.071s1.394-3.836,2.93-7.2Z" transform="translate(-3864.659 566.217)" fill="#8ad24a"/>
              <path id="Path_151674" data-name="Path 151674" d="M3866.728-553.62a.847.847,0,0,1-.4-.1l-3.826-2.071a.846.846,0,0,1-.421-.937,57.161,57.161,0,0,1,4.243-11.632.848.848,0,0,1,.789-.456.845.845,0,0,1,.745.524l2.586,6.3a.849.849,0,0,1-.013.672c-1.5,3.3-2.891,7.1-2.9,7.141a.845.845,0,0,1-.495.5A.84.84,0,0,1,3866.728-553.62Zm-2.845-3.348,2.392,1.295c.487-1.289,1.437-3.734,2.461-6.013l-1.729-4.215A58.937,58.937,0,0,0,3863.883-556.968Z" transform="translate(-3862.056 568.82)" fill="#0f2771"/>
            </g>
            <g id="Group_96978" data-name="Group 96978" transform="translate(36.688 2.353)">
              <path id="Path_151675" data-name="Path 151675" d="M3917.864-613.971a4.294,4.294,0,0,1,.326,5.517c-2.04,3.321-7.922,12.468-7.888,18.188h4.111c.075-2.732,2.417-5.819,3.625-7.729s5.211-8.218,4.305-11.29-4.984-6.143-12.31-6.641-11.8,6.3-11.8,6.3l2.385,5.719s6.867-12.788,11.008-11.865Z" transform="translate(-3897.385 616.798)" fill="#8ad24a"/>
              <path id="Path_151676" data-name="Path 151676" d="M3911.811-592.023H3907.7a.846.846,0,0,1-.846-.841c-.033-5.622,5.13-13.972,7.611-17.984l.4-.652c1.492-2.429.216-4.035-.125-4.4a18.173,18.173,0,0,0-5.765-1.631.861.861,0,0,1-.12-.015l-.289-.034c-2.519,0-7.185,6.582-9.81,11.469a.857.857,0,0,1-.787.445.846.846,0,0,1-.739-.52l-2.385-5.719a.846.846,0,0,1,.075-.791c.193-.294,4.849-7.2,12.566-6.679q.636.043,1.239.111a2.762,2.762,0,0,1,.423.051,19.723,19.723,0,0,1,6.354,1.827.834.834,0,0,1,.276.142,9.136,9.136,0,0,1,4.771,5.115c.907,3.074-2.071,8.3-4.389,11.962-.195.308-.4.623-.625.96-1.191,1.8-2.824,4.275-2.881,6.359A.846.846,0,0,1,3911.811-592.023Zm-3.228-1.692h2.46c.367-2.311,1.917-4.658,3.083-6.422.215-.326.417-.632.6-.912,4.137-6.537,4.571-9.37,4.208-10.6a5.89,5.89,0,0,0-1.7-2.564,5.737,5.737,0,0,1-.925,3.6l-.4.656C3913.809-606.573,3909.054-598.883,3908.583-593.716Zm-11.992-18.4,1.532,3.675c1.436-2.484,4.139-6.772,6.921-9.136C3900.509-616.85,3897.464-613.266,3896.592-612.118Z" transform="translate(-3894.782 619.402)" fill="#0f2771"/>
            </g>
            <g id="Group_96979" data-name="Group 96979" transform="translate(42.793 6.775)">
              <path id="Path_151677" data-name="Path 151677" d="M3923.116-596.258a12.721,12.721,0,0,1,7.288-1.658c4.678.16,5.7,2.823,5.8,4.314Z" transform="translate(-3922.27 598.772)" fill="#fff"/>
              <path id="Path_151678" data-name="Path 151678" d="M3933.6-595.359a.847.847,0,0,1-.844-.795c-.061-1.009-.67-3.373-4.979-3.52a11.947,11.947,0,0,0-6.775,1.507.846.846,0,0,1-1.178-.211.846.846,0,0,1,.21-1.178,13.513,13.513,0,0,1,7.8-1.809c4.653.159,6.466,2.743,6.611,5.108a.846.846,0,0,1-.793.9Z" transform="translate(-3919.668 601.375)" fill="#0f2771"/>
            </g>
          </g>
          <g id="Group_96985" data-name="Group 96985" transform="translate(12.199 38.774)">
            <g id="Group_96981" data-name="Group 96981" transform="translate(1.468 0)">
              <path id="Path_151679" data-name="Path 151679" d="M3806.119-450.242a7.172,7.172,0,0,1,0-9.348c3.959-4.981,9.947-4.234,13.24-4.483s6.691.152,7.938-3.41c0,0,6.194,14.825-4.719,20.138S3806.119-450.242,3806.119-450.242Z" transform="translate(-3803.52 468.33)" fill="#fff"/>
              <path id="Path_151680" data-name="Path 151680" d="M3812.993-447.322a12.906,12.906,0,0,1-10.124-5,8.048,8.048,0,0,1,0-10.4c3.589-4.516,8.751-4.646,12.167-4.733.607-.015,1.181-.03,1.672-.067.464-.035.931-.058,1.394-.08,3.053-.147,4.966-.359,5.809-2.766a.848.848,0,0,1,.774-.566.853.853,0,0,1,.806.52c.065.156,6.369,15.627-5.13,21.225A16.787,16.787,0,0,1,3812.993-447.322Zm-8.756-6c.223.325,5.308,7.517,15.387,2.61,8.052-3.92,6.129-13.4,4.917-17.324-1.561,1.894-4.079,2.014-6.354,2.124-.447.022-.9.043-1.348.077-.533.04-1.127.055-1.756.071-3.286.083-7.787.2-10.885,4.094a6.3,6.3,0,0,0-.034,8.256A.92.92,0,0,1,3804.236-453.32Z" transform="translate(-3800.937 470.934)" fill="#0f2771"/>
            </g>
            <g id="Group_96982" data-name="Group 96982" transform="translate(9.93 8.019)">
              <path id="Path_151681" data-name="Path 151681" d="M3839.75-434.8a6.116,6.116,0,0,1-.876,6.36s3.7-1.223,6.994,3.291Z" transform="translate(-3838.03 435.645)" fill="#fff"/>
              <path id="Path_151682" data-name="Path 151682" d="M3843.272-426.9a.844.844,0,0,1-.684-.347c-2.865-3.919-5.923-3.024-6.052-2.984a.851.851,0,0,1-.959-.338.844.844,0,0,1,.053-1.011,5.234,5.234,0,0,0,.762-5.448.848.848,0,0,1,.4-1.128.845.845,0,0,1,1.127.389,7.068,7.068,0,0,1,0,5.746c1.58.106,3.9.849,6.042,3.777a.847.847,0,0,1-.184,1.182A.842.842,0,0,1,3843.272-426.9Z" transform="translate(-3835.434 438.244)" fill="#0f2771"/>
            </g>
            <g id="Group_96983" data-name="Group 96983" transform="translate(17.169 6.651)">
              <path id="Path_151683" data-name="Path 151683" d="M3868.764-440.384a5.847,5.847,0,0,1-.376,5.022s3.417-.581,4.926,1.079Z" transform="translate(-3867.542 441.228)" fill="#fff"/>
              <path id="Path_151684" data-name="Path 151684" d="M3870.712-436.032a.844.844,0,0,1-.626-.277c-.984-1.081-3.335-.955-4.159-.814a.844.844,0,0,1-.827-.337.845.845,0,0,1-.064-.891,5,5,0,0,0,.36-4.265.85.85,0,0,1,.4-1.125.843.843,0,0,1,1.123.392,6.458,6.458,0,0,1,.165,4.449,5.712,5.712,0,0,1,4.25,1.453.846.846,0,0,1-.057,1.2A.843.843,0,0,1,3870.712-436.032Z" transform="translate(-3864.939 443.824)" fill="#0f2771"/>
            </g>
            <g id="Group_96984" data-name="Group 96984">
              <path id="Path_151685" data-name="Path 151685" d="M3795.8-445.533h-.038a.846.846,0,0,1-.808-.883,8.935,8.935,0,0,1,4.874-7.934,35.618,35.618,0,0,1,6.41-2.4c5.891-1.78,11.455-3.46,13.125-13.478a.844.844,0,0,1,.974-.7.846.846,0,0,1,.7.974c-1.843,11.055-8.178,12.969-14.3,14.819a34.329,34.329,0,0,0-6.11,2.275,7.232,7.232,0,0,0-3.973,6.512A.847.847,0,0,1,3795.8-445.533Z" transform="translate(-3794.955 470.934)" fill="#0f2771"/>
            </g>
          </g>
        </g>
        <g id="Group_97002" data-name="Group 97002" transform="translate(11.901)">
          <g id="Group_96987" data-name="Group 96987">
            <path id="Path_151686" data-name="Path 151686" d="M3536.159-852.112c-1.058.926-12.4,8.133-12.4,8.133l14.828-.09-12.463,7.921,15.02.545s-11.547,8.511-22.48,7.194-13.36-2.374-20.508,1.863-28.773,9.383-34.759,11.191-6.831,2.5-8.266-2.251-1.24-5.5,4.166-7.135l23.751-7.173c6.758-2.041,14.55-2.085,20.147-4.468s7.6-8.3,14.3-11.941S3534.281-852.211,3536.159-852.112Z" transform="translate(-3453.562 852.975)" fill="#8ad24a"/>
            <path id="Path_151687" data-name="Path 151687" d="M3455.5-815.742a2.9,2.9,0,0,1-1.4-.325c-1.091-.581-1.659-1.869-2.271-3.9-1.609-5.327-.946-6.475,4.731-8.19l23.751-7.174a72.282,72.282,0,0,1,9.477-1.948c3.9-.621,7.576-1.208,10.584-2.489,2.639-1.124,4.5-3.159,6.466-5.315a29.253,29.253,0,0,1,7.761-6.591c6.747-3.667,16.948-4,19.111-3.89a.846.846,0,0,1,.755.568.846.846,0,0,1-.242.913c-.792.694-6.575,4.423-10.029,6.633l11.9-.072a.856.856,0,0,1,.817.607.845.845,0,0,1-.357.953l-10.164,6.461,12.3.446a.847.847,0,0,1,.779.6.847.847,0,0,1-.307.931c-.447.329-10.3,7.5-20.6,7.5a20.693,20.693,0,0,1-2.485-.146c-1.374-.166-2.615-.327-3.747-.474-7.857-1.023-10.228-1.332-16.23,2.226-5.634,3.34-19.617,7.1-28.87,9.594-2.541.684-4.736,1.274-6.075,1.679q-.686.207-1.285.393A16.964,16.964,0,0,1,3455.5-815.742Zm75.428-38.094c-3.894.2-10.669,1.015-15.523,3.653a27.491,27.491,0,0,0-7.32,6.245c-2.1,2.3-4.075,4.463-7.052,5.731-3.2,1.362-6.979,1.965-10.98,2.6a70.975,70.975,0,0,0-9.254,1.9l-23.751,7.173c-4.983,1.505-4.9,1.763-3.6,6.08.542,1.8.962,2.635,1.447,2.893.673.358,2.1-.082,4.471-.812q.6-.186,1.294-.4c1.363-.412,3.464-.977,6.124-1.693,8.607-2.317,23.013-6.194,28.448-9.416,6.5-3.855,9.446-3.472,17.31-2.448,1.127.147,2.363.308,3.73.473,7.715.929,15.884-3.29,19.689-5.6l-12.36-.448a.846.846,0,0,1-.786-.624.845.845,0,0,1,.362-.936l9.98-6.344-11.886.072a.832.832,0,0,1-.816-.607.847.847,0,0,1,.357-.953C3523.967-849.3,3528.321-852.1,3530.93-853.837Z" transform="translate(-3451.068 855.579)" fill="#0f2771"/>
          </g>
          <g id="Group_96988" data-name="Group 96988" transform="translate(4.944 26.761)">
            <path id="Path_151688" data-name="Path 151688" d="M3472.066-738.588a.846.846,0,0,1-.809-.6.845.845,0,0,1,.565-1.055l20.565-6.211a.847.847,0,0,1,1.054.565.846.846,0,0,1-.565,1.055l-20.565,6.211A.855.855,0,0,1,3472.066-738.588Z" transform="translate(-3471.22 746.492)" fill="#0f2771"/>
          </g>
          <g id="Group_96989" data-name="Group 96989" transform="translate(32.46 22.212)">
            <path id="Path_151689" data-name="Path 151689" d="M3584.233-760.893a.846.846,0,0,1-.81-.6.846.846,0,0,1,.565-1.055L3592.1-765a.847.847,0,0,1,1.054.565.846.846,0,0,1-.566,1.055l-8.11,2.449A.847.847,0,0,1,3584.233-760.893Z" transform="translate(-3583.387 765.035)" fill="#0f2771"/>
          </g>
          <g id="Group_96990" data-name="Group 96990" transform="translate(54.498 11.54)">
            <path id="Path_151690" data-name="Path 151690" d="M3674.065-801.261a.845.845,0,0,1-.689-.354.846.846,0,0,1,.2-1.18,34.819,34.819,0,0,0,5.761-5.432.845.845,0,0,1,1.19-.12.845.845,0,0,1,.119,1.191,35.982,35.982,0,0,1-6.085,5.737A.844.844,0,0,1,3674.065-801.261Z" transform="translate(-3673.218 808.538)" fill="#0f2771"/>
          </g>
          <g id="Group_96991" data-name="Group 96991" transform="translate(61.322 19.582)">
            <path id="Path_151691" data-name="Path 151691" d="M3707.994-773.366h-.049a53.516,53.516,0,0,1-6.236-.712.846.846,0,0,1-.653-1,.847.847,0,0,1,1-.653,52.921,52.921,0,0,0,5.983.678.846.846,0,0,1,.8.893A.846.846,0,0,1,3707.994-773.366Z" transform="translate(-3701.036 775.754)" fill="#0f2771"/>
          </g>
          <g id="Group_96992" data-name="Group 96992" transform="translate(8.571 25.514)">
            <path id="Path_151692" data-name="Path 151692" d="M3574.237-742.994a11.092,11.092,0,0,1,1.418,4.712l.009.13a9.645,9.645,0,0,1-4.966,9.375c-4.38,2.247-10.838,4.712-17.1,3.958-10.933-1.317-13.36-2.374-20.509,1.863s-28.773,9.383-34.759,11.191-6.831,2.5-8.265-2.251-1.24-5.5,4.167-7.135l23.75-7.173c6.759-2.041,14.55-2.085,20.148-4.468s7.6-8.3,14.3-11.941c3.512-1.908,8.472-2.857,12.4-3.328A9.649,9.649,0,0,1,3574.237-742.994Z" transform="translate(-3488.499 748.969)" fill="#8ad24a"/>
            <path id="Path_151693" data-name="Path 151693" d="M3490.439-712.152a2.9,2.9,0,0,1-1.4-.325c-1.092-.581-1.659-1.869-2.272-3.9-1.609-5.327-.946-6.475,4.732-8.19l23.751-7.173a72.26,72.26,0,0,1,9.477-1.948c3.9-.621,7.576-1.208,10.583-2.489,2.639-1.124,4.5-3.159,6.465-5.315a29.274,29.274,0,0,1,7.761-6.591c3.711-2.016,8.955-2.975,12.7-3.425a10.481,10.481,0,0,1,10.243,5.49,11.98,11.98,0,0,1,1.527,5.072l.009.13a10.491,10.491,0,0,1-5.424,10.185c-4.439,2.277-11.094,4.827-17.583,4.045-1.375-.166-2.615-.327-3.747-.474-7.856-1.023-10.228-1.332-16.229,2.226-5.634,3.34-19.617,7.1-28.87,9.594-2.542.684-4.736,1.275-6.076,1.679q-.686.207-1.285.393A16.948,16.948,0,0,1,3490.439-712.152Zm72.931-37.729a7.823,7.823,0,0,0-.934.056c-3.6.432-8.618,1.343-12.093,3.231a27.48,27.48,0,0,0-7.32,6.245c-2.1,2.295-4.075,4.463-7.053,5.731-3.2,1.362-6.978,1.965-10.979,2.6a70.975,70.975,0,0,0-9.255,1.9l-23.751,7.173c-4.983,1.505-4.905,1.763-3.6,6.08.542,1.8.962,2.635,1.448,2.894.672.358,2.1-.083,4.47-.812q.6-.186,1.293-.4c1.364-.412,3.465-.977,6.125-1.693,8.607-2.316,23.012-6.194,28.447-9.416,6.5-3.855,9.446-3.472,17.31-2.448,1.127.147,2.362.308,3.73.473,6.065.73,12.379-1.7,16.609-3.871a8.8,8.8,0,0,0,4.508-8.564l-.009-.13a10.28,10.28,0,0,0-1.31-4.351A8.922,8.922,0,0,0,3563.37-749.881Z" transform="translate(-3486.004 751.573)" fill="#0f2771"/>
          </g>
          <g id="Group_96993" data-name="Group 96993" transform="translate(13.515 51.86)">
            <path id="Path_151694" data-name="Path 151694" d="M3507-636.275a.846.846,0,0,1-.81-.6.846.846,0,0,1,.565-1.055l20.565-6.211a.846.846,0,0,1,1.054.565.846.846,0,0,1-.565,1.055l-20.565,6.211A.852.852,0,0,1,3507-636.275Z" transform="translate(-3506.158 644.179)" fill="#0f2771"/>
          </g>
          <g id="Group_96994" data-name="Group 96994" transform="translate(41.031 47.311)">
            <path id="Path_151695" data-name="Path 151695" d="M3619.171-658.58a.846.846,0,0,1-.81-.6.846.846,0,0,1,.565-1.055l8.11-2.449a.846.846,0,0,1,1.054.565.845.845,0,0,1-.565,1.055l-8.11,2.45A.845.845,0,0,1,3619.171-658.58Z" transform="translate(-3618.325 662.722)" fill="#0f2771"/>
          </g>
          <g id="Group_96995" data-name="Group 96995" transform="translate(80.301 30.024)">
            <path id="Path_151696" data-name="Path 151696" d="M3789.056-729.092a.846.846,0,0,1-.714-.39c-.1-.149-2.277-3.3-8.861-1.416a.845.845,0,0,1-1.046-.58.846.846,0,0,1,.581-1.047c7.89-2.259,10.643,1.956,10.756,2.137a.847.847,0,0,1-.267,1.166A.84.84,0,0,1,3789.056-729.092Z" transform="translate(-3778.402 733.188)" fill="#0f2771"/>
          </g>
          <g id="Group_96996" data-name="Group 96996" transform="translate(69.286 32.479)">
            <path id="Path_151697" data-name="Path 151697" d="M3734.407-714.579a.846.846,0,0,1-.832-.7c-.915-5.032,6.675-7.749,7-7.862a.845.845,0,0,1,1.077.519.846.846,0,0,1-.518,1.078c-.065.023-6.55,2.348-5.894,5.963a.846.846,0,0,1-.681.984A.848.848,0,0,1,3734.407-714.579Z" transform="translate(-3733.5 723.185)" fill="#0f2771"/>
          </g>
          <g id="Group_96997" data-name="Group 96997" transform="translate(70.627 43.512)">
            <path id="Path_151698" data-name="Path 151698" d="M3744.721-674.881c-4.009,0-5.477-1.729-5.565-1.838a.846.846,0,0,1,.125-1.19.847.847,0,0,1,1.181.113c.066.073,2.812,2.941,11.665-.361a.846.846,0,0,1,1.089.5.847.847,0,0,1-.5,1.089A23.168,23.168,0,0,1,3744.721-674.881Z" transform="translate(-3738.967 678.21)" fill="#0f2771"/>
          </g>
          <g id="Group_96998" data-name="Group 96998" transform="translate(87.614 36.452)">
            <path id="Path_151699" data-name="Path 151699" d="M3809.057-700.136a.847.847,0,0,1-.776-.508.846.846,0,0,1,.438-1.114,5.572,5.572,0,0,0,3.2-4.451.849.849,0,0,1,.908-.778.844.844,0,0,1,.779.9,7.277,7.277,0,0,1-4.214,5.877A.841.841,0,0,1,3809.057-700.136Z" transform="translate(-3808.21 706.989)" fill="#0f2771"/>
          </g>
          <g id="Group_96999" data-name="Group 96999" transform="translate(80.431 33.868)">
            <path id="Path_151700" data-name="Path 151700" d="M3785.4-715.35a.843.843,0,0,1-.358-.08,8.343,8.343,0,0,0-5.059-.066.846.846,0,0,1-1.024-.619.846.846,0,0,1,.619-1.024,9.74,9.74,0,0,1,6.188.179.847.847,0,0,1,.4,1.128A.847.847,0,0,1,3785.4-715.35Z" transform="translate(-3778.932 717.521)" fill="#0f2771"/>
          </g>
          <g id="Group_97000" data-name="Group 97000" transform="translate(74.003 39.278)">
            <path id="Path_151701" data-name="Path 151701" d="M3755.8-692.6a3.684,3.684,0,0,1-2.865-.948.847.847,0,0,1,.094-1.193.846.846,0,0,1,1.193.095c.654.766,4.165.218,7.034-.774a.846.846,0,0,1,1.076.523.847.847,0,0,1-.523,1.076A20.853,20.853,0,0,1,3755.8-692.6Z" transform="translate(-3752.729 695.466)" fill="#0f2771"/>
          </g>
          <g id="Group_97001" data-name="Group 97001" transform="translate(59.48 42.806)">
            <path id="Path_151702" data-name="Path 151702" d="M3694.376-678.012a.846.846,0,0,1-.81-.6.845.845,0,0,1,.565-1.055l4.578-1.383a.846.846,0,0,1,1.054.565.845.845,0,0,1-.565,1.054l-4.578,1.383A.841.841,0,0,1,3694.376-678.012Z" transform="translate(-3693.53 681.087)" fill="#0f2771"/>
          </g>
        </g>
        <g id="Group_97013" data-name="Group 97013" transform="translate(5.426 70.805)">
          <g id="Group_97003" data-name="Group 97003" transform="translate(3.628 10.307)">
            <path id="Path_151703" data-name="Path 151703" d="M3464.836-459.281A61.7,61.7,0,0,1,3467.5-472.3a53.356,53.356,0,0,0,2.555-11.472L3455.1-520.431a2.592,2.592,0,0,0-2.323-1.05c-1.635.107-3.373,3.087-3.373,3.087s-8.8,11.916-5.914,19.378,9.725,23.756,9.725,23.756l-6.629,15.979Z" transform="translate(-3442.061 522.334)" fill="#fff"/>
            <path id="Path_151704" data-name="Path 151704" d="M3443.983-461.039a.843.843,0,0,1-.324-.065.846.846,0,0,1-.457-1.106l6.493-15.654c-.98-2.34-6.966-16.646-9.6-23.452-2.965-7.67,5.352-19.269,6-20.149.379-.643,2.084-3.339,4.026-3.466a3.425,3.425,0,0,1,3.07,1.408.854.854,0,0,1,.091.167l14.962,36.657a.859.859,0,0,1,.06.392,54.574,54.574,0,0,1-2.6,11.671,61.341,61.341,0,0,0-2.625,12.817.848.848,0,0,1-.911.776.846.846,0,0,1-.776-.911,61.927,61.927,0,0,1,2.71-13.226,53.515,53.515,0,0,0,2.495-11.073l-14.843-36.364a1.752,1.752,0,0,0-1.524-.626c-.806.052-2.087,1.624-2.7,2.67-.015.026-.032.052-.049.076-.086.116-8.488,11.63-5.805,18.571,2.847,7.366,9.647,23.57,9.715,23.733a.846.846,0,0,1,0,.652l-6.629,15.98A.847.847,0,0,1,3443.983-461.039Z" transform="translate(-3439.462 524.939)" fill="#0f2771"/>
          </g>
          <g id="Group_97004" data-name="Group 97004" transform="translate(40.338 8.994)">
            <path id="Path_151705" data-name="Path 151705" d="M3597.779-464.633a61.729,61.729,0,0,0-2.667-13.021,53.406,53.406,0,0,1-2.556-11.472l14.963-36.657a2.591,2.591,0,0,1,2.322-1.05c1.635.107,3.374,3.087,3.374,3.087s8.8,11.916,5.914,19.379-9.725,23.755-9.725,23.755l6.629,15.979Z" transform="translate(-3591.709 527.686)" fill="#fff"/>
            <path id="Path_151706" data-name="Path 151706" d="M3613.43-466.39a.846.846,0,0,1-.782-.522l-6.63-15.979a.848.848,0,0,1,0-.652c.068-.163,6.869-16.367,9.716-23.733,2.686-6.948-5.719-18.456-5.805-18.571-.017-.024-.035-.05-.05-.076-.612-1.046-1.892-2.617-2.7-2.67a1.743,1.743,0,0,0-1.525.626L3590.816-491.6a53.527,53.527,0,0,0,2.494,11.073,61.862,61.862,0,0,1,2.71,13.226.846.846,0,0,1-.776.911.847.847,0,0,1-.911-.776,61.363,61.363,0,0,0-2.626-12.818,54.548,54.548,0,0,1-2.6-11.671.843.843,0,0,1,.06-.392l14.962-36.657a.855.855,0,0,1,.091-.167,3.422,3.422,0,0,1,3.071-1.408c1.94.127,3.645,2.822,4.025,3.466.644.88,8.959,12.48,6,20.149-2.631,6.806-8.617,21.112-9.6,23.452l6.494,15.653a.845.845,0,0,1-.457,1.106A.835.835,0,0,1,3613.43-466.39Z" transform="translate(-3589.108 530.29)" fill="#0f2771"/>
          </g>
          <g id="Group_97005" data-name="Group 97005" transform="translate(12.443)">
            <path id="Path_151707" data-name="Path 151707" d="M3525.664-543.648a23.213,23.213,0,0,0-.9-3.715,23.62,23.62,0,0,0-3.062-6.089,23.489,23.489,0,0,0-3.826-4.245A23.447,23.447,0,0,0,3502.4-563.5a23.557,23.557,0,0,0-23.553,23.557,23.486,23.486,0,0,0,1.811,9.07l3.309,5.589a23.5,23.5,0,0,0,18.433,8.894,23.448,23.448,0,0,0,4.343-.4,23.49,23.49,0,0,0,14.035-8.425l3.331-5.572a23.289,23.289,0,0,0,1.81-7.835q.038-.654.039-1.32A23.5,23.5,0,0,0,3525.664-543.648Z" transform="translate(-3477.998 564.35)" fill="#fff"/>
            <path id="Path_151708" data-name="Path 151708" d="M3499.795-518.15a24.285,24.285,0,0,1-19.1-9.213.9.9,0,0,1-.066-.1l-3.309-5.589a.924.924,0,0,1-.053-.105,24.267,24.267,0,0,1-1.875-9.4,24.429,24.429,0,0,1,24.4-24.4,24.358,24.358,0,0,1,16.035,6.016,24.331,24.331,0,0,1,3.961,4.395,24.476,24.476,0,0,1,3.173,6.31,24.142,24.142,0,0,1,.933,3.849,24.378,24.378,0,0,1,.3,3.834c0,.458-.013.919-.04,1.369a24.091,24.091,0,0,1-1.876,8.115.785.785,0,0,1-.053.1l-3.33,5.572a.875.875,0,0,1-.066.095,24.349,24.349,0,0,1-14.542,8.728A24.348,24.348,0,0,1,3499.795-518.15Zm-17.735-10.222a22.6,22.6,0,0,0,17.735,8.53,22.661,22.661,0,0,0,4.186-.387,22.657,22.657,0,0,0,13.5-8.077l3.27-5.472a22.4,22.4,0,0,0,1.722-7.5c.025-.421.038-.848.038-1.274a22.738,22.738,0,0,0-.28-3.569,22.407,22.407,0,0,0-.868-3.581,22.776,22.776,0,0,0-2.952-5.871,22.665,22.665,0,0,0-3.686-4.089,22.669,22.669,0,0,0-14.925-5.6,22.735,22.735,0,0,0-22.707,22.711,22.581,22.581,0,0,0,1.723,8.69Z" transform="translate(-3475.396 566.953)" fill="#0f2771"/>
          </g>
          <g id="Group_97006" data-name="Group 97006" transform="translate(12.386 5.402)">
            <path id="Path_151709" data-name="Path 151709" d="M3487.224-541.486s4.762.861,5.261,3.423-.854,2.348-1.495,3.629.783,4.127.071,4.839-2.918.854-2.847,1.922,0,3.274-2.277,1.921-3.487-1.138-3.985.783a5.522,5.522,0,0,1-3.175,3.789,21.5,21.5,0,0,1,1.558-10.838A23.884,23.884,0,0,1,3487.224-541.486Z" transform="translate(-3477.776 542.332)" fill="#8ad24a"/>
            <path id="Path_151710" data-name="Path 151710" d="M3476.163-522.936a.845.845,0,0,1-.419-.111.846.846,0,0,1-.413-.582,22.208,22.208,0,0,1,1.6-11.3,24.552,24.552,0,0,1,7.165-9.831.846.846,0,0,1,.661-.157c.546.1,5.349,1.052,5.941,4.094.4,2.031-.216,2.785-.993,3.495a2.3,2.3,0,0,0-.575.674,4.8,4.8,0,0,0,.142,2.126c.226,1.164.441,2.263-.229,2.933a4.433,4.433,0,0,1-1.583.852,4.368,4.368,0,0,0-1.014.475c.089,1.492-.245,2.48-.992,2.939a2.42,2.42,0,0,1-2.565-.294c-1.381-.82-1.953-.792-2.17-.7-.289.119-.467.594-.564.971a6.368,6.368,0,0,1-3.7,4.37A.848.848,0,0,1,3476.163-522.936Zm8.668-20.242a23.576,23.576,0,0,0-6.325,8.87,22.216,22.216,0,0,0-1.629,9.136,5.015,5.015,0,0,0,1.641-2.612,2.863,2.863,0,0,1,1.558-2.111c.93-.383,2.1-.125,3.678.813.6.358.822.3.823.3.048-.041.246-.419.179-1.441-.085-1.278,1.181-1.758,2.106-2.109a4.832,4.832,0,0,0,.938-.425,6.379,6.379,0,0,0-.186-1.455,5.287,5.287,0,0,1,.005-3.206,3.872,3.872,0,0,1,.947-1.167c.479-.438.719-.658.474-1.922C3488.754-541.973,3486.138-542.872,3484.832-543.178Z" transform="translate(-3475.163 544.934)" fill="#0f2771"/>
          </g>
          <g id="Group_97007" data-name="Group 97007" transform="translate(32.617 5.802)">
            <path id="Path_151711" data-name="Path 151711" d="M3587.726-525.8s-1.772.927-2.413,0a1.928,1.928,0,0,0-3.134-.427c-1.208,1.208-2.844.286-3.343,1.208s-.64,1.781,1.106,2.921c1.2.781,1.2,2.506,1.089,3.506l-1.089,5.46c-1.955.356-3.6,3.487-4.237,5.053s-1.138,3.2-2.633,2.847-1.352-2.847-1.424-4.483-.569-2.135-2.348-3.63.356-1.779-.783-3.772-1.281-1.993-2.918-1.779-1.281.5-3.2-1.051-1-1.582-1.281-4.216,1.21-3.06,1.281-4.555.5-1.85,1.068-3.416,1.708-2.7,3.558-2.206,1.922.285,3.2-1.21a3.789,3.789,0,0,1,3.7-1.281c1.139.071,1.424-1.068,2.847-1s3.17-2.026,3.17-2.026a24.067,24.067,0,0,1,5.409,6.863A32.108,32.108,0,0,1,3587.726-525.8Z" transform="translate(-3560.234 540.699)" fill="#8ad24a"/>
            <path id="Path_151712" data-name="Path 151712" d="M3570.895-506.935a2.679,2.679,0,0,1-.62-.077c-1.944-.463-2.007-2.884-2.053-4.651-.005-.215-.011-.423-.019-.619-.055-1.265-.309-1.558-2.047-3.018a2.148,2.148,0,0,1-.859-2.708,1.255,1.255,0,0,0-.114-1.292,5.737,5.737,0,0,0-.963-1.405,2.906,2.906,0,0,0-1.111.045c-.241.032-.438.065-.6.093-1.319.224-1.574.018-3.231-1.317-1.519-1.224-1.635-1.817-1.568-3.081a9.71,9.71,0,0,0-.031-1.709,5.142,5.142,0,0,1,.834-3.591,2.3,2.3,0,0,0,.443-1.094,6.074,6.074,0,0,1,.652-2.529c.139-.315.3-.671.466-1.136.822-2.262,2.532-3.284,4.574-2.734,1.247.336,1.247.336,2.167-.742l.172-.2a4.524,4.524,0,0,1,4.272-1.583l.123.008c.232.014.366-.064.726-.311a3.161,3.161,0,0,1,2.111-.686c.683.038,1.882-1.008,2.477-1.722a.846.846,0,0,1,.578-.3.848.848,0,0,1,.621.2,24.682,24.682,0,0,1,5.626,7.147,32.654,32.654,0,0,1,2.442,7.4.846.846,0,0,1-.441.9c-1.123.587-2.714.87-3.5-.269a1.515,1.515,0,0,0-1-.7,1.067,1.067,0,0,0-.84.39,3.659,3.659,0,0,1-2.6.963,2.511,2.511,0,0,0-.625.077c-.275.537-.477.912.854,1.781,1.178.767,1.7,2.3,1.467,4.311,0,.023-.006.046-.011.068l-1.089,5.46a.846.846,0,0,1-.678.667c-1.3.236-2.778,2.519-3.605,4.541l-.162.4C3573.206-508.661,3572.516-506.935,3570.895-506.935Zm-6.927-15.491c1.2,0,1.671.516,2.684,2.287a2.88,2.88,0,0,1,.247,2.677c-.141.415-.152.449.345.867,1.82,1.529,2.563,2.229,2.65,4.241.009.2.015.423.021.648.03,1.15.075,2.887.754,3.049.531.126.809-.234,1.487-1.929l.167-.415c.449-1.1,2.006-4.514,4.291-5.4l.982-4.922c.071-.644.129-2.117-.714-2.666-1.822-1.19-2.25-2.433-1.388-4.031a2.121,2.121,0,0,1,1.991-.934,2.061,2.061,0,0,0,1.5-.471,2.69,2.69,0,0,1,2.19-.878,3.137,3.137,0,0,1,2.238,1.422c.053.076.368.063.742-.042a32.349,32.349,0,0,0-2.167-6.308,22.193,22.193,0,0,0-4.594-6.032,4.906,4.906,0,0,1-3.26,1.68,1.548,1.548,0,0,0-1.07.392,2.692,2.692,0,0,1-1.787.6l-.127-.008a2.871,2.871,0,0,0-2.878,1l-.17.2c-1.253,1.468-1.711,1.865-3.895,1.277-.435-.117-1.76-.473-2.543,1.678-.188.518-.358.9-.508,1.242a4.47,4.47,0,0,0-.509,1.925,3.852,3.852,0,0,1-.682,1.883,3.449,3.449,0,0,0-.6,2.54,11.287,11.287,0,0,1,.039,1.981c-.043.812-.047.878.932,1.667,1.326,1.069,1.326,1.069,1.9.973.183-.031.4-.067.667-.1A8.591,8.591,0,0,1,3563.967-522.426Z" transform="translate(-3557.633 543.301)" fill="#0f2771"/>
          </g>
          <g id="Group_97008" data-name="Group 97008" transform="translate(18.997 25.905)">
            <path id="Path_151713" data-name="Path 151713" d="M3505.562-457.189a2.749,2.749,0,0,1,2.767-.5c1.567.854,2.707.427,4.591.213s2.382,1.068,3.595,2.417.568,3.843.709,5.41-1.068,2.848-1.422,3.771,2.135,2.634,1.14,3.774-4.056-1.781-5.056-1.994-2.349-.781-2.2-2.421.214-2.084-.5-3.352c-.577-1.029-1.853-.341-2.673-.606Z" transform="translate(-3504.716 458.749)" fill="#8ad24a"/>
            <path id="Path_151714" data-name="Path 151714" d="M3513.736-443.592a7.335,7.335,0,0,1-3.39-1.543,8.274,8.274,0,0,0-1.243-.741c-1.971-.423-3.016-1.634-2.866-3.323l.016-.184a3.419,3.419,0,0,0-.41-2.678c-.081-.144-.171-.189-.876-.136a3.4,3.4,0,0,1-1.319-.08.846.846,0,0,1-.545-1.065.846.846,0,0,1,1.065-.545,2.379,2.379,0,0,0,.672,0,2.312,2.312,0,0,1,2.479,1,5.03,5.03,0,0,1,.621,3.653l-.016.185c-.031.351-.1,1.169,1.538,1.521a6.262,6.262,0,0,1,1.819.983c.614.406,2.052,1.357,2.469,1.25.093-.129-.383-.825-.638-1.2-.5-.728-1.011-1.48-.7-2.29a7.266,7.266,0,0,1,.548-1.045,4.144,4.144,0,0,0,.822-2.345,12.524,12.524,0,0,1,.008-1.671c.056-1.2.121-2.552-.506-3.253-.258-.286-.486-.571-.7-.841-.841-1.053-1.181-1.411-2.169-1.3-.354.04-.682.088-.99.134a5.8,5.8,0,0,1-4.1-.445c-.439-.24-1.06-.089-1.9.463a.847.847,0,0,1-1.172-.241.847.847,0,0,1,.241-1.172c1.388-.915,2.612-1.1,3.638-.536a4.244,4.244,0,0,0,3.044.256c.326-.048.671-.1,1.046-.141,1.966-.223,2.839.869,3.681,1.925.2.245.4.505.639.768,1.089,1.219,1,3.017.936,4.462a11.429,11.429,0,0,0-.013,1.438,5.6,5.6,0,0,1-1.051,3.361,7.52,7.52,0,0,0-.392.711,4.891,4.891,0,0,0,.487.807c.549.8,1.469,2.152.469,3.3A1.579,1.579,0,0,1,3513.736-443.592Z" transform="translate(-3502.113 461.355)" fill="#0f2771"/>
          </g>
          <g id="Group_97009" data-name="Group 97009" transform="translate(48.763 10.435)">
            <path id="Path_151715" data-name="Path 151715" d="M3641.948-460.2s-4.8-10.675-5.551-13.13-.427-3.1,2.028-5.017,4.8-3.309,6.512-7.579,4.27-6.105,4.27-11.539.427-9.384-1.388-13.227-4.483-10.034-6.085-10.248-3.309.854-2.455,3.736a20.319,20.319,0,0,0,1.922,4.59s-.107,4.163,2.349,6.3a25.871,25.871,0,0,0-.9,8.755v.029a7.237,7.237,0,0,0-5.138,1.792c-2.144-3.491-2.943-5.437-3.033-7.836-.107-2.847-4.27-3.06-4.7,2.277s3.629,6.966,2.882,10.368-4.056,4.79-5.764,8.1Z" transform="translate(-3626.051 521.813)" fill="#fff"/>
            <path id="Path_151716" data-name="Path 151716" d="M3639.346-461.957a.846.846,0,0,1-.772-.5c-.2-.438-4.834-10.753-5.589-13.231-.886-2.911-.3-3.88,2.316-5.93.293-.23.586-.452.875-.673,2.121-1.614,3.954-3.007,5.372-6.554a28.647,28.647,0,0,1,1.883-3.727,13.364,13.364,0,0,0,2.327-7.5c0-.908.011-1.776.023-2.608.055-4.04.1-7.231-1.33-10.258-.222-.47-.457-.975-.7-1.5-1.2-2.585-3.7-7.963-4.745-8.273a1.544,1.544,0,0,0-1.387.431,2.428,2.428,0,0,0-.13,2.229,19.614,19.614,0,0,0,1.827,4.382.842.842,0,0,1,.128.47c0,.036-.061,3.8,2.058,5.638a.847.847,0,0,1,.252.891,25.253,25.253,0,0,0-.867,8.435c0,.022,0,.044,0,.066a.878.878,0,0,1-.282.645.852.852,0,0,1-.657.225,6.539,6.539,0,0,0-4.537,1.626.845.845,0,0,1-.667.156.847.847,0,0,1-.563-.388c-2.3-3.739-3.064-5.743-3.157-8.247-.027-.7-.394-1.154-.938-1.165-.842-.018-1.876,1.062-2.069,3.479a8.9,8.9,0,0,0,1.616,5.7c.82,1.408,1.669,2.864,1.249,4.778-.475,2.16-1.858,3.584-3.195,4.961a14.289,14.289,0,0,0-2.645,3.345.846.846,0,0,1-1.14.364.846.846,0,0,1-.364-1.14,15.63,15.63,0,0,1,2.935-3.747c1.28-1.318,2.385-2.456,2.756-4.146.279-1.269-.282-2.231-1.058-3.563a10.582,10.582,0,0,1-1.841-6.691c.282-3.528,2.11-5.076,3.793-5.035a2.722,2.722,0,0,1,2.593,2.794c.074,2,.682,3.692,2.442,6.655a8.241,8.241,0,0,1,3.985-1.445,27.034,27.034,0,0,1,.849-7.659c-2.016-2.111-2.225-5.387-2.242-6.325a22.268,22.268,0,0,1-1.887-4.581c-.594-2-.073-3.178.467-3.81a3.221,3.221,0,0,1,2.912-1.006c1.736.232,3.52,3.807,6.042,9.234.242.522.476,1.024.7,1.491,1.6,3.38,1.551,6.744,1.492,11-.011.825-.023,1.684-.023,2.585a14.931,14.931,0,0,1-2.551,8.339,27.218,27.218,0,0,0-1.78,3.515,15.518,15.518,0,0,1-5.919,7.273c-.284.216-.57.433-.857.658-2.325,1.82-2.338,2.14-1.74,4.1.723,2.376,5.465,12.923,5.513,13.029a.846.846,0,0,1-.424,1.119A.839.839,0,0,1,3639.346-461.957Z" transform="translate(-3623.448 524.416)" fill="#0f2771"/>
          </g>
          <g id="Group_97010" data-name="Group 97010" transform="translate(59.374 35.662)">
            <path id="Path_151717" data-name="Path 151717" d="M3670.254-406.186s4.41-4.913,1.245-9.821c-.5-.772-.944-1.476-1.344-2.127Z" transform="translate(-3669.308 418.98)" fill="#fff"/>
            <path id="Path_151718" data-name="Path 151718" d="M3667.649-407.943a.845.845,0,0,1-.565-.217.846.846,0,0,1-.066-1.193c.164-.184,3.934-4.5,1.165-8.8-.5-.777-.951-1.487-1.354-2.143a.846.846,0,0,1,.279-1.164.846.846,0,0,1,1.164.278c.4.647.841,1.346,1.334,2.112,3.475,5.388-1.278,10.791-1.327,10.845A.844.844,0,0,1,3667.649-407.943Z" transform="translate(-3666.705 421.584)" fill="#0f2771"/>
          </g>
          <g id="Group_97011" data-name="Group 97011" transform="translate(0 11.748)">
            <path id="Path_151719" data-name="Path 151719" d="M3435.426-454.849s4.8-10.675,5.551-13.13.427-3.1-2.028-5.017-4.8-3.309-6.512-7.579-4.27-6.105-4.27-11.539-.427-9.383,1.388-13.227,4.483-10.034,6.085-10.248,3.309.854,2.455,3.736a20.333,20.333,0,0,1-1.921,4.59s.106,4.163-2.349,6.3a25.866,25.866,0,0,1,.9,8.755v.029a7.238,7.238,0,0,1,5.138,1.792c2.144-3.49,2.943-5.437,3.033-7.836.107-2.847,4.27-3.06,4.7,2.277s-3.63,6.966-2.882,10.368,4.057,4.79,5.764,8.1Z" transform="translate(-3427.277 516.461)" fill="#fff"/>
            <path id="Path_151720" data-name="Path 151720" d="M3432.823-456.605a.845.845,0,0,1-.347-.075.846.846,0,0,1-.424-1.119c.048-.106,4.79-10.653,5.513-13.029.6-1.964.585-2.285-1.74-4.1-.288-.225-.574-.443-.857-.659a15.52,15.52,0,0,1-5.918-7.273,27.3,27.3,0,0,0-1.78-3.515,14.933,14.933,0,0,1-2.551-8.339c0-.9-.012-1.76-.023-2.584-.059-4.259-.1-7.623,1.492-11,.22-.467.454-.969.7-1.491,2.522-5.428,4.306-9,6.042-9.234a3.223,3.223,0,0,1,2.911,1.005c.54.632,1.061,1.806.467,3.81a22.248,22.248,0,0,1-1.887,4.581c-.017.939-.226,4.214-2.241,6.326a27.131,27.131,0,0,1,.847,7.659,8.237,8.237,0,0,1,3.986,1.445c1.76-2.963,2.368-4.654,2.443-6.655a2.722,2.722,0,0,1,2.593-2.794c1.672-.039,3.51,1.507,3.793,5.035a10.582,10.582,0,0,1-1.841,6.692c-.776,1.332-1.337,2.294-1.058,3.563.371,1.69,1.476,2.828,2.755,4.145a15.63,15.63,0,0,1,2.935,3.747.846.846,0,0,1-.364,1.14.846.846,0,0,1-1.14-.364,14.29,14.29,0,0,0-2.645-3.344c-1.337-1.377-2.72-2.8-3.194-4.961-.42-1.913.428-3.37,1.248-4.778a8.9,8.9,0,0,0,1.616-5.7c-.192-2.4-1.192-3.479-2.048-3.479-.565.012-.933.469-.959,1.165-.094,2.5-.861,4.508-3.157,8.247a.846.846,0,0,1-.563.389.845.845,0,0,1-.667-.156,6.534,6.534,0,0,0-4.536-1.627.843.843,0,0,1-.657-.211.847.847,0,0,1-.281-.63c0-.022,0-.073,0-.1a25.252,25.252,0,0,0-.867-8.436.847.847,0,0,1,.252-.891c2.13-1.852,2.059-5.6,2.058-5.638a.849.849,0,0,1,.129-.47,19.812,19.812,0,0,0,1.828-4.382,2.431,2.431,0,0,0-.131-2.229,1.55,1.55,0,0,0-1.4-.428c-1.03.307-3.53,5.685-4.731,8.27-.244.525-.479,1.03-.7,1.5-1.428,3.026-1.385,6.217-1.329,10.258.011.832.023,1.7.023,2.607a13.369,13.369,0,0,0,2.327,7.5,28.536,28.536,0,0,1,1.883,3.726c1.419,3.547,3.251,4.941,5.372,6.555.29.22.582.443.875.673,2.619,2.05,3.2,3.018,2.317,5.93-.754,2.478-5.392,12.793-5.589,13.231A.847.847,0,0,1,3432.823-456.605Z" transform="translate(-3424.674 519.064)" fill="#0f2771"/>
          </g>
          <g id="Group_97012" data-name="Group 97012" transform="translate(9.264 36.975)">
            <path id="Path_151721" data-name="Path 151721" d="M3468.24-400.835s-4.41-4.913-1.245-9.821c.5-.772.944-1.476,1.344-2.128Z" transform="translate(-3465.014 413.629)" fill="#fff"/>
            <path id="Path_151722" data-name="Path 151722" d="M3465.663-402.591a.843.843,0,0,1-.629-.281c-.049-.054-4.8-5.456-1.327-10.845.494-.766.938-1.465,1.334-2.112a.846.846,0,0,1,1.164-.278.846.846,0,0,1,.278,1.164c-.4.656-.852,1.366-1.354,2.143-2.77,4.295,1,8.617,1.165,8.8a.847.847,0,0,1-.068,1.194A.843.843,0,0,1,3465.663-402.591Z" transform="translate(-3462.437 416.232)" fill="#0f2771"/>
          </g>
        </g>
      </g>
    </g>
  </g>
</svg>
