<svg xmlns="http://www.w3.org/2000/svg" width="90" height="90" viewBox="0 0 90 90">
  <g id="t6-ic6" transform="translate(-9227 10072)">
    <rect id="Rectangle_33176" data-name="Rectangle 33176" width="90" height="90" transform="translate(9227 -10072)" fill="none"/>
    <g id="Group_98845" data-name="Group 98845" transform="translate(7402.387 -10407)">
      <path id="Trazado_151883" data-name="Trazado 151883" d="M1898.413,419.939l-.96-.96V360.363l-14.213-14.214h-40.425l-.875-1.231a3.964,3.964,0,0,0-3.781,3.96v70.879a3.964,3.964,0,0,0,3.964,3.964h52.33a3.963,3.963,0,0,0,3.96-3.782Z" transform="translate(-0.024 -0.035)" fill="#eaf6ff"/>
      <path id="Trazado_151884" data-name="Trazado 151884" d="M1841.957,344.918c-.007.157,0,70.525,0,71.063a3.964,3.964,0,0,0,3.964,3.964h52.507V361.325l-16.411-16.411h-40.062Z" transform="translate(-0.038 -0.035)" fill="#d8ecfe"/>
      <path id="Rectangle_34244" data-name="Rectangle 34244" d="M4.214,0h6.747a0,0,0,0,1,0,0V78.719a0,0,0,0,1,0,0H5.268A5.268,5.268,0,0,1,0,73.451V4.214A4.214,4.214,0,0,1,4.214,0Z" transform="translate(1845.948 336.993)" fill="#3ca8f4"/>
      <path id="Rectangle_34245" data-name="Rectangle 34245" d="M0,0H43.349a6.473,6.473,0,0,1,6.473,6.473v67.4a4.848,4.848,0,0,1-4.848,4.848H0a0,0,0,0,1,0,0V0A0,0,0,0,1,0,0Z" transform="translate(1856.909 336.993)" fill="#70c4ff"/>
      <path id="Trazado_151886" data-name="Trazado 151886" d="M1878.809,393.7h-43.486a2.378,2.378,0,0,1-2.379-2.379V372.312a2.379,2.379,0,0,1,2.379-2.379h43.486a2.379,2.379,0,0,1,2.379,2.379v19.011a2.378,2.378,0,0,1-2.379,2.379Z" transform="translate(-0.006 -0.124)" fill="#fde947"/>
      <rect id="Rectangle_34246" data-name="Rectangle 34246" width="28.897" height="12.954" transform="translate(1868.866 346.957)" fill="#fde947"/>
      <g id="Group_98844" data-name="Group 98844" transform="translate(1839.129 375.001)">
        <path id="Path_154037" data-name="Path 154037" d="M1839.157,375.6c0-.315.453-.454.82-.454h3.826c3.248,0,4.7.751,4.7,3.878v.506c0,3.18-1.362,3.878-4.7,3.878h-2.044v4.069c0,.279-.315.454-.648.454-.436,0-1.955-.053-1.955-.436Zm2.6,1.886v3.581h2.044c1.677,0,1.991-.263,1.991-1.538v-.506c0-1.241-.314-1.538-1.991-1.538Z" transform="translate(-1839.157 -375.144)"/>
        <path id="Path_154038" data-name="Path 154038" d="M1856.817,375.144c3.6,0,5.328,1.206,5.328,4.839v2.9c0,3.633-1.73,4.838-5.328,4.838h-3.651c-.367,0-.838-.226-.838-.4V375.6c0-.227.3-.454.629-.454Zm-1.869,2.341v7.9h1.869c2.236,0,2.637-.892,2.637-2.9v-2.1c0-2.009-.4-2.9-2.637-2.9Z" transform="translate(-1839.204 -375.144)"/>
        <path id="Path_154039" data-name="Path 154039" d="M1868.892,387.388a.633.633,0,0,1-.646.542c-.455,0-1.974-.106-1.974-.471V375.6c0-.262.3-.454.629-.454h7.3c.28,0,.472.315.472.612,0,.436-.053,1.729-.42,1.729h-5.362v2.672h4.349c.244,0,.436.315.436.612,0,.436-.036,1.729-.384,1.729h-4.4Z" transform="translate(-1839.253 -375.144)"/>
      </g>
      <g id="_000000ff" data-name=" 000000ff" transform="translate(1831.313 335)">
        <path id="Trazado_154014" data-name="Trazado 154014" d="M1849.849,335h53.23a5.731,5.731,0,0,1,3.1,1.406,5.4,5.4,0,0,1,1.728,4.037q0,28.925,0,57.846a1.37,1.37,0,0,1-1.037,1.481,1.3,1.3,0,0,1-1.574-1.3q-.016-29.1-.006-58.208a2.683,2.683,0,0,0-2.617-2.623q-22.157,0-44.312,0,0,15.335,0,30.669c6.791.018,13.582-.005,20.372.015a3.663,3.663,0,0,1,3.6,3.6c.019,6.034.005,12.071.01,18.105a5.882,5.882,0,0,1-.323,2.568,3.712,3.712,0,0,1-3.264,2.178q-10.2.01-20.4,0V414.1q22.157-.008,44.312-.005a2.7,2.7,0,0,0,2.616-2.616c.019-2.291-.025-4.583.014-6.874a1.3,1.3,0,0,1,1.687-1.178,1.348,1.348,0,0,1,.915,1.345c.007,2.232.01,4.465,0,6.7a5.334,5.334,0,0,1-3.118,4.771c-1.617.74-3.434.408-5.149.485-.085,1.7.256,3.51-.469,5.119a5.481,5.481,0,0,1-4.354,3.155h-53.389a6.016,6.016,0,0,1-2.433-.852,5.272,5.272,0,0,1-2.437-4.417q-.009-12.48,0-24.961c-.644-.007-1.287.026-1.929-.025a3.7,3.7,0,0,1-3.1-2.5,7.572,7.572,0,0,1-.2-2.4q0-8.348,0-16.7a7.569,7.569,0,0,1,.176-2.245,3.678,3.678,0,0,1,3.185-2.57c.625-.048,1.251-.016,1.877-.034-.005-.731-.014-1.463-.012-2.193a1.539,1.539,0,0,1,.536-1.419,1.307,1.307,0,0,1,2.039.791c.1.937.018,1.884.048,2.826,1.888.011,3.774.016,5.662,0q-.01-11.2,0-22.4c-.938,0-1.879-.014-2.82,0a2.7,2.7,0,0,0-2.835,2.629c-.022,3.638.005,7.277-.011,10.914a1.318,1.318,0,0,1-1.355,1.436,1.3,1.3,0,0,1-1.25-1.431c0-3.638-.007-7.277,0-10.918a5.3,5.3,0,0,1,3.013-4.724c1.636-.8,3.5-.446,5.255-.529,0-1-.005-2.008,0-3.01a5.313,5.313,0,0,1,2.025-4.12,5.632,5.632,0,0,1,3-1.144m-2.4,5.266q-.013,14.02,0,28.037c2.761,0,5.524.016,8.286,0q0-15.335,0-30.669c-1.937,0-3.874-.009-5.809,0a2.66,2.66,0,0,0-2.477,2.625m-12.738,30.7a1.1,1.1,0,0,0-.773,1.113c0,6.278.007,12.556,0,18.833a1.1,1.1,0,0,0,1.217,1.233q21.722,0,43.439,0a1.1,1.1,0,0,0,1.166-1.234c-.007-6.272.009-12.542,0-18.812a1.125,1.125,0,0,0-1.066-1.182,1.065,1.065,0,0,0-.112,0c-14.356-.021-28.712.005-43.068-.012a3.112,3.112,0,0,0-.8.063m4.46,23.806q-.013,12.481,0,24.96a2.664,2.664,0,0,0,2.662,2.635q26.291,0,52.583,0a2.688,2.688,0,0,0,2.6-2.459c.035-1.058,0-2.116.007-3.175q-23.375-.021-46.749-.007a5.436,5.436,0,0,1-2.988-.838,5.3,5.3,0,0,1-2.455-4.414q-.006-8.351,0-16.7c-1.884-.007-3.771,0-5.657,0m8.276,0q0,8.349,0,16.7a2.671,2.671,0,0,0,2.646,2.627c1.879,0,3.76.005,5.641,0q0-9.666,0-19.33c-2.761,0-5.524-.007-8.286,0Z" transform="translate(-1831.313 -335)"/>
        <path id="Trazado_154015" data-name="Trazado 154015" d="M1868.92,345.826a4.069,4.069,0,0,1,1.174-.1c9.025.009,18.052-.007,27.076.007a2.72,2.72,0,0,1,2.582,2.659q.018,5.354,0,10.708a2.766,2.766,0,0,1-2.759,2.645q-13.627.007-27.254,0a2.758,2.758,0,0,1-2.74-2.627q-.018-5.36,0-10.721a2.757,2.757,0,0,1,1.925-2.565m.672,2.528c.005,3.584-.007,7.168,0,10.753q13.775.031,27.551,0c.007-3.588-.007-7.175,0-10.764-2.923-.049-5.85-.007-8.775-.021-6.26.023-12.522-.041-18.782.03Z" transform="translate(-1831.44 -335.038)"/>
        <path id="Trazado_154019" data-name="Trazado 154019" d="M1872.987,399.116a2.5,2.5,0,0,1,.627-.065q9.766,0,19.535,0a1.378,1.378,0,0,1,1.461.947,1.309,1.309,0,0,1-1.283,1.676q-9.944,0-19.888,0a1.32,1.32,0,0,1-1.405-1.238A1.288,1.288,0,0,1,1872.987,399.116Z" transform="translate(-1831.458 -335.228)"/>
        <path id="Trazado_154020" data-name="Trazado 154020" d="M1872.987,405.117a3.1,3.1,0,0,1,.808-.07q9.676.01,19.354,0a1.413,1.413,0,0,1,1.367.713,1.309,1.309,0,0,1-1.19,1.909c-6.629.008-13.26-.006-19.888.005a1.324,1.324,0,0,1-1.406-1.237v0A1.291,1.291,0,0,1,1872.987,405.117Z" transform="translate(-1831.458 -335.249)"/>
      </g>
    </g>
  </g>
</svg>
