<svg xmlns="http://www.w3.org/2000/svg" width="90" height="90" viewBox="0 0 90 90">
  <g id="t6-ic7" transform="translate(-9227 9838)">
    <rect id="Rectangle_33284" data-name="Rectangle 33284" width="90" height="90" transform="translate(9227 -9838)" fill="none"/>
    <g id="Group_98837" data-name="Group 98837" transform="translate(7860.074 -10277.318)">
      <g id="codigo-postal" transform="translate(1370.303 439.318)">
        <g id="Grupo_97177" data-name="Grupo 97177" transform="translate(1.319 1.318)">
          <path id="Trazado_152056" data-name="Trazado 152056" d="M1439.431,452.266l-5.39-11.63h-44.207a4.4,4.4,0,0,0-4.395,4.395V523.6a4.394,4.394,0,0,0,4.395,4.395h45.736l2.547-1.406,2.469,1.406h1.771a4.392,4.392,0,0,0,3.9-2.373h3.374V457.493Z" transform="translate(-1371.623 -440.636)" fill="#70c4ff"/>
          <path id="Trazado_152057" data-name="Trazado 152057" d="M1446.757,456.019V523.6a4.394,4.394,0,0,1-4.395,4.395h5.481a4.394,4.394,0,0,0,4.394-4.395V458.83Z" transform="translate(-1371.627 -440.637)" fill="#3ca8f4"/>
          <path id="Trazado_152058" data-name="Trazado 152058" d="M1422.467,486.079h-48.208a2.637,2.637,0,0,1-2.637-2.637v-21.07a2.637,2.637,0,0,1,2.637-2.637h48.208a2.637,2.637,0,0,1,2.637,2.637h0v21.074A2.636,2.636,0,0,1,1422.467,486.079Z" transform="translate(-1371.622 -440.637)" fill="#fde947"/>
          <path id="Trazado_152059" data-name="Trazado 152059" d="M1438.438,458.828h13.8l-18.193-18.192v13.8A4.394,4.394,0,0,0,1438.438,458.828Z" transform="translate(-1371.626 -440.636)" fill="#fde947"/>
          <path id="Trazado_152060" data-name="Trazado 152060" d="M1439.968,516.4H1436.2a.882.882,0,0,0-.879.825l-.623,9.838a.882.882,0,0,0,.823.936h5.073a.88.88,0,0,0,.881-.881c0-.018,0-.037,0-.056l-.623-9.838A.881.881,0,0,0,1439.968,516.4Z" transform="translate(-1371.626 -440.641)" fill="#8ad24a"/>
        </g>
        <g id="Grupo_97178" data-name="Grupo 97178">
          <path id="Trazado_152061" data-name="Trazado 152061" d="M1417.165,494.277h-20.219a1.318,1.318,0,0,0,0,2.637h20.219a1.318,1.318,0,1,0,0-2.637Z" transform="translate(-1370.305 -439.322)"/>
          <path id="Trazado_152062" data-name="Trazado 152062" d="M1417.165,503.246h-20.219a1.318,1.318,0,0,0,0,2.637h20.219a1.318,1.318,0,1,0,0-2.637Z" transform="translate(-1370.305 -439.322)"/>
          <path id="Trazado_152063" data-name="Trazado 152063" d="M1417.165,512.214h-20.219a1.318,1.318,0,0,0,0,2.637h20.219a1.318,1.318,0,1,0,0-2.637Z" transform="translate(-1370.305 -439.323)"/>
          <path id="Trazado_152067" data-name="Trazado 152067" d="M1453.165,457.9,1434.974,439.7a1.337,1.337,0,0,0-.935-.386h-34.273a1.318,1.318,0,0,0,0,2.637h32.957v12.479a5.718,5.718,0,0,0,5.716,5.713h12.479V523.6a3.08,3.08,0,0,1-3.076,3.076h-5.076l-.6-9.54a2.2,2.2,0,0,0-2.195-2.061h-.533v-6.21h2.412a1.318,1.318,0,1,0,0-2.637h-2.412v-3.522h2.412a1.318,1.318,0,1,0,0-2.637h-2.412v-3.523h2.412a1.318,1.318,0,1,0,0-2.637h-2.412v-3.523h2.412a1.318,1.318,0,1,0,0-2.637h-2.412v-3.523h2.412a1.318,1.318,0,1,0,0-2.637h-2.412v-3.075a1.318,1.318,0,0,0-2.637,0v6.253h-2.412a1.318,1.318,0,0,0,0,2.637h2.412v3.523h-2.412a1.318,1.318,0,0,0,0,2.637h2.412v3.523h-2.412a1.318,1.318,0,0,0,0,2.637h2.412v3.523h-2.412a1.318,1.318,0,0,0,0,2.637h2.412v3.523h-2.412a1.318,1.318,0,0,0,0,2.637h2.412v3.037h-.606a2.2,2.2,0,0,0-2.2,2.061l-.6,9.54h-6.74a1.318,1.318,0,0,0,0,2.637h21.182a5.718,5.718,0,0,0,5.713-5.713V458.829A1.328,1.328,0,0,0,1453.165,457.9Zm-17.127,68.778.567-8.964h2.95l.568,8.964Zm2.4-69.165a3.079,3.079,0,0,1-3.076-3.076V443.818l13.691,13.691Z" transform="translate(-1370.305 -439.318)"/>
          <path id="Trazado_152068" data-name="Trazado 152068" d="M1426.42,462.371a3.96,3.96,0,0,0-3.955-3.955h-35.708V445.031a3.081,3.081,0,0,1,3.076-3.076h3.775a1.318,1.318,0,1,0,0-2.637h-3.775a5.719,5.719,0,0,0-5.713,5.713v13.386h-9.863a3.96,3.96,0,0,0-3.955,3.955v21.074a3.959,3.959,0,0,0,3.955,3.955h9.863v36.2a5.712,5.712,0,0,0,5.711,5.715h30.67a1.318,1.318,0,1,0,0-2.637h-30.668a3.074,3.074,0,0,1-3.076-3.074V487.4h35.708a3.959,3.959,0,0,0,3.955-3.955Zm-2.637,21.074a1.319,1.319,0,0,1-1.318,1.318h-48.208a1.32,1.32,0,0,1-1.318-1.318V462.371a1.321,1.321,0,0,1,1.318-1.318h48.208a1.32,1.32,0,0,1,1.318,1.318Z" transform="translate(-1370.303 -439.318)"/>
        </g>
      </g>
      <g id="Group_98836" data-name="Group 98836" transform="translate(1383.532 466.17)">
        <path id="Path_154016" data-name="Path 154016" d="M1383.989,478.968c-.263,0-.456-.3-.456-.6,0-.368.017-1.455.3-1.7l6.206-7.975H1384.6c-.351,0-.385-1.3-.385-1.735,0-.3.193-.613.438-.613H1393c.264,0,.438.315.438.613a4.527,4.527,0,0,1-.28,1.7l-6.187,7.958h6.292c.263,0,.472.3.472.613,0,.438-.052,1.736-.419,1.736Z" transform="translate(-1383.533 -466.172)"/>
        <path id="Path_154017" data-name="Path 154017" d="M1399.37,479.178c-.474,0-1.982-.035-1.982-.421V466.593c0-.385,1.508-.421,1.982-.421.315,0,.648.193.648.474v12.041C1400.018,478.986,1399.685,479.178,1399.37,479.178Z" transform="translate(-1383.534 -466.172)"/>
        <path id="Path_154018" data-name="Path 154018" d="M1404.334,466.8c0-.317.455-.456.823-.456H1409c3.26,0,4.714.753,4.714,3.891v.508c0,3.191-1.367,3.892-4.714,3.892h-2.051v4.084c0,.281-.316.456-.65.456-.438,0-1.962-.052-1.962-.438Zm2.612,1.892v3.594H1409c1.683,0,2-.263,2-1.543v-.508c0-1.244-.315-1.543-2-1.543Z" transform="translate(-1383.534 -466.172)"/>
      </g>
    </g>
  </g>
</svg>
