<svg xmlns="http://www.w3.org/2000/svg" width="137" height="100" viewBox="0 0 137 100">
  <g id="i0-ic1" transform="translate(-207 -796)">
    <path id="Rectangle_33103" data-name="Rectangle 33103" d="M50,0H87a50,50,0,0,1,50,50v0a0,0,0,0,1,0,0H0a0,0,0,0,1,0,0v0A50,50,0,0,1,50,0Z" transform="translate(207 846)" fill="#fffad1"/>
    <g id="ambiente_1_" data-name="ambiente (1)" transform="translate(225.998 796)">
      <rect id="Rectangle_33184" data-name="Rectangle 33184" width="20.312" height="10.547" transform="translate(39.849 87.5)" fill="#59bbff"/>
      <path id="Path_151004" data-name="Path 151004" d="M155.7,96.145a32.152,32.152,0,1,0-50.266,26.566,18.068,18.068,0,0,1,7.958,14.9V139H133.7v-1.307a17.931,17.931,0,0,1,7.816-14.881A32.117,32.117,0,0,0,155.7,96.145Z" transform="translate(-73.542 -51.495)" fill="#c4e7ff"/>
      <path id="Path_151005" data-name="Path 151005" d="M254.735,189.569V144.592H235.011v59.26h14.257v-1.307A18.032,18.032,0,0,1,254.735,189.569Z" transform="translate(-189.108 -116.351)" fill="#bdff82"/>
      <path id="Path_151006" data-name="Path 151006" d="M170.037,225.174V253.4a18.011,18.011,0,0,1,6.636,13.9V268.7H189.76V225.174Z" transform="translate(-136.825 -181.195)" fill="#fde947"/>
      <path id="Path_151007" data-name="Path 151007" d="M370,175.759a12.893,12.893,0,1,0,25.78,0,13.287,13.287,0,0,0-2.894-8.312h0l-9.952-13.089-10,13.021h.007A13.287,13.287,0,0,0,370,175.759Z" transform="translate(-297.734 -124.209)" fill="#3ca8f4"/>
      <path id="Path_151008" data-name="Path 151008" d="M23.208,191.334h0A13.156,13.156,0,0,1,10.2,180.163h0a16.314,16.314,0,0,1,2.714-11.749l9.732-14.058h-.006l9.732,14.058a16.315,16.315,0,0,1,2.714,11.749h0a13.156,13.156,0,0,1-13.005,11.17h0" transform="translate(-8.057 -124.208)" fill="#8ad24a"/>
      <path id="Path_151009" data-name="Path 151009" d="M178.345,175.312a30.434,30.434,0,0,1-4.033,3.259,19.822,19.822,0,0,0-8.666,15.854h-3.719V178.209h2.732a1.953,1.953,0,0,0,0-3.906h-2.732v-3.894h2.732a1.953,1.953,0,1,0,0-3.906h-2.732v-3.894h2.732a1.953,1.953,0,1,0,0-3.906h-2.732v-3.894h2.732a1.953,1.953,0,0,0,0-3.906h-4.295a1.978,1.978,0,0,0-.3.025c-.031,0-.062,0-.094,0H155.48v-3.914h9.179a1.953,1.953,0,0,0,0-3.906H155.48v-3.894h15.427v32.364a1.953,1.953,0,0,0,3.906,0V137.256a1.953,1.953,0,0,0-1.953-1.953H153.527a1.953,1.953,0,0,0-1.953,1.953v13.667H140.641a1.953,1.953,0,0,0-1.953,1.953v18.731a1.953,1.953,0,1,0,3.906,0V154.829h15.427v39.595h-8.8a20.044,20.044,0,0,0-8.8-15.944,30.425,30.425,0,0,1-3.625-2.908,1.953,1.953,0,0,0-2.67,2.851,34.327,34.327,0,0,0,4.092,3.282,16.127,16.127,0,0,1,7.107,13.284v11.935a1.953,1.953,0,0,0,1.953,1.953h20.312a1.953,1.953,0,0,0,1.953-1.953V195.07a15.94,15.94,0,0,1,6.956-13.263,34.353,34.353,0,0,0,4.552-3.678,1.953,1.953,0,1,0-2.7-2.818ZM165.636,204.97H149.231v-6.64h16.406Z" transform="translate(-107.429 -108.877)"/>
      <path id="Path_151010" data-name="Path 151010" d="M110.239,129.9a1.953,1.953,0,0,0,2.713-.52l.043-.064a1.953,1.953,0,1,0-3.232-2.193l-.043.064A1.953,1.953,0,0,0,110.239,129.9Z" transform="translate(-88.016 -101.603)"/>
      <path id="Path_151011" data-name="Path 151011" d="M156.329,53.993h-.07a33.967,33.967,0,0,0-23.522,9.448,1.953,1.953,0,0,0,2.7,2.822A30.076,30.076,0,0,1,156.266,57.9h.062A30.111,30.111,0,0,1,181.7,71.715a1.953,1.953,0,1,0,3.279-2.122A34,34,0,0,0,156.329,53.993Z" transform="translate(-106.325 -43.447)"/>
      <path id="Path_151012" data-name="Path 151012" d="M386.4,158.221l0-.005-9.952-13.09a1.953,1.953,0,0,0-3.1-.007l-10,13.021c-.023.03-.045.06-.066.091A15.326,15.326,0,0,0,360,167.711a15,15,0,0,0,14.843,15.121,14.589,14.589,0,0,0,4.512-.712,1.953,1.953,0,1,0-1.206-3.716,10.688,10.688,0,0,1-3.306.521,11.091,11.091,0,0,1-10.937-11.214,11.4,11.4,0,0,1,2.514-7.153,1.915,1.915,0,0,0,.118-.163l8.344-10.87,8.374,11.015q.028.038.057.076a11.41,11.41,0,0,1,2.467,7.094,11.553,11.553,0,0,1-.264,2.46,1.953,1.953,0,0,0,3.817.833,15.383,15.383,0,0,0-2.933-12.782Z" transform="translate(-289.686 -116.161)"/>
      <path id="Path_151013" data-name="Path 151013" d="M474.7,300.348l-.058.063a1.953,1.953,0,0,0,2.878,2.642l.07-.076a1.953,1.953,0,1,0-2.889-2.629Z" transform="translate(-381.524 -241.172)"/>
      <path id="Path_151014" data-name="Path 151014" d="M434.4,253.935a1.953,1.953,0,0,0-1.953,1.953,4.568,4.568,0,0,1-4.492,4.631,1.953,1.953,0,0,0,0,3.906,8.478,8.478,0,0,0,8.4-8.537A1.953,1.953,0,0,0,434.4,253.935Z" transform="translate(-342.796 -204.338)"/>
      <path id="Path_151015" data-name="Path 151015" d="M25.923,159.256,16.247,145.28a1.956,1.956,0,0,0-3.343.035L3.253,159.256A18.2,18.2,0,0,0,.214,172.412a15.1,15.1,0,0,0,12.321,12.6v1.513a1.953,1.953,0,1,0,3.906,0v-1.479a15.1,15.1,0,0,0,12.52-12.632A18.2,18.2,0,0,0,25.923,159.256Zm-1.513,5.52-7.969,7.969V152.423l6.27,9.057A14.4,14.4,0,0,1,24.411,164.777Zm-11.875-1.112-4.481-4.481,4.481-6.473Zm-8.459,8.158a14.3,14.3,0,0,1,1.756-9.338l6.7,6.7V181.03A11.129,11.129,0,0,1,4.076,171.823Zm21.024,0a11.129,11.129,0,0,1-8.659,9.253V178.27l8.82-8.82A14.45,14.45,0,0,1,25.1,171.823Z" transform="translate(0 -116.162)"/>
      <path id="Path_151016" data-name="Path 151016" d="M247.964,7.487a1.953,1.953,0,0,0,1.953-1.953V1.953a1.953,1.953,0,0,0-3.906,0v3.58A1.953,1.953,0,0,0,247.964,7.487Z" transform="translate(-197.96)"/>
      <path id="Path_151017" data-name="Path 151017" d="M127.351,31.274a1.953,1.953,0,1,0,2.761-2.763l-4.1-4.093a1.953,1.953,0,1,0-2.761,2.763Z" transform="translate(-98.719 -19.189)"/>
      <path id="Path_151018" data-name="Path 151018" d="M350.792,31.539a1.946,1.946,0,0,0,1.382-.573l4.065-4.069a1.953,1.953,0,1,0-2.763-2.761L349.41,28.2a1.953,1.953,0,0,0,1.382,3.334Z" transform="translate(-280.704 -18.961)"/>
      <path id="Path_151019" data-name="Path 151019" d="M227.856,256.834a1.953,1.953,0,0,0,1.953-1.953v-1.232a1.953,1.953,0,0,0-3.906,0v1.232A1.953,1.953,0,0,0,227.856,256.834Z" transform="translate(-181.779 -202.536)"/>
      <path id="Path_151020" data-name="Path 151020" d="M195.107,256.834a1.953,1.953,0,0,0,1.953-1.953v-1.232a1.953,1.953,0,0,0-3.906,0v1.232A1.953,1.953,0,0,0,195.107,256.834Z" transform="translate(-155.427 -202.536)"/>
      <path id="Path_151021" data-name="Path 151021" d="M225.9,294.147a1.953,1.953,0,0,0,3.906,0v-1.232a1.953,1.953,0,0,0-3.906,0Z" transform="translate(-181.779 -234.133)"/>
      <path id="Path_151022" data-name="Path 151022" d="M193.154,294.147a1.953,1.953,0,0,0,3.906,0v-1.232a1.953,1.953,0,0,0-3.906,0Z" transform="translate(-155.427 -234.133)"/>
      <path id="Path_151023" data-name="Path 151023" d="M225.9,333.412a1.953,1.953,0,0,0,3.906,0v-1.232a1.953,1.953,0,0,0-3.906,0Z" transform="translate(-181.779 -265.729)"/>
      <path id="Path_151024" data-name="Path 151024" d="M193.154,333.412a1.953,1.953,0,0,0,3.906,0v-1.232a1.953,1.953,0,0,0-3.906,0Z" transform="translate(-155.427 -265.729)"/>
    </g>
  </g>
</svg>
