<svg xmlns="http://www.w3.org/2000/svg" width="137" height="100" viewBox="0 0 137 100">
  <g id="t2-ic3" transform="translate(-206.5 -2180)">
    <path id="Rectangle_33185" data-name="Rectangle 33185" d="M50,0H87a50,50,0,0,1,50,50v0a0,0,0,0,1,0,0H0a0,0,0,0,1,0,0v0A50,50,0,0,1,50,0Z" transform="translate(206.5 2230)" fill="#fffad1"/>
    <g id="Page-1" transform="translate(225.5 2179.997)">
      <g id="_027---Lorry-At-Landfill" data-name="027---Lorry-At-Landfill" transform="translate(0 0.003)">
        <path id="Shape" d="M27,42V58.667A3.343,3.343,0,0,1,23.667,62H2.85A4.043,4.043,0,0,1,2,59.5a4.167,4.167,0,0,1,4.167-4.167,3.817,3.817,0,0,1,1.3.233A5.815,5.815,0,0,1,12.833,52a5.752,5.752,0,0,1,1.617.25,6.653,6.653,0,0,1,5.883-3.583A6.667,6.667,0,0,1,27,42Z" transform="translate(1.333 27.996)" fill="#8ad24a"/>
        <path id="Shape-2" data-name="Shape" d="M68.333,37.333V44a1.667,1.667,0,0,1-1.667,1.667h-3.55a6.667,6.667,0,0,0-12.9,0H45v-30A1.667,1.667,0,0,1,46.667,14H55a3.343,3.343,0,0,1,3.333,3.333v10a3.343,3.343,0,0,0,3.333,3.333V34A3.343,3.343,0,0,0,65,37.333Z" transform="translate(30 9.329)" fill="#fde947"/>
        <path id="Shape-3" data-name="Shape" d="M63,37.333A3.343,3.343,0,0,1,59.667,34V30.667a3.343,3.343,0,0,1-3.333-3.333v-10A3.343,3.343,0,0,0,53,14H48a3.343,3.343,0,0,1,3.333,3.333v10a3.343,3.343,0,0,0,3.333,3.333V34A3.343,3.343,0,0,0,58,37.333h3.333V44a1.635,1.635,0,0,1-.422,1.075,6.048,6.048,0,0,1,.2.592h3.55A1.667,1.667,0,0,0,66.333,44V37.333Z" transform="translate(32 9.329)" fill="#fdc647"/>
        <path id="Shape-4" data-name="Shape" d="M61.333,36.659a6.667,6.667,0,1,1-13.333,0,6.1,6.1,0,0,1,.217-1.667,6.667,6.667,0,0,1,12.9,0A6.1,6.1,0,0,1,61.333,36.659Z" transform="translate(32 20.003)" fill="#7f8e94"/>
        <path id="Shape-5" data-name="Shape" d="M59.45,35a6.615,6.615,0,0,0-8.95-4.5A6.64,6.64,0,0,1,54.45,35a6.1,6.1,0,0,1,.217,1.667A6.667,6.667,0,0,1,50.5,42.835a6.653,6.653,0,0,0,9.167-6.167A6.1,6.1,0,0,0,59.45,35Z" transform="translate(33.667 19.994)" fill="#545c60"/>
        <circle id="Oval" cx="6.696" cy="6.696" r="6.696" transform="translate(35.181 49.819)" fill="#7f8e94"/>
        <path id="Shape-6" data-name="Shape" d="M26,30a6.638,6.638,0,0,0-2.5.5,6.657,6.657,0,0,1,0,12.347A6.667,6.667,0,1,0,26,30Z" transform="translate(15.667 19.996)" fill="#545c60"/>
        <path id="Shape-7" data-name="Shape" d="M61.667,25.667v5H58.333A3.343,3.343,0,0,1,55,27.333V24h5A1.667,1.667,0,0,1,61.667,25.667Z" transform="translate(36.667 15.996)" fill="#ffdc00"/>
        <path id="Shape-8" data-name="Shape" d="M58.333,30v5a1.667,1.667,0,0,1-1.667,1.667h-25A6.667,6.667,0,0,0,25,30Z" transform="translate(16.667 19.996)" fill="#607d8b"/>
        <path id="Shape-9" data-name="Shape" d="M31.667,30A6.667,6.667,0,0,0,25,36.667H16.667A1.667,1.667,0,0,1,15,35V31.667A1.667,1.667,0,0,1,16.667,30Z" transform="translate(10 19.996)" fill="#607d8b"/>
        <path id="Shape-10" data-name="Shape" d="M12.168,13.351,43.1,1.228a3.318,3.318,0,0,1,4.3,1.893L58.271,31.075a3.333,3.333,0,0,1-1.885,4.317L20.815,49.333,9.343,19.833a5.008,5.008,0,0,1,2.825-6.482Z" transform="translate(5.999 0.663)" fill="#fde947"/>
        <path id="Shape-11" data-name="Shape" d="M53.809,31.075,42.943,3.121a3.318,3.318,0,0,0-4.3-1.893l-1.6.627a3.285,3.285,0,0,1,.9,1.267L48.809,31.075a3.333,3.333,0,0,1-1.885,4.317L15.691,47.633l.667,1.7L51.929,35.391a3.333,3.333,0,0,0,1.88-4.317Z" transform="translate(10.461 0.663)" fill="#fdc647"/>
        <path id="Shape-12" data-name="Shape" d="M49.667,23.667A1.667,1.667,0,0,1,48,22V18.667a1.667,1.667,0,1,1,3.333,0V22A1.667,1.667,0,0,1,49.667,23.667Z" transform="translate(32 11.329)"/>
        <path id="Shape-13" data-name="Shape" d="M97.667,41.333v30A1.667,1.667,0,0,1,96,73H2.667A1.667,1.667,0,0,1,1,71.333v-5a1.667,1.667,0,0,1,1.667-1.667H24.333a3.343,3.343,0,0,0,3.333-3.333v-20A3.343,3.343,0,0,1,31,38H94.333A3.343,3.343,0,0,1,97.667,41.333Z" transform="translate(0.667 25.329)" fill="sienna"/>
        <path id="Shape-14" data-name="Shape" d="M59,38H54a3.343,3.343,0,0,1,3.333,3.333v30A1.667,1.667,0,0,1,55.667,73h5a1.667,1.667,0,0,0,1.667-1.667v-30A3.343,3.343,0,0,0,59,38Z" transform="translate(36 25.329)" fill="#783e22"/>
        <path id="Shape-15" data-name="Shape" d="M14.55,13.11A7.483,7.483,0,0,0,8.7,20.043a7.4,7.4,0,0,0-4.133,10.55,5.833,5.833,0,1,0,9.1,4.833,4.433,4.433,0,0,0-.05-.467,7.468,7.468,0,0,0,4.217,1.3,7.333,7.333,0,0,0,4.967-1.9Z" transform="translate(1.333 8.736)" fill="#8ad24a"/>
        <path id="Shape-16" data-name="Shape" d="M58.333,44.333H51.667a1.667,1.667,0,0,1,0-3.333h6.667a1.667,1.667,0,1,1,0,3.333Z" transform="translate(33.333 27.329)" fill="#783e22"/>
        <path id="Shape-17" data-name="Shape" d="M54.333,48.333H47.667a1.667,1.667,0,0,1,0-3.333h6.667a1.667,1.667,0,0,1,0,3.333Z" transform="translate(30.667 29.996)" fill="#783e22"/>
        <path id="Shape-18" data-name="Shape" d="M58.333,52.333H51.667a1.667,1.667,0,1,1,0-3.333h6.667a1.667,1.667,0,1,1,0,3.333Z" transform="translate(33.333 32.662)" fill="#783e22"/>
        <path id="Shape-19" data-name="Shape" d="M54.333,56.333H47.667a1.667,1.667,0,1,1,0-3.333h6.667a1.667,1.667,0,1,1,0,3.333Z" transform="translate(30.667 35.329)" fill="#783e22"/>
        <path id="Shape-20" data-name="Shape" d="M46.333,44.333H39.667a1.667,1.667,0,0,1,0-3.333h6.667a1.667,1.667,0,0,1,0,3.333Z" transform="translate(25.333 27.329)" fill="#783e22"/>
        <path id="Shape-21" data-name="Shape" d="M42.333,48.333H35.667a1.667,1.667,0,1,1,0-3.333h6.667a1.667,1.667,0,1,1,0,3.333Z" transform="translate(22.667 29.996)" fill="#783e22"/>
        <path id="Shape-22" data-name="Shape" d="M46.333,52.333H39.667a1.667,1.667,0,1,1,0-3.333h6.667a1.667,1.667,0,0,1,0,3.333Z" transform="translate(25.333 32.662)" fill="#783e22"/>
        <path id="Shape-23" data-name="Shape" d="M42.333,56.333H35.667a1.667,1.667,0,1,1,0-3.333h6.667a1.667,1.667,0,1,1,0,3.333Z" transform="translate(22.667 35.329)" fill="#783e22"/>
        <path id="Shape-24" data-name="Shape" d="M34.333,44.333H27.667a1.667,1.667,0,1,1,0-3.333h6.667a1.667,1.667,0,1,1,0,3.333Z" transform="translate(17.333 27.329)" fill="#783e22"/>
        <path id="Shape-25" data-name="Shape" d="M30.333,48.333H23.667a1.667,1.667,0,1,1,0-3.333h6.667a1.667,1.667,0,1,1,0,3.333Z" transform="translate(14.667 29.996)" fill="#783e22"/>
        <path id="Shape-26" data-name="Shape" d="M34.333,52.333H27.667a1.667,1.667,0,1,1,0-3.333h6.667a1.667,1.667,0,1,1,0,3.333Z" transform="translate(17.333 32.662)" fill="#783e22"/>
        <path id="Shape-27" data-name="Shape" d="M30.333,56.333H23.667a1.667,1.667,0,1,1,0-3.333h6.667a1.667,1.667,0,1,1,0,3.333Z" transform="translate(14.667 35.329)" fill="#783e22"/>
        <g id="Group_96835" data-name="Group 96835">
          <path id="Shape-28" data-name="Shape" d="M96.667,38.332h-5A1.667,1.667,0,0,1,90,36.665v-10a5,5,0,0,0-5-5H76.667A3.333,3.333,0,0,0,73.333,25V48.332H62.7l-4.433-8.87L63,37.608a5.01,5.01,0,0,0,2.833-6.473L54.957,3.183A4.983,4.983,0,0,0,48.5.343L17.563,12.465a6.667,6.667,0,0,0-3.845,8.38,9.18,9.18,0,0,0-5.23,6.777,9.147,9.147,0,0,0-5.155,8.21,8.868,8.868,0,0,0,.537,3.022,7.5,7.5,0,1,0,12.5,7.378,9.293,9.293,0,0,0,6.963-.583l1.313,3.382a3.32,3.32,0,0,0-1.313,2.635V55a3.333,3.333,0,0,0,3.333,3.333H33.5a8.257,8.257,0,0,0,1.542,3.333H31.667a5,5,0,0,0-5,5v1.848A8.348,8.348,0,0,0,20.14,75.14a8.32,8.32,0,0,0-5.15,3.243,7.345,7.345,0,0,0-7.065,3.3A5.775,5.775,0,0,0,1.81,88.717,3.333,3.333,0,0,0,0,91.665v5A3.333,3.333,0,0,0,3.333,100H96.667A3.333,3.333,0,0,0,100,96.665v-30a5,5,0,0,0-5-5H93.29a8.247,8.247,0,0,0,1.71-5h1.667A3.333,3.333,0,0,0,100,53.332V41.665a3.333,3.333,0,0,0-3.333-3.333Zm0,6.667H95a1.667,1.667,0,0,1-1.667-1.667V41.665h3.333ZM80.043,61.665H48.29a8.257,8.257,0,0,0,1.542-3.333h23.5a3.322,3.322,0,0,0,2.87-1.667h2.13A8.247,8.247,0,0,0,80.043,61.665ZM73.333,55h-23.5a8.257,8.257,0,0,0-1.542-3.333H73.333ZM58.97,48.332H35.637L55.15,40.683ZM18.782,15.568,49.71,3.447a1.647,1.647,0,0,1,2.14.945L62.717,32.343a1.667,1.667,0,0,1-.942,2.167L27.76,47.843,16.9,19.892A3.343,3.343,0,0,1,18.782,15.568ZM15.887,42.32a1.667,1.667,0,0,0-2.593,1.558c0,.02.037.265.04.287a4.167,4.167,0,1,1-6.5-3.453,1.667,1.667,0,0,0,.542-2.153,5.735,5.735,0,0,1,3.2-8.2A1.667,1.667,0,0,0,11.7,28.872a5.833,5.833,0,0,1,3.207-4.9L22.112,42.51a5.957,5.957,0,0,1-6.225-.19Zm10.78,9.345h8.377A8.257,8.257,0,0,0,33.5,55H26.667Zm10,5a5,5,0,1,1,5,5A5,5,0,0,1,36.667,56.665ZM8.233,85.133a1.667,1.667,0,0,0,2.1-.923,4.148,4.148,0,0,1,3.833-2.545,4.085,4.085,0,0,1,1.152.183,1.667,1.667,0,0,0,1.938-.822,5,5,0,0,1,4.41-2.7,1.667,1.667,0,0,0,1.667-1.667,5,5,0,0,1,3.333-4.693V86.665A1.667,1.667,0,0,1,25,88.332H5.15a2.472,2.472,0,0,1,3.083-3.2ZM96.667,66.665v30H3.333v-5H25a5,5,0,0,0,5-5v-20A1.667,1.667,0,0,1,31.667,65H95A1.667,1.667,0,0,1,96.667,66.665Zm-15-10a5,5,0,1,1,5,5A5,5,0,0,1,81.667,56.665Zm12.627-3.333a8.317,8.317,0,0,0-15.253,0H76.667V41.665h5a1.667,1.667,0,0,0,0-3.333h-5V25H85a1.667,1.667,0,0,1,1.667,1.667v10A5,5,0,0,0,90,41.358v1.973a5,5,0,0,0,5,5h1.667v5Z" transform="translate(0 -0.003)"/>
          <path id="Shape-29" data-name="Shape" d="M33.9,27.163A1.668,1.668,0,1,0,37.01,25.95L29.737,7.315a1.667,1.667,0,1,0-3.1,1.213Z" transform="translate(17.678 4.166)"/>
          <path id="Shape-30" data-name="Shape" d="M28.3,29.3a1.668,1.668,0,1,0,3.107-1.213L24.13,9.459a1.667,1.667,0,0,0-3.1,1.212Z" transform="translate(13.968 5.659)"/>
          <path id="Shape-31" data-name="Shape" d="M22.726,31.524a1.667,1.667,0,0,0,3.1-1.213L18.56,11.679a1.668,1.668,0,1,0-3.107,1.213Z" transform="translate(10.225 7.074)"/>
          <circle id="Oval-2" data-name="Oval" cx="1.607" cy="1.607" r="1.607" transform="translate(85.001 55.176)"/>
          <circle id="Oval-3" data-name="Oval" cx="1.607" cy="1.607" r="1.607" transform="translate(40.002 55.176)"/>
          <path id="Shape-32" data-name="Shape" d="M50,42.667a1.667,1.667,0,0,0,1.667,1.667h6.667a1.667,1.667,0,1,0,0-3.333H51.667A1.667,1.667,0,0,0,50,42.667Z" transform="translate(33.333 27.329)"/>
          <path id="Shape-33" data-name="Shape" d="M47.667,48.333h6.667a1.667,1.667,0,0,0,0-3.333H47.667a1.667,1.667,0,0,0,0,3.333Z" transform="translate(30.667 29.996)"/>
          <path id="Shape-34" data-name="Shape" d="M58.333,49H51.667a1.667,1.667,0,1,0,0,3.333h6.667a1.667,1.667,0,1,0,0-3.333Z" transform="translate(33.333 32.662)"/>
          <path id="Shape-35" data-name="Shape" d="M54.333,53H47.667a1.667,1.667,0,1,0,0,3.333h6.667a1.667,1.667,0,1,0,0-3.333Z" transform="translate(30.667 35.329)"/>
          <path id="Shape-36" data-name="Shape" d="M46.333,41H39.667a1.667,1.667,0,0,0,0,3.333h6.667a1.667,1.667,0,0,0,0-3.333Z" transform="translate(25.333 27.329)"/>
          <path id="Shape-37" data-name="Shape" d="M35.667,48.333h6.667a1.667,1.667,0,1,0,0-3.333H35.667a1.667,1.667,0,1,0,0,3.333Z" transform="translate(22.667 29.996)"/>
          <path id="Shape-38" data-name="Shape" d="M46.333,49H39.667a1.667,1.667,0,1,0,0,3.333h6.667a1.667,1.667,0,0,0,0-3.333Z" transform="translate(25.333 32.662)"/>
          <path id="Shape-39" data-name="Shape" d="M42.333,53H35.667a1.667,1.667,0,1,0,0,3.333h6.667a1.667,1.667,0,1,0,0-3.333Z" transform="translate(22.667 35.329)"/>
          <path id="Shape-40" data-name="Shape" d="M34.333,41H27.667a1.667,1.667,0,1,0,0,3.333h6.667a1.667,1.667,0,1,0,0-3.333Z" transform="translate(17.333 27.329)"/>
          <path id="Shape-41" data-name="Shape" d="M23.667,48.333h6.667a1.667,1.667,0,1,0,0-3.333H23.667a1.667,1.667,0,1,0,0,3.333Z" transform="translate(14.667 29.996)"/>
          <path id="Shape-42" data-name="Shape" d="M34.333,49H27.667a1.667,1.667,0,1,0,0,3.333h6.667a1.667,1.667,0,1,0,0-3.333Z" transform="translate(17.333 32.662)"/>
          <path id="Shape-43" data-name="Shape" d="M30.333,53H23.667a1.667,1.667,0,1,0,0,3.333h6.667a1.667,1.667,0,1,0,0-3.333Z" transform="translate(14.667 35.329)"/>
        </g>
      </g>
    </g>
  </g>
</svg>
