<svg xmlns="http://www.w3.org/2000/svg" width="80" height="80" viewBox="0 0 80 80">
  <g id="t2-ic8" transform="translate(-310.5 -4477.969)">
    <rect id="Rectangle_33108" data-name="Rectangle 33108" width="80" height="80" transform="translate(310.5 4477.969)" fill="none"/>
    <g id="hoja" transform="translate(310.002 4477.969)">
      <path id="Path_151076" data-name="Path 151076" d="M191.926,304.121H205.5l13.709-13.709a3.624,3.624,0,0,0-5.125-5.125l-12.835,12.835a9,9,0,0,1-6.366,2.637h-2.957Zm0,0" transform="translate(-161.518 -239.816)" fill="#ffae85"/>
      <path id="Path_151077" data-name="Path 151077" d="M191.926,309.792h21.245l12.659-12.659a3.624,3.624,0,0,0-5.125-5.125L207.87,304.844a9,9,0,0,1-6.366,2.637h-9.578Zm0,0" transform="translate(-161.518 -245.488)" fill="#fecbaa"/>
      <path id="Path_151078" data-name="Path 151078" d="M8,303.895V282.722a12.27,12.27,0,0,0,3.593-8.675v-.482a6.816,6.816,0,0,1,6.818-6.818H51.521a5.07,5.07,0,1,1,0,10.141H41.713a4.859,4.859,0,0,0,0,9.717H54.354a9.008,9.008,0,0,0,6.367-2.637l12.834-12.834a3.624,3.624,0,0,1,5.124,5.125L64.237,290.7a12.027,12.027,0,0,1-8.506,3.524l-29.439-.008c-5.707,0-11.273,3.619-14.735,6.431A37.432,37.432,0,0,0,8,303.895Zm0,0" transform="translate(-6.333 -225.068)" fill="#fedfc5"/>
      <path id="Path_151079" data-name="Path 151079" d="M8,303.895V282.722a12.27,12.27,0,0,0,3.593-8.675v-.482a6.816,6.816,0,0,1,6.818-6.818H36.029c-25.242,6.181-25.445,26.041-24.473,33.9A37.464,37.464,0,0,0,8,303.895Zm0,0" transform="translate(-6.333 -225.068)" fill="#fecbaa"/>
      <path id="Path_151080" data-name="Path 151080" d="M132.245,26.367c2.012,8.09-1.275,9.421-5.89,14.171a4.964,4.964,0,0,1-5.081,1.263c-6.3-2.034-9.83-1.671-11.841-9.76a27.792,27.792,0,0,1,5.088-23.9,1.668,1.668,0,0,1,2.032-.505,27.792,27.792,0,0,1,15.692,18.732Zm0,0" transform="translate(-91.202 -6.312)" fill="#aeff66"/>
      <path id="Path_151081" data-name="Path 151081" d="M157.679,26.368c1.556,6.257-.059,8.47-3.007,11.351.652-1.9.669-4.276-.2-7.786a30.934,30.934,0,0,0-15.735-20.06q.579-.884,1.221-1.732a1.668,1.668,0,0,1,2.034-.506,27.791,27.791,0,0,1,15.69,18.733Zm0,0" transform="translate(-116.637 -6.311)" fill="#8ad24a"/>
      <path id="Path_151082" data-name="Path 151082" d="M242.666,112.371c-4.481,4.481-6.637,2.861-11.54,1.717a3.775,3.775,0,0,1-2.814-2.814c-1.144-4.9-2.764-7.059,1.718-11.54a21.13,21.13,0,0,1,17.563-6.053,1.268,1.268,0,0,1,1.126,1.126,21.13,21.13,0,0,1-6.053,17.564Zm0,0" transform="translate(-191.162 -78.93)" fill="#aeff66"/>
      <path id="Path_151083" data-name="Path 151083" d="M280.632,112.467c-3.466,3.466-5.541,3.281-8.574,2.49,1.495-.32,3.048-1.24,4.992-3.184a23.515,23.515,0,0,0,6.9-18.113q.8.03,1.608.117a1.269,1.269,0,0,1,1.127,1.127,21.13,21.13,0,0,1-6.054,17.564Zm0,0" transform="translate(-229.13 -79.026)" fill="#8ad24a"/>
      <path id="Path_151084" data-name="Path 151084" d="M1.67,277.562a1.169,1.169,0,0,0,.829-.343,13.355,13.355,0,0,0,3.937-9.5v-.482a5.647,5.647,0,0,1,5.647-5.647H24a1.172,1.172,0,1,0,0-2.344H12.083a7.991,7.991,0,0,0-7.991,7.991v.482a11.026,11.026,0,0,1-3.25,7.847,1.172,1.172,0,0,0,.829,2Zm0,0" transform="translate(0 -218.736)"/>
      <path id="Path_151085" data-name="Path 151085" d="M222.829,263.973a4.8,4.8,0,0,0-6.782,0l-.878.878a4.79,4.79,0,0,0-6.539-.942,4.854,4.854,0,0,0-.457-.53,4.795,4.795,0,0,0-6.782,0l-.514.514a6.254,6.254,0,0,0-6.036-4.65h-15.8a1.172,1.172,0,1,0,0,2.344h15.8a3.9,3.9,0,1,1,0,7.8h-9.807a6.03,6.03,0,0,0,0,12.061h12.641a10.11,10.11,0,0,0,7.195-2.98L217.7,265.631a2.451,2.451,0,1,1,3.467,3.467l-6.624,6.624a1.172,1.172,0,0,0,1.657,1.657l6.624-6.624a4.8,4.8,0,0,0,0-6.782Zm-22,3.282.027-.024,2.195-2.2a2.443,2.443,0,0,1,3.852.5l-11.723,11.724a7.79,7.79,0,0,1-2.713,1.766,1.21,1.21,0,0,0-.148.071h-3.591a10.218,10.218,0,0,0,1.487-1.23l6.4-6.4a6.268,6.268,0,0,0,4.213-4.215Zm-15.793,4.473h8.008l-4.485,4.486a7.781,7.781,0,0,1-5.526,2.293,3.685,3.685,0,0,1,2-6.779Zm18.179,5.079a7.782,7.782,0,0,1-5.538,2.294h-1.029c.063-.06.128-.118.189-.18l12.835-12.835a2.445,2.445,0,0,1,3.818.446Zm0,0" transform="translate(-149.653 -218.737)"/>
      <path id="Path_151086" data-name="Path 151086" d="M61.477,384.739l-4.4,4.4a10.782,10.782,0,0,1-7.675,3.179h0l-29.439-.007c-9.733,0-18.768,9.644-19.148,10.054a1.172,1.172,0,0,0,1.72,1.592c.087-.093,8.726-9.3,17.427-9.3l29.439.006h0a13.112,13.112,0,0,0,9.332-3.865l4.4-4.4a1.172,1.172,0,0,0-1.658-1.658Zm0,0" transform="translate(-0.003 -324.335)"/>
      <path id="Path_151087" data-name="Path 151087" d="M111.946,35.81c.847.24,1.723.489,2.67.795a6.065,6.065,0,0,0,1.863.292,6.176,6.176,0,0,0,4.418-1.854c.256-.264.511-.519.759-.764A4.967,4.967,0,0,0,124.6,36.3c.732.171,1.4.352,2.041.527a16.021,16.021,0,0,0,4.13.762c1.951,0,3.92-.775,6.464-3.318a22.321,22.321,0,0,0,6.39-18.517,2.453,2.453,0,0,0-2.167-2.167,22.517,22.517,0,0,0-15.141,3.606,28.488,28.488,0,0,0-3.87-7.441,1.172,1.172,0,0,0-1.9,1.378,26.226,26.226,0,0,1,3.791,7.556q-.721.612-1.4,1.29c-4.274,4.274-3.553,6.925-2.556,10.594.117.429.236.87.353,1.332-.464.447-.987.958-1.522,1.509a3.766,3.766,0,0,1-.711.568L117,27.905a1.168,1.168,0,0,0,.172-.219l2.453-4.077a1.172,1.172,0,0,0-2.009-1.208l-1.4,2.335L113.363,13.3a1.172,1.172,0,1,0-2.274.566l1.2,4.81-3.013-1.005a1.172,1.172,0,1,0-.742,2.223l4.424,1.477,3.276,13.17a3.737,3.737,0,0,1-.894-.17c-.988-.319-1.884-.573-2.751-.818-4.51-1.279-6.774-1.921-8.314-8.109a26.694,26.694,0,0,1,4.886-22.91.5.5,0,0,1,.6-.15,28.538,28.538,0,0,1,7.553,5.073,1.172,1.172,0,0,0,1.606-1.707A30.894,30.894,0,0,0,110.75.261a2.853,2.853,0,0,0-3.461.861A29,29,0,0,0,102,26.013c1.866,7.507,5.256,8.467,9.948,9.8ZM124.6,21.633a19.818,19.818,0,0,1,14.232-5.844,22.422,22.422,0,0,1,2.379.128.1.1,0,0,1,.085.085,20.019,20.019,0,0,1-5.716,16.611c-3.313,3.313-4.883,2.886-8.322,1.952-.633-.172-1.349-.367-2.123-.547-.074-.017-.147-.039-.219-.063l2.967-2.967c.037,0,.075.006.114.006h3.617a1.172,1.172,0,1,0,0-2.344h-1.393l5.853-5.854a1.172,1.172,0,0,0-1.657-1.657l-2.3,2.3-.414-1.857a1.172,1.172,0,0,0-2.288.51l.739,3.311L123.257,32.3c-.024-.072-.045-.145-.063-.219-.18-.773-.375-1.49-.547-2.123-.934-3.439-1.36-5.009,1.953-8.322Zm0,0" transform="translate(-84.904)"/>
    </g>
  </g>
</svg>
