<svg id="t2-ic7" xmlns="http://www.w3.org/2000/svg" width="177.979" height="175" viewBox="0 0 177.979 175">
  <g id="Stroke_copy" data-name="Stroke copy" transform="translate(2.954 0)">
    <g id="Group_96837" data-name="Group 96837">
      <path id="Path_151385" data-name="Path 151385" d="M29.579,36H86.05A5.932,5.932,0,0,1,90.8,38.373l16.017,21.356h24.239a5.931,5.931,0,0,1,4.193,1.737l5.423,5.423a5.932,5.932,0,0,1,1.738,4.194V95.322H3V73.984a23.729,23.729,0,0,1,5.2-14.83L24.949,38.228A5.932,5.932,0,0,1,29.579,36Z" transform="translate(29.652 61.881)" fill="#fde947"/>
      <path id="Path_151386" data-name="Path 151386" d="M106.718,43.958l.095.125h24.239a5.931,5.931,0,0,1,4.193,1.737l5.423,5.423a5.932,5.932,0,0,1,1.738,4.194V79.676H3v-17.8H74.186a38.493,38.493,0,0,0,32.53-17.918Z" transform="translate(29.652 77.527)" fill="#e3b740"/>
      <path id="Path_151387" data-name="Path 151387" d="M3.025,35.627V3H175.058V29.695a5.908,5.908,0,0,1-10.381,3.886,5.876,5.876,0,0,1-8.551.386,8.854,8.854,0,0,1-15.177.638,8.88,8.88,0,0,1-7.415,3.989A8.539,8.539,0,0,1,131,38.169c-.145.119-.3.246-.439.362l.006.062a8.875,8.875,0,0,1-15.406,6.03,8.875,8.875,0,0,1-8.323,5.834h-.062A14.652,14.652,0,0,1,86.15,53.423h-.074a8.875,8.875,0,0,1-8.554-6.585c-.214.086-.445.131-.667.2A8.9,8.9,0,0,1,70.709,53.3a10.562,10.562,0,0,1-3.082,11.224,11.455,11.455,0,0,1-8.394,3.983A11.784,11.784,0,0,1,53.321,66.8a8.872,8.872,0,0,1-8.771,7.647c-.148,0-.3-.036-.433-.044.848,3.221.854,6.772-3.788,11.411a11.01,11.01,0,0,1-8.175,3.453,11.811,11.811,0,0,1-4.336-1.056,5.775,5.775,0,0,0-2.156,6.686,5.636,5.636,0,0,1-1.442,5.814l-3.764,3.764a5.914,5.914,0,0,1,3.331,5.309,5.7,5.7,0,0,1-.178,1.186,8.9,8.9,0,0,1,.178,1.78c0,.184-.044.356-.053.54a8.836,8.836,0,0,1,0,16.729c.015.175.053.347.053.528a5.932,5.932,0,0,1-5.932,5.932v.822a5.858,5.858,0,0,1,1.67,8.771,5.659,5.659,0,0,0,1.533,1.166l8.661,4.33v5.932l-4.912,1.637a15.9,15.9,0,0,1-15.774-3.378,16.189,16.189,0,0,1-4.9-9.4l-.3-1.706a6.259,6.259,0,0,1,2.3-5.932,5.87,5.87,0,0,1-1.071-9.64,5.885,5.885,0,0,1,3.3-10.334,8.714,8.714,0,0,1-1.186-10.355,8.738,8.738,0,0,1-3.9-9.536l-.255-.092A33.879,33.879,0,0,1,5.4,86.368,8.788,8.788,0,0,1,6.22,73.614a12.034,12.034,0,0,1-.228-2.136,11.817,11.817,0,0,1,4.8-9.491,8.765,8.765,0,0,1-1.714-6.772,8.978,8.978,0,0,1,3.856-5.953,11.8,11.8,0,0,1-1.005-4.737,8.9,8.9,0,0,1-8.9-8.9Z" transform="translate(-3 -3)" fill="#d0d8da"/>
      <path id="Path_151388" data-name="Path 151388" d="M7.959,100.881A11.82,11.82,0,0,0,3,91.268l2.426-2.426a5.636,5.636,0,0,0,1.442-5.814,5.775,5.775,0,0,1,2.156-6.686A11.811,11.811,0,0,0,13.361,77.4a11,11,0,0,0,8.177-3.455c4.639-4.636,4.633-8.186,3.785-11.408.145,0,.3.044.433.044a8.872,8.872,0,0,0,8.771-7.647,11.784,11.784,0,0,0,5.911,1.714,11.452,11.452,0,0,0,8.4-3.986A10.559,10.559,0,0,0,51.914,41.44a8.9,8.9,0,0,0,6.146-6.264c.222-.071.454-.116.667-.2a8.875,8.875,0,0,0,8.554,6.585h.074a14.652,14.652,0,0,0,20.626-2.966h.062a8.875,8.875,0,0,0,8.323-5.834,9.2,9.2,0,0,0,12.194,1.065,7.507,7.507,0,0,0,3.212-7.095v-.062c.151-.116.3-.243.439-.362a8.54,8.54,0,0,0,2.527.424,8.88,8.88,0,0,0,7.415-3.989,8.854,8.854,0,0,0,15.177-.638,5.876,5.876,0,0,0,8.551-.386,15.987,15.987,0,0,0,10.381-14.97V3h2.966V29.695a5.908,5.908,0,0,1-10.381,3.886,5.876,5.876,0,0,1-8.551.386,8.854,8.854,0,0,1-15.177.638,8.88,8.88,0,0,1-7.415,3.989,8.54,8.54,0,0,1-2.533-.424c-.145.119-.3.246-.439.362l.006.062a8.875,8.875,0,0,1-15.406,6.03,8.875,8.875,0,0,1-8.323,5.834h-.062a14.652,14.652,0,0,1-20.626,2.966h-.074a8.875,8.875,0,0,1-8.554-6.585c-.214.086-.445.131-.667.2A8.9,8.9,0,0,1,54.88,53.3,10.562,10.562,0,0,1,51.8,64.528,11.455,11.455,0,0,1,43.4,68.512,11.784,11.784,0,0,1,37.493,66.8a8.872,8.872,0,0,1-8.771,7.647c-.148,0-.3-.036-.433-.044.848,3.221.854,6.772-3.788,11.411a11.01,11.01,0,0,1-8.175,3.453,11.811,11.811,0,0,1-4.336-1.056,5.775,5.775,0,0,0-2.156,6.686,5.636,5.636,0,0,1-1.442,5.814l-.463.463c0-.1.03-.19.03-.288Z" transform="translate(12.829 -3)" fill="#93999a"/>
      <path id="Path_151389" data-name="Path 151389" d="M52,59.551A5.888,5.888,0,0,1,54.047,55.1a6.057,6.057,0,0,1-1.412-1.833,20.947,20.947,0,0,0,3.814.35A19.1,19.1,0,0,0,75,40.616a8.717,8.717,0,0,1,3.693,7.071,8.869,8.869,0,0,1-5.986,8.37c.015.175.053.347.053.528a5.932,5.932,0,0,1-5.932,5.932v.822A5.858,5.858,0,0,1,68.5,72.11a5.659,5.659,0,0,0,1.533,1.166l8.661,4.33v5.932l-4.912,1.637A15.9,15.9,0,0,1,58.009,81.8a16.189,16.189,0,0,1-4.9-9.4l-.3-1.706a6.258,6.258,0,0,1,2.3-5.932A5.908,5.908,0,0,1,52,59.551Z" transform="translate(-51.975 70.956)" fill="#93999a"/>
      <path id="Path_151390" data-name="Path 151390" d="M61.864,52H50V63.864H61.864Z" transform="translate(-29.212 93.338)" fill="#84d2f4"/>
      <circle id="Ellipse_4400" data-name="Ellipse 4400" cx="14.83" cy="14.83" r="14.83" transform="translate(121.635 142.372)" fill="#656b76"/>
      <circle id="Ellipse_4401" data-name="Ellipse 4401" cx="14.83" cy="14.83" r="14.83" transform="translate(50.449 142.372)" fill="#656b76"/>
      <path id="Path_151391" data-name="Path 151391" d="M8.932,58.83H20.8V55.354a5.931,5.931,0,0,0-1.737-4.193l-5.423-5.423A5.932,5.932,0,0,0,9.442,44H3v8.9A5.932,5.932,0,0,0,8.932,58.83Z" transform="translate(151.262 77.61)" fill="#84d2f4"/>
      <path id="Path_151392" data-name="Path 151392" d="M54.695,40H28V57.8H54.695Z" transform="translate(43.211 69.745)" fill="#84d2f4"/>
      <path id="Path_151393" data-name="Path 151393" d="M42.932,40h8.9V57.8L37,48.9Z" transform="translate(19.381 69.745)" fill="#84d2f4"/>
      <path id="Path_151394" data-name="Path 151394" d="M33.83,40,45.695,57.8H19V40Z" transform="translate(78.906 69.745)" fill="#84d2f4"/>
      <g id="Group_96836" data-name="Group 96836" transform="translate(8.924 5.932)">
        <path id="Path_151395" data-name="Path 151395" d="M8.861,13.9a8.9,8.9,0,0,0,8.9-8.9,5.917,5.917,0,0,0,11.784.78,5.932,5.932,0,1,1-8.818,5.152A8.877,8.877,0,0,1,3,11.65,8.839,8.839,0,0,0,8.861,13.9Z" transform="translate(130.545 -5)" fill="#93999a"/>
        <path id="Path_151396" data-name="Path 151396" d="M50.861,25.9a8.9,8.9,0,0,0,8.9-8.9,5.917,5.917,0,0,0,11.784.78,5.932,5.932,0,1,1-8.818,5.152A8.877,8.877,0,0,1,45,23.65,8.839,8.839,0,0,0,50.861,25.9Z" transform="translate(-36.03 18.593)" fill="#93999a"/>
        <path id="Path_151397" data-name="Path 151397" d="M42.966,15.415a5.911,5.911,0,0,0,5.852-5.152A5.932,5.932,0,1,1,40,15.415a5.65,5.65,0,0,1,.08-.78,5.849,5.849,0,0,0,2.886.78Z" transform="translate(1.525 5.348)" fill="#93999a"/>
        <path id="Path_151398" data-name="Path 151398" d="M47.966,10.415a5.911,5.911,0,0,0,5.852-5.152A5.932,5.932,0,1,1,45,10.415a5.652,5.652,0,0,1,.08-.78A5.849,5.849,0,0,0,47.966,10.415Z" transform="translate(-18.305 -4.483)" fill="#93999a"/>
        <path id="Path_151399" data-name="Path 151399" d="M54.966,29.415a5.911,5.911,0,0,0,5.852-5.152A5.932,5.932,0,1,1,52,29.415a5.653,5.653,0,0,1,.08-.78,5.849,5.849,0,0,0,2.886.78Z" transform="translate(-46.068 32.873)" fill="#93999a"/>
        <path id="Path_151400" data-name="Path 151400" d="M24.887,13.522a8.857,8.857,0,0,0,7.184-3.69,11.778,11.778,0,0,0,20.092,1.86A8.827,8.827,0,0,0,66.139,6.7,8.859,8.859,0,1,1,55.129,20.582a11.778,11.778,0,0,1-20.092-1.86,8.854,8.854,0,0,1-15.809-7.276,8.815,8.815,0,0,0,5.659,2.076Z" transform="translate(46.299 -1.658)" fill="#93999a"/>
        <path id="Path_151401" data-name="Path 151401" d="M52.966,16.932A5.932,5.932,0,0,0,58.9,11a5.917,5.917,0,0,0,11.784.78,5.932,5.932,0,1,1-8.818,5.152,5.932,5.932,0,0,1-11.864,0,5.65,5.65,0,0,1,.08-.78,5.849,5.849,0,0,0,2.886.78Z" transform="translate(-50 6.797)" fill="#93999a"/>
      </g>
      <circle id="Ellipse_4402" data-name="Ellipse 4402" cx="5.932" cy="5.932" r="5.932" transform="translate(130.533 151.27)" fill="#d0d8da"/>
      <circle id="Ellipse_4403" data-name="Ellipse 4403" cx="5.932" cy="5.932" r="5.932" transform="translate(59.347 151.27)" fill="#d0d8da"/>
      <path id="Path_151402" data-name="Path 151402" d="M54.695,40V57.8H28Z" transform="translate(43.211 69.745)" fill="#57b7eb"/>
      <path id="Path_151403" data-name="Path 151403" d="M51.83,40V57.8L37,48.9Z" transform="translate(19.381 69.745)" fill="#57b7eb"/>
      <path id="Path_151404" data-name="Path 151404" d="M33.83,40,45.695,57.8H19Z" transform="translate(78.906 69.745)" fill="#57b7eb"/>
      <path id="Path_151405" data-name="Path 151405" d="M93.919,41.932H46.346a5.932,5.932,0,0,0-4.63,2.228L33.621,54.274a14.534,14.534,0,0,1-11.348,5.455L22,59.162,38.749,38.228A5.932,5.932,0,0,1,43.38,36H99.851A5.932,5.932,0,0,1,93.919,41.932Z" transform="translate(15.852 61.881)" fill="#fff49e"/>
      <path id="Path_151406" data-name="Path 151406" d="M58.9,52h2.966V63.864H50V60.9A8.9,8.9,0,0,0,58.9,52Z" transform="translate(-29.212 93.338)" fill="#4891d3"/>
      <path id="Path_151407" data-name="Path 151407" d="M14.591,45.119l3.856,3.856a5.932,5.932,0,0,1,1.723,4.179V56.63H8.306A5.914,5.914,0,0,1,3,53.3a17.8,17.8,0,0,0,11.591-8.183Z" transform="translate(151.888 79.81)" fill="#57b7eb"/>
    </g>
  </g>
  <g id="Stroke_Cut_copy_2" data-name="Stroke Cut copy 2" transform="translate(0 8.898)">
    <g id="Group_96838" data-name="Group 96838">
      <path id="Path_151408" data-name="Path 151408" d="M62.491,22.83a11.6,11.6,0,0,1-4.761-1.017,14.736,14.736,0,0,1-21.184-1.071A11.835,11.835,0,0,1,18,10.966a2.966,2.966,0,1,1,5.932,0A5.932,5.932,0,0,0,29.864,16.9a5.867,5.867,0,0,0,4.784-2.468,2.966,2.966,0,0,1,5.06.436,8.815,8.815,0,0,0,15.056,1.394,2.965,2.965,0,0,1,4.167-.59A5.858,5.858,0,0,0,62.491,16.9a5.932,5.932,0,0,0,5.932-5.932,2.966,2.966,0,1,1,5.932,0A11.864,11.864,0,0,1,62.491,22.83Z" transform="translate(56.166 -2.068)" fill="#323232"/>
      <path id="Path_151409" data-name="Path 151409" d="M28.695,17.864a8.836,8.836,0,0,1-5.339-1.78A11.864,11.864,0,0,1,2,8.966a2.966,2.966,0,0,1,5.932,0,5.932,5.932,0,1,0,11.864,0,2.966,2.966,0,0,1,5.932,0,2.966,2.966,0,1,0,5.932,0,2.966,2.966,0,0,1,5.932,0,8.9,8.9,0,0,1-8.9,8.9Z" transform="translate(140.386 -6)" fill="#323232"/>
      <path id="Path_151410" data-name="Path 151410" d="M44,20.966a2.966,2.966,0,0,1,5.932,0,5.932,5.932,0,1,0,11.864,0,2.966,2.966,0,1,1,5.932,0,2.966,2.966,0,0,0,5.932,0,2.966,2.966,0,0,1,5.932,0,8.9,8.9,0,0,1-14.237,7.119A11.864,11.864,0,0,1,44,20.966Z" transform="translate(-26.19 17.593)" fill="#323232"/>
      <path id="Path_151411" data-name="Path 151411" d="M72.729,14.966A8.9,8.9,0,0,1,57.9,21.592a8.86,8.86,0,0,1-5.932,2.272,2.966,2.966,0,0,1,0-5.932,2.966,2.966,0,0,0,2.966-2.966,2.966,2.966,0,1,1,5.932,0,2.966,2.966,0,0,0,5.932,0,2.966,2.966,0,1,1,5.932,0Z" transform="translate(-34.156 5.797)" fill="#323232"/>
      <path id="Path_151412" data-name="Path 151412" d="M47.9,22.864a8.9,8.9,0,0,1-8.9-8.9,2.966,2.966,0,1,1,5.932,0,2.966,2.966,0,1,0,5.932,0,2.966,2.966,0,1,1,5.932,0A8.9,8.9,0,0,1,47.9,22.864Z" transform="translate(11.437 3.83)" fill="#323232"/>
      <path id="Path_151413" data-name="Path 151413" d="M52.9,17.864a8.9,8.9,0,0,1-8.9-8.9,2.966,2.966,0,1,1,5.932,0,2.966,2.966,0,0,0,5.932,0,2.966,2.966,0,0,1,5.932,0A8.9,8.9,0,0,1,52.9,17.864Z" transform="translate(-8.393 -6)" fill="#323232"/>
      <path id="Path_151414" data-name="Path 151414" d="M59.9,36.864a8.9,8.9,0,0,1-8.9-8.9,2.966,2.966,0,0,1,5.932,0,2.966,2.966,0,0,0,5.932,0,2.966,2.966,0,1,1,5.932,0A8.9,8.9,0,0,1,59.9,36.864Z" transform="translate(-36.156 31.356)" fill="#323232"/>
      <path id="Path_151415" data-name="Path 151415" d="M11.96,64.831H38.922a17.8,17.8,0,1,1,0,5.932H11.96a2.966,2.966,0,1,1,0-5.932Zm44.491,14.83A11.864,11.864,0,1,0,44.587,67.8,11.864,11.864,0,0,0,56.451,79.661Z" transform="translate(82.969 80.507)" fill="#323232"/>
      <path id="Path_151416" data-name="Path 151416" d="M32.932,50.966V56.9A2.966,2.966,0,1,1,27,56.9V50.966a2.966,2.966,0,0,1,5.932,0Z" transform="translate(70.895 76.576)" fill="#323232"/>
      <circle id="Ellipse_4404" data-name="Ellipse 4404" cx="2.966" cy="2.966" r="2.966" transform="translate(136.454 145.338)" fill="#323232"/>
      <circle id="Ellipse_4405" data-name="Ellipse 4405" cx="2.966" cy="2.966" r="2.966" transform="translate(65.268 145.338)" fill="#323232"/>
      <path id="Path_151417" data-name="Path 151417" d="M34.773,62.521a2.748,2.748,0,0,1-.255-.11,2.617,2.617,0,0,1-.249-.107l-14.83-8.9a2.966,2.966,0,0,1-.94-4.188l5.932-8.9A2.966,2.966,0,0,1,26.9,39H77.322a2.966,2.966,0,0,1,2.468,1.32l11.864,17.8a2.966,2.966,0,0,1-2.468,4.612H35.8a2.966,2.966,0,0,1-1.023-.208ZM38.763,56.8H59.525V44.932H38.763Zm-13.6-6.875,7.67,4.6V44.932H28.485Zm50.575-4.989H65.457V56.8H83.642Z" transform="translate(38.37 58.881)" fill="#323232"/>
      <path id="Path_151418" data-name="Path 151418" d="M88.189,29.1a11.677,11.677,0,0,1-5.636-1.439,12.01,12.01,0,0,1-7.744,4.283A17.592,17.592,0,0,1,51.7,34.992a11.826,11.826,0,0,1-7.887-3.909A11.986,11.986,0,0,1,40.654,33.7a13.715,13.715,0,0,1-4.307,11.473,14.46,14.46,0,0,1-10.47,4.944h-.154a14.86,14.86,0,0,1-7.392-2.133,2.966,2.966,0,0,1,3.043-5.093A8.788,8.788,0,0,0,25.8,44.184a8.465,8.465,0,0,0,6.175-3.025,7.629,7.629,0,0,0,2.42-8.376,2.966,2.966,0,0,1,2.02-3.687,5.947,5.947,0,0,0,4.093-4.173,2.966,2.966,0,0,1,1.975-2.076l.442-.122A2.965,2.965,0,0,1,46.9,24.7a5.932,5.932,0,0,0,5.6,4.4,2.9,2.9,0,0,1,1.94.593,11.683,11.683,0,0,0,16.483-2.373,2.966,2.966,0,0,1,2.512-1.186A5.947,5.947,0,0,0,78.9,22.235a2.966,2.966,0,0,1,4.959-.991,5.846,5.846,0,0,0,4.33,1.919,5.932,5.932,0,0,0,5.932-5.832c0-.055,0-.109,0-.162a3.355,3.355,0,0,1,1.335-2.494l.187-.16a2.88,2.88,0,0,1,4.084.451,3,3,0,0,1,.282,3.346A11.879,11.879,0,0,1,88.189,29.1Z" transform="translate(33.435 9.464)" fill="#323232"/>
      <path id="Path_151419" data-name="Path 151419" d="M33.156,22.864a8.806,8.806,0,0,1-4.449-1.213,9,9,0,0,1-7.822.549A11.805,11.805,0,0,1,2.5,20.515a2.972,2.972,0,1,1,4.953-3.286,5.888,5.888,0,0,0,10.108-.43,2.966,2.966,0,0,1,2.153-1.5,3.008,3.008,0,0,1,2.5.795,2.91,2.91,0,0,0,4.262-.2,3.061,3.061,0,0,1,4.467,0,2.94,2.94,0,0,0,5.182-1.928,2.966,2.966,0,1,1,5.932,0,8.9,8.9,0,0,1-8.9,8.9Z" transform="translate(135.924 3.83)" fill="#323232"/>
      <path id="Path_151420" data-name="Path 151420" d="M5.024,52.873c-.03-.362-.044-.712-.044-1.056a14.614,14.614,0,0,1,3.986-10.07A11.663,11.663,0,0,1,8.1,35.1a11.811,11.811,0,0,1,3.31-6.442c-.1-.377-.19-.759-.258-1.139a11.885,11.885,0,0,1-9.139-11.55,2.966,2.966,0,0,1,5.932,0A5.932,5.932,0,0,0,13.878,21.9a2.966,2.966,0,0,1,2.966,2.966,8.8,8.8,0,0,0,.753,3.559,2.966,2.966,0,0,1-1.056,3.645,6,6,0,0,0-2.586,3.969,5.811,5.811,0,0,0,1.151,4.508,2.966,2.966,0,0,1-.593,4.167,8.815,8.815,0,0,0-3.6,7.1,8.691,8.691,0,0,0,.169,1.608,2.966,2.966,0,0,1-1,2.788A5.825,5.825,0,0,0,9.524,64.7,2.966,2.966,0,0,1,10.1,67.8,30.687,30.687,0,0,0,7.964,78.028a2.966,2.966,0,0,1,.16,1.836,5.766,5.766,0,0,0,2.6,6.353,2.966,2.966,0,0,1,.991,3.972,5.814,5.814,0,0,0-.8,2.895,5.9,5.9,0,0,0,1.578,3.986,2.966,2.966,0,0,1-1.881,4.956,2.922,2.922,0,0,0-1.631,5.14,2.966,2.966,0,0,1,0,4.449,2.91,2.91,0,0,0,.534,4.805,2.966,2.966,0,0,1,.424,4.933,3.289,3.289,0,0,0-1.207,3.123l.282,1.706a13.309,13.309,0,0,0,3.978,7.7,13.012,13.012,0,0,0,9.788,3.334v-6.451l-1.094-.546a8.661,8.661,0,0,1-2.328-1.75,2.966,2.966,0,0,1-.2-3.906,2.889,2.889,0,0,0-.833-4.366,2.966,2.966,0,0,1-1.483-2.566v-.822a2.966,2.966,0,0,1,2.966-2.966,2.966,2.966,0,0,0,2.966-2.9l-.042-.349a2.966,2.966,0,0,1,1.981-3.043,5.87,5.87,0,0,0,0-11.126,2.966,2.966,0,0,1-1.987-2.99,3.431,3.431,0,0,1,.05-.35,5.865,5.865,0,0,0-.122-1.186,3.624,3.624,0,0,1,.039-1.35,2.831,2.831,0,0,0,.089-.43,2.945,2.945,0,0,0-1.67-2.646,2.966,2.966,0,0,1-.792-4.746l3.761-3.761a2.7,2.7,0,0,0,.747-2.72,8.774,8.774,0,0,1,3.263-10.117A2.966,2.966,0,0,1,31,65.859a8.9,8.9,0,0,0,3.263.795A8.053,8.053,0,0,0,40.2,64.064c3.856-3.841,3.6-6.333,3.017-8.554A2.966,2.966,0,1,1,48.949,54c.946,3.58,1.278,8.439-4.556,14.264A13.816,13.816,0,0,1,33.982,72.58a14.576,14.576,0,0,1-3.4-.567,2.794,2.794,0,0,0-.166,2.236,8.6,8.6,0,0,1-2.136,8.9L26.8,84.631a8.774,8.774,0,0,1,1.907,5.487,6.7,6.7,0,0,1-.128,1.249c.018.113.033.228.047.344a11.79,11.79,0,0,1-.03,20.57,8.916,8.916,0,0,1-4.016,6.107,8.768,8.768,0,0,1,.744,7.027l.593.3h8.72V119.2a26.781,26.781,0,0,1,5.849-16.675L57.239,81.591a8.863,8.863,0,0,1,6.947-3.337h56.471a8.94,8.94,0,0,1,7.119,3.559L142.9,101.983h22.753a8.833,8.833,0,0,1,6.294,2.607l5.422,5.422a8.833,8.833,0,0,1,2.607,6.294v24.236a2.966,2.966,0,0,1-2.966,2.966h-8.9a2.966,2.966,0,1,1,0-5.932h5.932v-14.83h-8.9a8.9,8.9,0,0,1-8.9-8.9v-5.932H141.42a2.966,2.966,0,0,1-2.373-1.186L123.03,85.372a2.966,2.966,0,0,0-2.373-1.186H64.186A2.948,2.948,0,0,0,61.872,85.3l-16.75,20.935a20.783,20.783,0,0,0-4.345,10.58h5.727a2.966,2.966,0,1,1,0,5.932H40.573v14.83H52.7a17.8,17.8,0,1,1,0,5.932H25.742a2.862,2.862,0,0,1-1.5-.466A18.728,18.728,0,0,1,9,138.282a19.211,19.211,0,0,1-5.834-11.114l-.3-1.706a9.245,9.245,0,0,1,1.086-6.086,8.8,8.8,0,0,1-.739-9.978A8.833,8.833,0,0,1,5.882,97.619a11.665,11.665,0,0,1-.9-4.535,11.352,11.352,0,0,1,.54-3.467,11.766,11.766,0,0,1-3.506-8.4,10.592,10.592,0,0,1,.092-1.389,2.987,2.987,0,0,1-.092-.735A36.585,36.585,0,0,1,3.991,67.225,11.719,11.719,0,0,1,5.024,52.879Zm157.158,60.974a2.966,2.966,0,0,0,2.966,2.966h8.9v-.507a2.966,2.966,0,0,0-.869-2.1l-5.422-5.422a2.966,2.966,0,0,0-2.1-.869h-3.473ZM70.234,152.406a11.864,11.864,0,1,0-11.864-11.864A11.864,11.864,0,0,0,70.234,152.406Zm-41.525-14.83h5.932v-5.932H28.709Z" transform="translate(-2 7.763)" fill="#323232"/>
    </g>
  </g>
</svg>
