<svg xmlns="http://www.w3.org/2000/svg" width="175.014" height="175" viewBox="0 0 175.014 175">
  <g id="t2-ic1" transform="translate(0 -0.022)">
    <g id="Group_96800" data-name="Group 96800" transform="translate(2.564 2.586)">
      <path id="Path_151124" data-name="Path 151124" d="M7.5,348.978a4.136,4.136,0,0,1,1.3-3c14.218-13.462,39.863-13.962,54.82-.7a45.9,45.9,0,0,0,29.855,11.068,36.475,36.475,0,0,0,21.962-6.85l8.245-6.153c15.292-11.414,38.98-10.2,52.439,2.379a4.045,4.045,0,0,1,1.262,2.96V372.14H7.5Z" transform="translate(-7.5 -223.377)" fill="#7dc9ff"/>
      <path id="Path_151125" data-name="Path 151125" d="M177.387,382.3v6.836a4.041,4.041,0,0,0-1.261-2.96c-13.461-12.579-37.146-13.793-52.439-2.379l-8.245,6.153a36.476,36.476,0,0,1-21.962,6.85,45.9,45.9,0,0,1-29.855-11.068c-14.958-13.259-40.6-12.76-54.822.7a4.145,4.145,0,0,0-1.3,3V382.6a4.145,4.145,0,0,1,1.3-3c14.22-13.461,39.864-13.96,54.822-.7a45.9,45.9,0,0,0,29.855,11.068,36.476,36.476,0,0,0,21.962-6.85l8.245-6.153c15.293-11.414,38.978-10.2,52.439,2.379A4.041,4.041,0,0,1,177.387,382.3Z" transform="translate(-7.5 -245.505)" fill="#3ca8f4"/>
      <path id="Path_151126" data-name="Path 151126" d="M7.5,322.534a1.024,1.024,0,0,0,1.721.751c7.242-6.626,17.3-9.987,27.392-9.987,9.838,0,19.7,3.193,27.011,9.674,13.711,12.152,36.879,15.368,51.817,4.218l8.245-6.153c15.122-11.287,38.455-10.227,51.987,1.964a1.024,1.024,0,0,0,1.714-.757V306.208c-13.194-13.738-37.919-15.406-53.7-3.627l-3.034,2.227a1.708,1.708,0,0,1-2.647-.886c-1.134-3.815-3.514-5.242-3.514-11.231,0-7.862,4.1-7.862,4.1-15.725s-4.1-7.861-4.1-15.723,4.1-7.862,4.1-15.723H70.738c0,7.862-4.1,7.862-4.1,15.723s4.1,7.861,4.1,15.723-4.1,7.862-4.1,15.725c0,6.439,2.751,8.292,3.747,13.071a1.71,1.71,0,0,1-2.612,1.788,41.779,41.779,0,0,1-4.147-3.034C48.2,290.84,21.4,291.8,7.5,306.526Z" transform="translate(-7.5 -164.167)" fill="#a6fc58"/>
      <path id="Path_151127" data-name="Path 151127" d="M177.387,433.269v6.085a1.024,1.024,0,0,1-1.713.759c-13.533-12.193-36.866-13.253-51.988-1.966l-8.245,6.153c-14.938,11.15-38.107,7.934-51.817-4.218-7.312-6.481-17.173-9.674-27.011-9.674-10.091,0-20.151,3.36-27.394,9.988a1.024,1.024,0,0,1-1.719-.752V433.56c7.39-6.628,17.659-9.988,27.958-9.988,10.043,0,20.106,3.193,27.572,9.674,13.994,12.152,37.642,15.368,52.887,4.218l8.416-6.153C139.762,420.027,163.574,421.084,177.387,433.269Z" transform="translate(-7.5 -281.277)" fill="#8ad24a"/>
      <path id="Path_151128" data-name="Path 151128" d="M137.6,103.356H89.748V80.8a3.418,3.418,0,0,0-3.418-3.418H39.5V29.522H89.748A47.855,47.855,0,0,1,137.6,77.377Z" transform="translate(-28.562 -22.002)" fill="#9b9696"/>
      <path id="Path_151129" data-name="Path 151129" d="M89.748,182.337v-22.56a3.418,3.418,0,0,0-3.418-3.418H39.5l6.836-6.836H86.33a10.255,10.255,0,0,1,10.255,10.255V175.5Z" transform="translate(-28.562 -100.983)" fill="#736e6e"/>
      <path id="Path_151130" data-name="Path 151130" d="M22.54,7.522h-8.2A6.836,6.836,0,0,0,7.5,14.358V63.581a6.836,6.836,0,0,0,6.836,6.836h8.2a6.836,6.836,0,0,0,6.836-6.836V14.358A6.836,6.836,0,0,0,22.54,7.522Z" transform="translate(-7.5 -7.522)" fill="#736e6e"/>
      <path id="Path_151131" data-name="Path 151131" d="M21.173,70.418H14.336A6.835,6.835,0,0,1,7.5,63.581V14.359a6.835,6.835,0,0,1,6.836-6.836h6.836a6.835,6.835,0,0,0-6.836,6.836V63.581A6.835,6.835,0,0,0,21.173,70.418Z" transform="translate(-7.5 -7.522)" fill="#5a5555"/>
      <path id="Path_151132" data-name="Path 151132" d="M228.482,263.468a18.185,18.185,0,0,1-.126-2.222c0-7.862,4.1-7.862,4.1-15.724H184.6c0,7.862-4.1,7.862-4.1,15.724a20.064,20.064,0,0,0,.12,2.177h0c.676,5.763,3.98,6.487,3.98,13.543,0,7.865-4.1,7.865-4.1,15.727,0,6.437,2.752,8.293,3.746,13.071a1.684,1.684,0,0,1-.54,1.637c.209.174.414.352.619.533a41.655,41.655,0,0,0,4.146,3.035,1.71,1.71,0,0,0,2.612-1.788c-.995-4.779-3.746-6.635-3.746-13.071,0-7.862,4.1-7.862,4.1-15.727s-4.1-7.859-4.1-15.721v-.013a1.193,1.193,0,0,1,1.2-1.184Z" transform="translate(-121.364 -164.168)" fill="#8ad24a"/>
      <path id="Path_151133" data-name="Path 151133" d="M226.9,230.062v-8.2a6.836,6.836,0,0,0-6.837-6.837H170.837A6.836,6.836,0,0,0,164,221.859v8.2a6.836,6.836,0,0,0,6.837,6.837h49.223A6.837,6.837,0,0,0,226.9,230.062Z" transform="translate(-110.504 -144.093)" fill="#736e6e"/>
      <path id="Path_151134" data-name="Path 151134" d="M177.673,236.9h-6.837A6.835,6.835,0,0,1,164,230.062v-8.2a6.835,6.835,0,0,1,6.837-6.837h6.837a6.835,6.835,0,0,0-6.837,6.837v8.2A6.835,6.835,0,0,0,177.673,236.9Z" transform="translate(-110.504 -144.093)" fill="#5a5555"/>
      <path id="Path_151135" data-name="Path 151135" d="M126.453,43.195H103.209a1.709,1.709,0,0,1-1.709-1.709V29.522h26.662V41.486A1.709,1.709,0,0,1,126.453,43.195Z" transform="translate(-69.368 -22.002)" fill="#e3e0e4"/>
      <path id="Path_151136" data-name="Path 151136" d="M128.162,44.522v6.836a1.71,1.71,0,0,1-1.709,1.709H103.209a1.71,1.71,0,0,1-1.709-1.709V44.522a1.71,1.71,0,0,0,1.709,1.709h23.244A1.71,1.71,0,0,0,128.162,44.522Z" transform="translate(-69.368 -31.874)" fill="#d4cfd5"/>
    </g>
    <g id="Group_96801" data-name="Group 96801" transform="translate(0 0.022)">
      <path id="Path_151137" data-name="Path 151137" d="M138.15,436.485a43.056,43.056,0,0,0-20.933,8.065l-8.245,6.153c-13.163,9.825-34.957,7.995-48.584-4.082-7.507-6.654-17.7-10.319-28.711-10.319-12.194,0-23.485,4.55-30.977,12.484a2.564,2.564,0,0,0,3.728,3.52c6.528-6.912,16.46-10.877,27.249-10.877,9.753,0,18.742,3.206,25.31,9.029a48.523,48.523,0,0,0,26.9,11.48q2.354.233,4.661.232a39.051,39.051,0,0,0,23.494-7.358l8.245-6.153a37.93,37.93,0,0,1,18.445-7.079,2.564,2.564,0,0,0-.579-5.1Z" transform="translate(0 -287.171)"/>
      <path id="Path_151138" data-name="Path 151138" d="M435.454,437.521a2.564,2.564,0,0,0-.782,5.068,36.154,36.154,0,0,1,20.59,10.2,2.564,2.564,0,1,0,3.7-3.552,41.3,41.3,0,0,0-23.5-11.713Z" transform="translate(-284.66 -287.953)"/>
      <path id="Path_151139" data-name="Path 151139" d="M117.233,138.934l-2.095,1.538a25.123,25.123,0,0,0-1.26-2.684,12.507,12.507,0,0,1-1.754-7.1l8.159-6.088c14.871-11.1,37.913-9.568,50.318,3.345a2.564,2.564,0,0,0,3.7-3.552c-14.105-14.682-40.246-16.468-57.082-3.9l-2.247,1.677a16.887,16.887,0,0,0,1.25-6.786,17.191,17.191,0,0,0-2.342-9.047,12.179,12.179,0,0,1-1.76-6.675,15.775,15.775,0,0,1,.123-2.053,9.41,9.41,0,0,0,9.277-9.4v-8.2a9.415,9.415,0,0,0-7.349-9.172s0-13.476-.008-13.775a2.564,2.564,0,1,0-5.127.09c0,.269.007,13.457.007,13.457H66.314V61.381A5.989,5.989,0,0,0,60.332,55.4H27V31.812a2.564,2.564,0,0,0-5.127,0V58.645A4.277,4.277,0,0,1,17.6,62.918H9.4a4.277,4.277,0,0,1-4.273-4.273V9.422A4.277,4.277,0,0,1,9.4,5.149h8.2a4.277,4.277,0,0,1,4.273,4.273V19.848a2.564,2.564,0,1,0,5.127,0V12.67h5.127v9.4A4.277,4.277,0,0,0,36.4,26.343H59.648a4.277,4.277,0,0,0,4.273-4.273v-9.4A45.413,45.413,0,0,1,107.4,45.828a2.564,2.564,0,1,0,4.941-1.37A50.555,50.555,0,0,0,63.75,7.542H26.815A9.416,9.416,0,0,0,17.6.022H9.4A9.411,9.411,0,0,0,0,9.422V58.645a9.411,9.411,0,0,0,9.4,9.4h8.2a9.416,9.416,0,0,0,9.211-7.52H60.332a.855.855,0,0,1,.855.855v9.387A9.414,9.414,0,0,0,53.5,80.009v8.2A9.414,9.414,0,0,0,59.311,96.9a20.839,20.839,0,0,0-.175,2.762,17.191,17.191,0,0,0,2.342,9.047,12.179,12.179,0,0,1,1.76,6.675c-.008,3.859-1.021,5.163-2.272,7.677-.194-.165-.388-.331-.577-.5C43.967,108.007,15.517,109.039.7,124.73a2.564,2.564,0,0,0,3.728,3.52c13.031-13.8,38.083-14.683,52.56-1.848.743.659,1.524,1.3,2.328,1.916a20.807,20.807,0,0,0-.179,2.792,20.185,20.185,0,0,0,2.287,9.45c.294.637.58,1.258.835,1.906-.8-.572-1.431-1.062-1.869-1.45C43.966,126.457,15.516,127.491.7,143.186a2.564,2.564,0,1,0,3.729,3.52c13.03-13.8,38.082-14.686,52.559-1.852a42.416,42.416,0,0,0,4.43,3.253c3.025,2.155,7.423-.848,6.538-4.451a23.286,23.286,0,0,0-1.878-5.244,15.2,15.2,0,0,1-1.815-7.3,12.184,12.184,0,0,1,1.76-6.677,18.65,18.65,0,0,0,0-18.1,12.179,12.179,0,0,1-1.76-6.675,15.792,15.792,0,0,1,.123-2.05h9.79a2.564,2.564,0,1,0,0-5.127s-11.714-.057-11.907-.051a4.276,4.276,0,0,1-3.646-4.222v-8.2A4.277,4.277,0,0,1,62.9,75.737h49.223a4.277,4.277,0,0,1,4.273,4.273v8.2a4.277,4.277,0,0,1-4.273,4.273H86.14a2.564,2.564,0,1,0,0,5.127h20.945c-.062.656-.094,1.337-.094,2.05a17.191,17.191,0,0,0,2.342,9.047,13.541,13.541,0,0,1,0,13.352,18.068,18.068,0,0,0-2.342,9.048,17.193,17.193,0,0,0,2.342,9.048,15.807,15.807,0,0,1,1.279,2.913c2.225,5.236,6.541,2.676,9.672-.017,14.872-11.1,37.915-9.566,50.318,3.348a2.564,2.564,0,0,0,3.7-3.552c-14.1-14.685-40.244-16.474-57.067-3.918ZM37.259,21.215V12.67H58.794v8.546Z" transform="translate(0 -0.022)"/>
    </g>
  </g>
</svg>
