<svg xmlns="http://www.w3.org/2000/svg" width="150" height="150" viewBox="0 0 150 150">
  <g id="t3-ic11" transform="translate(-300.5 -2664)">
    <circle id="Ellipse_4387" data-name="Ellipse 4387" cx="75" cy="75" r="75" transform="translate(300.5 2664)" fill="#fff"/>
    <g id="peligroso" transform="translate(303.063 2689)">
      <g id="Group_97143" data-name="Group 97143" transform="translate(28.911 1.467)">
        <g id="Group_97140" data-name="Group 97140" transform="translate(0)">
          <path id="Path_151909" data-name="Path 151909" d="M86.2,29.005a1.547,1.547,0,0,0,.572,1.2L109.6,48.741c22.975,18.651,9.786,55.822-19.806,55.822H66.456c-29.592,0-42.781-37.17-19.806-55.822L69.481,30.206a1.547,1.547,0,0,0,.572-1.2V19.5l-6.66-8.478a1.878,1.878,0,0,1,1.924-2.983l7.025,1.724,3.144-1.615a5.892,5.892,0,0,1,5.458.038l2.968,1.577L90.937,8.04a1.878,1.878,0,0,1,1.924,2.983L86.2,19.5Z" transform="translate(-34.969 -7.498)" fill="#8ad24a"/>
        </g>
        <path id="Path_151910" data-name="Path 151910" d="M100.652,100.745H77.309c-29.592,0-42.781-34.319-19.806-51.54L80.334,32.092a1.389,1.389,0,0,0,.572-1.109v-.007A1.173,1.173,0,0,1,82.07,29.8c1.553-.012,4.129-.034,4.311-.071a1.554,1.554,0,0,1-.181-.725v-9.3c-.171-.027-5.241-.047-6.927-.052a1.173,1.173,0,0,1-.889-.413L74.246,14.38a1.759,1.759,0,0,1,1.924-2.754l5.539,1.255a4.409,4.409,0,0,0,2.863-.316l1.77-.839a6.277,6.277,0,0,1,5.455.036l.35.171.714-.909A1.878,1.878,0,0,0,90.937,8.04L83.912,9.764,80.944,8.187a5.893,5.893,0,0,0-5.458-.038L72.342,9.764,65.317,8.04a1.878,1.878,0,0,0-1.924,2.983l6.66,8.478v9.5a1.547,1.547,0,0,1-.572,1.2L46.649,48.742c-22.975,18.651-9.786,55.822,19.806,55.822H89.8a31.3,31.3,0,0,0,15.89-4.165,36.451,36.451,0,0,1-5.037.347Z" transform="translate(-34.969 -7.498)" fill="#7aba42"/>
        <path id="Path_151911" data-name="Path 151911" d="M223.818,85.862H208.926a2.076,2.076,0,0,1-2.076-2.076V81.7a2.076,2.076,0,0,1,2.076-2.076h14.891a2.076,2.076,0,0,1,2.076,2.076v2.089A2.077,2.077,0,0,1,223.818,85.862Z" transform="translate(-173.214 -65.507)" fill="#f8f7f8"/>
        <g id="Group_97142" data-name="Group 97142" transform="translate(19.336 38.013)">
          <path id="Path_151912" data-name="Path 151912" d="M223.644,215.059l-.973,1.443-.64,2.092a4.616,4.616,0,0,1-4.413,3.264h-4.544a4.616,4.616,0,0,1-4.413-3.264l-.64-2.092-.973-1.443a8.54,8.54,0,0,1,7.082-13.314h2.434A8.54,8.54,0,0,1,223.644,215.059Z" transform="translate(-191.523 -201.745)" fill="#f8f7f8"/>
          <g id="Group_97141" data-name="Group 97141" transform="translate(0 15.424)">
            <path id="Path_151913" data-name="Path 151913" d="M173.746,300.522c.03-.076.06-.151.1-.226a3.169,3.169,0,1,1,3.753,4.418,1.007,1.007,0,0,0-.646,1.334,3.169,3.169,0,1,1-5.793-.2c.038-.078.08-.152.124-.226L139.9,290.425c-.031.079-.063.159-.1.237a3.169,3.169,0,1,1-3.753-4.418,1.007,1.007,0,0,0,.646-1.334,3.169,3.169,0,1,1,5.793.2c-.036.074-.077.145-.118.215Z" transform="translate(-133.777 -280.563)" fill="#f8f7f8"/>
          </g>
          <path id="Path_151914" data-name="Path 151914" d="M185.907,284.911a3.169,3.169,0,1,0-5.793.2c.036.075.077.145.118.215l-31.378,15.192c-.03-.076-.06-.151-.1-.226a3.169,3.169,0,1,0-3.753,4.418,1.007,1.007,0,0,1,.646,1.334,3.169,3.169,0,1,0,5.793-.2c-.038-.078-.08-.152-.124-.226L182.7,290.425c.031.079.063.159.1.237a3.169,3.169,0,1,0,3.753-4.418A1.007,1.007,0,0,1,185.907,284.911Z" transform="translate(-140.983 -265.14)" fill="#f8f7f8"/>
        </g>
      </g>
      <g id="Group_97144" data-name="Group 97144" transform="translate(27.437 0)">
        <path id="Path_151915" data-name="Path 151915" d="M171.142,287.71a4.637,4.637,0,0,0,5.651-6,4.6,4.6,0,0,0-2.6-2.743,4.6,4.6,0,0,0-.539-3.741,4.637,4.637,0,0,0-8.479,3.325l-13.506,6.539-13.506-6.539a4.637,4.637,0,0,0-8.479-3.325,4.6,4.6,0,0,0-.539,3.74,4.6,4.6,0,0,0-2.6,2.743,4.637,4.637,0,0,0,7.875,4.58l7.386,3.576-5.641,2.731a4.637,4.637,0,0,0-7.867,4.59,4.6,4.6,0,0,0,2.6,2.743,4.594,4.594,0,0,0,.539,3.741,4.657,4.657,0,0,0,3.935,2.16,4.553,4.553,0,0,0,1.522-.261,4.637,4.637,0,0,0,3.02-5.237l11.755-5.691,11.755,5.691a4.637,4.637,0,0,0,3.02,5.237,4.554,4.554,0,0,0,1.522.261,4.658,4.658,0,0,0,3.935-2.16,4.6,4.6,0,0,0,.539-3.741,4.594,4.594,0,0,0,2.6-2.743,4.637,4.637,0,0,0-7.867-4.59l-5.641-2.731,7.386-3.576A4.649,4.649,0,0,0,171.142,287.71Zm-36.63-4.635a1.468,1.468,0,0,0-2.007.789c-.017.043-.033.087-.054.13a1.7,1.7,0,1,1-2.016-2.37,2.475,2.475,0,0,0,1.592-3.288,1.694,1.694,0,0,1,.143-1.546,1.72,1.72,0,0,1,1.991-.693,1.7,1.7,0,0,1,.976,2.351c-.019.04-.043.078-.065.115a1.468,1.468,0,0,0,.628,2.06l12.6,6.1-3.127,1.514Zm32.566,12.74a1.468,1.468,0,0,0,2.005-.784c.016-.042.031-.084.051-.124a1.7,1.7,0,1,1,2.016,2.37,2.475,2.475,0,0,0-1.592,3.288,1.694,1.694,0,0,1-.143,1.546,1.719,1.719,0,0,1-1.991.693,1.7,1.7,0,0,1-.976-2.35c.021-.042.045-.082.068-.122a1.468,1.468,0,0,0-.626-2.064l-10.854-5.255,3.127-1.514Zm-29.631,2.453a1.468,1.468,0,0,0-.626,2.064c.023.04.048.08.068.122a1.7,1.7,0,1,1-3.11.112,2.475,2.475,0,0,0-1.592-3.288,1.692,1.692,0,0,1-1.124-1.071,1.7,1.7,0,0,1,3.139-1.3c.02.041.035.083.051.125a1.468,1.468,0,0,0,2.005.784l31.378-15.192a1.468,1.468,0,0,0,.628-2.06c-.022-.038-.045-.075-.065-.116a1.7,1.7,0,1,1,3.11-.112,2.475,2.475,0,0,0,1.592,3.288,1.693,1.693,0,0,1,1.124,1.071,1.719,1.719,0,0,1-.691,1.991,1.7,1.7,0,0,1-2.449-.693c-.021-.042-.037-.086-.053-.129a1.468,1.468,0,0,0-2.008-.789Z" transform="translate(-106.939 -219.63)"/>
        <path id="Path_151916" data-name="Path 151916" d="M200.472,200.149a1.467,1.467,0,0,0-1.861.919,9.9,9.9,0,0,0,1.191,8.779l.851,1.262.576,1.883a6.051,6.051,0,0,0,5.817,4.3h4.544a6.051,6.051,0,0,0,5.817-4.3l.576-1.883.851-1.262a10.008,10.008,0,0,0-8.3-15.6H208.1a9.9,9.9,0,0,0-4.792,1.2,1.468,1.468,0,0,0,1.405,2.577,7,7,0,0,1,3.387-.847h2.434a7.073,7.073,0,0,1,5.864,11.026l-.973,1.443a1.471,1.471,0,0,0-.186.391l-.64,2.092a3.131,3.131,0,0,1-3.01,2.226h-4.544a3.132,3.132,0,0,1-3.01-2.226l-.64-2.092a1.472,1.472,0,0,0-.186-.391l-.973-1.443a6.99,6.99,0,0,1-.845-6.2,1.468,1.468,0,0,0-.919-1.861Z" transform="translate(-164.686 -156.232)"/>
        <path id="Path_151917" data-name="Path 151917" d="M115.9,59.676a32.329,32.329,0,0,0-10.574-17.385,1.468,1.468,0,1,0-1.919,2.221,29.413,29.413,0,0,1,9.63,15.811,30.7,30.7,0,0,1-11.566,31.082,29.645,29.645,0,0,1-17.733,5.66H60.4a29.61,29.61,0,0,1-17.93-5.806,30.691,30.691,0,0,1-11.212-31.6,29.611,29.611,0,0,1,10.26-15.808L64.348,25.316a3,3,0,0,0,1.1-2.025H78.693a3,3,0,0,0,1.1,2.025L98.6,40.584a1.468,1.468,0,1,0,1.85-2.279L81.64,23.037a.079.079,0,0,1-.029-.062V22.6a3.538,3.538,0,0,0,1.448-2.851V17.658a3.538,3.538,0,0,0-1.448-2.851v-.828L87.957,5.9a3.3,3.3,0,0,0,.18-3.88A3.3,3.3,0,0,0,84.529.584L78.048,2.175,75.574.86A7.364,7.364,0,0,0,68.757.813L66.1,2.178,59.609.584A3.3,3.3,0,0,0,56,2.02a3.3,3.3,0,0,0,.18,3.88l6.346,8.079v.828a3.538,3.538,0,0,0-1.448,2.851v2.089A3.538,3.538,0,0,0,62.527,22.6v.377a.079.079,0,0,1-.029.061L39.666,41.572A32.523,32.523,0,0,0,28.409,58.945a33.625,33.625,0,0,0,12.3,34.663A32.524,32.524,0,0,0,60.4,100H83.74a32.559,32.559,0,0,0,19.473-6.231A33.633,33.633,0,0,0,115.9,59.676ZM58.489,4.086a.378.378,0,0,1-.022-.475.377.377,0,0,1,.442-.176l7.025,1.724a1.47,1.47,0,0,0,1.02-.12L70.1,3.424a4.428,4.428,0,0,1,4.1.028L77.165,5.03a1.469,1.469,0,0,0,1.039.129l7.025-1.724a.378.378,0,0,1,.442.176.378.378,0,0,1-.022.475l-6.66,8.478a1.468,1.468,0,0,0-.314.907v.643H75.294a1.468,1.468,0,1,0,0,2.935h4.22a.609.609,0,0,1,.609.609v2.089a.609.609,0,0,1-.609.609H64.623a.609.609,0,0,1-.609-.609V17.658a.609.609,0,0,1,.609-.609h4.416a1.468,1.468,0,1,0,0-2.935H65.462v-.643a1.468,1.468,0,0,0-.313-.907Z" transform="translate(-27.437 0)"/>
      </g>
    </g>
  </g>
</svg>
