<svg xmlns="http://www.w3.org/2000/svg" width="150" height="150" viewBox="0 0 150 150">
  <g id="t3-ic12" transform="translate(-720.5 -2664)">
    <circle id="Ellipse_4386" data-name="Ellipse 4386" cx="75" cy="75" r="75" transform="translate(720.5 2664)" fill="#fff"/>
    <g id="matraz" transform="translate(704.774 2689)">
      <g id="Group_97088" data-name="Group 97088" transform="translate(52.176 1.465)">
        <path id="Path_151808" data-name="Path 151808" d="M141.132,321.883l-9.006-12.472-6.319-4.377H87.866L83.991,307l-5.67,7.569-9.775,14.07,3.142,9.411,5.894,4.684.689,1.078a14.5,14.5,0,0,0,2.207.168h49.355a13.936,13.936,0,0,0,11.3-22.095Z" transform="translate(-66.515 -246.909)" fill="#a6fc58"/>
        <path id="Path_151809" data-name="Path 151809" d="M173.532,77.558V41.708H152.678l-1.045,36.556L137.927,98.51a45.058,45.058,0,0,1,12.674,2.9h20.522a37.337,37.337,0,0,0,14.238-2.819l2.592-1.067Z" transform="translate(-122.342 -35.025)" fill="#f9f7f8"/>
        <path id="Path_151810" data-name="Path 151810" d="M174.426,311.359l8.971-15.473a7.011,7.011,0,0,1,12.13,0l8.971,15.473a7.01,7.01,0,0,1-6.065,10.526H180.491A7.01,7.01,0,0,1,174.426,311.359Z" transform="translate(-150.942 -236.736)" fill="#fde947"/>
        <circle id="Ellipse_4420" data-name="Ellipse 4420" cx="3.468" cy="3.468" r="3.468" transform="translate(60.741 80.755)" fill="#8ad24a"/>
        <circle id="Ellipse_4421" data-name="Ellipse 4421" cx="3.494" cy="3.494" r="3.494" transform="translate(36.49 30.086)" fill="#a6fc58"/>
        <path id="Path_151811" data-name="Path 151811" d="M77.558,311l.371-1.886-8.71,4.413-8.4,11.637a13.936,13.936,0,0,0,11.3,22.095H73.1a13.953,13.953,0,0,1-3.671-19.852l8.4-11.637.97-1.343.886-4.506Z" transform="translate(-58.151 -250.194)" fill="#8ad24a"/>
        <path id="Path_151812" data-name="Path 151812" d="M134.07,41.708h-4.246v35.85L114.8,98.362h.9q1.832,0,3.653.152,1.22.1,2.431.266l.178.025q1.218.171,2.425.407l.093-.355,12.634-17.5a9.03,9.03,0,0,0,1.709-5.287V60.658a7.229,7.229,0,0,1,7.229-7.229h8.873V41.708Z" transform="translate(-103.734 -35.025)" fill="#efedef"/>
        <path id="Path_151813" data-name="Path 151813" d="M225.873,7.5H203.238V18.458l4.438,2.562h18.2a3.548,3.548,0,0,0,3.548-3.548V11.048A3.548,3.548,0,0,0,225.873,7.5Z" transform="translate(-174.894 -7.5)" fill="#f9f7f8"/>
        <path id="Path_151814" data-name="Path 151814" d="M181.642,17.472V11.048A3.548,3.548,0,0,1,185.19,7.5h-8.025a3.548,3.548,0,0,0-3.548,3.548v6.424a3.548,3.548,0,0,0,3.548,3.548h8.025A3.548,3.548,0,0,1,181.642,17.472Z" transform="translate(-151.06 -7.5)" fill="#efedef"/>
      </g>
      <g id="Group_97089" data-name="Group 97089" transform="translate(50.726 0)">
        <path id="Path_151815" data-name="Path 151815" d="M249.906,399.263a1.465,1.465,0,0,0-1.465,1.465v1.307a1.465,1.465,0,0,0,2.93,0v-1.307A1.465,1.465,0,0,0,249.906,399.263Z" transform="translate(-209.816 -321.264)"/>
        <path id="Path_151816" data-name="Path 151816" d="M249.292,335.784a1.465,1.465,0,0,0,1.465-1.465v-8.642a1.465,1.465,0,1,0-2.93,0v8.642A1.465,1.465,0,0,0,249.292,335.784Z" transform="translate(-209.322 -260.875)"/>
        <path id="Path_151817" data-name="Path 151817" d="M366.508,413.373a4.933,4.933,0,1,0,4.933,4.933A4.939,4.939,0,0,0,366.508,413.373Zm0,6.936a2,2,0,1,1,2-2A2.005,2.005,0,0,1,366.508,420.309Z" transform="translate(-300.848 -332.618)"/>
        <path id="Path_151818" data-name="Path 151818" d="M247.359,158.965a4.959,4.959,0,1,0-4.959,4.959A4.965,4.965,0,0,0,247.359,158.965Zm-6.988,0a2.029,2.029,0,1,1,2.029,2.029A2.031,2.031,0,0,1,240.37,158.965Z" transform="translate(-200.964 -123.92)"/>
        <path id="Path_151819" data-name="Path 151819" d="M127.98,75.581,104.831,43.524V16.161a5.021,5.021,0,0,0,3.337-4.724V5.013A5.019,5.019,0,0,0,103.155,0H98.777a1.465,1.465,0,1,0,0,2.93h4.378a2.085,2.085,0,0,1,2.083,2.083v6.424a2.085,2.085,0,0,1-2.083,2.083H78.281A2.085,2.085,0,0,1,76.2,11.437V5.013A2.085,2.085,0,0,1,78.281,2.93H92.533a1.465,1.465,0,0,0,0-2.93H78.281a5.019,5.019,0,0,0-5.013,5.013v6.424a5.022,5.022,0,0,0,3.532,4.79v27.3l-4.405,6.1a1.465,1.465,0,1,0,2.376,1.716l4.683-6.484A1.465,1.465,0,0,0,79.731,44V16.45H101.9V44a1.465,1.465,0,0,0,.277.858L115.511,63.32l-.876.361a35.724,35.724,0,0,1-12.841,2.7l-3.766-6.5a8.476,8.476,0,0,0-14.665,0l-3.576,6.169a46.277,46.277,0,0,0-13.71-2.67l5.019-6.95a1.465,1.465,0,1,0-2.376-1.716L53.652,75.581A15.4,15.4,0,0,0,66.139,100h49.354A15.4,15.4,0,0,0,127.98,75.581Zm-1.382,14.7a12.262,12.262,0,0,1-11.1,6.794H66.139A12.472,12.472,0,0,1,56.028,77.3l7.964-11.029h.148A43.4,43.4,0,0,1,78.291,68.63l-3.9,6.723A8.475,8.475,0,0,0,81.726,88.08H92.97a1.465,1.465,0,1,0,0-2.93H81.726a5.545,5.545,0,0,1-4.8-8.326L81.7,68.592l0-.006,4.2-7.236a5.546,5.546,0,0,1,9.595,0l8.97,15.473a5.545,5.545,0,0,1-4.8,8.326h-.453a1.465,1.465,0,1,0,0,2.93h.453A8.475,8.475,0,0,0,107,75.354l-3.547-6.118a38.627,38.627,0,0,0,12.3-2.846l1.524-.627L125.6,77.3a12.263,12.263,0,0,1,.993,12.98Z" transform="translate(-50.726 0)"/>
      </g>
    </g>
  </g>
</svg>
