<svg id="t3-ic5" xmlns="http://www.w3.org/2000/svg" width="110" height="109.991" viewBox="0 0 110 109.991">
  <g id="Group_96800" data-name="Group 96800" transform="translate(1.611 1.611)">
    <path id="Path_151124" data-name="Path 151124" d="M114.277,343.964a2.6,2.6,0,0,0-.82-1.887C104.522,333.617,88.4,333.3,79,341.637a28.848,28.848,0,0,1-18.764,6.957,22.926,22.926,0,0,1-13.8-4.305l-5.182-3.867c-9.611-7.174-24.5-6.412-32.959,1.5a2.542,2.542,0,0,0-.793,1.86v14.746H114.277Z" transform="translate(-7.5 -265.022)" fill="#7dc9ff"/>
    <path id="Path_151125" data-name="Path 151125" d="M7.5,377.4v4.3a2.54,2.54,0,0,1,.793-1.861c8.461-7.906,23.347-8.669,32.959-1.5l5.182,3.867a22.926,22.926,0,0,0,13.8,4.305A28.848,28.848,0,0,0,79,379.554c9.4-8.334,25.519-8.02,34.457.44a2.605,2.605,0,0,1,.819,1.886v-4.3a2.605,2.605,0,0,0-.819-1.886c-8.937-8.461-25.055-8.774-34.457-.44a28.848,28.848,0,0,1-18.764,6.957,22.926,22.926,0,0,1-13.8-4.305l-5.182-3.867c-9.612-7.174-24.5-6.411-32.959,1.5A2.54,2.54,0,0,0,7.5,377.4Z" transform="translate(-7.5 -291.419)" fill="#3ca8f4"/>
    <path id="Path_151126" data-name="Path 151126" d="M114.277,293.926a.644.644,0,0,1-1.082.472A26.746,26.746,0,0,0,79,294.2c-8.617,7.638-23.18,9.659-32.568,2.651l-5.182-3.867c-9.5-7.094-24.17-6.428-32.675,1.234a.644.644,0,0,1-1.077-.476V283.664c8.293-8.635,23.833-9.683,33.752-2.279l1.907,1.4a1.073,1.073,0,0,0,1.664-.557c.713-2.4,2.209-3.295,2.209-7.059,0-4.942-2.578-4.942-2.578-9.883s2.578-4.941,2.578-9.882-2.578-4.941-2.578-9.882H74.531c0,4.941,2.578,4.941,2.578,9.882s-2.578,4.941-2.578,9.882,2.578,4.942,2.578,9.883c0,4.047-1.729,5.212-2.355,8.215a1.075,1.075,0,0,0,1.642,1.124A26.267,26.267,0,0,0,79,282.6c9.7-8.6,26.538-7.992,35.275,1.263Z" transform="translate(-7.5 -194.388)" fill="#a6fc58"/>
    <path id="Path_151127" data-name="Path 151127" d="M7.5,429.623v3.824a.644.644,0,0,0,1.076.477c8.506-7.663,23.171-8.329,32.676-1.235l5.182,3.867c9.389,7.008,23.951,4.987,32.568-2.651a26.746,26.746,0,0,1,34.195.2.644.644,0,0,0,1.081-.473v-3.824a27.734,27.734,0,0,0-34.9-.2c-8.8,7.638-23.659,9.659-33.241,2.651l-5.289-3.867C31.148,421.3,16.182,421.964,7.5,429.623Z" transform="translate(-7.5 -334.093)" fill="#8ad24a"/>
    <path id="Path_151128" data-name="Path 151128" d="M39.5,75.928H69.578V61.749A2.148,2.148,0,0,1,71.727,59.6H101.16V29.522H69.578A30.078,30.078,0,0,0,39.5,59.6Z" transform="translate(-1.258 -24.795)" fill="#9b9696"/>
    <path id="Path_151129" data-name="Path 151129" d="M43.8,170.147v-14.18a2.148,2.148,0,0,1,2.148-2.148H75.379l-4.3-4.3H45.945a6.445,6.445,0,0,0-6.445,6.445v9.883Z" transform="translate(24.523 -119.014)" fill="#736e6e"/>
    <path id="Path_151130" data-name="Path 151130" d="M11.8,7.522h5.156a4.3,4.3,0,0,1,4.3,4.3V42.756a4.3,4.3,0,0,1-4.3,4.3H11.8a4.3,4.3,0,0,1-4.3-4.3V11.819a4.3,4.3,0,0,1,4.3-4.3Z" transform="translate(85.527 -7.522)" fill="#736e6e"/>
    <path id="Path_151131" data-name="Path 151131" d="M7.5,47.053h4.3a4.3,4.3,0,0,0,4.3-4.3V11.819a4.3,4.3,0,0,0-4.3-4.3H7.5a4.3,4.3,0,0,1,4.3,4.3V42.756A4.3,4.3,0,0,1,7.5,47.053Z" transform="translate(90.684 -7.522)" fill="#5a5555"/>
    <path id="Path_151132" data-name="Path 151132" d="M183,256.8a11.432,11.432,0,0,0,.079-1.4c0-4.941-2.578-4.941-2.578-9.883h30.078c0,4.941,2.578,4.941,2.578,9.883a12.608,12.608,0,0,1-.075,1.369h0c-.425,3.622-2.5,4.078-2.5,8.512,0,4.944,2.578,4.944,2.578,9.885,0,4.046-1.729,5.212-2.355,8.216a1.058,1.058,0,0,0,.339,1.029c-.131.11-.26.221-.389.335a26.175,26.175,0,0,1-2.606,1.908,1.075,1.075,0,0,1-1.641-1.124c.625-3,2.355-4.17,2.355-8.216,0-4.941-2.578-4.941-2.578-9.885s2.578-4.939,2.578-9.881v-.008a.75.75,0,0,0-.752-.744Z" transform="translate(-143.547 -194.389)" fill="#8ad24a"/>
    <path id="Path_151133" data-name="Path 151133" d="M164,224.475v-5.156a4.3,4.3,0,0,1,4.3-4.3h30.938a4.3,4.3,0,0,1,4.3,4.3v5.156a4.3,4.3,0,0,1-4.3,4.3H168.3A4.3,4.3,0,0,1,164,224.475Z" transform="translate(-130.377 -170.442)" fill="#736e6e"/>
    <path id="Path_151134" data-name="Path 151134" d="M164,228.772h4.3a4.3,4.3,0,0,0,4.3-4.3v-5.156a4.3,4.3,0,0,0-4.3-4.3H164a4.3,4.3,0,0,1,4.3,4.3v5.156A4.3,4.3,0,0,1,164,228.772Z" transform="translate(-99.439 -170.442)" fill="#5a5555"/>
    <path id="Path_151135" data-name="Path 151135" d="M102.574,38.116h14.609a1.074,1.074,0,0,0,1.074-1.074v-7.52H101.5v7.52A1.074,1.074,0,0,0,102.574,38.116Z" transform="translate(-31.676 -24.795)" fill="#e3e0e4"/>
    <path id="Path_151136" data-name="Path 151136" d="M101.5,44.522v4.3a1.075,1.075,0,0,0,1.074,1.074h14.609a1.075,1.075,0,0,0,1.074-1.074v-4.3a1.075,1.075,0,0,1-1.074,1.074H102.574A1.075,1.075,0,0,1,101.5,44.522Z" transform="translate(-31.676 -36.573)" fill="#d4cfd5"/>
  </g>
  <g id="Group_96801" data-name="Group 96801" transform="translate(0 0)">
    <path id="Path_151137" data-name="Path 151137" d="M1.793,436.417a27.061,27.061,0,0,1,13.157,5.069l5.182,3.867c8.273,6.175,21.971,5.025,30.536-2.566A27.051,27.051,0,0,1,68.714,436.3c7.664,0,14.761,2.86,19.47,7.846a1.611,1.611,0,0,1-2.343,2.213c-4.1-4.345-10.345-6.836-17.127-6.836A23.838,23.838,0,0,0,52.805,445.2a30.5,30.5,0,0,1-16.9,7.215q-1.48.147-2.929.146A24.544,24.544,0,0,1,18.2,447.936l-5.182-3.867A23.84,23.84,0,0,0,1.43,439.62a1.612,1.612,0,0,1,.364-3.2Z" transform="translate(21.377 -342.57)"/>
    <path id="Path_151138" data-name="Path 151138" d="M447.722,437.51a1.611,1.611,0,0,1,.492,3.185,22.723,22.723,0,0,0-12.941,6.41,1.611,1.611,0,1,1-2.324-2.233,25.955,25.955,0,0,1,14.773-7.362Z" transform="translate(-432.499 -343.503)"/>
    <path id="Path_151139" data-name="Path 151139" d="M36.317,87.331l1.317.967a15.791,15.791,0,0,1,.792-1.687,7.861,7.861,0,0,0,1.1-4.46L34.4,78.324c-9.347-6.976-23.829-6.013-31.626,2.1A1.611,1.611,0,0,1,.449,78.194c8.865-9.228,25.3-10.351,35.877-2.452L37.739,76.8a10.614,10.614,0,0,1-.786-4.265,10.8,10.8,0,0,1,1.472-5.686,7.655,7.655,0,0,0,1.106-4.2,9.915,9.915,0,0,0-.077-1.291,5.914,5.914,0,0,1-5.831-5.906V50.3a5.918,5.918,0,0,1,4.619-5.765s0-8.47,0-8.658a1.611,1.611,0,1,1,3.222.057c0,.169,0,8.458,0,8.458H68.32v-5.8a3.764,3.764,0,0,1,3.76-3.76H93.027V20a1.611,1.611,0,1,1,3.223,0V36.868a2.688,2.688,0,0,0,2.686,2.686h5.156a2.688,2.688,0,0,0,2.686-2.686V5.93a2.688,2.688,0,0,0-2.686-2.686H98.935A2.688,2.688,0,0,0,96.25,5.93v6.553a1.611,1.611,0,1,1-3.223,0V7.971H89.8v5.908a2.688,2.688,0,0,1-2.686,2.686H72.51a2.688,2.688,0,0,1-2.686-2.686V7.972A28.543,28.543,0,0,0,42.5,28.812a1.611,1.611,0,1,1-3.106-.861,31.775,31.775,0,0,1,30.54-23.2H93.146A5.918,5.918,0,0,1,98.935.022h5.156A5.915,5.915,0,0,1,110,5.93V36.868a5.915,5.915,0,0,1-5.908,5.908H98.935a5.918,5.918,0,0,1-5.789-4.726H72.08a.538.538,0,0,0-.537.537v5.9A5.917,5.917,0,0,1,76.377,50.3v5.156a5.917,5.917,0,0,1-3.655,5.461,13.1,13.1,0,0,1,.11,1.736,10.8,10.8,0,0,1-1.472,5.686,7.655,7.655,0,0,0-1.106,4.2c.005,2.425.642,3.245,1.428,4.825.122-.1.244-.208.362-.313,10.321-9.15,28.2-8.5,37.516,1.361a1.611,1.611,0,0,1-2.343,2.213c-8.19-8.675-23.936-9.228-33.035-1.162-.467.414-.958.817-1.463,1.2a13.077,13.077,0,0,1,.113,1.755,12.687,12.687,0,0,1-1.437,5.94c-.185.4-.365.791-.525,1.2.5-.359.9-.667,1.175-.911,10.322-9.151,28.2-8.5,37.516,1.363a1.611,1.611,0,1,1-2.344,2.212c-8.19-8.676-23.936-9.231-33.034-1.164A26.658,26.658,0,0,1,71.4,93.1a2.7,2.7,0,0,1-4.11-2.8,14.636,14.636,0,0,1,1.18-3.3,9.555,9.555,0,0,0,1.141-4.589,7.658,7.658,0,0,0-1.106-4.2,11.722,11.722,0,0,1,0-11.374,7.655,7.655,0,0,0,1.106-4.2,9.926,9.926,0,0,0-.077-1.289H63.379a1.611,1.611,0,1,1,0-3.223s7.362-.036,7.484-.032a2.688,2.688,0,0,0,2.291-2.653V50.3a2.688,2.688,0,0,0-2.686-2.686H39.531A2.688,2.688,0,0,0,36.846,50.3v5.156a2.688,2.688,0,0,0,2.686,2.686H55.859a1.611,1.611,0,1,1,0,3.223H42.695c.039.412.059.84.059,1.289a10.8,10.8,0,0,1-1.472,5.686,8.511,8.511,0,0,0,0,8.392,11.356,11.356,0,0,1,1.472,5.687A10.806,10.806,0,0,1,41.282,88.1a9.935,9.935,0,0,0-.8,1.831c-1.4,3.291-4.111,1.682-6.079-.011-9.347-6.976-23.83-6.013-31.626,2.1A1.611,1.611,0,0,1,.449,89.793c8.864-9.23,25.294-10.354,35.868-2.463ZM86.582,13.342V7.971H73.047v5.371Z" transform="translate(0 -0.022)"/>
  </g>
</svg>
