<svg id="t3-ic7" xmlns="http://www.w3.org/2000/svg" width="89.091" height="89.091" viewBox="0 0 89.091 89.091">
  <g id="Group_96842" data-name="Group 96842" transform="translate(1.305 1.305)">
    <path id="Path_151421" data-name="Path 151421" d="M134.219,31.319H176.5a3.219,3.219,0,1,0,0-6.438H134.219a3.219,3.219,0,0,0,0,6.438Z" transform="translate(-114.73 -21.857)" fill="#efe7e4"/>
    <path id="Path_151422" data-name="Path 151422" d="M365.719,24.881h5.22a3.219,3.219,0,1,0,0,6.438h-5.22a3.219,3.219,0,1,1,0-6.438Z" transform="translate(-346.23 -21.857)" fill="#dad0cb"/>
    <path id="Path_151423" data-name="Path 151423" d="M0,6.243H12.768V0H0Z" transform="translate(37.509 22.645) rotate(-90)" fill="#f9f6f6"/>
    <path id="Path_151424" data-name="Path 151424" d="M0,163.519V148.381H35.062a1.044,1.044,0,0,1,1.044,1.044v13.05a1.044,1.044,0,0,1-1.044,1.044Z" transform="translate(51.68 -123.867)" fill="#efe7e4"/>
    <path id="Path_151425" data-name="Path 151425" d="M361.471,148.381H346.21a11.71,11.71,0,0,0-11.71,11.71V180.92h15.138V165.387a1.868,1.868,0,0,1,1.868-1.868h9.965Z" transform="translate(-331.89 -123.867)" fill="#efe7e4"/>
    <path id="Path_151426" data-name="Path 151426" d="M403.913,148.381h5.22a11.71,11.71,0,0,0-11.71,11.71V178.31H392.2V160.091A11.71,11.71,0,0,1,403.913,148.381Z" transform="translate(-389.593 -123.867)" fill="#dad0cb"/>
    <path id="Path_151427" data-name="Path 151427" d="M406.533,325.6H388.826a1.326,1.326,0,0,1-1.326-1.326v-2.568a1.326,1.326,0,0,1,1.326-1.326h17.707a1.326,1.326,0,0,1,1.326,1.326v2.568A1.326,1.326,0,0,1,406.533,325.6Z" transform="translate(-387.5 -265.938)" fill="#8b818e"/>
    <path id="Path_151428" data-name="Path 151428" d="M468.206,320.381h5.22a1.326,1.326,0,0,0-1.326,1.326v2.568a1.326,1.326,0,0,0,1.326,1.326h-5.22a1.326,1.326,0,0,1-1.326-1.326v-2.568A1.326,1.326,0,0,1,468.206,320.381Z" transform="translate(-466.88 -265.938)" fill="#756e78"/>
    <path id="Path_151429" data-name="Path 151429" d="M97.72,135.991V151.13a2.61,2.61,0,0,1-5.22,0V135.991a2.61,2.61,0,1,1,5.22,0Z" transform="translate(-26.03 -111.477)" fill="#8b818e"/>
    <path id="Path_151430" data-name="Path 151430" d="M242.677,19.987h-8.5a2.61,2.61,0,0,1-2.61-2.61V10.11a2.61,2.61,0,0,1,2.61-2.61h8.5a2.61,2.61,0,0,1,2.61,2.61v7.267A2.61,2.61,0,0,1,242.677,19.987Z" transform="translate(-197.794 -7.5)" fill="#8b818e"/>
    <path id="Path_151431" data-name="Path 151431" d="M268.048,7.5h5.22a2.61,2.61,0,0,0-2.61,2.61v7.267a2.61,2.61,0,0,0,2.61,2.61h-5.22a2.61,2.61,0,0,1-2.61-2.61V10.11A2.61,2.61,0,0,1,268.048,7.5Z" transform="translate(-231.67 -7.5)" fill="#756e78"/>
    <path id="Path_151432" data-name="Path 151432" d="M415.375,400.349a8.173,8.173,0,0,1-16.347,0c0-3.935,6.217-10.328,7.807-11.9a.521.521,0,0,1,.733,0C409.158,390.02,415.375,396.413,415.375,400.349Z" transform="translate(-397.022 -322.038)" fill="#7dc9ff"/>
    <path id="Path_151433" data-name="Path 151433" d="M439.539,388.449c.454.449,1.287,1.292,2.244,2.358-2.392,2.666-5.563,6.73-5.563,9.541a8.172,8.172,0,0,0,5.563,7.742A8.173,8.173,0,0,1,431,400.348c0-3.935,6.217-10.328,7.807-11.9A.521.521,0,0,1,439.539,388.449Z" transform="translate(-428.994 -322.037)" fill="#3ca8f4"/>
    <path id="Path_151434" data-name="Path 151434" d="M195.91,146.738h17.508a5.22,5.22,0,0,0,5.22-5.22V127.862a5.22,5.22,0,0,0-5.22-5.22H195.91a5.22,5.22,0,0,0-5.22,5.22v13.656A5.22,5.22,0,0,0,195.91,146.738Z" transform="translate(-164.034 -102.607)" fill="#8b818e"/>
    <path id="Path_151435" data-name="Path 151435" d="M296.53,122.641h5.22a5.22,5.22,0,0,0-5.22,5.22v13.656a5.22,5.22,0,0,0,5.22,5.22h-5.22a5.22,5.22,0,0,1-5.22-5.22V127.861A5.22,5.22,0,0,1,296.53,122.641Z" transform="translate(-264.654 -102.606)" fill="#756e78"/>
  </g>
  <path id="Path_151436" data-name="Path 151436" d="M2.61,54.444V50.564a1.305,1.305,0,1,1,2.61,0v3.88H17.749V42.824a3.176,3.176,0,0,1,3.172-3.172h5.735V27.124H15.626A10.417,10.417,0,0,0,5.22,37.529v6.944a1.305,1.305,0,1,1-2.61,0V37.529A13.03,13.03,0,0,1,15.626,24.514H26.987a6.536,6.536,0,0,1,6.195-4.479h4.327V15.093a3.922,3.922,0,0,1-3.637-3.02H20.794A4.576,4.576,0,0,1,16.27,7.548a4.529,4.529,0,0,1,4.524-4.524H33.871A3.921,3.921,0,0,1,37.683,0h8.5A3.921,3.921,0,0,1,50,3.024H63.077a4.524,4.524,0,1,1,0,9.048H50a3.922,3.922,0,0,1-3.637,3.02v4.942H50.69a6.535,6.535,0,0,1,6.195,4.479h9.81a3.914,3.914,0,0,1,7.381,0h13.71a1.305,1.305,0,0,1,0,2.61H74.3V39.652H87.786a1.305,1.305,0,0,1,0,2.61H74.076a3.914,3.914,0,0,1-7.381,0h-9.81a6.535,6.535,0,0,1-6.195,4.479H48.483a1.305,1.305,0,1,1,0-2.61H50.69a3.921,3.921,0,0,0,3.869-3.313s0-.009,0-.014c-.053-.24.053-14.378,0-14.836v-.008a3.921,3.921,0,0,0-3.869-3.316H33.181a3.921,3.921,0,0,0-3.869,3.316v.008c-.2,1.737-.176,13.314,0,14.836,0,0,0,.009,0,.014a3.921,3.921,0,0,0,3.869,3.313h9.212a1.305,1.305,0,1,1,0,2.61H33.181a6.535,6.535,0,0,1-6.195-4.479H20.921a.563.563,0,0,0-.562.562v11.62a2.633,2.633,0,0,1,2.61,2.63v2.569a2.634,2.634,0,0,1-2.631,2.631H2.631A2.634,2.634,0,0,1,0,59.642V57.074a2.633,2.633,0,0,1,2.61-2.63ZM33.768,5.634H20.794A1.916,1.916,0,0,0,18.88,7.548a1.936,1.936,0,0,0,1.914,1.914H33.768ZM50.1,9.462H63.077a1.914,1.914,0,1,0,0-3.828H50.1Zm18.977,31.5a1.305,1.305,0,1,0,2.61,0V25.819a1.305,1.305,0,0,0-2.61,0ZM57.215,39.652H66.47V27.124H57.215Zm-17.1-19.617h3.634V15.1H40.119Zm6.069-7.548a1.306,1.306,0,0,0,1.305-1.305V3.915A1.306,1.306,0,0,0,46.188,2.61h-8.5a1.306,1.306,0,0,0-1.305,1.305v7.267a1.306,1.306,0,0,0,1.305,1.305ZM2.61,59.642a.021.021,0,0,0,.021.021H20.338a.021.021,0,0,0,.021-.021V57.074a.021.021,0,0,0-.021-.021H2.631a.021.021,0,0,0-.021.021Zm7.59,7.146a1.833,1.833,0,0,1,2.567,0c2.464,2.434,8.195,8.556,8.195,12.827a9.478,9.478,0,0,1-18.957,0C2.006,75.344,7.737,69.222,10.2,66.789Zm1.284,19.692a6.874,6.874,0,0,0,6.868-6.865c0-1.622-1.812-5.3-6.868-10.42-5.057,5.122-6.868,8.8-6.868,10.42A6.874,6.874,0,0,0,11.484,86.481Z" transform="translate(0 0)"/>
</svg>
