<svg id="t3-ic4" xmlns="http://www.w3.org/2000/svg" width="103.266" height="103.266" viewBox="0 0 103.266 103.266">
  <g id="_042---Reinforced-Concrete" data-name="042---Reinforced-Concrete" transform="translate(0 0)">
    <g id="Icons" transform="translate(1.721 1.721)">
      <path id="Path" d="M99.823,62.493V92.939a6.884,6.884,0,0,1-6.884,6.884H6.884A6.884,6.884,0,0,1,0,92.939V6.884A6.884,6.884,0,0,1,6.884,0H37.331a5.174,5.174,0,0,1,5.026,6.368c-.034.172-.086.344-.12.516-.654,2.444-1.566,4.182-2.117,6.884a26.77,26.77,0,0,0-.534,5.731,30.926,30.926,0,0,0,.31,4.6,39.93,39.93,0,0,0,2,6.884A24.854,24.854,0,0,1,43.027,39a14.218,14.218,0,0,1-.189,2.306A21.415,21.415,0,0,1,40.2,48.191c-2.255,4.113-4.372,7.3-.12,11.549s7.435,2.134,11.549-.12a21.415,21.415,0,0,1,6.884-2.633,14,14,0,0,1,2.289-.189,25.056,25.056,0,0,1,8.038,1.136,40.4,40.4,0,0,0,6.884,2,30.849,30.849,0,0,0,4.578.31,26.828,26.828,0,0,0,5.748-.534c2.7-.551,4.44-1.463,6.884-2.1.172-.052.344-.1.516-.138a5.174,5.174,0,0,1,6.368,5.026Z" transform="translate(0 0)" fill="#9e9e9e" fill-rule="evenodd"/>
      <path id="Path-2" data-name="Path" d="M50.508,36.442c.967,0,1.831-.036,2.625-.1C45.849,35.8,44.978,33,36.161,33a14.235,14.235,0,0,0-1.988.143c6.723.649,7.774,3.3,16.335,3.3Z" transform="translate(24.642 23.796)" fill="#707070" fill-rule="evenodd"/>
      <path id="Path-3" data-name="Path" d="M23.716,6.377c-1,4.153-2.771,6.131-2.771,13.12,0,9.762,3.442,9.762,3.442,19.51s-9.834,13.831-2.938,20.727c2.833,2.835,5.189,2.84,7.661,1.866a9.449,9.449,0,0,1-2.5-1.866c-6.9-6.9,2.938-10.972,2.938-20.727s-3.442-9.748-3.442-19.51c0-6.989,1.769-8.967,2.771-13.12A5.174,5.174,0,0,0,23.853,0H18.69a5.174,5.174,0,0,1,5.026,6.377Z" transform="translate(13.477 0)" fill="#707070" fill-rule="evenodd"/>
      <path id="Path-4" data-name="Path" d="M56.68,33.448c-.566.136-1.091.287-1.6.446a5.153,5.153,0,0,1,2.8,4.582V68.921A6.884,6.884,0,0,1,51,75.805h5.163a6.884,6.884,0,0,0,6.884-6.884V38.475a5.174,5.174,0,0,0-6.368-5.027Z" transform="translate(36.776 24.018)" fill="#707070" fill-rule="evenodd"/>
      <path id="Rectangle" d="M34,14H61.537v6.884H34Z" transform="translate(24.517 10.095)" fill="#fde947" fill-rule="evenodd"/>
      <path id="Rectangle-2" data-name="Rectangle" d="M34,24H61.537v6.884H34Z" transform="translate(24.517 17.306)" fill="#fde947" fill-rule="evenodd"/>
      <path id="Path-5" data-name="Path" d="M56.884,3.442V57.605C54.44,58.242,52.7,59.154,50,59.7V3.442A3.453,3.453,0,0,1,53.442,0a3.365,3.365,0,0,1,2.427,1.015,3.365,3.365,0,0,1,1.015,2.427Z" transform="translate(36.055 0)" fill="#fde947" fill-rule="evenodd"/>
      <path id="Path-6" data-name="Path" d="M46.884,28V39.738a40.4,40.4,0,0,1-6.884-2V28Z" transform="translate(28.844 20.191)" fill="#fde947" fill-rule="evenodd"/>
      <path id="Path-7" data-name="Path" d="M46.884,3.442V6.884H40V3.442A3.453,3.453,0,0,1,43.442,0a3.365,3.365,0,0,1,2.427,1.015,3.365,3.365,0,0,1,1.015,2.427Z" transform="translate(28.844 0)" fill="#fde947" fill-rule="evenodd"/>
      <path id="Path-8" data-name="Path" d="M36.884,3.442V56.985A21.416,21.416,0,0,0,30,59.619V3.442A3.453,3.453,0,0,1,33.442,0a3.365,3.365,0,0,1,2.427,1.015A3.365,3.365,0,0,1,36.884,3.442Z" transform="translate(21.633 0)" fill="#fde947" fill-rule="evenodd"/>
      <path id="Path-9" data-name="Path" d="M34.788,24v6.884H23.36A21.416,21.416,0,0,0,25.993,24Z" transform="translate(16.845 17.306)" fill="#fde947" fill-rule="evenodd"/>
      <path id="Rectangle-3" data-name="Rectangle" d="M40,18h6.884V28.327H40Z" transform="translate(28.844 12.98)" fill="#fde947" fill-rule="evenodd"/>
      <g id="Group_96840" data-name="Group 96840" transform="translate(39.895 6.884)">
        <path id="Path-10" data-name="Path" d="M60.884,27.442a3.468,3.468,0,0,1-3.442,3.442H54V24h3.442A3.452,3.452,0,0,1,60.884,27.442Z" transform="translate(-0.956 10.422)" fill="#fde947" fill-rule="evenodd"/>
        <path id="Path-11" data-name="Path" d="M34.918,14v6.884H25.176a39.929,39.929,0,0,1-2-6.884Z" transform="translate(-23.18 3.211)" fill="#fde947" fill-rule="evenodd"/>
        <path id="Path-12" data-name="Path" d="M60.884,17.442a3.468,3.468,0,0,1-3.442,3.442H54V14h3.442A3.453,3.453,0,0,1,60.884,17.442Z" transform="translate(-0.956 3.211)" fill="#fde947" fill-rule="evenodd"/>
        <path id="Path-13" data-name="Path" d="M34.824,4v6.884H23.31c.551-2.7,1.463-4.44,2.117-6.884Z" transform="translate(-23.086 -4)" fill="#fde947" fill-rule="evenodd"/>
      </g>
      <path id="Rectangle-4" data-name="Rectangle" d="M40,8h6.884V18.327H40Z" transform="translate(28.844 5.769)" fill="#fde947" fill-rule="evenodd"/>
      <path id="Rectangle-5" data-name="Rectangle" d="M34,4H61.537v6.884H34Z" transform="translate(24.517 2.884)" fill="#fde947" fill-rule="evenodd"/>
      <path id="Path-14" data-name="Path" d="M60.884,7.442a3.468,3.468,0,0,1-3.442,3.442H54V4h3.442A3.453,3.453,0,0,1,60.884,7.442Z" transform="translate(38.939 2.884)" fill="#fde947" fill-rule="evenodd"/>
      <circle id="Oval" cx="3.5" cy="3.5" r="3.5" transform="translate(8.279 84.279)" fill="#707070"/>
      <ellipse id="Oval-2" data-name="Oval" cx="3" cy="3.5" rx="3" ry="3.5" transform="translate(26.279 8.279)" fill="#707070"/>
    </g>
    <g id="Icons_copy">
      <g id="Group_96841" data-name="Group 96841">
        <path id="Shape" d="M98.1,17.211a5.163,5.163,0,1,0,0-10.327H96.381V5.163a5.032,5.032,0,0,0-1.5-3.626A5.051,5.051,0,0,0,91.218,0a5.163,5.163,0,0,0-5.163,5.163V6.884H79.17V5.163a5.032,5.032,0,0,0-1.5-3.626A5.051,5.051,0,0,0,74.007,0a5.163,5.163,0,0,0-5.163,5.163V6.884H61.959V5.163a5.032,5.032,0,0,0-1.5-3.626A5.051,5.051,0,0,0,56.8,0a5.163,5.163,0,0,0-5.163,5.163V6.884h-5.7A6.884,6.884,0,0,0,39.053,0H8.605A8.616,8.616,0,0,0,0,8.606V94.66a8.616,8.616,0,0,0,8.605,8.605H94.66a8.616,8.616,0,0,0,8.605-8.605V64.214a6.884,6.884,0,0,0-6.884-6.884v-5.7H98.1a5.163,5.163,0,1,0,0-10.327H96.381V34.422H98.1a5.163,5.163,0,1,0,0-10.327H96.381V17.211Zm0-6.884a1.721,1.721,0,0,1,1.721,1.721,1.683,1.683,0,0,1-.527,1.227,1.661,1.661,0,0,1-1.194.494H96.381V10.327ZM89.5,5.163a1.721,1.721,0,0,1,1.721-1.721,1.683,1.683,0,0,1,1.225.527,1.647,1.647,0,0,1,.5,1.194V58.028c-.6.193-1.167.391-1.721.587s-1.131.4-1.721.583ZM75.728,17.211V24.1H72.286V17.211Zm10.327,0V24.1H79.17V17.211Zm-24.1,30.98V44.748h24.1v3.442Zm24.1-20.653V30.98h-24.1V27.538ZM72.286,41.306V34.422h3.442v6.884Zm-10.327,0V34.422h6.884v6.884ZM79.17,34.422h6.884v6.884H79.17ZM68.844,24.1H61.959V17.211h6.884ZM61.959,51.633h6.884v5.778a28.852,28.852,0,0,0-6.32-.614c-.194,0-.375.022-.565.029Zm10.327,0h3.442v7.9c-1.033-.268-1.948-.587-2.876-.914l-.566-.2Zm6.884,0h6.884v8.346a28.353,28.353,0,0,1-4.02.26c-1.076,0-2.014-.046-2.864-.124ZM72.286,5.163a1.721,1.721,0,0,1,1.721-1.721,1.683,1.683,0,0,1,1.225.527,1.647,1.647,0,0,1,.5,1.194V6.884H72.286Zm13.769,5.163v3.442h-24.1V10.327ZM55.075,5.163A1.721,1.721,0,0,1,56.8,3.442a1.683,1.683,0,0,1,1.225.527,1.647,1.647,0,0,1,.5,1.194V57.321a20.55,20.55,0,0,0-3.442,1.224ZM45.859,34.422h5.774v6.884H46.44c0-.194.029-.38.029-.578A28.9,28.9,0,0,0,45.859,34.422ZM51.633,24.1h-8.48c-.079-.852-.126-1.8-.126-2.878a28.485,28.485,0,0,1,.258-4.007h8.347Zm0,3.442V30.98H44.853c-.069-.193-.136-.389-.2-.58-.325-.923-.644-1.831-.91-2.862Zm-5.69,17.211h5.69v3.442H44.716a20.707,20.707,0,0,0,1.227-3.442Zm-3.008,6.884h8.7v8.693c-3.9,2.139-5.68,2.847-8.605-.088s-2.229-4.714-.093-8.605Zm8.7-37.864H44.06c.186-.592.386-1.157.587-1.721s.392-1.117.583-1.721h6.4ZM99.823,64.214V94.66a5.163,5.163,0,0,1-5.163,5.163H8.605A5.163,5.163,0,0,1,3.442,94.66V8.606A5.163,5.163,0,0,1,8.605,3.442H39.052A3.451,3.451,0,0,1,42.4,7.693a31.222,31.222,0,0,1-1,3.2,26.825,26.825,0,0,0-1.819,10.327A26.816,26.816,0,0,0,41.4,31.548a23.579,23.579,0,0,1,1.623,9.18,17.987,17.987,0,0,1-2.967,8.984c-2.065,3.752-4.418,8.007.532,12.96s9.2,2.606,12.953.534a17.973,17.973,0,0,1,8.979-2.967,23.6,23.6,0,0,1,9.184,1.623A26.8,26.8,0,0,0,82.034,63.68,26.777,26.777,0,0,0,92.361,61.86a31.394,31.394,0,0,1,3.21-1,3.454,3.454,0,0,1,4.253,3.354ZM98.1,44.748a1.721,1.721,0,0,1,1.721,1.721A1.683,1.683,0,0,1,99.3,47.7a1.661,1.661,0,0,1-1.194.494H96.381V44.748Zm0-17.211a1.721,1.721,0,0,1,1.721,1.721,1.683,1.683,0,0,1-.527,1.227,1.661,1.661,0,0,1-1.194.494H96.381V27.538Z" transform="translate(0 0)"/>
        <path id="Shape-2" data-name="Shape" d="M10.163,49a5.163,5.163,0,1,0,5.163,5.163A5.163,5.163,0,0,0,10.163,49Zm0,6.884a1.721,1.721,0,1,1,1.721-1.721A1.721,1.721,0,0,1,10.163,55.884Z" transform="translate(3.605 35.334)"/>
        <path id="Shape-3" data-name="Shape" d="M20.163,5a5.163,5.163,0,1,0,5.163,5.163A5.163,5.163,0,0,0,20.163,5Zm0,6.884a1.721,1.721,0,1,1,1.721-1.721A1.721,1.721,0,0,1,20.163,11.884Z" transform="translate(10.816 3.606)"/>
      </g>
      <ellipse id="Oval-3" data-name="Oval" cx="1.5" cy="2" rx="1.5" ry="2" transform="translate(14 77)"/>
      <ellipse id="Oval-4" data-name="Oval" cx="1.5" cy="2" rx="1.5" ry="2" transform="translate(26 22)"/>
      <circle id="Oval-5" data-name="Oval" cx="2" cy="2" r="2" transform="translate(91 67)"/>
      <path id="Path-15" data-name="Path" d="M48.664,49.362a1.721,1.721,0,1,0,2.41.3A1.721,1.721,0,0,0,48.664,49.362Z" transform="translate(34.611 35.335)" fill-rule="evenodd"/>
      <path id="Path-16" data-name="Path" d="M46.664,39.362a1.721,1.721,0,1,0,2.41.3A1.721,1.721,0,0,0,46.664,39.362Z" transform="translate(33.168 28.124)" fill-rule="evenodd"/>
    </g>
  </g>
</svg>
