<svg xmlns="http://www.w3.org/2000/svg" width="174.861" height="175" viewBox="0 0 174.861 175">
  <g id="t3-ic20" transform="translate(-0.001)">
    <path id="Path_151046" data-name="Path 151046" d="M162.444,188.706a56.591,56.591,0,1,0-56.591,56.741A56.667,56.667,0,0,0,162.444,188.706Zm0,0" transform="translate(-32.424 -86.86)" fill="#7dc9ff"/>
    <path id="Path_151047" data-name="Path 151047" d="M198.373,131.965a56.9,56.9,0,0,0-8.545.644,56.772,56.772,0,0,1,0,112.2,56.732,56.732,0,1,0,8.545-112.839Zm0,0" transform="translate(-124.945 -86.859)" fill="#3ca8f4"/>
    <g id="Group_96796" data-name="Group 96796" transform="translate(16.838 45.218)">
      <path id="Path_151048" data-name="Path 151048" d="M170.136,154.234c-8.717,5.462-15.255,14.2-10.351,24.037s15.8,6.009,25.881,4.644,2.451,29.772,8.445,37.421,22.883-7.649,21.249-17.482c-2.419-14.558-3.268-19.667,16.346-30.046l.053-.019A56.655,56.655,0,0,0,181.037,132.3l0,.085s-2.179,16.389-10.9,21.852Zm0,0" transform="translate(-120.901 -132.296)" fill="#a6fc58"/>
      <path id="Path_151049" data-name="Path 151049" d="M318.566,168.6l.011.008Zm0,0" transform="translate(-226.518 -156.19)" fill="#baeb6c"/>
      <path id="Path_151050" data-name="Path 151050" d="M338.809,187.961l0,0Zm0,0" transform="translate(-239.842 -168.935)" fill="#baeb6c"/>
      <path id="Path_151051" data-name="Path 151051" d="M68.258,285.572c-2.618-3.992,4.63-13.384,6.266-20.485s-8.174-6.556-11.17-9.014-7.083-13.111-10.08-15.569l-.479-.379A56.9,56.9,0,0,0,72.327,305.61l.017-1.19a26.12,26.12,0,0,0-4.086-18.848Zm0,0" transform="translate(-49.262 -203.269)" fill="#baeb6c"/>
      <path id="Path_151052" data-name="Path 151052" d="M316.495,338.318c-.012-.071-.024-.14-.035-.212a56.473,56.473,0,0,1-4.7,12.456c3.22-3.8,5.371-8.431,4.737-12.243Zm0,0" transform="translate(-222.037 -267.76)" fill="#baeb6c"/>
    </g>
    <path id="Path_151053" data-name="Path 151053" d="M223.942,132.3l0,.085s-.183,1.369-.65,3.443a56.763,56.763,0,0,1,36.372,47.887c2.5-3.421,7.075-6.737,14.95-10.9l.053-.019A56.657,56.657,0,0,0,223.942,132.3Zm0,0" transform="translate(-146.969 -87.078)" fill="#8ad24a"/>
    <path id="Path_151054" data-name="Path 151054" d="M83.68,69.69c-27.368-4.644-44.344-39.1-44.344-39.1S66.729,3.662,94.1,8.3s44.343,39.1,44.343,39.1S111.045,74.332,83.68,69.69Zm0,0" transform="translate(-25.891 -5.111)" fill="#8ad24a"/>
    <path id="Path_151055" data-name="Path 151055" d="M169.725,8.309a42.484,42.484,0,0,0-15.486.389c26.221,5.888,42.4,38.71,42.4,38.71S178.7,65.032,157.363,69.3c.644.146,1.291.278,1.947.39,27.365,4.642,54.758-22.286,54.758-22.286s-16.976-34.456-44.343-39.1Zm0,0" transform="translate(-101.52 -5.116)" fill="#82ad5c"/>
    <path id="Path_151056" data-name="Path 151056" d="M379.536,46.369C386.878,29,412.314,23.148,412.314,23.148s13.534,22.317,6.194,39.689-32.778,23.22-32.778,23.22S372.2,63.741,379.536,46.369Zm0,0" transform="translate(-248.375 -15.236)" fill="#8ad24a"/>
    <path id="Path_151057" data-name="Path 151057" d="M423.81,23.148a68.06,68.06,0,0,0-12.633,4.608c3.513,7.443,9.083,22.548,3.786,35.081-3.841,9.087-12.633,15.02-20.146,18.613,1.357,2.873,2.407,4.606,2.407,4.606S422.661,80.209,430,62.837s-6.192-39.689-6.192-39.689Zm0,0" transform="translate(-259.869 -15.236)" fill="#82ad5c"/>
    <path id="Path_151058" data-name="Path 151058" d="M172.232,20.4a70.408,70.408,0,0,0-6.1-13.883,2.615,2.615,0,0,0-2.766-1.168,70.472,70.472,0,0,0-14.206,5.3c-10.076,5.031-17.115,11.747-20.358,19.42-2.7,6.389-3.087,14.2-1.172,22.83A72.717,72.717,0,0,0,113.959,41a105.875,105.875,0,0,0-11.88-18.21C100,20.233,96,23.44,98.1,26.022a102.56,102.56,0,0,1,9.46,13.914L84.208,35.384,62.021,5.12a36.236,36.236,0,0,1,6.467.661c6.82,1.335,13.557,4.808,20.026,10.322,2.535,2.16,5.827-1.772,3.326-3.9C84.693,6.11,77.168,2.256,69.473.749c-11.747-2.3-25.447.718-39.622,8.729A102.3,102.3,0,0,0,11.924,22.284a2.713,2.713,0,0,0-.3,3.519,104.615,104.615,0,0,0,11.5,18.049A80.171,80.171,0,0,0,35.237,56.309q-1.79,1.5-3.481,3.148a59.267,59.267,0,0,0,19.174,97.278c3.052,1.236,4.983-3.511,1.928-4.75a54.122,54.122,0,0,1-11.09-6.1,28.884,28.884,0,0,0-4.353-20.22c-.813-1.266,1.617-6.236,3.068-9.206a48.142,48.142,0,0,0,3.765-9.2,7.016,7.016,0,0,0-2.494-7.685,18.92,18.92,0,0,0-6.095-2.7,13.09,13.09,0,0,1-3.349-1.311c-1.1-.921-2.9-4.327-4.341-7.063a43.851,43.851,0,0,0-4.685-7.7A54.516,54.516,0,0,1,39.47,59.471a44.829,44.829,0,0,0,21.6,8.027c-9.06,7.02-11.991,15.984-7.8,24.6,4.892,10.055,14.96,8.449,23.844,7.034,1.537-.246,3.127-.5,4.65-.689.571-.072.744.084.858.186,1.945,1.73,1.888,9.995,1.847,16.03-.057,8.347-.111,16.231,3,20.28a7.825,7.825,0,0,0,6.438,3.119,12.93,12.93,0,0,0,5.062-1.144c7.732-3.311,15.769-13.277,14.544-21.162-1.072-6.893-1.781-11.448-.109-15.119,1.546-3.4,5.282-6.544,12.64-10.557a54.135,54.135,0,0,1-58.828,65.536c-3.272-.355-3.837,4.736-.561,5.1a59.589,59.589,0,0,0,47.984-16.54,59.228,59.228,0,0,0-9.119-91.993c3.387-2.415,5.911-4.5,7.31-5.716A68.066,68.066,0,1,1,6.054,90.722C6.587,87.494,1.53,86.648,1,89.886a73.172,73.172,0,0,0,60.276,84.12,74.1,74.1,0,0,0,12.08.995A73.221,73.221,0,0,0,140.316,72.6a73.786,73.786,0,0,0,11.82-4.656c10.075-5.031,17.115-11.747,20.357-19.42s3.154-17.4-.262-28.133ZM23.436,90.887c1.908,3.617,3.712,7.035,5.586,8.6a14.69,14.69,0,0,0,5.131,2.279c5.011,1.541,5.593,2.3,5.112,4.278a44.772,44.772,0,0,1-3.387,8.159c-2.648,5.417-5.148,10.532-2.778,14.227a24.38,24.38,0,0,1,3.88,13.6,54.64,54.64,0,0,1-15.8-55.284c.754,1.292,1.547,2.794,2.256,4.136Zm124.035-50.38-7.286-17.656a47.982,47.982,0,0,1,11.162-7.568,68.5,68.5,0,0,1,8.1-3.41Zm16.7-26.646a68.53,68.53,0,0,1,3.207,8.2A49.008,49.008,0,0,1,169.7,34.418l-17.074,7.044Zm-30.651,18.2a24.359,24.359,0,0,1,2.863-4.976l8.294,20.1-7.443,17.8a68.2,68.2,0,0,1-3.322-8.442c-2.1-6.628-3.865-16.255-.391-24.475ZM149.947,63.31a68.181,68.181,0,0,1-7.845,3.321l7.724-18.465,19.66-8.112a24.761,24.761,0,0,1-1.714,6.479c-3.473,8.219-11.609,13.661-17.824,16.777ZM57.505,61.851c-.907-.178-1.8-.394-2.681-.641L83.2,40.411l23.362,4.554C98.05,51.67,77.338,65.736,57.505,61.851ZM31.574,45.81A99.821,99.821,0,0,1,18.5,27.8l29.731,5.8Zm5.251-34.2,12.44,16.967L19.341,22.74A101,101,0,0,1,36.825,11.607ZM56.681,30.02,41.6,9.449A57.665,57.665,0,0,1,55.93,5.484L76.791,33.938Zm-1.6,4.912,21.262,4.144-27.289,20A53.035,53.035,0,0,1,35.23,49.487ZM124.65,84.994c-9.242,4.924-13.768,8.792-15.915,13.51-2.306,5.066-1.461,10.5-.291,18.03.69,4.438-4.584,12.7-11.494,15.661-2.557,1.095-4.378.965-5.415-.386-2.037-2.65-1.981-10.675-1.937-17.121.06-8.919.113-16.621-3.566-19.9a6.044,6.044,0,0,0-4.9-1.443c-1.612.2-3.247.461-4.827.713-9.423,1.5-15.354,2.1-18.426-4.212-4.977-10.23,5.1-17.807,9.661-20.589a16.231,16.231,0,0,0,2.593-1.977c11.028-1.318,21.449-6.05,30.735-11.976a54.415,54.415,0,0,1,23.78,29.686Zm0,0" transform="translate(0)"/>
  </g>
</svg>
