<svg id="t3-ic1" xmlns="http://www.w3.org/2000/svg" width="110" height="110" viewBox="0 0 110 110">
  <g id="Group_96810" data-name="Group 96810" transform="translate(3.653 1.719)">
    <path id="Path_151183" data-name="Path 151183" d="M134.819,345.8h-91.3v33.988h91.3Z" transform="translate(-37.821 -273.225)" fill="#dfdde2"/>
    <path id="Path_151184" data-name="Path 151184" d="M134.819,345.8h-91.3v3.867h91.3Z" transform="translate(-37.821 -273.225)" fill="#c6c1c8"/>
    <path id="Path_151185" data-name="Path 151185" d="M19.148,307.106h98.4a2.148,2.148,0,0,1,2.148,2.148v4.016a2.148,2.148,0,0,1-2.148,2.148h-98.4A2.148,2.148,0,0,1,17,313.27v-4.016A2.148,2.148,0,0,1,19.148,307.106Z" transform="translate(-17 -242.845)" fill="#fde947"/>
    <path id="Path_151186" data-name="Path 151186" d="M19.148,319.947h98.4A2.148,2.148,0,0,0,119.7,317.8v3.867a2.148,2.148,0,0,1-2.148,2.148h-98.4A2.148,2.148,0,0,1,17,321.666V317.8A2.148,2.148,0,0,0,19.148,319.947Z" transform="translate(-17 -251.241)" fill="#fdc647"/>
    <path id="Path_151187" data-name="Path 151187" d="M306.761,279.286H336.54v-5.567a2.045,2.045,0,0,0-2.045-2.045H308.806a2.045,2.045,0,0,0-2.045,2.045Z" transform="translate(-296.098 -215.025)" fill="#465e7b"/>
    <path id="Path_151188" data-name="Path 151188" d="M336.54,289.106H306.761v3.867H336.54Z" transform="translate(-296.098 -228.712)" fill="#3a4e65"/>
    <path id="Path_151189" data-name="Path 151189" d="M84.3,214.487l1.795,19.9H70.686l1.795-19.9Z" transform="translate(5.069 -170.125)" fill="#ecf4ff"/>
    <path id="Path_151190" data-name="Path 151190" d="M86.092,292.973H70.686l.349-3.867H85.743Z" transform="translate(5.069 -228.712)" fill="#ddeafb"/>
    <path id="Path_151191" data-name="Path 151191" d="M202.137,214.487l1.795,19.9H188.525l1.795-19.9Z" transform="translate(-138.087 -170.125)" fill="#ecf4ff"/>
    <path id="Path_151192" data-name="Path 151192" d="M203.931,292.973H188.525l.349-3.867h14.709Z" transform="translate(-138.087 -228.712)" fill="#ddeafb"/>
    <path id="Path_151193" data-name="Path 151193" d="M327.4,126.33h0c0-.052,0-.1,0-.157a6.582,6.582,0,0,1,12.863-1.969,7.819,7.819,0,1,1,.308,15.029,6.581,6.581,0,0,1-12.558.231c-.2.019-.406.029-.613.029a6.582,6.582,0,0,1,0-13.163Z" transform="translate(-312.971 -95.617)" fill="#f1f1f4"/>
    <path id="Path_151194" data-name="Path 151194" d="M327.4,172.72h.028a.879.879,0,0,1,.8.535,6.581,6.581,0,0,0,12.04.021,1.084,1.084,0,0,1,1.15-.641,7.823,7.823,0,0,0,8.729-5.8,7.82,7.82,0,0,1-9.58,9.492,6.581,6.581,0,0,1-12.558.231c-.2.019-.407.029-.613.029a6.585,6.585,0,0,1-6.292-8.515A6.585,6.585,0,0,0,327.4,172.72Z" transform="translate(-312.973 -132.71)" fill="#dfdde2"/>
    <path id="Path_151195" data-name="Path 151195" d="M41.6,15.046a9.118,9.118,0,0,1,1.111.07,7.91,7.91,0,0,1,13.828-2.542,9.563,9.563,0,0,1,14.937-.606,9.411,9.411,0,0,1,17.088,5.445c0,.246-.012.489-.031.73A8.713,8.713,0,1,1,84.548,34.9v9.029H76.715V35.689a8.714,8.714,0,0,1-11.464-3.918,9.058,9.058,0,0,1-6.02,3.667v8.494H51.4V32.79a9.06,9.06,0,0,1-2.2-3.755A9.063,9.063,0,1,1,41.6,15.046Z" transform="translate(2.826 -8)" fill="#f1f1f4"/>
    <path id="Path_151196" data-name="Path 151196" d="M79.04,183.677l.76-8.43H90.1l.76,8.43Z" transform="translate(-1.49 -139.315)" fill="#fde947"/>
    <path id="Path_151197" data-name="Path 151197" d="M196.878,183.677l.76-8.43h10.3l.761,8.43Z" transform="translate(-144.645 -139.315)" fill="#fde947"/>
    <path id="Path_151198" data-name="Path 151198" d="M96.145,157.247H88.312v3.867h7.833Z" transform="translate(-8.77 -125.182)" fill="#dfdde2"/>
    <path id="Path_151199" data-name="Path 151199" d="M213.984,157.247h-7.833v3.867h7.833Z" transform="translate(-151.926 -125.182)" fill="#dfdde2"/>
    <g id="Group_96808" data-name="Group 96808" transform="translate(19.615 83.029)">
      <path id="Path_151200" data-name="Path 151200" d="M110.449,405.138H114a2.148,2.148,0,0,0,2.148-2.148v-6.381A2.148,2.148,0,0,0,114,394.46h-3.555a2.148,2.148,0,0,0-2.148,2.148v6.381A2.148,2.148,0,0,0,110.449,405.138Z" transform="translate(-52.688 -394.46)" fill="#7dc9ff"/>
      <path id="Path_151201" data-name="Path 151201" d="M196.733,405.138h3.555a2.148,2.148,0,0,0,2.148-2.148v-6.381a2.148,2.148,0,0,0-2.148-2.148h-3.555a2.148,2.148,0,0,0-2.148,2.148v6.381A2.149,2.149,0,0,0,196.733,405.138Z" transform="translate(-157.51 -394.46)" fill="#7dc9ff"/>
      <path id="Path_151202" data-name="Path 151202" d="M283.016,405.138h3.555a2.148,2.148,0,0,0,2.148-2.148v-6.381a2.148,2.148,0,0,0-2.148-2.148h-3.555a2.148,2.148,0,0,0-2.148,2.148v6.381A2.148,2.148,0,0,0,283.016,405.138Z" transform="translate(-262.33 -394.46)" fill="#7dc9ff"/>
      <path id="Path_151203" data-name="Path 151203" d="M369.3,405.138h3.555A2.148,2.148,0,0,0,375,402.989v-6.381a2.148,2.148,0,0,0-2.148-2.148H369.3a2.148,2.148,0,0,0-2.148,2.148v6.381A2.148,2.148,0,0,0,369.3,405.138Z" transform="translate(-367.152 -394.46)" fill="#7dc9ff"/>
    </g>
    <g id="Group_96809" data-name="Group 96809" transform="translate(19.615 87.69)">
      <path id="Path_151204" data-name="Path 151204" d="M110.449,418.307H114a2.148,2.148,0,0,0,2.148-2.148v3.867A2.148,2.148,0,0,1,114,422.175h-3.555a2.148,2.148,0,0,1-2.148-2.148v-3.867A2.148,2.148,0,0,0,110.449,418.307Z" transform="translate(-52.688 -416.159)" fill="#3ca8f4"/>
      <path id="Path_151205" data-name="Path 151205" d="M196.733,418.307h3.555a2.148,2.148,0,0,0,2.148-2.148v3.867a2.148,2.148,0,0,1-2.148,2.148h-3.555a2.148,2.148,0,0,1-2.148-2.148v-3.867A2.149,2.149,0,0,0,196.733,418.307Z" transform="translate(-157.51 -416.159)" fill="#3ca8f4"/>
      <path id="Path_151206" data-name="Path 151206" d="M283.016,418.307h3.555a2.148,2.148,0,0,0,2.148-2.148v3.867a2.148,2.148,0,0,1-2.148,2.148h-3.555a2.148,2.148,0,0,1-2.148-2.148v-3.867A2.148,2.148,0,0,0,283.016,418.307Z" transform="translate(-262.33 -416.159)" fill="#3ca8f4"/>
      <path id="Path_151207" data-name="Path 151207" d="M369.3,418.307h3.555A2.148,2.148,0,0,0,375,416.159v3.867a2.148,2.148,0,0,1-2.148,2.148H369.3a2.148,2.148,0,0,1-2.148-2.148v-3.867A2.148,2.148,0,0,0,369.3,418.307Z" transform="translate(-367.152 -416.159)" fill="#3ca8f4"/>
    </g>
  </g>
  <g id="Group_96811" data-name="Group 96811" transform="translate(0 0)">
    <path id="Path_151208" data-name="Path 151208" d="M1.615,106.771H7.646V75.945H5.7a3.771,3.771,0,0,1-3.767-3.767V68.154A3.771,3.771,0,0,1,5.7,64.387h6.917V60.423a3.668,3.668,0,0,1,3.664-3.664H42.024a3.668,3.668,0,0,1,3.664,3.664v3.964h6.926l2.428-26.915a1.614,1.614,0,0,1,1.227-1.422V27.077a10.769,10.769,0,0,1-1.016-1.4A10.7,10.7,0,1,1,48.061,7.06h.027a9.547,9.547,0,0,1,14.895-3.25,11.189,11.189,0,0,1,14.9-.578A11.047,11.047,0,0,1,90.193.958a1.615,1.615,0,1,1-1.318,2.948,7.753,7.753,0,0,0-3.187-.677,7.837,7.837,0,0,0-6.375,3.3,1.625,1.625,0,0,1-2.535.123,7.967,7.967,0,0,0-12.447.506,1.624,1.624,0,0,1-2.577.032,6.275,6.275,0,0,0-4.993-2.453,6.355,6.355,0,0,0-6.041,4.48c-.333,1.227-1.641,1.2-2.658,1.076a7.467,7.467,0,1,0,6.267,11.522,1.625,1.625,0,0,1,2.9.424,7.493,7.493,0,0,0,1.81,3.093,1.614,1.614,0,0,1,.456,1.125V36h4.619v-6.9a1.614,1.614,0,0,1,1.378-1.6,7.5,7.5,0,0,0,4.958-3.022A1.626,1.626,0,0,1,73.2,24.7a7.116,7.116,0,0,0,9.362,3.2,1.614,1.614,0,0,1,2.3,1.461V36h4.619V28.57a1.626,1.626,0,0,1,2.221-1.5,7.117,7.117,0,0,0,9.786-6.6,7.149,7.149,0,0,0-6.533-7.09A1.812,1.812,0,0,1,93.5,11.046,7.741,7.741,0,0,0,92.72,7.63a1.614,1.614,0,1,1,2.9-1.413A10.912,10.912,0,0,1,96.715,10.4a10.345,10.345,0,0,1-4,20.287v5.36a1.614,1.614,0,0,1,1.228,1.422l2.428,26.915H104.3a3.771,3.771,0,0,1,3.767,3.767v4.024a3.771,3.771,0,0,1-3.767,3.767h-1.941v30.826h6.031a1.615,1.615,0,1,1,0,3.229H1.614a1.614,1.614,0,1,1,0-3.229ZM65.49,39.231H58.124l-.471,5.218H65.96Zm.762,8.447H57.362L55.855,64.387h11.9ZM79.534,31.8a10.3,10.3,0,0,1-7.969-3.746,10.782,10.782,0,0,1-4.22,2.349v5.646a1.614,1.614,0,0,1,1.227,1.422L71,64.387H77.98l2.428-26.915a1.614,1.614,0,0,1,1.228-1.422V31.588A10.349,10.349,0,0,1,79.534,31.8Zm11.322,7.43H83.49l-.471,5.218h8.307Zm.762,8.447H82.729L81.222,64.387h11.9Zm7.508,28.267H73.242a1.615,1.615,0,1,1,0-3.229H104.3a.539.539,0,0,0,.538-.538V68.154a.539.539,0,0,0-.538-.538H29.46a1.615,1.615,0,1,1,0-3.229h13V60.423a.435.435,0,0,0-.434-.434H16.285a.435.435,0,0,0-.434.434v3.964H23a1.615,1.615,0,1,1,0,3.229H5.7a.539.539,0,0,0-.538.538v4.024a.539.539,0,0,0,.538.538H66.784a1.615,1.615,0,1,1,0,3.229H10.875v30.826h88.25Z" transform="translate(0 0)"/>
    <path id="Path_151209" data-name="Path 151209" d="M104.265,387.216h3.562a3.771,3.771,0,0,1,3.767,3.767v6.393a3.771,3.771,0,0,1-3.767,3.767h-3.562a3.771,3.771,0,0,1-3.767-3.767v-6.393A3.771,3.771,0,0,1,104.265,387.216Zm-.538,10.16a.539.539,0,0,0,.538.538h3.562a.539.539,0,0,0,.538-.538v-6.393a.539.539,0,0,0-.538-.538h-3.562a.539.539,0,0,0-.538.538Z" transform="translate(-23.185 -304.025)"/>
    <path id="Path_151210" data-name="Path 151210" d="M190.718,387.216h3.562a3.771,3.771,0,0,1,3.767,3.767v6.393a3.771,3.771,0,0,1-3.767,3.767h-3.562a3.771,3.771,0,0,1-3.767-3.767v-6.393A3.771,3.771,0,0,1,190.718,387.216Zm-.538,10.16a.539.539,0,0,0,.538.538h3.562a.539.539,0,0,0,.538-.538v-6.393a.539.539,0,0,0-.538-.538h-3.562a.539.539,0,0,0-.538.538Z" transform="translate(-128.212 -304.025)"/>
    <path id="Path_151211" data-name="Path 151211" d="M277.17,387.216h3.562a3.771,3.771,0,0,1,3.767,3.767v6.393a3.771,3.771,0,0,1-3.767,3.767H277.17a3.771,3.771,0,0,1-3.767-3.767v-6.393A3.771,3.771,0,0,1,277.17,387.216Zm-.538,10.16a.539.539,0,0,0,.538.538h3.562a.539.539,0,0,0,.538-.538v-6.393a.539.539,0,0,0-.538-.538H277.17a.539.539,0,0,0-.538.538Z" transform="translate(-233.238 -304.025)"/>
    <path id="Path_151212" data-name="Path 151212" d="M363.623,387.216h3.562a3.771,3.771,0,0,1,3.767,3.767v6.393a3.771,3.771,0,0,1-3.767,3.767h-3.562a3.771,3.771,0,0,1-3.767-3.767v-6.393A3.771,3.771,0,0,1,363.623,387.216Zm-.538,10.16a.539.539,0,0,0,.538.538h3.562a.539.539,0,0,0,.538-.538v-6.393a.539.539,0,0,0-.538-.538h-3.562a.539.539,0,0,0-.538.538Z" transform="translate(-338.265 -304.025)"/>
    <path id="Path_151213" data-name="Path 151213" d="M346.292,125.53a9.449,9.449,0,0,1-10.447,9.4,8.208,8.208,0,0,1-14.655.041,8.21,8.21,0,0,1-1.06-16.267,8.212,8.212,0,0,1,15.363-2.521,9.454,9.454,0,0,1,10.8,9.352Zm-9.448-6.219a6.217,6.217,0,0,0-1.839.277,1.614,1.614,0,0,1-2.018-1.06,4.981,4.981,0,0,0-9.733,1.49,1.631,1.631,0,0,1-1.634,1.772,4.98,4.98,0,0,0,.019,9.96,1.8,1.8,0,0,1,2.146,1.074,4.98,4.98,0,0,0,9.5-.174,1.617,1.617,0,0,1,1.962-1.107,6.22,6.22,0,1,0,1.595-12.232Z" transform="translate(-303.631 -87.788)"/>
  </g>
</svg>
