<svg xmlns="http://www.w3.org/2000/svg" width="150" height="150" viewBox="0 0 150 150">
  <g id="t3-ic8" transform="translate(-300.5 -2224)">
    <circle id="Ellipse_4382" data-name="Ellipse 4382" cx="75" cy="75" r="75" transform="translate(300.5 2224)" fill="#fff"/>
    <g id="Group_97104" data-name="Group 97104" transform="translate(130.5 3432.186)">
      <path id="Path_151871" data-name="Path 151871" d="M244.193-892.256s3.333,4.076,14.744,6c0,0,29.839,5.888,43.71-21.853,0,0,3.708-8.318,4.628-14.463,0,0,4.287-6.371,7.359.776,0,0-.891,17.847-11.69,28.151,0,0-21.782,22.478-48.787,14.112,0,0-15.4-5.79-24.075-14.112l-2.732,2.774-3.567-.2L222-892.653l1.713-14.048,3.241-2.2,12.427,1.783,1.444,3.963-1.189,2.774-2.378.793,1.868,3.089Z" transform="translate(-22.452 -206.877)" fill="#a6fc58"/>
      <path id="Path_151872" data-name="Path 151872" d="M224.562-1169.87s2.774-2.774,11.1-5.35c0,0,18.032-6.737,32.695.793,0,0,18.428,7.331,24.174,20.013l3.765-2.972,5.152,1.981-.793,4.954-2.972,7.926s-1.387,4.161-6.935,2.179l-7.53-2.774s-8.719-4.557.991-8.124l-.2-2.18a43.032,43.032,0,0,0-19.617-14.267c-12.682-4.359-31.7-1.783-41.413,9.511s-11.323,20.259-11.323,20.259,1.019,12.832-4.925,12.634-2.576-15.654-2.576-15.654S209.7-1161.151,224.562-1169.87Z" transform="translate(-7.379 -4.164)" fill="#a6fc58"/>
      <path id="Path_151873" data-name="Path 151873" d="M381.187-1043.688c0,11.846-9.891,21.449-22.094,21.449S337-1031.842,337-1043.688c0-15.356,22.094-38.312,22.094-38.312S381.187-1059.044,381.187-1043.688Z" transform="translate(-114.665 -81.136)" fill="#7dc9ff"/>
      <path id="Path_151874" data-name="Path 151874" d="M366.868-1023.6a22.638,22.638,0,0,1-7.77,1.364c-12.2,0-22.093-9.6-22.093-21.448,0-15.356,22.093-38.31,22.093-38.31s3.531,3.669,7.77,9.055c-6.363,8.084-14.322,20.036-14.322,29.254A21.49,21.49,0,0,0,366.868-1023.6Z" transform="translate(-114.669 -81.14)" fill="#3ca8f4"/>
      <g id="Group_97102" data-name="Group 97102" transform="translate(234.41 -1146.689)">
        <path id="Path_151875" data-name="Path 151875" d="M408.25-966.305v-12.281H397.94L408.25-999v12.295h10.31Z" transform="translate(-397.94 999)" fill="#fde947"/>
      </g>
      <g id="Group_97103" data-name="Group 97103" transform="translate(234.41 -1146.689)">
        <path id="Path_151876" data-name="Path 151876" d="M408.25-991.442l-6.493,12.857H397.94L408.25-999Z" transform="translate(-397.94 998.998)" fill="#fdc647"/>
      </g>
      <g id="_000000ff" data-name="#000000ff" transform="translate(194 -1183.186)">
        <path id="Path_151877" data-name="Path 151877" d="M348.142-1179.566a50.353,50.353,0,0,1,26.974-2.95,50.119,50.119,0,0,1,21.786,9.323,50.357,50.357,0,0,1,11.74,12.45,5.48,5.48,0,0,1,6.59-1.631,5.521,5.521,0,0,1,3.081,4.6v.491a12.388,12.388,0,0,1-.947,3.153,1.431,1.431,0,0,1-1.439.963,1.453,1.453,0,0,1-1.385-1.627c.182-.945.812-1.781.8-2.766a2.412,2.412,0,0,0-1.532-2.239,2.488,2.488,0,0,0-3.113,1.371c-.353.723-.428,1.722-1.246,2.1a1.529,1.529,0,0,1-2.043-.83,47.119,47.119,0,0,0-21.933-19.264,47.166,47.166,0,0,0-35.5-.715c-.664.275-1.492.626-2.138.121A1.461,1.461,0,0,1,348.142-1179.566Z" transform="translate(-316.863 1183.186)"/>
        <path id="Path_151878" data-name="Path 151878" d="M218.525-1149.6a1.9,1.9,0,0,1,1.046-.377,1.436,1.436,0,0,1,1.445,1.593,1.526,1.526,0,0,1-.866,1.229,47.293,47.293,0,0,0-11.837,9.935,46.67,46.67,0,0,0-11.336,29.675,3.589,3.589,0,0,0,.418,2.368,2.435,2.435,0,0,0,3.773.232c.846-.921.571-2.257.678-3.392a42.129,42.129,0,0,1,14.651-30.218,42.028,42.028,0,0,1,18.467-9.257,42.362,42.362,0,0,1,30.249,4.7,42.2,42.2,0,0,1,14.764,14.372,1.455,1.455,0,0,1-1.379,2.189c-1-.161-1.906-.929-2.962-.646a2.409,2.409,0,0,0-1.8,3.2,2.979,2.979,0,0,0,2.112,1.69c3.145,1.193,6.273,2.427,9.418,3.622a2.457,2.457,0,0,0,2.489-.4,5.059,5.059,0,0,0,1.232-2.336c.222-.636.484-1.415,1.229-1.589a1.459,1.459,0,0,1,1.861,1.395,15.262,15.262,0,0,1-.864,2.616,5.4,5.4,0,0,1-6.761,3.141q-5.088-1.95-10.173-3.913a5.411,5.411,0,0,1-2.927-2.431,5.39,5.39,0,0,1,.1-5.469,5.889,5.889,0,0,1,3.911-2.511,39.027,39.027,0,0,0-12.378-10.8,39.509,39.509,0,0,0-36.677-.7,39.548,39.548,0,0,0-16.627,15.854,39.2,39.2,0,0,0-5.069,19.274,5.385,5.385,0,0,1-3.549,5.033,5.322,5.322,0,0,1-5.855-1.561,5.605,5.605,0,0,1-1.312-3.339v-.67a50.489,50.489,0,0,1,5.38-22.036A50.534,50.534,0,0,1,218.525-1149.6Z" transform="translate(-194 1156.562)"/>
        <path id="Path_151879" data-name="Path 151879" d="M350.892-1087.353a2.825,2.825,0,0,1,4.108.111c2.972,3.462,5.839,7.018,8.56,10.682a1.451,1.451,0,0,1-.594,2.148,1.453,1.453,0,0,1-1.827-.519c-2.647-3.5-5.382-6.941-8.245-10.27a175.245,175.245,0,0,0-12.832,16.738c-1.585,2.415-3.111,4.872-4.468,7.425a34.807,34.807,0,0,0-3.483,8.778,14,14,0,0,0-.216,3.975,20.981,20.981,0,0,0,6.3,13.536,21.051,21.051,0,0,0,12.3,5.861,20.958,20.958,0,0,0,14.067-3.4,21.175,21.175,0,0,0,8.719-12.224,17.082,17.082,0,0,0,.218-8.538,33.161,33.161,0,0,0-2.344-6.1,84.924,84.924,0,0,0-5.816-9.894,1.462,1.462,0,0,1,.64-2.094,1.444,1.444,0,0,1,1.851.565,84.932,84.932,0,0,1,6.269,10.783,28.075,28.075,0,0,1,2.764,9.1,23.785,23.785,0,0,1-3.267,12.989,24.154,24.154,0,0,1-10.316,9.515,23.931,23.931,0,0,1-13.322,2.182,23.86,23.86,0,0,1-12.509-5.479,23.984,23.984,0,0,1-8.227-14.459,18.67,18.67,0,0,1-.113-6.1,32.881,32.881,0,0,1,3.115-8.8,97.681,97.681,0,0,1,7.347-12.055C343.092-1077.908,346.891-1082.721,350.892-1087.353Z" transform="translate(-302.167 1107.009)"/>
        <path id="Path_151880" data-name="Path 151880" d="M400.09-1011.173a1.763,1.763,0,0,1,2.352-.9,1.8,1.8,0,0,1,1.009,1.688c.006,3.8-.014,7.6.01,11.407,2.9.006,5.8,0,8.693.014a1.732,1.732,0,0,1,1.6,2.443c-3.232,6.925-6.5,13.833-9.751,20.752a1.806,1.806,0,0,1-3.008.785,1.989,1.989,0,0,1-.491-1.5q.009-5.591,0-11.182c-2.719,0-5.439,0-8.158,0a2.265,2.265,0,0,1-1.488-.4,1.768,1.768,0,0,1-.434-2.192q4.83-10.462,9.67-20.921m-6.271,20.592c2.021-.008,4.042,0,6.063,0a4.172,4.172,0,0,1,1.769.208,2.926,2.926,0,0,1,1.8,2.794q-.006,3.014,0,6.03,3.477-7.223,6.83-14.51c-2.342-.012-4.684.008-7.026-.008a2.854,2.854,0,0,1-2.729-2.641c-.071-2.1.008-4.2-.04-6.3Q397.109-997.816,393.819-990.581Z" transform="translate(-351.334 1046.108)"/>
        <path id="Path_151881" data-name="Path 151881" d="M299.973-934.472a5.391,5.391,0,0,1,5.269-.2,5.362,5.362,0,0,1,2.873,5.047,49.751,49.751,0,0,1-7.805,22.422A49.935,49.935,0,0,1,285.2-892.213a49.691,49.691,0,0,1-20.97,7.474,50.007,50.007,0,0,1-25.315-3.573A50.476,50.476,0,0,1,222.01-900a5.476,5.476,0,0,1-6.66,2.6,5.41,5.41,0,0,1-3.319-6.361c.6-3.2,1.211-6.406,1.805-9.61a5.482,5.482,0,0,1,4.377-4.8,13.037,13.037,0,0,1,3.769.218c2.52.315,5.037.648,7.553.979a5.349,5.349,0,0,1,4.193,3.156,5.685,5.685,0,0,1,.313,3.408,5.842,5.842,0,0,1-3.481,3.83,39.33,39.33,0,0,0,10.189,7.326,1.661,1.661,0,0,1,.987,1.02,1.471,1.471,0,0,1-1.9,1.791,42.087,42.087,0,0,1-13.672-10.6,1.467,1.467,0,0,1,.392-2.18c.854-.545,1.843.186,2.752-.1a2.555,2.555,0,0,0,1.948-2.273,2.459,2.459,0,0,0-2.039-2.471c-3.262-.444-6.535-.834-9.8-1.274a2.536,2.536,0,0,0-2.633,2.1c-.636,3.448-1.308,6.89-1.932,10.341a2.42,2.42,0,0,0,1.6,2.762,2.368,2.368,0,0,0,2.752-.975,7.072,7.072,0,0,0,.69-2.38,1.466,1.466,0,0,1,1.508-1.013,1.924,1.924,0,0,1,1.318.862,46.918,46.918,0,0,0,26.425,15.4,47.163,47.163,0,0,0,25.924-2.156,47.1,47.1,0,0,0,18.337-12.608A46.734,46.734,0,0,0,305.2-930.052a2.433,2.433,0,0,0-3.008-2.219,2.545,2.545,0,0,0-1.861,2.406,41.987,41.987,0,0,1-9.125,22.092A42.064,42.064,0,0,1,270.457-893.9a42.481,42.481,0,0,1-23.978.036,1.458,1.458,0,0,1-.731-2.1,1.5,1.5,0,0,1,1.827-.62,39.711,39.711,0,0,0,25.965-1.52,39.114,39.114,0,0,0,17.574-14.5,39.26,39.26,0,0,0,6.321-17.611A5.419,5.419,0,0,1,299.973-934.472Z" transform="translate(-208.32 984.391)"/>
      </g>
      <path id="Path_151882" data-name="Path 151882" d="M328.9-766" transform="translate(-108.167 -334.521)" fill="#c6ea7c"/>
    </g>
  </g>
</svg>
