<svg xmlns="http://www.w3.org/2000/svg" width="150" height="150" viewBox="0 0 150 150">
  <g id="t3-ic14" transform="translate(-720.5 -3104)">
    <circle id="Ellipse_4469" data-name="Ellipse 4469" cx="75" cy="75" r="75" transform="translate(720.5 3104)" fill="#fff"/>
    <g id="compliant" transform="translate(733.422 3129)">
      <g id="Group_97064" data-name="Group 97064" transform="translate(34.851 1.465)">
        <path id="Path_151773" data-name="Path 151773" d="M179.489,7.5h-62.2a.977.977,0,0,0-.977.977V35.552h6.4a4.786,4.786,0,0,1,.334,9.561v5.938h0a1.952,1.952,0,0,1,1.656,1.928V65.1a1.952,1.952,0,0,1-1.656,1.928h0v5.938a4.786,4.786,0,0,1-.334,9.561h-6.4v8.015h13.479a1.953,1.953,0,0,1,1.953,1.953v3.886s0,0,0,.005h1.488a1.953,1.953,0,0,1,1.953,1.953v6.229h45.278V8.477A.977.977,0,0,0,179.489,7.5Z" transform="translate(-116.315 -7.5)" fill="#fff"/>
      </g>
      <g id="Group_97065" data-name="Group 97065" transform="translate(34.851 1.465)">
        <path id="Path_151774" data-name="Path 151774" d="M122.72,35.552c.058,0,.116,0,.174,0V8.477a.977.977,0,0,1,.977-.977h-6.579a.977.977,0,0,0-.977.977V35.552Z" transform="translate(-116.315 -7.5)" fill="#f3f9ff"/>
        <path id="Path_151775" data-name="Path 151775" d="M122.72,391.631h-6.4v8.015h6.579v-8.019C122.836,391.629,122.778,391.631,122.72,391.631Z" transform="translate(-116.315 -316.602)" fill="#f3f9ff"/>
      </g>
      <g id="Group_97083" data-name="Group 97083" transform="translate(16.543 29.517)">
        <g id="Group_97066" data-name="Group 97066" transform="translate(26.703 20.149)">
          <path id="Path_151776" data-name="Path 151776" d="M159.3,254.29h9.041v6.679H159.3Z" transform="translate(-159.296 -254.29)" fill="#883f2e"/>
          <path id="Path_151777" data-name="Path 151777" d="M237.5,254.29h12.913v6.679H237.5Z" transform="translate(-222.227 -254.29)" fill="#883f2e"/>
        </g>
        <g id="Group_97067" data-name="Group 97067" transform="translate(26.703 23.608)">
          <path id="Path_151778" data-name="Path 151778" d="M159.3,272h9.041v3.22H159.3Z" transform="translate(-159.296 -272)" fill="#6d3326"/>
          <path id="Path_151779" data-name="Path 151779" d="M237.5,272h12.913v3.22H237.5Z" transform="translate(-222.227 -272)" fill="#6d3326"/>
        </g>
        <g id="Group_97068" data-name="Group 97068" transform="translate(54.89 18.59)">
          <path id="Path_151780" data-name="Path 151780" d="M339.906,251.208a4.9,4.9,0,0,1-4.9,4.9H304.729a1.113,1.113,0,0,1-1.113-1.113v-7.57a1.113,1.113,0,0,1,1.113-1.113h30.279A4.9,4.9,0,0,1,339.906,251.208Z" transform="translate(-303.616 -246.31)" fill="#ca6e59"/>
        </g>
        <g id="Group_97069" data-name="Group 97069" transform="translate(54.89 18.59)">
          <path id="Path_151781" data-name="Path 151781" d="M310.273,251.913a1.113,1.113,0,0,1-1.113-1.113v-4.49h-4.43a1.113,1.113,0,0,0-1.113,1.113v7.57a1.113,1.113,0,0,0,1.113,1.113h30.279a4.9,4.9,0,0,0,4.847-4.193Z" transform="translate(-303.616 -246.31)" fill="#bb5d4c"/>
        </g>
        <g id="Group_97070" data-name="Group 97070" transform="translate(35.744 18.59)">
          <path id="Path_151782" data-name="Path 151782" d="M211.819,247.288v7.843a.977.977,0,0,1-.977.977h-4.281a.977.977,0,0,1-.977-.977v-7.843a.977.977,0,0,1,.977-.977h4.281A.976.976,0,0,1,211.819,247.288Z" transform="translate(-205.585 -246.311)" fill="#ca6e59"/>
        </g>
        <g id="Group_97071" data-name="Group 97071" transform="translate(35.744 18.59)">
          <path id="Path_151783" data-name="Path 151783" d="M208.417,255.131v-7.843a.977.977,0,0,1,.977-.977h-2.832a.977.977,0,0,0-.977.977v7.843a.977.977,0,0,0,.977.977h2.832A.977.977,0,0,1,208.417,255.131Z" transform="translate(-205.585 -246.311)" fill="#bb5d4c"/>
        </g>
        <g id="Group_97072" data-name="Group 97072" transform="translate(12.134 9.561)">
          <path id="Path_151784" data-name="Path 151784" d="M97.319,312.322H85a1.964,1.964,0,0,1-.3-.025v5.938c.111-.008.221-.013.334-.013H97.282c.112,0,.223.005.334.013V312.3A1.941,1.941,0,0,1,97.319,312.322Z" transform="translate(-84.703 -290.379)" fill="#883f2e"/>
          <path id="Path_151785" data-name="Path 151785" d="M85,312.322a1.964,1.964,0,0,1-.3-.025v5.938c.111-.008.221-.013.334-.013h4.584v-5.9H85Z" transform="translate(-84.703 -290.379)" fill="#6d3326"/>
          <path id="Path_151786" data-name="Path 151786" d="M85,205.992H97.319a1.964,1.964,0,0,1,.3.025v-5.938c-.111.008-.222.013-.334.013H85.037c-.112,0-.223-.005-.334-.013v5.938A1.964,1.964,0,0,1,85,205.992Z" transform="translate(-84.703 -200.079)" fill="#883f2e"/>
          <path id="Path_151787" data-name="Path 151787" d="M85,205.991h4.621v-5.9H85.037c-.112,0-.223-.005-.334-.013v5.938A1.988,1.988,0,0,1,85,205.991Z" transform="translate(-84.703 -200.078)" fill="#6d3326"/>
        </g>
        <g id="Group_97073" data-name="Group 97073" transform="translate(10.478 15.473)">
          <path id="Path_151788" data-name="Path 151788" d="M92.45,232.305v12.124a1.953,1.953,0,0,1-1.953,1.953H78.178a1.953,1.953,0,0,1-1.953-1.953V232.305a1.953,1.953,0,0,1,1.953-1.953H90.5A1.953,1.953,0,0,1,92.45,232.305Z" transform="translate(-76.225 -230.352)" fill="#ca6e59"/>
        </g>
        <g id="Group_97074" data-name="Group 97074" transform="translate(10.478 15.473)">
          <path id="Path_151789" data-name="Path 151789" d="M82.822,244.429V232.305a1.953,1.953,0,0,1,1.953-1.953h-6.6a1.953,1.953,0,0,0-1.953,1.953v12.124a1.953,1.953,0,0,0,1.953,1.953h6.6A1.953,1.953,0,0,1,82.822,244.429Z" transform="translate(-76.225 -230.352)" fill="#bb5d4c"/>
        </g>
        <g id="Group_97077" data-name="Group 97077" transform="translate(0 54.992)">
          <path id="Path_151790" data-name="Path 151790" d="M70.484,438.725a2,2,0,0,0,.01-.2v-3.886a1.953,1.953,0,0,0-1.953-1.953H42.148a1.953,1.953,0,0,0-1.953,1.953v3.886a2,2,0,0,0,.01.2Z" transform="translate(-36.754 -432.685)" fill="#ca6e59"/>
          <path id="Path_151791" data-name="Path 151791" d="M46.808,438.725a2,2,0,0,1-.01-.2v-3.886a1.953,1.953,0,0,1,1.953-1.953h-6.6a1.953,1.953,0,0,0-1.953,1.953v3.886a2,2,0,0,0,.01.2Z" transform="translate(-36.754 -432.685)" fill="#bb5d4c"/>
          <g id="Group_97075" data-name="Group 97075" transform="translate(0 5.844)">
            <path id="Path_151792" data-name="Path 151792" d="M59.759,470.79h-36.2a.977.977,0,0,1-.977-.977v-5.252a1.953,1.953,0,0,1,1.953-1.953H57.806a1.953,1.953,0,0,1,1.953,1.953Z" transform="translate(-22.578 -462.608)" fill="#883f2e"/>
          </g>
          <g id="Group_97076" data-name="Group 97076" transform="translate(0 5.844)">
            <path id="Path_151793" data-name="Path 151793" d="M29.106,469.813v-5.252a1.953,1.953,0,0,1,1.953-1.953H24.531a1.953,1.953,0,0,0-1.953,1.953v5.252a.977.977,0,0,0,.977.977h6.528A.977.977,0,0,1,29.106,469.813Z" transform="translate(-22.578 -462.608)" fill="#6d3326"/>
          </g>
        </g>
        <g id="Group_97082" data-name="Group 97082" transform="translate(7.681)">
          <g id="Group_97078" data-name="Group 97078" transform="translate(0 37.403)">
            <path id="Path_151794" data-name="Path 151794" d="M83.724,347.42a4.787,4.787,0,0,1-4.787,4.787H66.692a4.787,4.787,0,1,1,0-9.573H78.937A4.787,4.787,0,0,1,83.724,347.42Z" transform="translate(-61.905 -342.633)" fill="#ca6e59"/>
          </g>
          <g id="Group_97079" data-name="Group 97079" transform="translate(0 37.403)">
            <path id="Path_151795" data-name="Path 151795" d="M68.425,347.42a4.787,4.787,0,0,1,4.787-4.787h-6.52a4.787,4.787,0,1,0,0,9.573h6.52A4.787,4.787,0,0,1,68.425,347.42Z" transform="translate(-61.905 -342.633)" fill="#bb5d4c"/>
          </g>
          <g id="Group_97080" data-name="Group 97080" transform="translate(0)">
            <path id="Path_151796" data-name="Path 151796" d="M83.724,155.915a4.787,4.787,0,0,1-4.787,4.787H66.692a4.787,4.787,0,1,1,0-9.573H78.937A4.787,4.787,0,0,1,83.724,155.915Z" transform="translate(-61.905 -151.128)" fill="#ca6e59"/>
          </g>
          <g id="Group_97081" data-name="Group 97081">
            <path id="Path_151797" data-name="Path 151797" d="M68.425,155.915a4.787,4.787,0,0,1,4.787-4.787h-6.52a4.787,4.787,0,1,0,0,9.573h6.52A4.787,4.787,0,0,1,68.425,155.915Z" transform="translate(-61.905 -151.128)" fill="#bb5d4c"/>
          </g>
        </g>
      </g>
      <g id="Group_97086" data-name="Group 97086" transform="translate(53.221 10.568)">
        <g id="Group_97084" data-name="Group 97084">
          <circle id="Ellipse_4419" data-name="Ellipse 4419" cx="13.705" cy="13.705" r="13.705" fill="#9ff255"/>
        </g>
        <g id="Group_97085" data-name="Group 97085" transform="translate(0)">
          <path id="Path_151798" data-name="Path 151798" d="M216.94,67.812a13.708,13.708,0,0,1,10.421-13.306,13.7,13.7,0,1,0,0,26.612A13.709,13.709,0,0,1,216.94,67.812Z" transform="translate(-210.372 -54.107)" fill="#8ad24a"/>
        </g>
      </g>
      <g id="Group_97087" data-name="Group 97087" transform="translate(15.078 0)">
        <path id="Path_151799" data-name="Path 151799" d="M102.825,46.643h-2.359V21.289a1.465,1.465,0,0,0-1.51-1.464,1.506,1.506,0,0,0-1.42,1.526V46.643H87.719a1.465,1.465,0,0,0,0,2.93h15.106a3.433,3.433,0,1,1,0,6.866H72.9V49.572h7.985a1.465,1.465,0,0,0,0-2.93H72.546A2.581,2.581,0,0,0,70.18,48.2H59.817a2.443,2.443,0,0,0-2.274-1.558H53.263A2.444,2.444,0,0,0,50.989,48.2H44.71V46.944a3.416,3.416,0,0,0-1.656-2.923V40.29a6.251,6.251,0,0,0-1.8-12.238h-4.94V2.93H97.537V14.453a1.465,1.465,0,0,0,1.51,1.464,1.506,1.506,0,0,0,1.42-1.526V2.441A2.441,2.441,0,0,0,98.025,0h-62.2a2.441,2.441,0,0,0-2.441,2.441V28.052H29.011a6.251,6.251,0,0,0-1.8,12.238v3.73a3.416,3.416,0,0,0-1.656,2.923V59.067a3.416,3.416,0,0,0,1.656,2.923v3.73a6.251,6.251,0,0,0,1.8,12.238h4.375v5.085H21.937a3.422,3.422,0,0,0-3.418,3.418v2.426H18.5a3.422,3.422,0,0,0-3.418,3.418v5.252A2.444,2.444,0,0,0,17.519,100H98.025a2.441,2.441,0,0,0,2.441-2.441V59.369h2.359a6.363,6.363,0,0,0,0-12.726Zm-42.84,4.488h9.983V54.88H59.985Zm-6.234-1.558h3.3v6.866h-3.3ZM44.71,51.131h6.111V54.88H44.71ZM25.689,34.3a3.326,3.326,0,0,1,3.322-3.322H41.256a3.322,3.322,0,1,1,0,6.644H29.011A3.325,3.325,0,0,1,25.689,34.3Zm3.285,25.252a.489.489,0,0,1-.488-.488V46.944a.489.489,0,0,1,.488-.488H41.292a.489.489,0,0,1,.488.488V59.067a.489.489,0,0,1-.488.488Zm11.151,2.93v2.97H30.141v-2.97Zm-9.983-18.96v-2.97h9.983v2.97Zm-1.131,31.5a3.322,3.322,0,1,1,0-6.644H41.256a3.322,3.322,0,1,1,0,6.644ZM52.259,97.07H18.008V92.306a.489.489,0,0,1,.488-.488h9.067a1.465,1.465,0,1,0,0-2.93H21.449V86.462a.489.489,0,0,1,.488-.488H48.329a.489.489,0,0,1,.488.488v2.426H34.4a1.465,1.465,0,1,0,0,2.93H51.77a.489.489,0,0,1,.488.488Zm45.278,0H55.188V92.306a3.422,3.422,0,0,0-3.418-3.418h-.023V86.462a3.422,3.422,0,0,0-3.418-3.418H36.316V77.959h4.94a6.251,6.251,0,0,0,1.8-12.238V61.99a3.416,3.416,0,0,0,1.656-2.923V57.81h6.279a2.443,2.443,0,0,0,2.274,1.558h4.281a2.444,2.444,0,0,0,2.274-1.558H70.18a2.581,2.581,0,0,0,2.367,1.558h24.99v37.7Z" transform="translate(-15.078 0)"/>
        <path id="Path_151800" data-name="Path 151800" d="M202.872,61.777a15.17,15.17,0,1,0,15.17-15.17A15.187,15.187,0,0,0,202.872,61.777Zm27.41,0a12.24,12.24,0,1,1-12.24-12.24A12.254,12.254,0,0,1,230.282,61.777Z" transform="translate(-166.193 -37.504)"/>
        <path id="Path_151801" data-name="Path 151801" d="M248.844,104.067a1.465,1.465,0,1,0-2.072,2.071l4.506,4.506a1.465,1.465,0,0,0,2.072,0l6.984-6.984a1.465,1.465,0,1,0-2.072-2.071l-5.948,5.948Z" transform="translate(-201.174 -81.402)"/>
        <path id="Path_151802" data-name="Path 151802" d="M243.681,328.534A1.465,1.465,0,0,0,245.146,330h26.939a1.465,1.465,0,1,0,0-2.93H245.146A1.465,1.465,0,0,0,243.681,328.534Z" transform="translate(-199.032 -263.188)"/>
        <path id="Path_151803" data-name="Path 151803" d="M325.854,363.546H311.965a1.465,1.465,0,0,0,0,2.93h13.889a1.465,1.465,0,0,0,0-2.93Z" transform="translate(-252.8 -292.541)"/>
        <path id="Path_151804" data-name="Path 151804" d="M245.146,366.476h7.972a1.465,1.465,0,1,0,0-2.93h-7.972a1.465,1.465,0,0,0,0,2.93Z" transform="translate(-199.032 -292.541)"/>
        <path id="Path_151805" data-name="Path 151805" d="M272.084,400.023H245.145a1.465,1.465,0,0,0,0,2.93h26.939a1.465,1.465,0,0,0,0-2.93Z" transform="translate(-199.031 -321.894)"/>
        <path id="Path_151806" data-name="Path 151806" d="M354.018,436.5h-7.053a1.465,1.465,0,0,0,0,2.93h7.053a1.465,1.465,0,0,0,0-2.93Z" transform="translate(-280.964 -351.246)"/>
        <path id="Path_151807" data-name="Path 151807" d="M260.54,436.5H245.146a1.465,1.465,0,0,0,0,2.93H260.54a1.465,1.465,0,0,0,0-2.93Z" transform="translate(-199.032 -351.246)"/>
      </g>
    </g>
  </g>
</svg>
