<svg xmlns="http://www.w3.org/2000/svg" width="100.149" height="100" viewBox="0 0 100.149 100">
  <g id="t4-ic6" transform="translate(-1.911 -2)">
    <path id="Path_152005" data-name="Path 152005" d="M43.333,0A43.333,43.333,0,1,1,0,43.333,43.333,43.333,0,0,1,43.333,0Z" transform="translate(3.726 3.667)" fill="#7dc9ff"/>
    <path id="Path_151988" data-name="Path 151988" d="M57.994,62.873A43.333,43.333,0,0,1,14.66,19.54a44.15,44.15,0,0,1,.9-8.85,43.333,43.333,0,1,0,73.2,39.367A43.217,43.217,0,0,1,57.994,62.873Z" transform="translate(0.732 5.793)" fill="#3ca8f4"/>
    <path id="Path_151989" data-name="Path 151989" d="M50.517,6,35.333,17.667l10,10-15,5L27,44.333l13.333,5L27,69.333l35.167,4.4A43.333,43.333,0,0,0,50.517,6Z" transform="translate(16.726 2.667)" fill="#a6fc58"/>
    <path id="Path_151990" data-name="Path 151990" d="M28,55.16V41.827L18,30.16l10-6.667-3.333-10L17.187,9.76a43.333,43.333,0,0,0,3.333,66.883l-.85-14.817Z" transform="translate(0.722 5.173)" fill="#a6fc58"/>
    <path id="Path_151991" data-name="Path 151991" d="M20.347,47,19.48,57.317A42.967,42.967,0,0,0,32.013,60.2V53.667Z" transform="translate(11.713 30)" fill="#8ad24a"/>
    <path id="Path_151992" data-name="Path 151992" d="M44.813,4.233A43.333,43.333,0,0,0,20.63,5.3l5.617,9.367Z" transform="translate(12.479 0.667)" fill="#a6fc58"/>
    <path id="Path_151993" data-name="Path 151993" d="M42,47.12a43.033,43.033,0,0,1-11.667-1.667l-3.333,5,35.167,4.4A43.434,43.434,0,0,0,72.75,34.32,43.233,43.233,0,0,1,42,47.12Z" transform="translate(16.726 21.547)" fill="#8ad24a"/>
    <path id="Path_151994" data-name="Path 151994" d="M14.655,19.54a42.967,42.967,0,0,1,.917-8.85,43.333,43.333,0,0,0,5,65.333l-.917-14.817,8.333-6.667V50.79A43.167,43.167,0,0,1,14.655,19.54Z" transform="translate(0.738 5.793)" fill="#8ad24a"/>
    <path id="Path_151995" data-name="Path 151995" d="M67.667,67V17a10,10,0,1,0-20,0V67a16.667,16.667,0,1,0,20,0Z" transform="translate(26.059 3.333)" fill="#fde947"/>
    <path id="Path_151996" data-name="Path 151996" d="M54.479,66.767h-.133V7.35a10,10,0,0,0-6.667,9.417v50a16.667,16.667,0,1,0,24.25,21.95A25.817,25.817,0,0,1,54.479,66.767Z" transform="translate(26.047 3.567)" fill="#fdc647"/>
    <path id="Path_151997" data-name="Path 151997" d="M54.985,87.667A10,10,0,0,1,49,69.683l2.65-2.017V14.333a3.333,3.333,0,0,1,6.667,0V67.667l2.65,2a10,10,0,0,1-5.983,18Z" transform="translate(28.741 6)" fill="#f89c8d"/>
    <path id="Path_151998" data-name="Path 151998" d="M60.984,65.683l-2.65-2.017V17H51.667V63.667l-2.65,2a10,10,0,1,0,11.967,0Z" transform="translate(28.726 10)" fill="#f8664f"/>
    <path id="Path_151999" data-name="Path 151999" d="M51.821,43h-.133v3.333l-2.65,2a10,10,0,1,0,14.217,13.65A25.767,25.767,0,0,1,51.821,43Z" transform="translate(28.705 27.333)" fill="#cc5144"/>
    <g id="Group_97150" data-name="Group 97150" transform="translate(1.911 2)">
      <path id="Path_152000" data-name="Path 152000" d="M62.559,72.667l-15.95-1.983L58.443,52.917a1.666,1.666,0,0,0-.8-2.483l-11.9-4.45,2.683-9.35L62.593,32a1.667,1.667,0,0,0,.65-2.767l-8.667-8.65,12.8-9.85c.7.4,1.383.783,2.05,1.217a1.671,1.671,0,1,0,1.8-2.817A44.971,44.971,0,1,0,61.359,89.65a1.667,1.667,0,1,0-1.067-3.15,41.667,41.667,0,0,1-13.233,2.167H45.393v-5a1.667,1.667,0,0,0-.833-1.45L32.893,75.55a1.724,1.724,0,0,0-2.55,1.35l-.667,8.017A41.667,41.667,0,0,1,18.243,17l5.783,2.9,2.717,8.133L17.809,34a1.657,1.657,0,0,0-.35,2.467l9.6,11.15V59.533l-7.7,6.167a1.667,1.667,0,0,0-.617,1.517l.867,6.45a1.667,1.667,0,0,0,1.667,1.45h.233a1.667,1.667,0,0,0,1.417-1.867l-.733-5.55,7.6-6.083a1.667,1.667,0,0,0,.6-1.283V47a1.667,1.667,0,0,0-.4-1.083L21.209,35.683l8.433-5.633a1.667,1.667,0,0,0,.667-1.917l-3.333-10a1.667,1.667,0,0,0-.833-.95l-5.2-2.617A41.933,41.933,0,0,1,32.393,8l4.9,8.183a1.66,1.66,0,0,0,2.25.6l17.95-10.1a41.666,41.666,0,0,1,6.667,2.3l-13.033,10a1.666,1.666,0,0,0-.167,2.5l8.1,8.083-12.45,4.15a1.667,1.667,0,0,0-1.067,1.133L42.209,46.517a1.667,1.667,0,0,0,1.017,2.017l11.367,4.25L42.426,71.117a1.667,1.667,0,0,0,1.1,2.55L62.143,76h.217a1.67,1.67,0,0,0,.2-3.333ZM33.509,79.75l8.55,4.883V88.35a40.467,40.467,0,0,1-9.1-2.15Zm5.817-66.667L35.626,7A41.1,41.1,0,0,1,52.459,5.767Z" transform="translate(-1.911 -2)"/>
      <path id="Path_152001" data-name="Path 152001" d="M48.667,69.017a11.667,11.667,0,1,0,14,0l-2-1.5V15a5,5,0,1,0-10,0v5a1.667,1.667,0,1,0,0,3.333v3.333a1.667,1.667,0,1,0,0,3.333v5a1.667,1.667,0,1,0,0,3.333H54A1.667,1.667,0,1,0,54,35V30a1.667,1.667,0,1,0,0-3.333V23.333h3.333v45A1.667,1.667,0,0,0,58,69.667l2.667,2a8.333,8.333,0,1,1-10,0l2.65-2A1.567,1.567,0,0,0,54,68.333v-5A1.667,1.667,0,1,0,54,60H50.667a1.667,1.667,0,1,0,0,3.333v4.183ZM54,20V15a1.667,1.667,0,1,1,3.333,0v5Z" transform="translate(26.148 3.333)"/>
      <path id="Path_152002" data-name="Path 152002" d="M48.667,33.333H52A1.667,1.667,0,0,0,52,30H48.667a1.667,1.667,0,1,0,0,3.333Z" transform="translate(28.149 16.667)"/>
      <path id="Path_152003" data-name="Path 152003" d="M48.667,38.333H52A1.667,1.667,0,0,0,52,35H48.667a1.667,1.667,0,1,0,0,3.333Z" transform="translate(28.149 20)"/>
      <path id="Path_152004" data-name="Path 152004" d="M70,66.883V56a1.667,1.667,0,0,0-3.333,0V67.667A1.667,1.667,0,0,0,67.333,69a15,15,0,1,1-18,0A1.667,1.667,0,0,0,50,67.667v-50a8.333,8.333,0,0,1,16.667,0V49.333a1.667,1.667,0,1,0,3.333,0V17.667a11.667,11.667,0,1,0-23.333,0V66.883A18.15,18.15,0,0,0,40,81a18.333,18.333,0,1,0,36.667,0A18.15,18.15,0,0,0,70,66.883Z" transform="translate(23.482 0.667)"/>
    </g>
  </g>
</svg>
