<svg xmlns="http://www.w3.org/2000/svg" width="100.453" height="100" viewBox="0 0 100.453 100">
  <g id="t4-ic7" transform="translate(0 -1.153)">
    <g id="Group_97146" data-name="Group 97146" transform="translate(3.26 2.625)">
      <path id="Path_151918" data-name="Path 151918" d="M40.16,55.739A23.534,23.534,0,0,1,16.618,32.2c0-.191,0-.337.008-.525a23.542,23.542,0,0,1,47.071,0c.005.188.008.334.008.524A23.535,23.535,0,0,1,40.16,55.739Z" transform="translate(-16.618 -8.654)" fill="#fde947"/>
      <g id="Group_97145" data-name="Group 97145" transform="translate(5.722 8.31)">
        <path id="Path_151919" data-name="Path 151919" d="M110.1,175.426a17.861,17.861,0,0,1-17.121,0l4.6-8.042a8.559,8.559,0,0,0,7.929,0Z" transform="translate(-83.721 -144.551)" fill="#0f2771"/>
        <path id="Path_151920" data-name="Path 151920" d="M173.283,65.872h-9.259a8.569,8.569,0,0,0-3.965-6.855l4.666-8A17.861,17.861,0,0,1,173.283,65.872Z" transform="translate(-137.639 -51.016)" fill="#0f2771"/>
        <path id="Path_151921" data-name="Path 151921" d="M59,59.008a8.569,8.569,0,0,0-3.965,6.855H45.781a17.86,17.86,0,0,1,8.558-14.856Z" transform="translate(-45.781 -51.007)" fill="#0f2771"/>
        <circle id="Ellipse_4476" data-name="Ellipse 4476" cx="2.858" cy="2.858" r="2.858" transform="translate(14.964 12.375)" fill="#0f2771"/>
      </g>
    </g>
    <g id="Group_97147" data-name="Group 97147" transform="translate(4.295 53.019)">
      <path id="Path_151922" data-name="Path 151922" d="M32.317,315.894,21.966,334.712a.594.594,0,0,0,.3.837l9.607,3.9a1.188,1.188,0,0,0,.893,0l9.607-3.9a.594.594,0,0,0,.3-.837Z" transform="translate(-21.892 -306.009)" fill="#a6fc58"/>
      <path id="Path_151923" data-name="Path 151923" d="M34.352,330.4l7.161,2.9a2.18,2.18,0,0,0,1.638,0l7.161-2.9-7.98-14.508Z" transform="translate(-31.907 -306.009)" fill="#8ad24a"/>
      <path id="Path_151924" data-name="Path 151924" d="M77.642,334.712,67.291,315.894,65.4,319.326l9.455,17.049a.63.63,0,0,1,.059.157l2.427-.984A.594.594,0,0,0,77.642,334.712Z" transform="translate(-56.866 -306.009)" fill="#8ad24a"/>
      <path id="Path_151925" data-name="Path 151925" d="M35.337,265.847,26.375,284.44a.594.594,0,0,0,.312.808L35.2,288.7a1.786,1.786,0,0,0,1.343,0l8.515-3.453a.594.594,0,0,0,.312-.808l-8.963-18.594a.594.594,0,0,0-1.07,0Z" transform="translate(-25.448 -265.511)" fill="#a6fc58"/>
      <path id="Path_151926" data-name="Path 151926" d="M75.605,284.441l-8.963-18.594a.594.594,0,0,0-1.07,0l-1.642,3.406,8.178,16.792a.631.631,0,0,1,.029.484l3.156-1.28A.594.594,0,0,0,75.605,284.441Z" transform="translate(-55.683 -265.512)" fill="#8ad24a"/>
    </g>
    <path id="Path_151927" data-name="Path 151927" d="M82.559,466.508H38.14c3.406-5.256,12.066-8.992,22.209-8.992S79.155,461.252,82.559,466.508Z" transform="translate(-30.657 -366.826)" fill="#fdc647"/>
    <path id="Path_151928" data-name="Path 151928" d="M136.691,457.516c-1.216,0-2.409.055-3.576.159,8.028.76,14.651,4.207,17.458,8.833H158.9C155.5,461.252,146.836,457.516,136.691,457.516Z" transform="translate(-106.998 -366.826)" fill="#fde947"/>
    <path id="Path_151929" data-name="Path 151929" d="M220.177,46.52h4.062a5.778,5.778,0,0,1,9.818-5.616,9.295,9.295,0,1,1,17.418,5.323.2.2,0,0,0,.171.293h1.733a4.633,4.633,0,0,1,4.668,4.4,4.562,4.562,0,0,1-4.559,4.728h-33.42a4.562,4.562,0,0,1-4.559-4.728,4.634,4.634,0,0,1,4.668-4.4Z" transform="translate(-173.224 -25.191)" fill="#ddebfd"/>
    <path id="Path_151930" data-name="Path 151930" d="M358.253,46.52h-1.733a.2.2,0,0,1-.171-.293,9.3,9.3,0,0,0-10.37-13.471,9.295,9.295,0,0,1,5.97,13.472.2.2,0,0,0,.171.293h1.733a4.633,4.633,0,0,1,4.668,4.4,4.562,4.562,0,0,1-4.559,4.728h4.4a4.562,4.562,0,0,0,4.559-4.728A4.633,4.633,0,0,0,358.253,46.52Z" transform="translate(-278.1 -25.19)" fill="#bed9fd"/>
    <g id="Group_97148" data-name="Group 97148" transform="translate(0 1.153)">
      <path id="Path_151931" data-name="Path 151931" d="M34.133,51.181A25,25,0,0,0,58.478,31.925h5.539a1.471,1.471,0,0,0,0-2.943H54.174a3.091,3.091,0,0,1-3.089-3.2,3.174,3.174,0,0,1,3.2-2.976h4.062a1.472,1.472,0,0,0,1.4-1.924,4.307,4.307,0,0,1,7.318-4.186,1.471,1.471,0,0,0,2.564-.84,7.823,7.823,0,1,1,14.661,4.481A1.668,1.668,0,0,0,85.751,22.8h1.733a3.173,3.173,0,0,1,3.2,2.976,3.09,3.09,0,0,1-3.088,3.2H70.884a1.471,1.471,0,0,0,0,2.943h16.71a6.033,6.033,0,0,0,6.03-6.252,6.139,6.139,0,0,0-5.948-5.812,10.767,10.767,0,0,0-20.454-6.729,7.263,7.263,0,0,0-9.988,3.435,25.014,25.014,0,1,0-23.1,34.614ZM12.07,25.682a22.071,22.071,0,0,1,43.216-5.824h-1a6.109,6.109,0,0,0-1.823.279,19.418,19.418,0,0,0-8.3-10.457,1.472,1.472,0,0,0-2.036.516l-4.666,8a1.471,1.471,0,0,0,.48,1.982,7.11,7.11,0,0,1,3.286,5.678,1.471,1.471,0,0,0,1.47,1.408h5.6a6.038,6.038,0,0,0,5.877,4.662h1.27A22.072,22.072,0,0,1,12.07,25.682Zm37.8-3.959a6.036,6.036,0,0,0-1.512,2.6H44.008a10.062,10.062,0,0,0-3.341-5.777l3.213-5.508A16.47,16.47,0,0,1,49.869,21.724Z" transform="translate(-7.331 -1.153)"/>
      <path id="Path_151932" data-name="Path 151932" d="M98.8,160.052a7.089,7.089,0,0,1-6.564,0,1.471,1.471,0,0,0-1.96.573l-4.6,8.042a1.471,1.471,0,0,0,.57,2.021,19.332,19.332,0,0,0,18.535,0,1.471,1.471,0,0,0,.571-2.02l-4.6-8.042A1.471,1.471,0,0,0,98.8,160.052Zm3.222,8.714a16.4,16.4,0,0,1-13.01,0l3.166-5.538a10.147,10.147,0,0,0,6.679,0Z" transform="translate(-68.711 -128.741)"/>
      <path id="Path_151933" data-name="Path 151933" d="M50.481,59.9a7.108,7.108,0,0,1,3.286-5.677,1.472,1.472,0,0,0,.48-1.982l-4.666-8a1.472,1.472,0,0,0-2.036-.516A19.241,19.241,0,0,0,38.281,59.8a1.472,1.472,0,0,0,1.471,1.5h9.259A1.472,1.472,0,0,0,50.481,59.9Zm-9.156-1.535a16.284,16.284,0,0,1,6.5-11.29l3.214,5.513a10.059,10.059,0,0,0-3.34,5.777Z" transform="translate(-30.77 -35.198)"/>
      <path id="Path_151934" data-name="Path 151934" d="M118.881,115.241a4.329,4.329,0,1,0-4.329-4.329A4.334,4.334,0,0,0,118.881,115.241Zm0-5.715a1.386,1.386,0,1,1-1.386,1.386A1.388,1.388,0,0,1,118.881,109.526Z" transform="translate(-92.077 -85.898)"/>
      <path id="Path_151935" data-name="Path 151935" d="M98.981,304.674H91.065v-6.492l4.486-9.457a1.472,1.472,0,0,0-2.659-1.261L91.4,290.6l-2.611-2.238v-4.208a1.471,1.471,0,1,0-2.943,0v4.884a1.471,1.471,0,0,0,.514,1.117l3.732,3.2-1.832,3.862a1.472,1.472,0,0,0-.141.609l-3.843-2.625a1.472,1.472,0,0,0-1.66,2.43l5.5,3.757v3.282H70.462V294.229l10.1-10.673a1.472,1.472,0,0,0-2.138-2.023l-3.112,3.287-2.016-3.25a1.471,1.471,0,0,0-2.5,1.552l2.425,3.909-2.76,2.916v-2.794a1.471,1.471,0,0,0-.221-.776L65.85,279.3a1.471,1.471,0,1,0-2.5,1.552l4.169,6.721v9.607l-3.084-2.44.539-4.541a1.471,1.471,0,0,0-2.922-.347l-.326,2.744-.263-.208-2.126-4.033a1.472,1.472,0,1,0-2.6,1.372L59,294.034a1.473,1.473,0,0,0,.388.468l8.125,6.431v3.741H52.668c-4.051-5.486-12.94-8.992-22.976-8.992a38.133,38.133,0,0,0-13.5,2.349v-3.941l9.134-3.7a2.064,2.064,0,0,0,1.034-2.909l-3.446-6.266,1.546-.627a2.066,2.066,0,0,0,1.084-2.811L16.58,259.18a2.066,2.066,0,0,0-3.721,0l-3.408,7.07a1.472,1.472,0,0,0,2.651,1.278l2.617-5.43,7.766,16.111-7.648,3.1a.313.313,0,0,1-.237,0l-7.648-3.1,2.167-4.495a1.471,1.471,0,0,0-2.651-1.278L3.9,277.774a2.066,2.066,0,0,0,1.084,2.811l1.547.627-3.444,6.259a2.063,2.063,0,0,0,1.029,2.915l9.137,3.705v5.258a18.847,18.847,0,0,0-6.532,5.324H1.471a1.471,1.471,0,0,0,0,2.943h97.51a1.471,1.471,0,1,0,0-2.943ZM6.135,288.031l3.139-5.7,4.222,1.712a3.242,3.242,0,0,0,2.449,0l4.223-1.713,3.138,5.705-8.585,3.482Zm4.532,16.644c4.018-3.7,11.208-6.049,19.025-6.049s15.009,2.353,19.026,6.049Z" transform="translate(0 -207.617)"/>
      <path id="Path_151936" data-name="Path 151936" d="M293.99,281.493a1.472,1.472,0,0,0,1.273-2.207l-5.785-10.021a1.471,1.471,0,0,0-2.549,1.471l5.785,10.021A1.471,1.471,0,0,0,293.99,281.493Z" transform="translate(-230.476 -216.07)"/>
      <path id="Path_151937" data-name="Path 151937" d="M255.854,213.968a1.471,1.471,0,0,0,.539-2.01l-3.8-6.59a1.471,1.471,0,1,0-2.549,1.471l3.8,6.59a1.471,1.471,0,0,0,2.01.539Z" transform="translate(-200.824 -164.711)"/>
      <path id="Path_151938" data-name="Path 151938" d="M375.865,309.924a1.471,1.471,0,0,0-.539,2.01l2.656,4.6a1.471,1.471,0,0,0,2.549-1.471l-2.656-4.6a1.472,1.472,0,0,0-2.01-.539Z" transform="translate(-301.53 -249.185)"/>
      <path id="Path_151939" data-name="Path 151939" d="M335.886,240.678a1.471,1.471,0,0,0-.539,2.01l4.82,8.349a1.471,1.471,0,0,0,2.549-1.471l-4.82-8.349A1.472,1.472,0,0,0,335.886,240.678Z" transform="translate(-269.395 -193.525)"/>
      <path id="Path_151940" data-name="Path 151940" d="M309.8,196.964a1.472,1.472,0,0,0,1.273-2.207l-1.531-2.652a1.471,1.471,0,0,0-2.549,1.471l1.531,2.652A1.47,1.47,0,0,0,309.8,196.964Z" transform="translate(-246.604 -154.05)"/>
      <path id="Path_151941" data-name="Path 151941" d="M277.1,344.723a1.471,1.471,0,1,0,2.549-1.471l-1.518-2.63a1.471,1.471,0,0,0-2.549,1.471Z" transform="translate(-221.352 -273.427)"/>
      <path id="Path_151942" data-name="Path 151942" d="M217.3,238.209a1.471,1.471,0,0,0-.539,2.01l8.107,14.041a1.471,1.471,0,1,0,2.549-1.471l-8.107-14.041a1.471,1.471,0,0,0-2.01-.539Z" transform="translate(-174.075 -191.54)"/>
      <path id="Path_151943" data-name="Path 151943" d="M446.161,322.71a1.471,1.471,0,0,0,2.549-1.471l-1.785-3.092a1.471,1.471,0,0,0-2.549,1.471Z" transform="translate(-357.032 -255.362)"/>
      <path id="Path_151944" data-name="Path 151944" d="M413.079,262.469a1.471,1.471,0,0,0-.539,2.01l2.813,4.872a1.471,1.471,0,1,0,2.549-1.471l-2.813-4.872A1.471,1.471,0,0,0,413.079,262.469Z" transform="translate(-331.443 -211.041)"/>
      <path id="Path_151945" data-name="Path 151945" d="M378.809,200.167l-4.655-8.062a1.471,1.471,0,1,0-2.549,1.471l4.655,8.062a1.471,1.471,0,0,0,2.549-1.471Z" transform="translate(-298.539 -154.05)"/>
    </g>
  </g>
</svg>
