<svg xmlns="http://www.w3.org/2000/svg" width="102.459" height="105" viewBox="0 0 102.459 105">
  <g id="t4-ic8" transform="translate(-1.781)">
    <path id="Path_151946" data-name="Path 151946" d="M3.321,74.054c1.186-2.126,4.382-2.613,7.006-2.232s5.2,1.348,7.842,1.1c2.8-.266,5.3-1.881,8.117-1.993,4.221-.165,7.882,3.059,12.107,3,3.72-.055,7.052-2.671,10.76-2.361S55.675,75,59.373,75.292c5.126.4,9.222-4.742,14.353-4.4,4.029.265,7.095,3.866,11.132,3.978,3.3.092,6.1-2.179,9.347-2.728,3.319-.561,6.625.725,9.9,1.462v43.678H3.321" transform="translate(-0.267 -12.277)" fill="#fdc647"/>
    <path id="Path_151947" data-name="Path 151947" d="M59.236,75.965q-.318,0-.642-.025a14.121,14.121,0,0,1-5.445-1.959,12.783,12.783,0,0,0-4.778-1.773,13,13,0,0,0-5.358,1.115,16.687,16.687,0,0,1-5.321,1.248h-.134a16.822,16.822,0,0,1-6.151-1.562,14.534,14.534,0,0,0-5.8-1.435,14.438,14.438,0,0,0-4.037.964,17.74,17.74,0,0,1-4.035,1.024A17.858,17.858,0,0,1,12,72.949c-.827-.181-1.676-.368-2.505-.487-2.375-.342-5.2.088-6.166,1.819a.827.827,0,1,1-1.444-.806c1.441-2.584,5.126-3.043,7.845-2.65.889.128,1.771.322,2.624.508a16.4,16.4,0,0,0,5.021.579,16.229,16.229,0,0,0,3.658-.943,15.9,15.9,0,0,1,4.505-1.052,15.884,15.884,0,0,1,6.473,1.549,14.664,14.664,0,0,0,5.654,1.446,15.231,15.231,0,0,0,4.8-1.153,14.478,14.478,0,0,1,6.049-1.205,14.211,14.211,0,0,1,5.411,1.958,12.7,12.7,0,0,0,4.8,1.773c2.332.184,4.489-.928,6.765-2.106,2.357-1.22,4.789-2.48,7.577-2.3a14.355,14.355,0,0,1,5.787,2.085,12.278,12.278,0,0,0,5.31,1.892,12.2,12.2,0,0,0,5.027-1.341,18.981,18.981,0,0,1,4.159-1.376c2.743-.463,5.424.241,8.02.919.736.193,1.469.385,2.2.551a.827.827,0,1,1-.361,1.613c-.752-.165-1.5-.366-2.26-.564-2.536-.661-4.929-1.291-7.323-.889a17.492,17.492,0,0,0-3.8,1.27,13.634,13.634,0,0,1-5.711,1.469,13.69,13.69,0,0,1-6.043-2.086,13.006,13.006,0,0,0-5.12-1.894c-2.322-.151-4.452.95-6.708,2.117C64.053,74.791,61.782,75.965,59.236,75.965Z" transform="translate(0 -12.102)"/>
    <path id="Path_151948" data-name="Path 151948" d="M63.556,84.242a.827.827,0,0,1-.827-.827V34.975a.827.827,0,0,1,1.654,0V83.415A.827.827,0,0,1,63.556,84.242Z" transform="translate(-10.558 -5.915)"/>
    <path id="Path_151949" data-name="Path 151949" d="M69.383,54.384S67.9,29.25,93.762,34.972C93.762,34.972,93.55,58.411,69.383,54.384Z" transform="translate(-11.708 -5.911)" fill="#8ad24a"/>
    <path id="Path_151950" data-name="Path 151950" d="M74.512,55.5a33.143,33.143,0,0,1-5.439-.477.827.827,0,0,1-.69-.766c-.027-.458-.579-11.275,6.491-17.3,4.416-3.764,10.773-4.761,18.893-2.966a.827.827,0,0,1,.648.814c0,.429-.177,10.561-7.3,16.535-3.3,2.771-7.525,4.163-12.607,4.163Zm-4.492-2c6.748,1,12.139-.155,16.035-3.426,5.539-4.651,6.505-12.319,6.671-14.616-7.259-1.479-12.9-.553-16.783,2.755-5.5,4.693-5.921,12.913-5.922,15.287Z" transform="translate(-11.534 -5.738)"/>
    <path id="Path_151951" data-name="Path 151951" d="M63.557,60.051a.827.827,0,0,1-.523-1.468L83.769,41.669a.827.827,0,1,1,1.045,1.281L64.078,59.865a.827.827,0,0,1-.522.186Z" transform="translate(-10.558 -7.186)"/>
    <path id="Path_151952" data-name="Path 151952" d="M75.648,53.219l4.784.274" transform="translate(-12.796 -9.219)" fill="#65b54e"/>
    <path id="Path_151953" data-name="Path 151953" d="M80.26,54.147h-.049l-4.784-.274a.828.828,0,0,1,.1-1.654l4.784.274a.827.827,0,0,1-.047,1.654Z" transform="translate(-12.622 -9.046)"/>
    <path id="Path_151954" data-name="Path 151954" d="M86.569,47.948H82.738a.827.827,0,1,1,0-1.654h3.831a.827.827,0,0,1,0,1.654Z" transform="translate(-13.881 -8.019)"/>
    <path id="Path_151955" data-name="Path 151955" d="M79.969,48.824l.308-4.15" transform="translate(-13.544 -7.739)" fill="#65b54e"/>
    <path id="Path_151956" data-name="Path 151956" d="M79.8,49.478h-.062a.827.827,0,0,1-.763-.885l.308-4.151a.813.813,0,0,1,.885-.763.827.827,0,0,1,.763.885l-.308,4.151A.827.827,0,0,1,79.8,49.478Z" transform="translate(-13.371 -7.566)"/>
    <path id="Path_151957" data-name="Path 151957" d="M52.965,54.384S54.449,29.25,28.586,34.972C28.586,34.972,28.8,58.411,52.965,54.384Z" transform="translate(-4.643 -5.911)" fill="#8ad24a"/>
    <path id="Path_151958" data-name="Path 151958" d="M47.488,55.5c-5.081,0-9.307-1.392-12.606-4.161-7.119-5.976-7.292-16.108-7.3-16.535a.827.827,0,0,1,.648-.815c8.121-1.8,14.478-.8,18.893,2.966,7.071,6.029,6.518,16.845,6.491,17.3a.827.827,0,0,1-.69.766,33.144,33.144,0,0,1-5.44.476ZM29.274,35.46c.169,2.3,1.144,9.984,6.68,14.624,3.9,3.265,9.283,4.413,16.024,3.419,0-2.38-.433-10.612-5.932-15.3C42.167,34.906,36.527,33.982,29.274,35.46Z" transform="translate(-4.47 -5.738)"/>
    <path id="Path_151959" data-name="Path 151959" d="M59.212,60.051a.827.827,0,0,1-.522-.186L37.956,42.951A.827.827,0,0,1,39,41.669L59.734,58.584a.827.827,0,0,1-.523,1.468Z" transform="translate(-6.214 -7.186)"/>
    <path id="Path_151960" data-name="Path 151960" d="M50.809,53.219l-4.784.274" transform="translate(-7.664 -9.219)" fill="#65b54e"/>
    <path id="Path_151961" data-name="Path 151961" d="M45.846,54.147a.827.827,0,1,1-.047-1.654l4.783-.274a.827.827,0,0,1,.1,1.651l-4.783.274Z" transform="translate(-7.486 -9.046)"/>
    <path id="Path_151962" data-name="Path 151962" d="M43.745,47.294H39.914" transform="translate(-6.606 -8.193)" fill="#65b54e"/>
    <path id="Path_151963" data-name="Path 151963" d="M43.572,47.948H39.741a.827.827,0,1,1,0-1.654h3.831a.827.827,0,0,1,0,1.654Z" transform="translate(-6.433 -8.019)"/>
    <path id="Path_151964" data-name="Path 151964" d="M47.427,48.824l-.308-4.15" transform="translate(-7.854 -7.739)" fill="#65b54e"/>
    <path id="Path_151965" data-name="Path 151965" d="M47.251,49.482a.827.827,0,0,1-.827-.766l-.307-4.151a.827.827,0,0,1,1.649-.122l.307,4.151a.827.827,0,0,1-.764.885Z" transform="translate(-7.68 -7.57)"/>
    <path id="Path_151966" data-name="Path 151966" d="M62.127,32.163S82.589,17.484,61.851,1C61.851,1,43.777,15.928,62.127,32.163Z" transform="translate(-9.028 -0.173)" fill="#8ad24a"/>
    <path id="Path_151967" data-name="Path 151967" d="M61.953,32.816a.827.827,0,0,1-.548-.208c-5.741-5.077-8.6-10.576-8.506-16.337C53.059,6.978,60.82.462,61.151.189a.827.827,0,0,1,1.041-.01c6.511,5.176,9.739,10.741,9.6,16.543-.229,9.289-8.98,15.672-9.352,15.935a.827.827,0,0,1-.482.159Zm-.248-30.9c-1.68,1.58-7.034,7.176-7.151,14.4-.083,5.082,2.42,9.992,7.441,14.6,1.846-1.5,7.97-7.02,8.143-14.239.118-5.1-2.717-10.058-8.433-14.759Z" transform="translate(-8.855 0)"/>
    <path id="Path_151968" data-name="Path 151968" d="M63.678,34.971h-.011a.827.827,0,0,1-.816-.837l.255-20.88a.827.827,0,0,1,.827-.817h.011a.827.827,0,0,1,.816.837L64.5,34.15a.827.827,0,0,1-.827.82Z" transform="translate(-10.579 -2.154)"/>
    <path id="Path_151969" data-name="Path 151969" d="M63.178,29.4l-2.971-3.262" transform="translate(-10.121 -4.528)" fill="#65b54e"/>
    <path id="Path_151970" data-name="Path 151970" d="M63,30.053a.827.827,0,0,1-.611-.27l-2.971-3.263a.827.827,0,1,1,1.223-1.114l2.971,3.263a.827.827,0,0,1-.611,1.383Z" transform="translate(-9.948 -4.354)"/>
    <path id="Path_151971" data-name="Path 151971" d="M63.631,20.425l-2.413-2.976" transform="translate(-10.296 -3.023)" fill="#65b54e"/>
    <path id="Path_151972" data-name="Path 151972" d="M63.459,21.078a.827.827,0,0,1-.642-.306L60.4,17.8a.827.827,0,1,1,1.284-1.042L64.1,19.73a.827.827,0,0,1-.641,1.348Z" transform="translate(-10.123 -2.849)"/>
    <path id="Path_151973" data-name="Path 151973" d="M64.125,24.247l3.031-2.853" transform="translate(-10.8 -3.706)" fill="#65b54e"/>
    <g id="Group_97149" data-name="Group 97149" transform="translate(35.313 16.861)">
      <path id="Path_151974" data-name="Path 151974" d="M63.952,24.9a.827.827,0,0,1-.567-1.429l3.031-2.853a.827.827,0,1,1,1.134,1.2l-3.031,2.853a.827.827,0,0,1-.566.225Z" transform="translate(-45.94 -20.394)"/>
      <path id="Path_151975" data-name="Path 151975" d="M43.165,92.648a.814.814,0,0,1-.346-.077.827.827,0,0,1-.4-1.1A19.876,19.876,0,0,1,60.053,79.441a.827.827,0,0,1,.8.854.8.8,0,0,1-.853.8c-.429-.014-10.851-.217-16.08,11.075a.827.827,0,0,1-.752.48Z" transform="translate(-42.339 -30.622)"/>
      <path id="Path_151976" data-name="Path 151976" d="M51.531,96.479a.827.827,0,0,1-.8-1.046c2.135-7.792-.248-10.252-.274-10.278a.827.827,0,1,1,1.119-1.218c.131.121,3.184,3.051.751,11.932A.827.827,0,0,1,51.531,96.479Z" transform="translate(-43.699 -31.364)"/>
      <path id="Path_151977" data-name="Path 151977" d="M80.414,89.881A.827.827,0,0,1,79.8,89.6c-7.491-8.445-15.626-5.8-15.971-5.68a.827.827,0,0,1-.539-1.563c.384-.133,9.5-3.154,17.747,6.146a.827.827,0,0,1-.618,1.376Z" transform="translate(-45.871 -31.029)"/>
      <path id="Path_151978" data-name="Path 151978" d="M76.095,84.56a.827.827,0,0,1-.683-1.291c.035-.05,3.483-5.014,9.145-3.233a.827.827,0,1,1-.5,1.577c-4.5-1.419-7.252,2.544-7.276,2.584A.827.827,0,0,1,76.095,84.56Z" transform="translate(-48.044 -30.659)"/>
    </g>
    <path id="Path_151979" data-name="Path 151979" d="M98.793,104.192l-2.688,4.47a.846.846,0,0,1-.176.209l-1.658,1.442a.88.88,0,0,1-1.038.088l-.31-.188a.882.882,0,0,1-.405-.579l-.083-.409a.882.882,0,0,0-1.309-.585l-.157.092a.888.888,0,0,1-.9-.008l-.609-.37a.887.887,0,0,1-.421-.8l.009-.182a.885.885,0,0,0-1.125-.894l-.4.114a.884.884,0,0,1-.7-.1l-.308-.188a.88.88,0,0,1-.4-.961l.513-2.137a.947.947,0,0,1,.1-.252l2.688-4.47a.656.656,0,0,1,.4-.3l.668-.165a.678.678,0,0,0,.274-.141.579.579,0,0,0,.129-.15l2.465-4.1a.624.624,0,0,0,.091-.279.633.633,0,0,0-.1-.413.656.656,0,0,1-.012-.7l.818-1.348c1.767-2.909,5.649-2.422,5.649-2.422l1.314-2.162,1.531.93,1.531.93-1.314,2.162s2.224,3.224.456,6.131l-.818,1.348a.656.656,0,0,1-.625.312.633.633,0,0,0-.413.1.624.624,0,0,0-.206.209l-2.465,4.1a.57.57,0,0,0-.074.184.615.615,0,0,0,0,.307l.165.671a.653.653,0,0,1-.087.494Z" transform="translate(-14.604 -14.952)" fill="#81dafc"/>
    <path id="Path_151980" data-name="Path 151980" d="M93.524,111.18a1.714,1.714,0,0,1-.891-.248l-.31-.188a1.711,1.711,0,0,1-.785-1.117l-.083-.405-.083-.041-.157.092a1.714,1.714,0,0,1-1.751-.016l-.609-.37a1.711,1.711,0,0,1-.817-1.544l.009-.183-.3-.853.227.8-.4.114a1.723,1.723,0,0,1-1.358-.184l-.307-.187a1.7,1.7,0,0,1-.775-1.864l.513-2.134a1.8,1.8,0,0,1,.2-.489l2.685-4.465a1.488,1.488,0,0,1,.917-.672l.6-.148,2.37-3.945a1.488,1.488,0,0,1,.031-1.488l.818-1.348c1.616-2.661,4.675-2.876,5.908-2.848l1.054-1.736a.827.827,0,0,1,1.136-.277l3.059,1.86a.827.827,0,0,1,.277,1.136l-1.053,1.736c.6,1.095,1.813,3.9.2,6.558l-.819,1.347a1.512,1.512,0,0,1-1.3.712l-2.371,3.948.146.6a1.481,1.481,0,0,1-.174,1.117l-2.687,4.465a1.675,1.675,0,0,1-.354.413l-1.646,1.445a1.69,1.69,0,0,1-1.118.413ZM91.4,107.516a1.708,1.708,0,0,1,1.674,1.366l.083.405.336.228,1.722-1.447,2.664-4.425-.146-.6a1.446,1.446,0,0,1,.008-.722,1.279,1.279,0,0,1,.165-.4l2.46-4.1a1.455,1.455,0,0,1,.484-.489,1.386,1.386,0,0,1,.821-.224l.765-1.258c1.472-2.422-.413-5.2-.431-5.231a.827.827,0,0,1-.026-.9l.884-1.456-1.649-1-.884,1.455a.827.827,0,0,1-.809.391c-.031,0-3.379-.374-4.839,2.03l-.761,1.264a1.456,1.456,0,0,1,.177.866,1.416,1.416,0,0,1-.205.616l-2.463,4.1a1.418,1.418,0,0,1-.313.363,1.493,1.493,0,0,1-.6.307l-.6.148-2.646,4.405-.523,2.156.331.248.444-.107A1.712,1.712,0,0,1,89.7,107.24l-.009.184.634.42.215-.091a1.7,1.7,0,0,1,.861-.232Z" transform="translate(-14.431 -14.778)"/>
    <path id="Path_151981" data-name="Path 151981" d="M102.229,99.912a.624.624,0,0,1,.206-.209l-8.01-4.866a.624.624,0,0,1-.091.279l-2.461,4.1a.579.579,0,0,1-.129.15l7.949,4.829a.57.57,0,0,1,.074-.184Z" transform="translate(-15.584 -16.428)" fill="#fde947"/>
    <path id="Path_151982" data-name="Path 151982" d="M99.516,104.851a.827.827,0,0,1-.43-.121L91.137,99.9a.827.827,0,0,1-.1-1.344l2.394-4.007a.827.827,0,0,1,1.248-.594l8.009,4.866a.827.827,0,0,1,.051,1.379l-2.427,4.04a.827.827,0,0,1-.8.609Zm-6.788-5.919,6.481,3.938,1.861-3.1-6.478-3.937Z" transform="translate(-15.41 -16.255)"/>
    <rect id="Rectangle_33279" data-name="Rectangle 33279" width="2.966" height="4.447" rx="0.468" transform="matrix(0.519, -0.855, 0.855, 0.519, 85.325, 72.54)" fill="#84879c"/>
    <path id="Path_151983" data-name="Path 151983" d="M106.347,90.114a1.206,1.206,0,0,1-.627-.174l-3.142-1.908a1.214,1.214,0,0,1-.406-1.669l1.137-1.872a1.217,1.217,0,0,1,1.668-.407l3.142,1.907a1.217,1.217,0,0,1,.408,1.667l-1.139,1.874a1.218,1.218,0,0,1-1.041.582Zm-2.529-3.268,2.388,1.451.681-1.122L104.5,85.72Z" transform="translate(-17.36 -14.535)"/>
    <path id="Path_151984" data-name="Path 151984" d="M17.156,85.938a14.441,14.441,0,0,0,5.539,4.1,1.664,1.664,0,0,1,.346,2.328l-4.452,6.01a1.664,1.664,0,0,1-2.328.346,16.337,16.337,0,0,0-5.539-4.1L9.183,96.7l18.368,13.609L37.068,97.47,18.7,83.86Z" transform="translate(-1.282 -14.527)" fill="#f0f5f9"/>
    <path id="Path_151985" data-name="Path 151985" d="M27.52,110.768,8.484,96.67l1.984-2.68.305.141A16.836,16.836,0,0,1,16.416,98.3a1.252,1.252,0,0,0,1.716-.285L22.585,92a1.252,1.252,0,0,0-.229-1.725,14.692,14.692,0,0,1-5.649-4.206l-.189-.248,1.971-2.661,19.036,14.1ZM9.641,96.495l17.707,13.118,9.021-12.177L18.662,84.317l-1.105,1.488a14.277,14.277,0,0,0,5.189,3.735l.073.043a2.078,2.078,0,0,1,.432,2.907L18.8,98.5a2.078,2.078,0,0,1-2.906.432l-.065-.06a15.939,15.939,0,0,0-5.1-3.852Z" transform="translate(-1.161 -14.406)" fill="#2f3a5a"/>
    <path id="Path_151986" data-name="Path 151986" d="M20.532,83.86,38.9,97.47l-9.513,12.841-1.124-.833,8.763-11.829L19.782,84.872Z" transform="translate(-3.118 -14.527)" fill="#d9e2e9"/>
    <path id="Path_151987" data-name="Path 151987" d="M27.378,110.964a.827.827,0,0,1-.492-.165L8.518,97.2a.827.827,0,0,1-.172-1.157L9.885,93.96a.827.827,0,0,1,.992-.268,16.885,16.885,0,0,1,5.753,4.231.819.819,0,0,0,.567.118.833.833,0,0,0,.55-.331L22.2,91.7a.838.838,0,0,0-.112-1.124c-2.84-1.285-4.682-2.671-5.792-4.358a.827.827,0,0,1,.026-.947l1.539-2.078a.827.827,0,0,1,1.157-.172l18.37,13.61a.827.827,0,0,1,.172,1.157l-9.513,12.84a.827.827,0,0,1-.668.335ZM10.166,96.356l17.046,12.625,8.526-11.512L18.7,84.843l-.687.928a12.567,12.567,0,0,0,4.85,3.341.869.869,0,0,1,.155.09,2.491,2.491,0,0,1,.518,3.485L19.081,98.7a2.49,2.49,0,0,1-3.485.518.853.853,0,0,1-.117-.105,15.825,15.825,0,0,0-4.662-3.629Z" transform="translate(-1.109 -14.354)"/>
  </g>
</svg>
