<svg xmlns="http://www.w3.org/2000/svg" width="181" height="182" viewBox="0 0 181 182">
  <g id="t4-ic1" transform="translate(-290.5 -824)">
    <ellipse id="Ellipse_4389" data-name="Ellipse 4389" cx="90.5" cy="91" rx="90.5" ry="91" transform="translate(290.5 824)" fill="#fff"/>
    <g id="ambiente" transform="translate(325.5 864.998)">
      <path id="Path_151025" data-name="Path 151025" d="M202.632,71.589a19.838,19.838,0,0,0,4.006-.461l4.638-10.835c.235-.549.619-.549.854,0l2.883,6.735a19.8,19.8,0,0,0-8.178-34.53,19.8,19.8,0,1,0-38.224,0A19.837,19.837,0,0,0,156.2,41.432L163.137,52.4c.32.5.092.918-.505.918h-4.57c-.6,0-.832.418-.522.928l8.551,14.087,3.443-8.044c.235-.549.619-.549.854,0l7.685,17.955a16.205,16.205,0,0,0,24.56-6.66Zm0,0" transform="translate(-122.284 -5.871)" fill="#fad046"/>
      <path id="Path_151026" data-name="Path 151026" d="M67.762,164.34l-2.4-4.062c-.3-.514-.064-.935.533-.935H69.9l.795-1.857L62.143,143.4c-.31-.511-.075-.928.522-.928h4.57c.6,0,.825-.413.506-.918l-12.519-19.8a.634.634,0,0,0-1.16,0l-12.517,19.8c-.319.5-.092.918.506.918h4.571c.6,0,.832.418.522.928l-9.115,15.016c-.31.511-.075.928.522.928H43.4c.6,0,.836.421.533.935l-9.449,15.978c-.3.514-.064.935.533.935H62.26Zm0,0" transform="translate(-26.889 -95.02)" fill="#6fa83b"/>
      <path id="Path_151027" data-name="Path 151027" d="M181.6,282.364a.665.665,0,0,0,.659-1l-13.784-32.2c-.235-.549-.62-.549-.855,0l-13.785,32.2a.665.665,0,0,0,.658,1Zm0,0" transform="translate(-120.366 -194.739)" fill="#8ad24a"/>
      <path id="Path_151028" data-name="Path 151028" d="M373.846,282.364a.665.665,0,0,0,.659-1l-13.784-32.2c-.235-.549-.62-.549-.855,0l-13.785,32.2a.665.665,0,0,0,.659,1Zm0,0" transform="translate(-270.874 -194.739)" fill="#8ad24a"/>
      <path id="Path_151029" data-name="Path 151029" d="M303.971,53.941,301.934,51.9a1.628,1.628,0,1,0-2.3,2.3l2.037,2.036a1.628,1.628,0,1,0,2.3-2.3Zm0,0" transform="translate(-234.2 -40.261)"/>
      <path id="Path_151030" data-name="Path 151030" d="M317.145,110.418a1.628,1.628,0,1,0,2.3-2.3l-2.036-2.037a1.628,1.628,0,1,0-2.3,2.3Zm0,0" transform="translate(-246.316 -82.672)"/>
      <path id="Path_151031" data-name="Path 151031" d="M248.772,116.03a1.628,1.628,0,0,0,0,2.3l2.036,2.037a1.629,1.629,0,1,0,2.3-2.3l-2.036-2.037A1.629,1.629,0,0,0,248.772,116.03Zm0,0" transform="translate(-194.383 -90.463)"/>
      <path id="Path_151032" data-name="Path 151032" d="M384.589,175.651a1.629,1.629,0,1,0,2.3-2.3l-2.036-2.036a1.629,1.629,0,1,0-2.3,2.3Zm0,0" transform="translate(-299.116 -133.741)"/>
      <path id="Path_151033" data-name="Path 151033" d="M222.329,178.48a1.629,1.629,0,0,0-2.3,2.3l2.037,2.037a1.628,1.628,0,1,0,2.3-2.3Zm0,0" transform="translate(-171.879 -139.354)"/>
      <path id="Path_151034" data-name="Path 151034" d="M371.495,231.014a1.628,1.628,0,0,0,0,2.3l2.037,2.037a1.628,1.628,0,0,0,2.3-2.3l-2.036-2.037A1.629,1.629,0,0,0,371.495,231.014Zm0,0" transform="translate(-290.46 -180.481)"/>
      <path id="Path_151035" data-name="Path 151035" d="M109.54,96.744H90.591v-7.49h12.38a2.285,2.285,0,0,0,2.156-3.267l-3.689-8.616a1.628,1.628,0,0,0-2.994,1.282L101.589,86h-11V79.821a1.628,1.628,0,1,0-3.257,0V86H77.248L89.419,57.563l5.867,13.706a1.628,1.628,0,0,0,2.994-1.282L94.688,61.6c.218-.2.433-.407.643-.619a21.426,21.426,0,0,0,1.449-28.492,21.559,21.559,0,0,0-10.292-7.018,21.4,21.4,0,0,0,.383-4.035,1.628,1.628,0,0,0-3.257,0A18.236,18.236,0,0,1,82.98,26.2a1.627,1.627,0,0,0,1.205,2.013A18.261,18.261,0,0,1,94.246,34.53a18.159,18.159,0,0,1-.936,23.845l-1.966-4.594a2.023,2.023,0,0,0-3.849,0L83.2,63.82a18.216,18.216,0,0,1-2.871.269,1.627,1.627,0,0,0-1.476.989,14.562,14.562,0,0,1-11.783,8.769V55.117l7.8-7.806a1.628,1.628,0,1,0-2.3-2.3l-5.5,5.5V42.438a1.628,1.628,0,1,0-3.257,0V61.552L58.548,56.29a1.629,1.629,0,0,0-2.3,2.3l7.565,7.565v7.688a14.551,14.551,0,0,1-6.7-2.519L49.6,53.781a2.023,2.023,0,0,0-3.849,0l-2.2,5.134-5.97-9.835h2.762a2.157,2.157,0,0,0,1.882-3.416L35.853,35.577c.247-.355.5-.706.78-1.047a18.257,18.257,0,0,1,10.06-6.316A1.629,1.629,0,0,0,47.9,26.2,18.179,18.179,0,0,1,82.277,14.574a1.628,1.628,0,0,0,3.015-1.23,21.435,21.435,0,0,0-40.9,12.123A21.566,21.566,0,0,0,34.1,32.486c-.037.047-.072.095-.109.142l-4.277-6.766a2.253,2.253,0,0,0-3.914,0l-12.517,19.8a2.157,2.157,0,0,0,1.882,3.416h2.762L9.747,62.55a2.171,2.171,0,0,0,1.915,3.4h3.075L6.188,80.407A2.18,2.18,0,0,0,8.123,83.8h7.945a1.628,1.628,0,1,0,0-3.257H9.892l8.548-14.456a2.179,2.179,0,0,0-1.935-3.391H13.469l8.178-13.471a2.171,2.171,0,0,0-1.914-3.4h-2.7l10.721-16.96,10.723,16.96h-2.7a2.171,2.171,0,0,0-1.914,3.4L41.979,62.6l-.042.1H39a2.18,2.18,0,0,0-1.935,3.392l1.982,3.351L34.3,80.541H23.884a1.628,1.628,0,0,0,0,3.257h1.9V96.744H1.629a1.628,1.628,0,0,0,0,3.257H109.54a1.628,1.628,0,0,0,0-3.257ZM81.407,67.308c.1-.006.2-.015.307-.023l-8,18.7a2.285,2.285,0,0,0,2.156,3.267H87.334v7.49H67.068V77.118a17.815,17.815,0,0,0,14.34-9.811Zm-17.6,9.812V96.744H48.848v-7.49h12.38a2.285,2.285,0,0,0,2.156-3.267l-4.257-9.945a17.782,17.782,0,0,0,4.683,1.079ZM47.676,57.563,59.846,86h-11V79.822a1.628,1.628,0,1,0-3.257,0V86H35.505ZM29.04,83.8H32.9l-.936,2.188a2.285,2.285,0,0,0,2.156,3.267H45.592v7.49H29.04Zm0,0" transform="translate(0)"/>
    </g>
  </g>
</svg>
