<svg xmlns="http://www.w3.org/2000/svg" width="295" height="210" viewBox="0 0 295 210">
  <g id="t5-ic1" transform="translate(-285.5 -966)">
    <rect id="Rectangle_33165" data-name="Rectangle 33165" width="295" height="210" transform="translate(285.5 966)" fill="none" opacity="0.2"/>
    <g id="Group_97060" data-name="Group 97060" transform="translate(333.5 970)">
      <g id="Group_97016" data-name="Group 97016" transform="translate(49.953)">
        <path id="Path_151723" data-name="Path 151723" d="M4546.472-907.975a98.636,98.636,0,0,1,28.924,71.552,103.225,103.225,0,0,1-17.152,55.735.855.855,0,0,1-1.185.243.855.855,0,0,1-.243-1.186,101.52,101.52,0,0,0,16.869-54.813,96.937,96.937,0,0,0-28.423-70.322,96.935,96.935,0,0,0-70.322-28.423,101.917,101.917,0,0,0-48.312,12.915.856.856,0,0,1-1.164-.33.857.857,0,0,1,.33-1.164A103.636,103.636,0,0,1,4474.92-936.9,98.633,98.633,0,0,1,4546.472-907.975Z" transform="translate(-4425.355 936.907)" fill="#0f2771"/>
      </g>
      <g id="Group_97017" data-name="Group 97017" transform="translate(0 32.22)">
        <path id="Path_151724" data-name="Path 151724" d="M4248.356-805.317a.855.855,0,0,1,.023,1.186c-2.04,2.2-3.995,4.532-5.812,6.92a.855.855,0,0,1-1.2.163.855.855,0,0,1-.163-1.2c1.85-2.432,3.84-4.8,5.917-7.046a.855.855,0,0,1,1.208-.047Zm139.385,144.195a.806.806,0,0,1,.069.078.855.855,0,0,1-.145,1.2c-2.5,1.965-4.982,3.8-7.365,5.461a.854.854,0,0,1-1.19-.213.855.855,0,0,1,.212-1.191c2.356-1.64,4.808-3.458,7.286-5.4A.855.855,0,0,1,4387.741-661.122Zm-150.414-129.7a.857.857,0,0,1,.122,1.054c-1.579,2.553-3.053,5.213-4.379,7.906a.856.856,0,0,1-1.146.389.856.856,0,0,1-.39-1.146c1.352-2.742,2.852-5.451,4.46-8.05a.855.855,0,0,1,1.177-.278A.829.829,0,0,1,4237.327-790.818Zm135.427,140.069a.883.883,0,0,1,.131.17.856.856,0,0,1-.3,1.172c-2.706,1.6-5.437,3.055-8.116,4.323a.855.855,0,0,1-1.139-.407.855.855,0,0,1,.407-1.14c2.631-1.245,5.315-2.675,7.977-4.249A.857.857,0,0,1,4372.753-650.749ZM4229.272-774.475a.856.856,0,0,1,.2.908c-1.063,2.809-2,5.7-2.79,8.6a.856.856,0,0,1-1.05.6.856.856,0,0,1-.6-1.05c.8-2.949,1.759-5.894,2.84-8.754a.856.856,0,0,1,1.1-.5A.858.858,0,0,1,4229.272-774.475Zm127,131.483a.841.841,0,0,1,.2.322.855.855,0,0,1-.524,1.09,87.143,87.143,0,0,1-8.833,2.582.856.856,0,0,1-1.03-.635.856.856,0,0,1,.635-1.03,85.367,85.367,0,0,0,8.661-2.532A.855.855,0,0,1,4356.275-642.991Zm-131.788-113.9a.855.855,0,0,1,.239.75c-.507,2.965-.874,5.984-1.088,8.972a.856.856,0,0,1-.915.792.855.855,0,0,1-.792-.915c.218-3.044.591-6.118,1.108-9.138a.856.856,0,0,1,.987-.7A.855.855,0,0,1,4224.488-756.892Zm114.081,118.138a.853.853,0,0,1,.241.484.856.856,0,0,1-.727.968c-2.889.412-5.875.727-9.127.964a.855.855,0,0,1-.915-.791.855.855,0,0,1,.791-.915c3.213-.234,6.16-.545,9.01-.951A.855.855,0,0,1,4338.568-638.754Zm-115.377-99.961a.858.858,0,0,1,.25.58c.082,2.788.292,5.919.607,9.054a.855.855,0,0,1-.765.937.854.854,0,0,1-.937-.765c-.321-3.175-.533-6.349-.617-9.177a.857.857,0,0,1,.831-.88A.854.854,0,0,1,4223.191-738.715Zm97.2,101.168a.856.856,0,0,1,.249.667.856.856,0,0,1-.915.792c-2.961-.214-6.036-.588-9.138-1.113a.855.855,0,0,1-.7-.986.855.855,0,0,1,.986-.7c3.049.516,6.069.884,8.977,1.093A.853.853,0,0,1,4320.389-637.546Zm-95.39-83a.854.854,0,0,1,.239.466c.5,3.032,1.086,6.028,1.752,8.9a.855.855,0,0,1-.64,1.027.857.857,0,0,1-1.027-.64c-.675-2.913-1.272-5.947-1.774-9.015a.855.855,0,0,1,.707-.983A.853.853,0,0,1,4225-720.545Zm77.407,80a.854.854,0,0,1,.225.818.856.856,0,0,1-1.041.617c-2.924-.748-5.889-1.628-8.811-2.615a.856.856,0,0,1-.536-1.084.855.855,0,0,1,1.084-.537c2.882.973,5.8,1.841,8.688,2.578A.85.85,0,0,1,4302.406-640.55Zm-73.251-62.224a.871.871,0,0,1,.21.348c.935,2.977,1.978,5.837,3.1,8.5a.855.855,0,0,1-.457,1.12.855.855,0,0,1-1.12-.456c-1.143-2.715-2.2-5.627-3.156-8.654a.856.856,0,0,1,.56-1.073A.857.857,0,0,1,4229.155-702.773Zm55.972,56.4a.857.857,0,0,1,.184.937.857.857,0,0,1-1.121.457c-2.823-1.188-5.627-2.49-8.334-3.868a.856.856,0,0,1-.375-1.151.856.856,0,0,1,1.151-.374c2.67,1.36,5.437,2.644,8.221,3.815A.856.856,0,0,1,4285.127-646.378Zm-16.25-8.286a.856.856,0,0,1,.126,1.05.856.856,0,0,1-1.176.286c-2.652-1.615-5.228-3.331-7.656-5.1a.855.855,0,0,1-.187-1.2.856.856,0,0,1,1.2-.188c2.39,1.741,4.926,3.431,7.538,5.022A.845.845,0,0,1,4268.877-654.664ZM4236.3-686.006a.832.832,0,0,1,.138.182,57.672,57.672,0,0,0,5.023,7.447.855.855,0,0,1-.133,1.2.853.853,0,0,1-1.2-.132,59.228,59.228,0,0,1-5.174-7.669.855.855,0,0,1,.319-1.167A.856.856,0,0,1,4236.3-686.006Zm17.858,20.581a.856.856,0,0,1,.037,1.17.856.856,0,0,1-1.208.077,86.644,86.644,0,0,1-6.588-6.442.856.856,0,0,1,.053-1.208.848.848,0,0,1,1.209.053,84.822,84.822,0,0,0,6.456,6.313C4254.13-665.45,4254.144-665.437,4254.156-665.424Z" transform="translate(-4221.729 805.568)" fill="#0f2771"/>
      </g>
      <g id="Group_97059" data-name="Group 97059" transform="translate(23.313 21.323)">
        <g id="Group_97023" data-name="Group 97023" transform="translate(0 0)">
          <g id="Group_97021" data-name="Group 97021" transform="translate(11.179 1.775)">
            <g id="Group_97018" data-name="Group 97018" transform="translate(9.505)">
              <path id="Path_151725" data-name="Path 151725" d="M4402.17-815.965a1.09,1.09,0,0,1-.73-.28,1.093,1.093,0,0,1-.083-1.544,75.928,75.928,0,0,1,6.138-6.091,1.093,1.093,0,0,1,1.543.094,1.093,1.093,0,0,1-.094,1.543,73.86,73.86,0,0,0-5.96,5.916A1.091,1.091,0,0,1,4402.17-815.965Zm12.744-11.277a1.092,1.092,0,0,1-.9-.467,1.094,1.094,0,0,1,.27-1.523,75.815,75.815,0,0,1,7.358-4.541,1.093,1.093,0,0,1,1.481.442,1.092,1.092,0,0,1-.441,1.482,73.461,73.461,0,0,0-7.145,4.41A1.093,1.093,0,0,1,4414.914-827.242Zm14.968-8.09a1.093,1.093,0,0,1-1.015-.687,1.093,1.093,0,0,1,.608-1.421,75.182,75.182,0,0,1,8.2-2.743,1.094,1.094,0,0,1,1.342.769,1.093,1.093,0,0,1-.77,1.341,72.976,72.976,0,0,0-7.96,2.663A1.094,1.094,0,0,1,4429.882-835.332Zm41.866-3.866a1.068,1.068,0,0,1-.211-.021c-2.186-.429-4.422-.763-6.647-.993q-.838-.087-1.673-.154a1.094,1.094,0,0,1-1-1.178,1.094,1.094,0,0,1,1.179-1q.86.07,1.723.159c2.291.237,4.592.581,6.842,1.023a1.093,1.093,0,0,1,.862,1.283A1.093,1.093,0,0,1,4471.749-839.2Zm-25.45-.589a1.093,1.093,0,0,1-1.08-.931,1.093,1.093,0,0,1,.918-1.244,75.155,75.155,0,0,1,8.61-.789,1.1,1.1,0,0,1,1.13,1.056,1.094,1.094,0,0,1-1.056,1.13,72.967,72.967,0,0,0-8.359.765A1.092,1.092,0,0,1,4446.3-839.787Z" transform="translate(-4401.077 842.751)" fill="#0f2771"/>
            </g>
            <g id="Group_97019" data-name="Group 97019" transform="translate(0 110.325)">
              <path id="Path_151726" data-name="Path 151726" d="M4409.38-355.311a1.1,1.1,0,0,1-.275-.035,75.136,75.136,0,0,1-8.23-2.656,1.093,1.093,0,0,1-.624-1.415,1.093,1.093,0,0,1,1.415-.624,72.974,72.974,0,0,0,7.99,2.578,1.093,1.093,0,0,1,.783,1.333A1.093,1.093,0,0,1,4409.38-355.311Zm-15.865-6.154a1.088,1.088,0,0,1-.509-.127,75.243,75.243,0,0,1-7.4-4.474,1.093,1.093,0,0,1-.283-1.52,1.092,1.092,0,0,1,1.52-.283,73.046,73.046,0,0,0,7.186,4.343,1.094,1.094,0,0,1,.456,1.477A1.092,1.092,0,0,1,4393.515-361.465Zm-14.031-9.627a1.086,1.086,0,0,1-.718-.269,75.847,75.847,0,0,1-6.186-6.042,1.093,1.093,0,0,1,.07-1.544,1.093,1.093,0,0,1,1.544.07,73.747,73.747,0,0,0,6.008,5.868,1.093,1.093,0,0,1,.106,1.543A1.091,1.091,0,0,1,4379.484-371.092Zm-11.472-12.567a1.09,1.09,0,0,1-.887-.453,75.829,75.829,0,0,1-4.655-7.287,1.094,1.094,0,0,1,.419-1.488,1.094,1.094,0,0,1,1.489.419,73.682,73.682,0,0,0,4.52,7.077,1.094,1.094,0,0,1-.247,1.527A1.085,1.085,0,0,1,4368.012-383.659Z" transform="translate(-4362.331 393.027)" fill="#0f2771"/>
            </g>
            <g id="Group_97020" data-name="Group 97020" transform="translate(129.994 85.137)">
              <path id="Path_151727" data-name="Path 151727" d="M4893.322-469.363a1.093,1.093,0,0,1-.519-.131,1.093,1.093,0,0,1-.443-1.482,72.783,72.783,0,0,0,3.551-7.608,1.1,1.1,0,0,1,1.42-.612,1.094,1.094,0,0,1,.611,1.42,74.932,74.932,0,0,1-3.658,7.838A1.093,1.093,0,0,1,4893.322-469.363Zm6.294-15.811a1.1,1.1,0,0,1-.285-.038,1.092,1.092,0,0,1-.771-1.34,73.654,73.654,0,0,0,1.714-8.221,1.1,1.1,0,0,1,1.243-.919,1.094,1.094,0,0,1,.92,1.243,75.883,75.883,0,0,1-1.767,8.466A1.093,1.093,0,0,1,4899.616-485.174Z" transform="translate(-4892.229 495.704)" fill="#0f2771"/>
            </g>
          </g>
          <g id="Group_97022" data-name="Group 97022">
            <circle id="Ellipse_4415" data-name="Ellipse 4415" cx="54.431" cy="54.431" r="54.431" transform="translate(0 76.977) rotate(-45)" fill="#fde947"/>
          </g>
        </g>
        <g id="Group_97041" data-name="Group 97041" transform="translate(3.237 22.022)">
          <g id="Group_97024" data-name="Group 97024" transform="translate(8.162 53.054)">
            <path id="Path_151728" data-name="Path 151728" d="M4367.041-514.247l4.907-.014a13.7,13.7,0,0,0,1.306,1.595c2.446,2.544,6.654,4.035,10.162,4.176v-31.643l-12.716,6.639-3.557.009Z" transform="translate(-4366.104 541.069)" fill="#fff"/>
            <path id="Path_151729" data-name="Path 151729" d="M4380.537-510.434h-.038a16.556,16.556,0,0,1-10.8-4.462,13.933,13.933,0,0,1-1.106-1.306l-4.429.013a.937.937,0,0,1-.939-.933.937.937,0,0,1,.934-.939l4.906-.014a.938.938,0,0,1,.768.4,12.582,12.582,0,0,0,1.216,1.486,14.586,14.586,0,0,0,8.55,3.817v-29.091l-11.347,5.924a.942.942,0,0,1-.431.106l-3.557.009a.937.937,0,0,1-.938-.933.936.936,0,0,1,.934-.939l3.329-.009,12.514-6.533a.934.934,0,0,1,.918.029.936.936,0,0,1,.451.8v31.643a.935.935,0,0,1-.288.675A.934.934,0,0,1,4380.537-510.434Z" transform="translate(-4363.226 543.949)" fill="#0f2771"/>
          </g>
          <g id="Group_97035" data-name="Group 97035">
            <g id="Group_97025" data-name="Group 97025" transform="translate(21.583 48.397)">
              <path id="Path_151730" data-name="Path 151730" d="M4437.336-558.885l.264,39.2a1.936,1.936,0,0,1-1.937,1.936H4426.9a1.937,1.937,0,0,1-1.93-1.779l-3.22-39.588Z" transform="translate(-4420.815 560.056)" fill="#8ad24a"/>
              <path id="Path_151731" data-name="Path 151731" d="M4432.784-519.7h-8.762a2.888,2.888,0,0,1-2.862-2.639l-3.22-39.588a.936.936,0,0,1,.856-1.009.94.94,0,0,1,1.009.857l3.221,39.588a1,1,0,0,0,1,.919h8.762a1,1,0,0,0,1-1l-.263-39.189a.936.936,0,0,1,.929-.943.953.953,0,0,1,.942.93l.264,39.2A2.877,2.877,0,0,1,4432.784-519.7Z" transform="translate(-4417.937 562.934)" fill="#0f2771"/>
            </g>
            <g id="Group_97034" data-name="Group 97034">
              <g id="Group_97026" data-name="Group 97026" transform="translate(0 19.583)">
                <path id="Path_151732" data-name="Path 151732" d="M4339.5-667.107H4337a3.227,3.227,0,0,1-3.227-3.227v-3.012a3.227,3.227,0,0,1,3.227-3.227h2.51Z" transform="translate(-4332.835 677.509)" fill="#8ad24a"/>
                <path id="Path_151733" data-name="Path 151733" d="M4336.626-669.051h-2.508a4.167,4.167,0,0,1-4.162-4.163v-3.012a4.167,4.167,0,0,1,4.162-4.163h2.51a.936.936,0,0,1,.936.936.936.936,0,0,1-.936.936h-2.51a2.293,2.293,0,0,0-2.291,2.291v3.012a2.293,2.293,0,0,0,2.291,2.291h2.508a.936.936,0,0,1,.936.936A.936.936,0,0,1,4336.626-669.051Z" transform="translate(-4329.956 680.388)" fill="#0f2771"/>
              </g>
              <g id="Group_97027" data-name="Group 97027" transform="translate(17.606 36.65)">
                <path id="Path_151734" data-name="Path 151734" d="M4405.538-607v3.581a1.936,1.936,0,0,0,1.936,1.936h1.535l.507,6.229,15.848-.616v-5.612h.994a1.936,1.936,0,0,0,1.937-1.936V-607Z" transform="translate(-4404.602 607.938)" fill="#8ad24a"/>
                <path id="Path_151735" data-name="Path 151735" d="M4406.636-597.2a.935.935,0,0,1-.932-.86l-.437-5.369h-.672a2.875,2.875,0,0,1-2.872-2.872v-3.581a.935.935,0,0,1,.936-.936h22.756a.936.936,0,0,1,.935.936v3.581a2.875,2.875,0,0,1-2.872,2.872h-.059v4.676a.935.935,0,0,1-.9.935l-15.848.616Zm-3.041-11.746v2.645a1,1,0,0,0,1,1h1.535a.935.935,0,0,1,.933.86l.435,5.335,14.052-.547v-4.712a.936.936,0,0,1,.935-.936h.995a1,1,0,0,0,1-1v-2.645Z" transform="translate(-4401.723 610.817)" fill="#0f2771"/>
              </g>
              <g id="Group_97032" data-name="Group 97032" transform="translate(5.599)">
                <g id="Group_97028" data-name="Group 97028" transform="translate(53.566 16.915)">
                  <path id="Path_151736" data-name="Path 151736" d="M4574.95-687.448a7.4,7.4,0,0,1,7.4,7.4,7.4,7.4,0,0,1-7.4,7.4Z" transform="translate(-4574.014 688.384)" fill="#8ad24a"/>
                  <path id="Path_151737" data-name="Path 151737" d="M4572.071-674.59a.936.936,0,0,1-.937-.936.936.936,0,0,1,.937-.936,6.472,6.472,0,0,0,6.463-6.465,6.471,6.471,0,0,0-6.463-6.464.936.936,0,0,1-.937-.936.936.936,0,0,1,.937-.936,8.346,8.346,0,0,1,8.336,8.336A8.346,8.346,0,0,1,4572.071-674.59Z" transform="translate(-4571.135 691.263)" fill="#0f2771"/>
                </g>
                <g id="Group_97031" data-name="Group 97031">
                  <g id="Group_97029" data-name="Group 97029" transform="translate(0 3.877)">
                    <path id="Path_151738" data-name="Path 151738" d="M4401.706-699.72c0-4.866-3.945-8.105-8.81-8.105H4365.76a9.162,9.162,0,0,1-9.163-9.163v-6.343a9.163,9.163,0,0,1,9.163-9.163H4392.9c4.865,0,8.81-3.24,8.81-8.105Z" transform="translate(-4355.661 741.535)" fill="#fff"/>
                    <path id="Path_151739" data-name="Path 151739" d="M4398.825-701.663a.936.936,0,0,1-.936-.936c0-4.154-3.311-7.17-7.875-7.17h-27.135a10.111,10.111,0,0,1-10.1-10.1v-6.343a10.111,10.111,0,0,1,10.1-10.1h27.135c4.563,0,7.875-3.015,7.875-7.169a.936.936,0,0,1,.936-.936.937.937,0,0,1,.937.936c0,5.154-4.19,9.041-9.747,9.041h-27.135a8.236,8.236,0,0,0-8.227,8.227v6.343a8.236,8.236,0,0,0,8.227,8.227h27.135c5.556,0,9.747,3.887,9.747,9.041A.937.937,0,0,1,4398.825-701.663Z" transform="translate(-4352.78 744.414)" fill="#0f2771"/>
                  </g>
                  <g id="Group_97030" data-name="Group 97030" transform="translate(45.108)">
                    <path id="Path_151740" data-name="Path 151740" d="M4544.7-707.769a4.228,4.228,0,0,1-4.229-4.229v-40.175a4.228,4.228,0,0,1,4.229-4.229,4.229,4.229,0,0,1,4.229,4.229V-712A4.229,4.229,0,0,1,4544.7-707.769Z" transform="translate(-4539.537 757.337)" fill="#8ad24a"/>
                    <path id="Path_151741" data-name="Path 151741" d="M4541.822-709.712a5.17,5.17,0,0,1-5.164-5.165v-40.175a5.17,5.17,0,0,1,5.164-5.165,5.171,5.171,0,0,1,5.166,5.165v40.175A5.171,5.171,0,0,1,4541.822-709.712Zm0-48.632a3.3,3.3,0,0,0-3.292,3.293v40.175a3.3,3.3,0,0,0,3.292,3.293,3.3,3.3,0,0,0,3.293-3.293v-40.175A3.3,3.3,0,0,0,4541.822-758.344Z" transform="translate(-4536.658 760.216)" fill="#0f2771"/>
                  </g>
                </g>
              </g>
              <g id="Group_97033" data-name="Group 97033" transform="translate(28.984 11.982)">
                <path id="Path_151742" data-name="Path 151742" d="M4451.918-707.559v0Z" transform="translate(-4450.982 708.495)" fill="#fff"/>
                <path id="Path_151743" data-name="Path 151743" d="M4449.039-684.834a.936.936,0,0,1-.936-.936v-24.668a.936.936,0,0,1,.936-.936.936.936,0,0,1,.936.936v24.668A.936.936,0,0,1,4449.039-684.834Z" transform="translate(-4448.103 711.375)" fill="#0f2771"/>
              </g>
            </g>
          </g>
          <g id="Group_97036" data-name="Group 97036" transform="translate(31.235 63.377)">
            <path id="Path_151744" data-name="Path 151744" d="M4465.013-490.21l12.436-.036a3.9,3.9,0,0,0,3.893-3.916,3.9,3.9,0,0,0-3.915-3.893l-12.437.036a3.9,3.9,0,0,0-3.894,3.916A3.905,3.905,0,0,0,4465.013-490.21Z" transform="translate(-4460.161 498.99)" fill="#fff"/>
            <path id="Path_151745" data-name="Path 151745" d="M4462.123-492.153a4.847,4.847,0,0,1-4.841-4.826,4.847,4.847,0,0,1,4.827-4.855l12.436-.036a4.849,4.849,0,0,1,4.854,4.826,4.847,4.847,0,0,1-4.827,4.855l-12.436.036ZM4474.559-500l-12.444.036a2.973,2.973,0,0,0-2.96,2.977,2.972,2.972,0,0,0,2.969,2.96l12.444-.036a2.972,2.972,0,0,0,2.96-2.977A2.972,2.972,0,0,0,4474.559-500Z" transform="translate(-4457.282 501.87)" fill="#0f2771"/>
          </g>
          <g id="Group_97037" data-name="Group 97037" transform="translate(32.712 55.564)">
            <path id="Path_151746" data-name="Path 151746" d="M4471.033-522.057l12.436-.036a3.9,3.9,0,0,0,3.893-3.916,3.9,3.9,0,0,0-3.916-3.893l-12.436.036a3.9,3.9,0,0,0-3.894,3.916A3.9,3.9,0,0,0,4471.033-522.057Z" transform="translate(-4466.181 530.838)" fill="#fff"/>
            <path id="Path_151747" data-name="Path 151747" d="M4468.142-524a4.807,4.807,0,0,1-3.413-1.408,4.811,4.811,0,0,1-1.428-3.419,4.808,4.808,0,0,1,1.408-3.427,4.809,4.809,0,0,1,3.418-1.428l12.436-.036a4.849,4.849,0,0,1,4.854,4.826,4.81,4.81,0,0,1-1.408,3.427,4.809,4.809,0,0,1-3.418,1.428l-12.436.036Zm12.436-7.844-12.444.036a2.95,2.95,0,0,0-2.1.875,2.951,2.951,0,0,0-.864,2.1,2.966,2.966,0,0,0,2.978,2.96l12.436-.036a2.947,2.947,0,0,0,2.1-.875,2.949,2.949,0,0,0,.864-2.1A2.972,2.972,0,0,0,4480.578-531.846Z" transform="translate(-4463.302 533.718)" fill="#0f2771"/>
          </g>
          <g id="Group_97038" data-name="Group 97038" transform="translate(29.306 71.188)">
            <path id="Path_151748" data-name="Path 151748" d="M4457.149-458.37l11.72-.034a3.9,3.9,0,0,0,3.893-3.916,3.9,3.9,0,0,0-3.915-3.893l-11.72.034a3.9,3.9,0,0,0-3.893,3.916A3.9,3.9,0,0,0,4457.149-458.37Z" transform="translate(-4452.298 467.148)" fill="#fff"/>
            <path id="Path_151749" data-name="Path 151749" d="M4454.258-460.314a4.846,4.846,0,0,1-4.84-4.826,4.809,4.809,0,0,1,1.408-3.427,4.807,4.807,0,0,1,3.418-1.427l11.72-.034a4.849,4.849,0,0,1,4.855,4.826,4.808,4.808,0,0,1-1.409,3.427,4.808,4.808,0,0,1-3.418,1.427l-11.72.034Zm11.72-7.842-11.729.034a2.972,2.972,0,0,0-2.96,2.977,2.972,2.972,0,0,0,2.969,2.96l11.729-.034a2.947,2.947,0,0,0,2.1-.875,2.948,2.948,0,0,0,.864-2.1A2.973,2.973,0,0,0,4465.978-468.156Z" transform="translate(-4449.418 470.028)" fill="#0f2771"/>
          </g>
          <g id="Group_97039" data-name="Group 97039" transform="translate(28.39 78.985)">
            <path id="Path_151750" data-name="Path 151750" d="M4453.159-427.1l10.256-.029a3.65,3.65,0,0,0,3.639-3.66,3.65,3.65,0,0,0-3.66-3.639l-10.256.029a3.649,3.649,0,0,0-3.639,3.66A3.65,3.65,0,0,0,4453.159-427.1Z" transform="translate(-4448.563 435.365)" fill="#fff"/>
            <path id="Path_151751" data-name="Path 151751" d="M4450.27-429.046a4.555,4.555,0,0,1-3.232-1.334,4.559,4.559,0,0,1-1.353-3.238,4.56,4.56,0,0,1,1.334-3.246,4.553,4.553,0,0,1,3.238-1.352l10.256-.03a4.568,4.568,0,0,1,3.247,1.334,4.554,4.554,0,0,1,1.352,3.238,4.591,4.591,0,0,1-4.572,4.6l-10.256.029Zm10.258-7.328-10.265.029a2.7,2.7,0,0,0-1.917.8,2.691,2.691,0,0,0-.788,1.921,2.7,2.7,0,0,0,.8,1.917,2.664,2.664,0,0,0,1.921.789l10.257-.03a2.715,2.715,0,0,0,2.705-2.721,2.7,2.7,0,0,0-.8-1.916A2.7,2.7,0,0,0,4460.527-436.374Z" transform="translate(-4445.685 438.246)" fill="#0f2771"/>
          </g>
          <g id="Group_97040" data-name="Group 97040" transform="translate(8.162 47.76)">
            <path id="Path_151752" data-name="Path 151752" d="M4367.041-549.772l3.837-.01a13.66,13.66,0,0,1,3.545-7.543,13.641,13.641,0,0,1,9.935-4.336l18.852-.054a3.9,3.9,0,0,1,3.916,3.893,3.9,3.9,0,0,1-3.893,3.916l-7.78.022-8.01.271-.368,1.967a16.47,16.47,0,0,1-7.523,10.975Z" transform="translate(-4366.104 562.651)" fill="#fff"/>
            <path id="Path_151753" data-name="Path 151753" d="M4376.673-542.614a.936.936,0,0,1-.8-.443.935.935,0,0,1,.3-1.288,15.566,15.566,0,0,0,7.1-10.351l.368-1.968a.936.936,0,0,1,.889-.763l8.01-.27,7.81-.023a2.972,2.972,0,0,0,2.959-2.977,2.95,2.95,0,0,0-.875-2.1,2.951,2.951,0,0,0-2.093-.863l-18.861.054a12.75,12.75,0,0,0-9.253,4.038,12.653,12.653,0,0,0-3.3,7.027.937.937,0,0,1-.926.814l-3.836.01a.937.937,0,0,1-.939-.933.937.937,0,0,1,.934-.939l3.041-.008a14.49,14.49,0,0,1,3.66-7.248,14.627,14.627,0,0,1,10.616-4.633l18.852-.054a4.927,4.927,0,0,1,3.427,1.408,4.806,4.806,0,0,1,1.427,3.419,4.845,4.845,0,0,1-4.826,4.854l-7.781.022-7.231.245-.23,1.23a17.445,17.445,0,0,1-7.95,11.6A.929.929,0,0,1,4376.673-542.614Z" transform="translate(-4363.226 565.53)" fill="#0f2771"/>
          </g>
        </g>
        <g id="Group_97051" data-name="Group 97051" transform="translate(58.642 89.476)">
          <g id="Group_97044" data-name="Group 97044" transform="translate(24.543)">
            <g id="Group_97042" data-name="Group 97042" transform="translate(9.036 2.754)">
              <circle id="Ellipse_4416" data-name="Ellipse 4416" cx="4.431" cy="4.431" r="4.431" transform="translate(0 8.187) rotate(-67.5)" fill="#fff"/>
              <path id="Path_151754" data-name="Path 151754" d="M4699.772-461.57a5.373,5.373,0,0,1-5.367-5.367,5.373,5.373,0,0,1,5.367-5.366,5.372,5.372,0,0,1,5.366,5.366A5.373,5.373,0,0,1,4699.772-461.57Zm0-8.861a3.5,3.5,0,0,0-3.495,3.494,3.5,3.5,0,0,0,3.495,3.495,3.5,3.5,0,0,0,3.494-3.495A3.5,3.5,0,0,0,4699.772-470.431Z" transform="translate(-4693.984 472.725)" fill="#0f2771"/>
            </g>
            <g id="Group_97043" data-name="Group 97043">
              <path id="Path_151755" data-name="Path 151755" d="M4685.7-481.376a2.61,2.61,0,0,0-3.061,1.921l-2.472,9.266-2.14,2.554c-.57.681-7.909.8-8.485.175l-2.5-2.686-2.35-9.212a2.61,2.61,0,0,0-3.039-1.955,2.54,2.54,0,0,0-1.909,3.107l2.534,9.938c.009.037.021.073.033.11s.022.078.036.115.025.066.039.1.033.081.052.121.027.057.042.085c.022.044.045.087.07.129.014.024.028.048.044.072.03.048.062.095.1.141.013.017.024.035.038.052.048.063.1.124.153.182.014.015,3.447,3.7,4.626,4.965a1.434,1.434,0,0,1,.388.987c-.012,2.661-.026,13.714-.029,13.86l-.412,21.461a3.886,3.886,0,0,0,1.876,3.422,1.369,1.369,0,0,0,.8.256,2.689,2.689,0,0,0,2.688-2.637l.34-17.358a6.023,6.023,0,0,0,.7.044,6.006,6.006,0,0,0,.689-.043l.551,17.359a2.689,2.689,0,0,0,2.686,2.6l.087,0a2.689,2.689,0,0,0,2.6-2.773l-.707-22.274c.036-.247.216-11.737.256-14.314a1.433,1.433,0,0,1,.336-.9l4.065-4.851a2.586,2.586,0,0,0,.279-.408c.013-.023.024-.048.036-.071.022-.044.044-.088.064-.133s.028-.066.041-.1.028-.074.041-.112.024-.076.036-.114c0-.013.008-.026.012-.039l2.644-9.913A2.539,2.539,0,0,0,4685.7-481.376Z" transform="translate(-4658.734 482.375)" fill="#8ad24a"/>
              <path id="Path_151756" data-name="Path 151756" d="M4667.249-424.15a2.285,2.285,0,0,1-1.274-.388,4.824,4.824,0,0,1-2.333-4.245l.412-21.46c0-.1,0-1.731.007-3.865.006-3.5.014-8.339.021-9.982a.5.5,0,0,0-.136-.344c-1.179-1.261-4.614-4.951-4.614-4.951l-.02-.022c-.071-.077-.139-.159-.2-.243l-.042-.056c-.058-.079-.1-.143-.142-.208l-.062-.1c-.032-.054-.063-.113-.094-.173l-.058-.119c-.025-.053-.048-.108-.069-.163s-.04-.1-.053-.137-.03-.091-.044-.137c-.026-.087-.04-.129-.05-.171l-2.534-9.935a3.447,3.447,0,0,1,.406-2.678,3.45,3.45,0,0,1,2.206-1.574,3.557,3.557,0,0,1,4.15,2.637l2.291,8.981,2.238,2.408a24.567,24.567,0,0,0,7.266-.141l1.918-2.289,2.418-9.065a3.558,3.558,0,0,1,4.179-2.592,3.453,3.453,0,0,1,2.189,1.6,3.447,3.447,0,0,1,.376,2.682l-2.644,9.913c0,.018-.017.057-.022.075s-.025.083-.042.134-.036.1-.055.153-.036.091-.056.136c-.028.064-.058.125-.089.185l-.048.094a3.459,3.459,0,0,1-.357.528l-.024.03-4.067,4.853a.5.5,0,0,0-.119.315c-.181,11.646-.235,13.833-.255,14.3l.706,22.248a3.6,3.6,0,0,1-.98,2.6,3.6,3.6,0,0,1-2.529,1.143l-.116,0a3.61,3.61,0,0,1-3.623-3.511l-.252-7.934-.154,7.92A3.644,3.644,0,0,1,4667.249-424.15Zm-7.946-59.159a1.46,1.46,0,0,0-.321.035,1.591,1.591,0,0,0-1.02.726,1.591,1.591,0,0,0-.187,1.236l2.534,9.938s.021.069.023.073l.022.073s.023.057.024.06l.032.078.026.052.044.081a1.567,1.567,0,0,0,.089.136,1.649,1.649,0,0,0,.119.147c.013.015,3.445,3.7,4.624,4.962a2.362,2.362,0,0,1,.639,1.63c-.007,1.642-.015,6.479-.021,9.976,0,2.18-.006,3.842-.008,3.9l-.411,21.46a2.951,2.951,0,0,0,1.418,2.6c.209.125.255.125.318.125a1.762,1.762,0,0,0,1.752-1.719l.339-17.358a.931.931,0,0,1,.32-.687.935.935,0,0,1,.724-.224,4.559,4.559,0,0,0,1.172,0,.933.933,0,0,1,.719.221.933.933,0,0,1,.324.679l.551,17.359a1.745,1.745,0,0,0,1.751,1.7h.059a1.74,1.74,0,0,0,1.221-.553,1.741,1.741,0,0,0,.474-1.256l-.707-22.274a1,1,0,0,1,.009-.162c.024-.394.149-7.9.247-14.2a2.383,2.383,0,0,1,.554-1.488l4.051-4.833.021-.026a1.55,1.55,0,0,0,.169-.249l.137-.335.019-.058,2.634-9.88a1.588,1.588,0,0,0-.174-1.238,1.593,1.593,0,0,0-1.011-.738,1.673,1.673,0,0,0-1.942,1.251l-2.471,9.266a.945.945,0,0,1-.188.36l-2.14,2.553c-.218.26-.671.8-4.672.9-4.466.114-5.01-.472-5.216-.693l-2.5-2.685a.943.943,0,0,1-.221-.406L4660.91-482A1.7,1.7,0,0,0,4659.3-483.309Z" transform="translate(-4655.851 485.25)" fill="#0f2771"/>
            </g>
          </g>
          <g id="Group_97047" data-name="Group 97047" transform="translate(0 0.042)">
            <g id="Group_97045" data-name="Group 97045" transform="translate(8.396 2.017)">
              <circle id="Ellipse_4417" data-name="Ellipse 4417" cx="4.431" cy="4.431" r="4.431" transform="translate(0 6.266) rotate(-45)" fill="#fff"/>
              <path id="Path_151757" data-name="Path 151757" d="M4599.063-462.459a5.373,5.373,0,0,1-5.367-5.367,5.373,5.373,0,0,1,5.367-5.367,5.373,5.373,0,0,1,5.366,5.367A5.373,5.373,0,0,1,4599.063-462.459Zm0-8.861a3.5,3.5,0,0,0-3.5,3.495,3.5,3.5,0,0,0,3.5,3.495,3.5,3.5,0,0,0,3.494-3.495A3.5,3.5,0,0,0,4599.063-471.32Z" transform="translate(-4592.797 474.091)" fill="#0f2771"/>
            </g>
            <g id="Group_97046" data-name="Group 97046">
              <path id="Path_151758" data-name="Path 151758" d="M4585.313-481.211a2.657,2.657,0,0,0-3.04,1.955l-2.349,9.212-1.119,1.2a4.984,4.984,0,0,1-3.887,1.516l-5-.038c-.044,0-.089,0-.134,0a6.6,6.6,0,0,0-5.832,5.172l-4.231,14.578a2.661,2.661,0,0,0,1.633,3.236,2.55,2.55,0,0,0,.776.122,2.541,2.541,0,0,0,2.438-1.833l2.569-9.8s.027,8.415.066,8.693l-.706,22.275a2.689,2.689,0,0,0,2.6,2.773h.086a2.69,2.69,0,0,0,2.687-2.6l.55-17.359a6.035,6.035,0,0,0,.689.043,6.038,6.038,0,0,0,.7-.044l.339,17.358a2.69,2.69,0,0,0,2.688,2.637h.054a2.689,2.689,0,0,0,2.636-2.741s-.439-22.945-.439-23.186c0,0-.009-11.221-.021-13.316a.834.834,0,0,1,.227-.577c.982-1.048,4.773-5.113,4.773-5.113a2.378,2.378,0,0,0,.168-.2l.037-.051q.051-.069.1-.142c.015-.023.029-.047.043-.07.025-.043.048-.087.071-.131.014-.028.028-.055.042-.083s.035-.082.052-.124.026-.064.037-.1.026-.08.038-.121.022-.069.031-.1l2.535-9.939A2.54,2.54,0,0,0,4585.313-481.211Z" transform="translate(-4558.686 482.201)" fill="#fff"/>
              <path id="Path_151759" data-name="Path 151759" d="M4573.962-424.05a3.644,3.644,0,0,1-3.624-3.555l-.155-7.92-.251,7.934a3.609,3.609,0,0,1-3.622,3.51l-.123,0a3.628,3.628,0,0,1-3.5-3.738l.706-22.26q-.015-.368-.027-1.568l-.767,2.925a3.5,3.5,0,0,1-3.343,2.531,3.5,3.5,0,0,1-1.062-.166,3.6,3.6,0,0,1-2.247-4.389l4.232-14.578a7.55,7.55,0,0,1,6.687-5.846c.063,0,.125,0,.183,0l4.988.037.069,0a4.051,4.051,0,0,0,3.137-1.219l.957-1.029,2.29-8.981a3.6,3.6,0,0,1,4.15-2.637,3.451,3.451,0,0,1,2.207,1.574,3.449,3.449,0,0,1,.406,2.678l-2.535,9.939c-.01.039-.022.077-.034.116-.028.1-.043.143-.059.188s-.029.077-.045.115c-.029.073-.053.132-.08.188l-.049.1c-.037.073-.07.133-.1.192l-.06.1q-.064.1-.133.195l-.05.069a3.52,3.52,0,0,1-.229.27s-3.722,3.991-4.745,5.082c.011,2.195.021,13.281.021,13.281,0,.311.288,15.291.439,23.169a3.605,3.605,0,0,1-1.012,2.584,3.6,3.6,0,0,1-2.542,1.111Zm-3.027-21.867a.935.935,0,0,1,.615.231.934.934,0,0,1,.321.687l.339,17.358a1.763,1.763,0,0,0,1.752,1.72,1.764,1.764,0,0,0,1.265-.538,1.745,1.745,0,0,0,.489-1.25c-.044-2.35-.439-22.961-.439-23.2,0,0-.01-11.217-.021-13.312a1.767,1.767,0,0,1,.479-1.222c.983-1.048,4.772-5.111,4.772-5.111.041-.044.076-.087.11-.13.044-.062.065-.092.084-.122l.128-.254.9.267-.875-.332.022-.075.908.232-.886-.3,2.534-9.934a1.594,1.594,0,0,0-.187-1.236,1.594,1.594,0,0,0-1.02-.726,1.717,1.717,0,0,0-1.929,1.273l-2.349,9.212a.943.943,0,0,1-.221.406l-1.119,1.2a5.945,5.945,0,0,1-4.609,1.814l-4.97-.037-.086,0a5.667,5.667,0,0,0-4.962,4.456l-4.243,14.619a1.717,1.717,0,0,0,1.019,2.084,1.628,1.628,0,0,0,2.03-1.08l2.563-9.775a.937.937,0,0,1,1.023-.691.936.936,0,0,1,.818.925c.01,3.12.036,8.216.063,8.608a.522.522,0,0,1,0,.117l-.706,22.274a1.755,1.755,0,0,0,1.7,1.808h.058a1.744,1.744,0,0,0,1.75-1.7l.551-17.359a.937.937,0,0,1,.325-.679.94.94,0,0,1,.719-.221,4.554,4.554,0,0,0,1.171,0A.963.963,0,0,1,4570.935-445.918Z" transform="translate(-4555.806 485.078)" fill="#0f2771"/>
            </g>
          </g>
          <g id="Group_97050" data-name="Group 97050" transform="translate(49.003 0.033)">
            <g id="Group_97048" data-name="Group 97048" transform="translate(8.63 2.031)">
              <ellipse id="Ellipse_4418" data-name="Ellipse 4418" cx="4.409" cy="4.445" rx="4.409" ry="4.445" transform="translate(0 6.236) rotate(-45)" fill="#fff"/>
              <path id="Path_151760" data-name="Path 151760" d="M4799.744-462.461a5.316,5.316,0,0,1-3.787-1.572,5.34,5.34,0,0,1-1.5-4.7,5.386,5.386,0,0,1,4.39-4.391,5.342,5.342,0,0,1,4.7,1.5,5.34,5.34,0,0,1,1.5,4.7,5.387,5.387,0,0,1-4.391,4.39A5.615,5.615,0,0,1,4799.744-462.461Zm.007-8.862a3.7,3.7,0,0,0-.6.049,3.493,3.493,0,0,0-2.847,2.847,3.488,3.488,0,0,0,.974,3.07,3.493,3.493,0,0,0,3.07.974,3.493,3.493,0,0,0,2.847-2.846,3.491,3.491,0,0,0-.975-3.07A3.466,3.466,0,0,0,4799.751-471.322Z" transform="translate(-4793.491 474.089)" fill="#0f2771"/>
            </g>
            <g id="Group_97049" data-name="Group 97049">
              <path id="Path_151761" data-name="Path 151761" d="M4761.841-481.3a2.593,2.593,0,0,1,2.56,2l2.354,9.233,1.119,1.2a4.982,4.982,0,0,0,3.887,1.516l5-.038c.043,0,.089,0,.133,0a6.6,6.6,0,0,1,5.832,5.172l4.234,14.59a2.707,2.707,0,0,1-1.388,3.132,2.582,2.582,0,0,1-1.025.215,2.54,2.54,0,0,1-2.437-1.833l-2.57-9.8s-.027,8.415-.066,8.693l.706,22.275a2.689,2.689,0,0,1-2.6,2.773h-.086a2.69,2.69,0,0,1-2.687-2.6l-.55-17.359a6.037,6.037,0,0,1-.69.043,6.045,6.045,0,0,1-.7-.044l-.338,17.358a2.69,2.69,0,0,1-2.688,2.637h-.054a2.69,2.69,0,0,1-2.637-2.742l.431-21.993c0-.165-.12-13.906-.12-13.906a2.8,2.8,0,0,0-.75-1.882l-4.1-4.412a2.481,2.481,0,0,1-.169-.2l-.036-.051c-.034-.046-.066-.094-.1-.142l-.043-.07c-.024-.043-.048-.087-.07-.131-.014-.028-.029-.055-.042-.083s-.035-.082-.052-.124-.026-.064-.038-.1-.026-.08-.038-.121-.022-.069-.031-.1l-2.535-9.939A2.543,2.543,0,0,1,4761.841-481.3Z" transform="translate(-4758.441 482.239)" fill="#8ad24a"/>
              <path id="Path_151762" data-name="Path 151762" d="M4766.958-424.08h-.083a3.6,3.6,0,0,1-2.532-1.111,3.6,3.6,0,0,1-1.012-2.584l.43-21.993c0-.254-.078-9.191-.119-13.879a1.866,1.866,0,0,0-.5-1.253l-4.1-4.412a3.369,3.369,0,0,1-.224-.266l-.046-.063c-.05-.068-.094-.133-.137-.2l-.058-.1c-.035-.061-.068-.121-.1-.183l-.057-.115c-.024-.053-.048-.111-.072-.17s-.037-.09-.05-.129-.031-.093-.044-.14c-.027-.088-.039-.127-.049-.167l-2.535-9.937a3.465,3.465,0,0,1,.581-2.935,3.491,3.491,0,0,1,2.672-1.4,3.532,3.532,0,0,1,3.505,2.7l2.3,9,.957,1.029a4.088,4.088,0,0,0,3.166,1.218l5.028-.039c.06,0,.121,0,.181,0a7.568,7.568,0,0,1,6.7,5.887l4.224,14.548a3.622,3.622,0,0,1-1.916,4.252,3.5,3.5,0,0,1-1.4.292,3.493,3.493,0,0,1-3.336-2.508l-.774-2.95q-.012,1.2-.027,1.568l.706,22.259a3.63,3.63,0,0,1-3.509,3.739l-.117,0a3.609,3.609,0,0,1-3.622-3.51l-.252-7.934-.154,7.92A3.645,3.645,0,0,1,4766.958-424.08Zm-6.9-47.078s.022.055.023.057l.033.08.027.053.045.083c.046.074.066.1.087.132a1.681,1.681,0,0,0,.129.159l4.106,4.417a3.732,3.732,0,0,1,1,2.509c.029,3.228.122,13.768.119,13.934l-.43,21.993a1.741,1.741,0,0,0,.49,1.25,1.74,1.74,0,0,0,1.229.537,1.769,1.769,0,0,0,1.788-1.719l.339-17.358a.936.936,0,0,1,.321-.687.937.937,0,0,1,.724-.224,4.559,4.559,0,0,0,1.172,0,.936.936,0,0,1,.719.221.934.934,0,0,1,.324.679l.55,17.359a1.745,1.745,0,0,0,1.751,1.7h.057a1.755,1.755,0,0,0,1.7-1.809l-.707-22.274a1,1,0,0,1,.01-.162c.021-.348.047-5.444.058-8.564a.935.935,0,0,1,.818-.925.938.938,0,0,1,1.023.691l2.568,9.8a1.635,1.635,0,0,0,2.186,1,1.772,1.772,0,0,0,.86-2.011l-4.234-14.59a5.688,5.688,0,0,0-4.975-4.5h-.085l-4.987.037a5.944,5.944,0,0,1-4.591-1.815l-1.119-1.2a.928.928,0,0,1-.221-.406l-2.355-9.233a1.649,1.649,0,0,0-1.613-1.292,1.608,1.608,0,0,0-1.249.648,1.6,1.6,0,0,0-.268,1.355l2.535,9.938c0,.005.021.066.021.07l-.859.387Z" transform="translate(-4755.561 485.117)" fill="#0f2771"/>
            </g>
          </g>
        </g>
        <g id="Group_97058" data-name="Group 97058" transform="translate(81.254 6.473)">
          <g id="Group_97052" data-name="Group 97052" transform="translate(0 50.734)">
            <path id="Path_151763" data-name="Path 151763" d="M4714.589-606.5H4711.1v.2a8.141,8.141,0,0,0-7.324-6.181q-.385-.027-.78-.016c-.769.022-3.43.185-4.069.262l-21.563,2.628a5.33,5.33,0,0,0-4.663,5.894q.027.22.071.433l-.062-.047-3.73-2.527-9.086-6.155a5.577,5.577,0,0,0-5.216-.575,4.344,4.344,0,0,0-2.878,4.076,6.572,6.572,0,0,0,2.906,5.771l17.99,12.187a5.263,5.263,0,0,0,3.416,1.134l38.458.131Z" transform="translate(-4650.859 613.915)" fill="#fff"/>
            <path id="Path_151764" data-name="Path 151764" d="M4711.686-591.228l-38.46-.131a6.188,6.188,0,0,1-3.964-1.313l-17.964-12.17a7.5,7.5,0,0,1-3.317-6.556,5.262,5.262,0,0,1,3.5-4.947,6.491,6.491,0,0,1,6.058.681l11.354,7.691a6.275,6.275,0,0,1,5.479-5.444l21.562-2.628c.693-.083,3.391-.247,4.157-.268.289-.008.583,0,.871.017a9.134,9.134,0,0,1,7.9,5.982h2.855a.936.936,0,0,1,.936.936.936.936,0,0,1-.936.936h-2.918a.932.932,0,0,1-.461.189.94.94,0,0,1-1.021-.709,7.233,7.233,0,0,0-6.478-5.467c-.229-.016-.46-.02-.69-.014-.771.022-3.4.186-3.985.256l-21.561,2.627a4.385,4.385,0,0,0-3.848,4.852c.015.12.034.239.059.356a.936.936,0,0,1-.414.979.936.936,0,0,1-1.062-.039l-.063-.047-12.782-8.658a4.626,4.626,0,0,0-4.374-.47,3.4,3.4,0,0,0-2.26,3.205,5.59,5.59,0,0,0,2.5,4.986l17.99,12.188.054.039a4.358,4.358,0,0,0,2.81.934l38.487.13a.937.937,0,0,1,.933.939A.936.936,0,0,1,4711.686-591.228Z" transform="translate(-4647.979 616.793)" fill="#0f2771"/>
          </g>
          <g id="Group_97053" data-name="Group 97053" transform="translate(20.974 60.431)">
            <path id="Path_151765" data-name="Path 151765" d="M4739.642-571.172a6.293,6.293,0,0,1-6.144-4.967.935.935,0,0,1,.727-1.106.935.935,0,0,1,1.105.727,4.405,4.405,0,0,0,4.833,3.442l13.744-1.659a.937.937,0,0,1,1.042.817.936.936,0,0,1-.817,1.042l-13.744,1.659A6.242,6.242,0,0,1,4739.642-571.172Z" transform="translate(-4733.478 577.264)" fill="#0f2771"/>
          </g>
          <g id="Group_97054" data-name="Group 97054" transform="translate(59.303 57.411)">
            <path id="Path_151766" data-name="Path 151766" d="M4891.344-582.514a.936.936,0,0,1-.927-.812l-.69-5.189a.935.935,0,0,1,.8-1.051.935.935,0,0,1,1.051.8l.691,5.189a.936.936,0,0,1-.8,1.051A.931.931,0,0,1,4891.344-582.514Z" transform="translate(-4889.719 589.575)" fill="#0f2771"/>
          </g>
          <g id="Group_97055" data-name="Group 97055" transform="translate(1.406)">
            <path id="Path_151767" data-name="Path 151767" d="M4657.528-795.322a24.464,24.464,0,0,0,24.464,24.464,24.434,24.434,0,0,0,19.947-10.3l-3.087-31.894a24.381,24.381,0,0,0-16.86-6.738,24.467,24.467,0,0,0-22.04,13.833Z" transform="translate(-4656.592 820.722)" fill="#fff"/>
            <path id="Path_151768" data-name="Path 151768" d="M4679.113-772.8a25.428,25.428,0,0,1-25.4-25.4.936.936,0,0,1,.936-.936.937.937,0,0,1,.937.936,23.555,23.555,0,0,0,23.528,23.528,23.591,23.591,0,0,0,18.981-9.623l-3.019-31.191a23.423,23.423,0,0,0-15.962-6.243,23.676,23.676,0,0,0-21.2,13.3.936.936,0,0,1-1.25.436.936.936,0,0,1-.436-1.25,25.56,25.56,0,0,1,22.882-14.361,25.292,25.292,0,0,1,17.505,7,.937.937,0,0,1,.286.588l3.086,31.894a.93.93,0,0,1-.168.633A25.466,25.466,0,0,1,4679.113-772.8Z" transform="translate(-4653.713 823.601)" fill="#0f2771"/>
          </g>
          <g id="Group_97056" data-name="Group 97056" transform="translate(15.729 6.738)">
            <path id="Path_151769" data-name="Path 151769" d="M4745.666-760.428h-24.437a5.315,5.315,0,0,1-5.315-5.315,5.316,5.316,0,0,1,5.315-5.316h10.936a5.428,5.428,0,0,0,5.456-4.787,5.33,5.33,0,0,0-5.293-5.844h-2.006a5.429,5.429,0,0,1-5.456-4.788,5.331,5.331,0,0,1,5.294-5.844h12.756a24.394,24.394,0,0,1,7.6,17.727A24.351,24.351,0,0,1,4746-760.427Z" transform="translate(-4714.977 793.257)" fill="#8ad24a"/>
            <path id="Path_151770" data-name="Path 151770" d="M4743.122-762.371H4718.35a6.258,6.258,0,0,1-6.251-6.251,6.258,6.258,0,0,1,6.251-6.251h10.935a4.509,4.509,0,0,0,4.525-3.943,4.332,4.332,0,0,0-1.116-3.37,4.4,4.4,0,0,0-3.247-1.446h-2.006a6.4,6.4,0,0,1-6.388-5.633,6.265,6.265,0,0,1,1.593-4.81,6.271,6.271,0,0,1,4.633-2.06h12.914a.936.936,0,0,1,.892.652,25.162,25.162,0,0,1,7.489,18.01,25.229,25.229,0,0,1-4.691,14.709A.935.935,0,0,1,4743.122-762.371ZM4718.35-773a4.384,4.384,0,0,0-4.379,4.38,4.384,4.384,0,0,0,4.379,4.379h24.284a23.362,23.362,0,0,0,4.07-13.23,23.313,23.313,0,0,0-7.046-16.79H4727.28a4.395,4.395,0,0,0-3.247,1.446,4.332,4.332,0,0,0-1.116,3.37,4.509,4.509,0,0,0,4.524,3.943h2.006a6.269,6.269,0,0,1,4.633,2.061,6.265,6.265,0,0,1,1.592,4.81,6.4,6.4,0,0,1-6.388,5.632Z" transform="translate(-4712.098 796.136)" fill="#0f2771"/>
          </g>
          <g id="Group_97057" data-name="Group 97057" transform="translate(1.406 13.833)">
            <path id="Path_151771" data-name="Path 151771" d="M4657.528-752.766h10.653a5.315,5.315,0,0,0,5.315-5.315,5.315,5.315,0,0,0-5.315-5.316h-8.227a24.335,24.335,0,0,0-2.426,10.631Z" transform="translate(-4656.592 764.334)" fill="#8ad24a"/>
            <path id="Path_151772" data-name="Path 151772" d="M4665.3-754.712h-10.653a.936.936,0,0,1-.936-.936,25.167,25.167,0,0,1,2.518-11.039.946.946,0,0,1,.88-.528h8.191a6.258,6.258,0,0,1,6.251,6.251A6.258,6.258,0,0,1,4665.3-754.712Zm-9.7-1.872h9.7a4.384,4.384,0,0,0,4.379-4.379,4.384,4.384,0,0,0-4.379-4.379h-7.633A23.246,23.246,0,0,0,4655.6-756.584Z" transform="translate(-4653.713 767.215)" fill="#0f2771"/>
          </g>
        </g>
      </g>
    </g>
  </g>
</svg>
