<svg xmlns="http://www.w3.org/2000/svg" width="101.668" height="101.711" viewBox="0 0 101.668 101.711">
  <g id="t6-ic3" transform="translate(0 0)">
    <g id="Group_56697" data-name="Group 56697" transform="translate(0 0)">
      <g id="Group_56683" data-name="Group 56683" transform="translate(67.074 67.108)">
        <g id="Group_56682" data-name="Group 56682" transform="translate(0)">
          <path id="Path_143713" data-name="Path 143713" d="M30.3,71.587l6.083,6.084-6.794,6.795L23.5,78.381" transform="translate(-23.5 -71.587)" fill="#fde947"/>
        </g>
      </g>
      <g id="Group_56684" data-name="Group 56684" transform="translate(2.866 2.884)">
        <ellipse id="Ellipse_4266" data-name="Ellipse 4266" cx="39.561" cy="39.566" rx="39.561" ry="39.566" fill="#fde947"/>
      </g>
      <g id="Group_56696" data-name="Group 56696" transform="translate(0 0)">
        <g id="Group_56690" data-name="Group 56690" transform="translate(0)">
          <g id="Group_56689" data-name="Group 56689" transform="translate(0)">
            <g id="Group_56686" data-name="Group 56686" transform="translate(0)">
              <g id="Group_56685" data-name="Group 56685" transform="translate(0)">
                <ellipse id="Ellipse_4267" data-name="Ellipse 4267" cx="30.086" cy="30.057" rx="30.086" ry="30.057" transform="translate(39.594 84.866) rotate(-131.148)" fill="#e5ecec"/>
              </g>
            </g>
            <g id="Group_56688" data-name="Group 56688" transform="translate(10.397 41.196)">
              <g id="Group_56687" data-name="Group 56687" transform="translate(0)">
                <path id="Path_143714" data-name="Path 143714" d="M96.437,47.5A1.97,1.97,0,1,0,94.5,45.881,1.989,1.989,0,0,0,96.437,47.5Z" transform="translate(-94.471 -43.564)"/>
              </g>
            </g>
          </g>
        </g>
        <g id="Group_56695" data-name="Group 56695" transform="translate(27.887 20.196)">
          <g id="Group_56693" data-name="Group 56693" transform="translate(0.648)">
            <g id="Group_56691" data-name="Group 56691" transform="translate(1.919 1.959)">
              <ellipse id="Ellipse_4268" data-name="Ellipse 4268" cx="11.922" cy="11.92" rx="11.922" ry="11.92" transform="translate(0.048 23.891) rotate(-90.115)" fill="#ffcbbe"/>
            </g>
            <g id="Group_56692" data-name="Group 56692" transform="translate(0)">
              <path id="Path_143715" data-name="Path 143715" d="M62.954,48.633a13.89,13.89,0,1,0-13.889-13.89A13.905,13.905,0,0,0,62.954,48.633Zm0-23.843A9.953,9.953,0,1,1,53,34.743a9.963,9.963,0,0,1,9.951-9.953Z" transform="translate(-49.065 -20.853)"/>
            </g>
          </g>
          <g id="Group_56694" data-name="Group 56694" transform="translate(0 32.182)">
            <path id="Path_143716" data-name="Path 143716" d="M48.364,59.631V72.053a30.129,30.129,0,0,0,29.074.029V59.632a3.975,3.975,0,0,0-3.974-3.975H52.338A3.975,3.975,0,0,0,48.364,59.631Z" transform="translate(-48.364 -55.657)" fill="#8ad24a"/>
          </g>
        </g>
      </g>
    </g>
    <g id="Group_56702" data-name="Group 56702" transform="translate(0.897 0.915)">
      <g id="Group_56698" data-name="Group 56698" transform="translate(75.653 75.67)">
        <path id="Path_143717" data-name="Path 143717" d="M13.594,81.837l9.324,9.326a8.1,8.1,0,1,1-11.457,11.458L2.137,93.295Z" transform="translate(-2.137 -81.837)" fill="#0f2771"/>
      </g>
      <g id="Group_56701" data-name="Group 56701">
        <g id="Group_56699" data-name="Group 56699" transform="translate(69.938 69.935)">
          <path id="Path_143718" data-name="Path 143718" d="M0,16.2H8.1V0H0Z" transform="translate(5.724 17.18) rotate(-135)" fill="#3ca8f4"/>
        </g>
        <g id="Group_56700" data-name="Group 56700">
          <path id="Path_143719" data-name="Path 143719" d="M30.814,50.36a1.968,1.968,0,0,1,2.507,1.21,27.9,27.9,0,0,0,6.67,10.606,28.388,28.388,0,0,0,3.355,2.871V56.211a5.95,5.95,0,0,1,5.943-5.943H70.416a5.95,5.95,0,0,1,5.943,5.943v8.87a28.114,28.114,0,0,0,3.355-42.632,27.944,27.944,0,0,0-19.876-8.242h-.014A28.089,28.089,0,0,0,33.282,33.113a1.969,1.969,0,1,1-3.723-1.282A32.026,32.026,0,0,1,59.824,10.269h.016a32.058,32.058,0,0,1,15.5,60.116h0a32.077,32.077,0,0,1-15.457,3.968h-.031a32.115,32.115,0,0,1-15.486-4h0A32.193,32.193,0,0,1,29.6,52.867a1.968,1.968,0,0,1,1.21-2.507ZM72.421,67.472V56.211a2.008,2.008,0,0,0-2.005-2.006H49.29a2.008,2.008,0,0,0-2.005,2.006V67.445a28.338,28.338,0,0,0,25.137.027Z" transform="translate(-18.326 -0.774)"/>
          <path id="Path_143720" data-name="Path 143720" d="M41.543,0A41.516,41.516,0,0,1,75.291,65.715l3.776,3.776.939-.94a1.969,1.969,0,0,1,2.784,0l5.725,5.726,0,0L97.84,83.6A10.07,10.07,0,1,1,83.6,97.846L74.275,88.52h0L68.55,82.795a1.969,1.969,0,0,1,0-2.784l.94-.94-3.777-3.778A41.527,41.527,0,1,1,41.543,0Zm44.84,95.062a6.133,6.133,0,1,0,8.673-8.675l-7.932-7.933-4.332,4.332L78.45,87.128ZM75.667,84.344,80,80.011,84.34,75.67,81.4,72.729,72.726,81.4Zm-3.393-8.057,2-2,2.006-2.006-3.455-3.455a41.9,41.9,0,0,1-4.01,4.01Zm-30.73,2.846a37.6,37.6,0,1,0-37.593-37.6A37.638,37.638,0,0,0,41.543,79.133Z" transform="translate(-0.013)"/>
        </g>
      </g>
    </g>
  </g>
</svg>
