<svg xmlns="http://www.w3.org/2000/svg" width="90" height="90" viewBox="0 0 90 90">
  <g id="t6-ic11" transform="translate(-9227 8877)">
    <rect id="Rectangle_33288" data-name="Rectangle 33288" width="90" height="90" transform="translate(9227 -8877)" fill="none"/>
    <g id="Group_98846" data-name="Group 98846" transform="translate(7751.424 -9316.318)">
      <path id="Trazado_152056" data-name="Trazado 152056" d="M1541.243,452.226l-5.371-11.59h-44.052a4.38,4.38,0,0,0-4.379,4.379v78.294a4.379,4.379,0,0,0,4.379,4.379h52.339a4.376,4.376,0,0,0,3.886-2.365h3.362v-67.89Z" transform="translate(-0.006 -0.005)" fill="#70c4ff"/>
      <path id="Trazado_152057" data-name="Trazado 152057" d="M1548.741,456.019v67.348a4.379,4.379,0,0,1-4.379,4.379h5.461a4.379,4.379,0,0,0,4.378-4.379V458.82Z" transform="translate(-0.209 -0.06)" fill="#3ca8f4"/>
      <path id="Trazado_152059" data-name="Trazado 152059" d="M1540.422,458.764h13.751l-18.129-18.128v13.751A4.379,4.379,0,0,0,1540.422,458.764Z" transform="translate(-0.179 -0.005)" fill="#fde947"/>
      <rect id="Rectangle_34247" data-name="Rectangle 34247" width="49.822" height="49.822" rx="3.875" transform="translate(1495.964 467.898)" fill="#eaf6ff"/>
      <path id="Trazado_152057-2" data-name="Trazado 152057" d="M1540.741,467.019v47.419a4.379,4.379,0,0,1-4.379,4.379h5.461a4.378,4.378,0,0,0,4.378-4.378V471.322a3.973,3.973,0,0,0-3.273-3.911Z" transform="translate(-0.18 -0.099)" fill="#d8ecfe"/>
      <path id="Path_154040" data-name="Path 154040" d="M1531.893,497.932h-1.441l-3.541,1-2.553,2.491v3.363l1.557,2.117h4.982l3.343-2.758,1.639-2.224.361-20.783L1534.882,479H1530.9l-16.939,2.989-1,1-1,18.932-3.986-1L1503,502.914l-1,4.982,1.993,1.993h4.573l4.4-2.989.409-4.566.587-13.37,20.925-3.986v13.95Z" transform="translate(-0.057 -0.141)" fill="#fde947"/>
      <g id="_000000ff" data-name=" 000000ff" transform="translate(1485.885 439.318)">
        <path id="Trazado_154013" data-name="Trazado 154013" d="M1491.375,439.318h23.17a1.367,1.367,0,0,1,1.151,1.235,1.338,1.338,0,0,1-1.446,1.4q-11.341,0-22.681,0a3.049,3.049,0,0,0-2.852,1.879,6.446,6.446,0,0,0-.253,2.513q0,38.586,0,77.168a3.12,3.12,0,0,0,2.735,3.155c2.054.041,4.11-.019,6.163.027a1.321,1.321,0,0,1,1.254,1.383v.016a1.379,1.379,0,0,1-1.219,1.224h-5.941a5.817,5.817,0,0,1-5.084-3.4,6.7,6.7,0,0,1-.483-3.1q0-38.843,0-77.688a5.645,5.645,0,0,1,2.264-4.638A6.072,6.072,0,0,1,1491.375,439.318Z" transform="translate(-1485.885 -439.318)"/>
        <path id="Trazado_154014" data-name="Trazado 154014" d="M1520.512,439.318h15.46a3.575,3.575,0,0,1,1.578,1.187q8.66,8.661,17.316,17.322a1.427,1.427,0,0,1,.454,1.179q0,32.256,0,64.508a5.668,5.668,0,0,1-2.166,4.563,6.058,6.058,0,0,1-3.4,1.242h-46.36a1.411,1.411,0,0,1-1.074-.9,1.314,1.314,0,0,1,1.251-1.724q23.13-.033,46.262-.013a3.054,3.054,0,0,0,2.844-2.469,19.03,19.03,0,0,0,.076-2.623q-.007-30.726-.007-61.453c-4.173-.028-8.344.012-12.517-.016a5.672,5.672,0,0,1-4.757-2.586,5.981,5.981,0,0,1-.944-3.266V441.956c-4.391,0-8.783-.006-13.173,0a2.323,2.323,0,0,1-1.493-.286,1.3,1.3,0,0,1-.257-1.821,1.224,1.224,0,0,1,.08-.1,1.732,1.732,0,0,1,.833-.436m16.648,4.492q-.009,5.4,0,10.808a3.1,3.1,0,0,0,3.021,2.924c3.565.017,7.131.009,10.7,0Q1544.053,450.64,1537.16,443.81Z" transform="translate(-1485.943 -439.318)"/>
        <path id="Trazado_154015" data-name="Trazado 154015" d="M1498.528,466.756a6.424,6.424,0,0,1,1.692-.145q20.652,0,41.3,0a5.675,5.675,0,0,1,5.506,5.662q0,20.8,0,41.591a5.683,5.683,0,0,1-5.629,5.581q-20.685.031-41.369.009a5.685,5.685,0,0,1-4.177-1.672,5.6,5.6,0,0,1-1.665-4.188q0-20.7,0-41.4a5.69,5.69,0,0,1,4.34-5.443m.184,2.656a3.149,3.149,0,0,0-1.681,1.622,5.354,5.354,0,0,0-.276,2.312q.006,20.22,0,40.439a3.158,3.158,0,0,0,3.1,3.092q20.662.024,41.322.006a3.207,3.207,0,0,0,2.948-1.755,5.585,5.585,0,0,0,.329-2.591q-.006-20.121,0-40.243a3.146,3.146,0,0,0-3.1-3.11h-40.266a6.213,6.213,0,0,0-2.372.227Z" transform="translate(-1485.915 -439.415)"/>
        <path id="Trazado_154016" data-name="Trazado 154016" d="M1532.762,477.235a4.138,4.138,0,0,1,2.307-.023,2.683,2.683,0,0,1,1.765,2.505c.014,7.084-.006,14.165.007,21.25a6.407,6.407,0,0,1-2.3,4.79,9.473,9.473,0,0,1-7.428,2.234,5.857,5.857,0,0,1-3.182-1.517,4.343,4.343,0,0,1-1.276-3.207,6.222,6.222,0,0,1,2.35-4.438,8.98,8.98,0,0,1,9.252-1.6c0-3.42.024-6.839-.015-10.255q-9.9,1.632-19.8,3.236c-.007,4.818.007,9.636-.009,14.452-.061,2.522-2,4.558-4.123,5.671a9.2,9.2,0,0,1-6.027.918,5,5,0,0,1-3.773-2.992,4.9,4.9,0,0,1,.631-4.443,9.077,9.077,0,0,1,6.147-3.793,7.753,7.753,0,0,1,4.552.552c-.015-5.845,0-11.69-.006-17.532a2.734,2.734,0,0,1,1.519-2.519,5.9,5.9,0,0,1,1.628-.386q8.89-1.454,17.785-2.9m-18.318,5.63c0,1.575-.03,3.152.015,4.725,6.593-1.114,13.2-2.149,19.8-3.246-.022-1.57.068-3.149-.045-4.713q-9.884,1.611-19.768,3.234m15.229,16.453a6.332,6.332,0,0,0-4.064,2.784,2.092,2.092,0,0,0-.086,2.22,3.394,3.394,0,0,0,2.666,1.173,6.84,6.84,0,0,0,5.226-2.3,2.931,2.931,0,0,0,.8-2.22,1.983,1.983,0,0,0-1.23-1.457,5.444,5.444,0,0,0-3.31-.2m-22.488,3.359a6.286,6.286,0,0,0-4.01,2.792,2.062,2.062,0,0,0,.062,2.376,3.663,3.663,0,0,0,2.64,1,7.019,7.019,0,0,0,4.734-1.886,3.87,3.87,0,0,0,1.2-2.091,1.829,1.829,0,0,0-.964-1.847A5.139,5.139,0,0,0,1507.184,502.677Z" transform="translate(-1485.936 -439.453)"/>
      </g>
    </g>
  </g>
</svg>
