<svg xmlns="http://www.w3.org/2000/svg" width="111.362" height="88" viewBox="0 0 111.362 88">
  <g id="t6-ic1" transform="translate(0 -53.704)">
    <g id="Group_96844" data-name="Group 96844" transform="translate(1.634 55.338)">
      <path id="Path_151448" data-name="Path 151448" d="M7.511,156.773H112.023a4.441,4.441,0,0,1,3.588,3.588v56.778a4.448,4.448,0,0,1-3.588,3.588H17.9A10.391,10.391,0,0,1,7.511,210.332V156.773Z" transform="translate(-7.511 -135.989)" fill="#ecf4ff" fill-rule="evenodd"/>
      <path id="Path_151449" data-name="Path 151449" d="M17.9,61.218A10.386,10.386,0,0,0,7.511,71.607v63.954A10.386,10.386,0,0,1,17.9,125.172a9.706,9.706,0,0,1,5.154,1.363.722.722,0,0,0,1.11-.678V64.64A2.527,2.527,0,0,0,22.9,62.494a10.279,10.279,0,0,0-5-1.276Z" transform="translate(-7.511 -61.218)" fill="#cbe2ff" fill-rule="evenodd"/>
      <path id="Path_151450" data-name="Path 151450" d="M125.6,195.041H141.12a1.592,1.592,0,0,1,1.585,1.585v15.518a1.588,1.588,0,0,1-1.585,1.585H125.6a1.583,1.583,0,0,1-1.578-1.585V196.626A1.587,1.587,0,0,1,125.6,195.041Z" transform="translate(-98.676 -165.934)" fill="#fde947" fill-rule="evenodd"/>
      <path id="Path_151451" data-name="Path 151451" d="M414.311,108.048l-7.282-2.213-6.659,2.213v51.963l7.01,1.825,6.93-1.825Z" transform="translate(-314.922 -96.131)" fill="#fde947" fill-rule="evenodd"/>
      <path id="Path_151452" data-name="Path 151452" d="M408.22,366.907l2.608-5.13,3.484-6.862h-13.94l3.484,6.862,2.608,5.13A.957.957,0,0,0,408.22,366.907Z" transform="translate(-314.922 -291.035)" fill="#ffcbbe" fill-rule="evenodd"/>
      <path id="Path_151453" data-name="Path 151453" d="M414.311,73.136V65.478a4.273,4.273,0,0,0-4.26-4.26h-5.413a4.274,4.274,0,0,0-4.267,4.26v7.657Z" transform="translate(-314.922 -61.218)" fill="#ff8793" fill-rule="evenodd"/>
      <path id="Path_151454" data-name="Path 151454" d="M118.382,381.105h10.629l1.745-5.771-1.745-4.489H118.382a3.306,3.306,0,0,0-2.67,2.676v4.914A3.306,3.306,0,0,0,118.382,381.105Z" transform="translate(-92.178 -303.501)" fill="#fde947" fill-rule="evenodd"/>
      <path id="Path_151455" data-name="Path 151455" d="M176.856,341.8h13.305l1.819-6.56-1.819-10.093v-1.856a3.306,3.306,0,0,0-2.676-2.676h-7.953a3.306,3.306,0,0,0-2.676,2.676V341.8Z" transform="translate(-140.023 -264.196)" fill="#8ad24a" fill-rule="evenodd"/>
      <path id="Path_151456" data-name="Path 151456" d="M238.028,358.1h13.3l1.344-4.421-1.344-5.839v-3.724a3.306,3.306,0,0,0-2.676-2.67H238.028Z" transform="translate(-187.89 -280.499)" fill="#fde947" fill-rule="evenodd"/>
      <path id="Path_151457" data-name="Path 151457" d="M299.172,381.105H309.8a3.306,3.306,0,0,0,2.67-2.669v-4.914a3.306,3.306,0,0,0-2.67-2.676h-10.63Z" transform="translate(-235.734 -303.501)" fill="#8ad24a" fill-rule="evenodd"/>
      <path id="Path_151458" data-name="Path 151458" d="M109.963,215.45H15.839a10.342,10.342,0,0,1-4.217-.894,10.384,10.384,0,0,0,9.495,6.171H115.24a4.448,4.448,0,0,0,3.588-3.588V160.361a4.441,4.441,0,0,0-3.588-3.588h-1.689v55.088A4.448,4.448,0,0,1,109.963,215.45Z" transform="translate(-10.728 -135.989)" fill="#cbe2ff" fill-rule="evenodd"/>
      <path id="Path_151459" data-name="Path 151459" d="M46.791,82v43.208a9.4,9.4,0,0,1,4.168,1.325.722.722,0,0,0,1.11-.678V64.64A2.527,2.527,0,0,0,50.8,62.494a10.282,10.282,0,0,0-5-1.276,10.585,10.585,0,0,0-2.633.333,10.575,10.575,0,0,1,2.355.943,2.528,2.528,0,0,1,1.264,2.145V82Z" transform="translate(-35.416 -61.218)" fill="#bed8fb" fill-rule="evenodd"/>
      <path id="Path_151460" data-name="Path 151460" d="M440.2,116.011v51.963h5.278V116.011Z" transform="translate(-346.087 -104.093)" fill="#fece31" fill-rule="evenodd"/>
      <path id="Path_151461" data-name="Path 151461" d="M424.848,65.478v7.657h5.278V65.478a4.273,4.273,0,0,0-4.26-4.26h-5.284A4.275,4.275,0,0,1,424.848,65.478Z" transform="translate(-330.737 -61.218)" fill="#f77b87" fill-rule="evenodd"/>
    </g>
    <path id="Path_151462" data-name="Path 151462" d="M99.395,65.628V59.6a2.652,2.652,0,0,0-2.633-2.632H91.349A2.642,2.642,0,0,0,88.716,59.6v6.03H99.395ZM31.2,94.945a1.631,1.631,0,0,1,2.306-2.306L35,94.125l4.125-4.131a1.633,1.633,0,0,1,2.306,2.312l-5.278,5.278a1.634,1.634,0,0,1-2.306,0ZM92.422,76.122a1.631,1.631,0,1,1,3.261,0v34.237a1.631,1.631,0,1,1-3.261,0ZM66.705,131.315H76.743v-7H66.705Zm11.665,3.261h-53.2a1.637,1.637,0,0,1-1.634-1.634V122.684a1.631,1.631,0,0,1,1.634-1.628H36.839v-9.3a1.626,1.626,0,0,1,1.628-1.627H51.772a1.626,1.626,0,0,1,1.628,1.627v2.9H65.071A1.637,1.637,0,0,1,66.7,116.29v4.766H78.37A1.631,1.631,0,0,1,80,122.684v10.259a1.636,1.636,0,0,1-1.634,1.634ZM53.4,131.315H63.437V117.924H53.4Zm-13.3,0H50.138V113.392H40.1Zm-13.305,0H36.839v-7H26.8ZM19.915,74.488H85.448V59.6a5.915,5.915,0,0,1,5.9-5.894h5.413a5.915,5.915,0,0,1,5.894,5.894v14.89h7.078a1.631,1.631,0,0,1,1.628,1.634v63.954a1.626,1.626,0,0,1-1.628,1.628H64.572a1.631,1.631,0,0,1,0-3.262H108.1V77.75h-5.444V89.544a1.631,1.631,0,1,1-3.262,0V68.89H88.716v48.7H99.395V96.937a1.631,1.631,0,1,1,3.262,0v22.282a1.731,1.731,0,0,1-.278.925L95.51,133.671a1.659,1.659,0,0,1-.728.728,1.624,1.624,0,0,1-2.182-.721l-6.893-13.564a1.735,1.735,0,0,1-.259-.894V77.75H19.915V90.093a1.631,1.631,0,1,1-3.262,0V58.285a8.652,8.652,0,0,0-4.63-1.319,8.757,8.757,0,0,0-8.762,8.761v55.723c.086-.093.173-.185.259-.271a11.99,11.99,0,0,1,8.5-3.521,12.174,12.174,0,0,1,3.823.623c.271.092.543.2.808.308v-21.1a1.631,1.631,0,1,1,3.262,0v23.9a1.631,1.631,0,0,1-2.614,1.295,8.542,8.542,0,0,0-2.491-1.313,8.764,8.764,0,1,0-2.787,17.072H57.185a1.631,1.631,0,0,1,0,3.262H12.023A12.019,12.019,0,0,1,0,129.681V65.727a12.023,12.023,0,0,1,19.187-9.655,1.643,1.643,0,0,1,.728,1.363V74.488Zm78.457,46.364H89.734l4.322,8.5ZM76.57,84.371a1.631,1.631,0,0,1,0,3.261H54.491a1.631,1.631,0,0,1,0-3.261ZM67.39,99.945a1.631,1.631,0,1,1,0,3.261h-12.9a1.631,1.631,0,0,1,0-3.261Zm9.18-7.787a1.631,1.631,0,0,1,0,3.262H54.491a1.631,1.631,0,0,1,0-3.262Zm-49.6-9.347H45.662a1.631,1.631,0,0,1,1.628,1.634v18.688a1.631,1.631,0,0,1-1.628,1.634H26.974a1.633,1.633,0,0,1-1.634-1.634V84.445a1.633,1.633,0,0,1,1.634-1.634Zm17.054,3.268H28.6v15.426H44.028Z" transform="translate(0 0)"/>
  </g>
</svg>
