<svg xmlns="http://www.w3.org/2000/svg" width="82.215" height="110" viewBox="0 0 82.215 110">
  <g id="t6-ic2" transform="translate(-64.128)">
    <g id="Group_96853" data-name="Group 96853" transform="translate(65.753 1.625)">
      <g id="Group_96852" data-name="Group 96852" transform="translate(0)">
        <path id="Path_151490" data-name="Path 151490" d="M76.444,114.25h69.333a4.817,4.817,0,0,0,4.817-4.817V12.317A4.817,4.817,0,0,0,145.777,7.5H97.114a7.913,7.913,0,0,0-5.595,2.317L73.945,26.187a7.912,7.912,0,0,0-2.317,5.595v77.652A4.816,4.816,0,0,0,76.444,114.25Z" transform="translate(-71.628 -7.5)" fill="#edf5fa"/>
      </g>
    </g>
    <g id="Group_96855" data-name="Group 96855" transform="translate(133.403 1.625)">
      <g id="Group_96854" data-name="Group 96854">
        <path id="Path_151491" data-name="Path 151491" d="M390.407,7.5h-6.5a4.817,4.817,0,0,1,4.817,4.817v97.117a4.817,4.817,0,0,1-4.817,4.817h6.5a4.817,4.817,0,0,0,4.817-4.817V12.317A4.817,4.817,0,0,0,390.407,7.5Z" transform="translate(-383.908 -7.5)" fill="#d0e7f2"/>
      </g>
    </g>
    <g id="Group_96857" data-name="Group 96857" transform="translate(66.848 2.534)">
      <g id="Group_96856" data-name="Group 96856">
        <path id="Path_151492" data-name="Path 151492" d="M76.682,32.931h17.2a5.054,5.054,0,0,0,5.054-5.054V11.7" transform="translate(-76.682 -11.695)" fill="#b7d9eb"/>
      </g>
    </g>
    <g id="Group_96859" data-name="Group 96859" transform="translate(104.544 10.743)">
      <g id="Group_96858" data-name="Group 96858">
        <path id="Path_151493" data-name="Path 151493" d="M279.445,63.968a14.377,14.377,0,1,0-18.757,13.7l4.846,8.394,5.1-8.828A14.381,14.381,0,0,0,279.445,63.968Z" transform="translate(-250.691 -49.591)" fill="#a8ff5a"/>
      </g>
    </g>
    <g id="Group_96861" data-name="Group 96861" transform="translate(115.671 10.743)">
      <g id="Group_96860" data-name="Group 96860" transform="translate(0)">
        <path id="Path_151494" data-name="Path 151494" d="M305.305,49.591a14.393,14.393,0,0,0-3.25.373,14.378,14.378,0,0,1,2.313,27.264l-1.848,3.2,3.249,5.628,5.1-8.828a14.379,14.379,0,0,0-5.563-27.637Z" transform="translate(-302.056 -49.591)" fill="#8ad24a"/>
      </g>
    </g>
    <g id="Group_96862" data-name="Group 96862" transform="translate(64.128 0)">
      <path id="Path_151495" data-name="Path 151495" d="M139.9,0H91.238a9.474,9.474,0,0,0-6.722,2.772L66.963,19.123l-.041.04a9.474,9.474,0,0,0-2.793,6.744v42.6a1.625,1.625,0,0,0,3.25,0v-42.6c0-.172.009-.342.022-.512H84.048a6.686,6.686,0,0,0,6.678-6.678V3.272c.169-.014.34-.022.512-.022H139.9a3.2,3.2,0,0,1,3.192,3.192V19.914a1.625,1.625,0,1,0,3.249,0V6.441A6.448,6.448,0,0,0,139.9,0ZM87.477,18.716a3.433,3.433,0,0,1-3.429,3.429H68.626a6.362,6.362,0,0,1,.573-.665L86.751,5.131l.041-.04a6.379,6.379,0,0,1,.685-.593Z" transform="translate(-64.128 0)"/>
      <path id="Path_151496" data-name="Path 151496" d="M144.719,114.424a1.625,1.625,0,0,0-1.625,1.625v77.146a3.2,3.2,0,0,1-3.192,3.192H70.569a3.2,3.2,0,0,1-3.192-3.192V164.641a1.625,1.625,0,0,0-3.25,0v28.553a6.448,6.448,0,0,0,6.441,6.441H139.9a6.448,6.448,0,0,0,6.441-6.441V116.049a1.624,1.624,0,0,0-1.625-1.625Z" transform="translate(-64.128 -89.636)"/>
      <path id="Path_151497" data-name="Path 151497" d="M313.181,119.716a1.625,1.625,0,0,0,1.625-1.625v-6.01a1.625,1.625,0,1,0-3.249,0v6.01A1.625,1.625,0,0,0,313.181,119.716Z" transform="translate(-257.955 -86.528)"/>
      <path id="Path_151498" data-name="Path 151498" d="M313.181,87.367a1.625,1.625,0,0,0,1.625-1.625V84.337a1.625,1.625,0,1,0-3.249,0v1.406A1.625,1.625,0,0,0,313.181,87.367Z" transform="translate(-257.955 -64.794)"/>
      <path id="Path_151499" data-name="Path 151499" d="M258.252,80.994a1.625,1.625,0,0,0,2.814,0l4.832-8.369a16,16,0,1,0-12.187.5Zm-11.811-22.9a12.752,12.752,0,1,1,17.686,11.762,1.625,1.625,0,0,0-.778.686l-3.69,6.391-3.439-5.957a1.625,1.625,0,0,0-.913-.735A12.709,12.709,0,0,1,246.44,58.093Z" transform="translate(-204.4 -32.973)"/>
      <path id="Path_151500" data-name="Path 151500" d="M133.677,171.3H147.4a1.625,1.625,0,0,0,0-3.249h-13.72a1.625,1.625,0,0,0,0,3.249Z" transform="translate(-117.337 -131.646)"/>
      <path id="Path_151501" data-name="Path 151501" d="M133.677,199.3H147.4a1.625,1.625,0,0,0,0-3.249h-13.72a1.625,1.625,0,0,0,0,3.249Z" transform="translate(-117.337 -153.58)"/>
      <path id="Path_151502" data-name="Path 151502" d="M133.677,254.682h51.7a1.625,1.625,0,0,0,0-3.249h-51.7a1.625,1.625,0,0,0,0,3.249Z" transform="translate(-117.337 -196.964)"/>
      <path id="Path_151503" data-name="Path 151503" d="M133.677,282.682h51.7a1.625,1.625,0,0,0,0-3.25h-51.7a1.625,1.625,0,0,0,0,3.25Z" transform="translate(-117.337 -218.898)"/>
      <path id="Path_151504" data-name="Path 151504" d="M133.677,327.524h41.9a1.625,1.625,0,1,0,0-3.25h-41.9a1.625,1.625,0,0,0,0,3.25Z" transform="translate(-117.337 -254.026)"/>
      <path id="Path_151505" data-name="Path 151505" d="M133.677,355.525h51.7a1.625,1.625,0,0,0,0-3.25h-51.7a1.625,1.625,0,0,0,0,3.25Z" transform="translate(-117.337 -275.96)"/>
      <path id="Path_151506" data-name="Path 151506" d="M133.677,400.367h51.7a1.625,1.625,0,0,0,0-3.25h-51.7a1.625,1.625,0,0,0,0,3.25Z" transform="translate(-117.337 -311.088)"/>
      <path id="Path_151507" data-name="Path 151507" d="M133.677,428.367h26.672a1.625,1.625,0,0,0,0-3.25H133.677a1.625,1.625,0,0,0,0,3.25Z" transform="translate(-117.337 -333.022)"/>
    </g>
  </g>
</svg>
