<svg xmlns="http://www.w3.org/2000/svg" width="90" height="90" viewBox="0 0 90 90">
  <g id="t6-ic5" transform="translate(-769.5 -1628)">
    <rect id="Rectangle_33176" data-name="Rectangle 33176" width="90" height="90" transform="translate(769.5 1628)" fill="none"/>
    <g id="Group_98835" data-name="Group 98835" transform="translate(-884.429 1292.679)">
      <path id="Trazado_151883" data-name="Trazado 151883" d="M1727.628,420.207l-.963-.963V360.418L1712.4,346.153h-40.569l-.878-1.235a3.979,3.979,0,0,0-3.795,3.974v71.132a3.978,3.978,0,0,0,3.978,3.978h52.517a3.977,3.977,0,0,0,3.974-3.8Z" fill="#70c4ff"/>
      <path id="Trazado_151884" data-name="Trazado 151884" d="M1670.957,344.918c-.007.158,0,70.777,0,71.316a3.978,3.978,0,0,0,3.978,3.978h52.694V361.384l-16.47-16.47h-40.205Z" fill="#3ca8f4"/>
      <path id="Trazado_151885" data-name="Trazado 151885" d="M1733.029,351.663l-8.03-4.035-5.562-10.989h-40.022a3.978,3.978,0,0,0-3.978,3.978v71.132a3.978,3.978,0,0,0,3.978,3.978h47.033a3.978,3.978,0,0,0,3.708-2.536h2.873Z" fill="#eaf6ff"/>
      <path id="Trazado_151886" data-name="Trazado 151886" d="M1707.973,395.786h-43.641a2.387,2.387,0,0,1-2.387-2.387V374.32a2.387,2.387,0,0,1,2.387-2.387h43.641a2.387,2.387,0,0,1,2.387,2.387V393.4a2.387,2.387,0,0,1-2.387,2.387Z" fill="#fde947"/>
      <path id="Trazado_151887" data-name="Trazado 151887" d="M1730.426,353.109v58.64a3.978,3.978,0,0,1-3.978,3.978h5.481a3.978,3.978,0,0,0,3.978-3.978v-58.64l-5.481-2.754Z" fill="#d8ecfe"/>
      <path id="Trazado_151888" data-name="Trazado 151888" d="M1723.415,353.109h12.492l-16.47-16.47v12.492A3.978,3.978,0,0,0,1723.415,353.109Z" fill="#b3dafe"/>
      <g id="Grupo_97121" data-name="Grupo 97121">
        <path id="Trazado_151889" data-name="Trazado 151889" d="M1717.019,364.18h10.02a1.318,1.318,0,1,0,0-2.637h-10.02a1.318,1.318,0,0,0,0,2.637Z"/>
        <path id="Trazado_151890" data-name="Trazado 151890" d="M1712.1,361.543h-10.02a1.318,1.318,0,0,0,0,2.637h10.02a1.318,1.318,0,1,0,0-2.637Z"/>
        <path id="Trazado_151891" data-name="Trazado 151891" d="M1687.137,361.543a1.318,1.318,0,0,0,0,2.637h10.02a1.318,1.318,0,1,0,0-2.637Z"/>
        <path id="Trazado_151892" data-name="Trazado 151892" d="M1727.673,371.467h-10.439a1.318,1.318,0,0,0,0,2.637h10.439a1.318,1.318,0,1,0,0-2.637Z"/>
        <path id="Trazado_151893" data-name="Trazado 151893" d="M1727.673,381.391h-10.439a1.319,1.319,0,0,0,0,2.637h10.439a1.319,1.319,0,1,0,0-2.637Z"/>
        <path id="Trazado_151894" data-name="Trazado 151894" d="M1728.991,392.633a1.319,1.319,0,0,0-1.318-1.318h-10.439a1.318,1.318,0,0,0,0,2.637h10.439a1.318,1.318,0,0,0,1.318-1.318Z"/>
        <path id="Trazado_151895" data-name="Trazado 151895" d="M1687.137,401.242a1.318,1.318,0,0,0,0,2.637h10.02a1.318,1.318,0,1,0,0-2.637Z"/>
        <path id="Trazado_151896" data-name="Trazado 151896" d="M1717.019,401.242a1.318,1.318,0,0,0,0,2.637h10.02a1.318,1.318,0,1,0,0-2.637Z"/>
        <path id="Trazado_151897" data-name="Trazado 151897" d="M1712.1,401.242h-10.02a1.318,1.318,0,0,0,0,2.637h10.02a1.318,1.318,0,1,0,0-2.637Z"/>
        <path id="Trazado_151901" data-name="Trazado 151901" d="M1735.908,369.737a1.318,1.318,0,0,0,1.318-1.318h0V353.11a1.329,1.329,0,0,0-.386-.932l-16.47-16.471a1.33,1.33,0,0,0-.933-.386h-40.023a5.3,5.3,0,0,0-5.3,5.3V343.6h-2.973a5.3,5.3,0,0,0-5.3,5.3v21.719h-1.512a3.71,3.71,0,0,0-3.7,3.706V393.4a3.709,3.709,0,0,0,3.7,3.705h1.515v22.916a5.3,5.3,0,0,0,5.3,5.3h8.982a1.319,1.319,0,1,0,0-2.637h-8.985a2.663,2.663,0,0,1-2.66-2.66V397.105h5.633V411.75a5.3,5.3,0,0,0,5.3,5.3h46.9v2.971a2.663,2.663,0,0,1-2.66,2.66h-37.378a1.318,1.318,0,0,0,0,2.637h37.379a5.3,5.3,0,0,0,5.3-5.3h0v-2.972h2.978a5.3,5.3,0,0,0,5.3-5.3h0V374.57a1.319,1.319,0,0,0-2.637,0v37.18a2.663,2.663,0,0,1-2.66,2.66h-52.522a2.663,2.663,0,0,1-2.66-2.66V397.105h31.22a3.706,3.706,0,0,0,3.7-3.705V374.321h0a3.712,3.712,0,0,0-3.7-3.705h-31.218V340.621a2.664,2.664,0,0,1,2.66-2.66h38.7v11.17a5.3,5.3,0,0,0,5.3,5.3h11.174v13.99a1.318,1.318,0,0,0,1.318,1.318h0Zm-27.934,3.515a1.073,1.073,0,0,1,1.068,1.069V393.4a1.069,1.069,0,0,1-1.069,1.069h-43.644a1.069,1.069,0,0,1-1.069-1.069V374.321a1.071,1.071,0,0,1,1.069-1.069Zm-39.493-2.637V348.892a2.664,2.664,0,0,1,2.66-2.66h2.973v24.383Zm54.933-18.824a2.663,2.663,0,0,1-2.66-2.66v-9.31l11.971,11.97Z"/>
      </g>
      <g id="Group_98834" data-name="Group 98834">
        <path id="Path_154013" data-name="Path 154013" d="M1674.277,389.878c0,.3-.332.491-.648.491-.455,0-1.981-.035-1.981-.421V379.9h-3.365c-.263,0-.473-.316-.473-.614,0-.42.053-1.735.42-1.735h9.413c.264,0,.474.316.474.613,0,.421-.053,1.736-.421,1.736h-3.419Z"/>
        <path id="Path_154014" data-name="Path 154014" d="M1687.8,383.813l3.453,5.609c.385.632.07.947-.578.947-.386,0-1.77-.035-1.982-.368l-2.523-4.085L1683.645,390c-.21.333-1.594.368-1.981.368-.665,0-.964-.315-.578-.947l3.454-5.609-3.437-5.5c-.385-.614-.051-.947.6-.947.368,0,1.752.035,1.962.351l2.508,4,2.489-4c.21-.316,1.612-.351,1.98-.351.649,0,.948.333.579.947Z"/>
        <path id="Path_154015" data-name="Path 154015" d="M1700.656,389.878c0,.3-.333.491-.648.491-.455,0-1.981-.035-1.981-.421V379.9h-3.366c-.262,0-.472-.316-.472-.614,0-.42.053-1.735.419-1.735h9.414c.264,0,.474.316.474.613,0,.421-.053,1.736-.422,1.736h-3.418Z"/>
      </g>
    </g>
  </g>
</svg>
