<svg xmlns="http://www.w3.org/2000/svg" width="103.332" height="109.698" viewBox="0 0 103.332 109.698">
  <g id="t6-ic4" transform="translate(-14.856)">
    <g id="Group_96848" data-name="Group 96848" transform="translate(16.474 1.607)">
      <path id="Path_151463" data-name="Path 151463" d="M116.135,85.918V39.385a2.962,2.962,0,0,0-2.962-2.962h-4.487l-3.538,2.1H32.3l-2.447-2.1H25.368a2.962,2.962,0,0,0-2.962,2.962V87.712a8.4,8.4,0,0,0,8.4,8.4h27.18a5.327,5.327,0,0,1,4.7,2.827,7.461,7.461,0,0,0,13.172,0,5.327,5.327,0,0,1,4.7-2.827h3.3L94.4,100l22.855-8.674V87.769Z" transform="translate(-22.406 -30.226)" fill="#fde947"/>
      <g id="Group_96845" data-name="Group 96845" transform="translate(0 6.197)">
        <path id="Path_151464" data-name="Path 151464" d="M32.047,87.711V39.385a2.951,2.951,0,0,1,.157-.947l-2.349-2.016H25.368a2.962,2.962,0,0,0-2.962,2.962V87.712a8.4,8.4,0,0,0,8.4,8.4h9.641A8.4,8.4,0,0,1,32.047,87.711Z" transform="translate(-22.406 -36.423)" fill="#fdcc47"/>
      </g>
      <path id="Path_151465" data-name="Path 151465" d="M165.324,7.5h-33.6l-.546.364H128.9l-.392-.364H104.046a4.206,4.206,0,0,0-4.206,4.206V62.982a2.962,2.962,0,0,0,2.962,2.962h25.7l.432-.353h2.384l.4.353h23.521l1.394.562,11.962-1.75.72-.679a2.95,2.95,0,0,0,.212-1.1V11.706A4.205,4.205,0,0,0,165.324,7.5Z" transform="translate(-83.25 -7.5)" fill="#dbedff"/>
      <g id="Group_96846" data-name="Group 96846" transform="translate(7.449 0)">
        <path id="Path_151466" data-name="Path 151466" d="M66.814,62.983V11.707A4.206,4.206,0,0,1,71.02,7.5H61.379a4.206,4.206,0,0,0-4.206,4.206V62.983a2.962,2.962,0,0,0,2.962,2.962h9.641A2.962,2.962,0,0,1,66.814,62.983Z" transform="translate(-57.173 -7.501)" fill="#b5dcff"/>
      </g>
      <path id="Path_151467" data-name="Path 151467" d="M341.2,199.262a3.514,3.514,0,0,0-3.3,2.206.273.273,0,0,1-.511,0,3.512,3.512,0,0,0-6.52,0,.277.277,0,0,1-.255.178h0a.277.277,0,0,1-.255-.178,3.514,3.514,0,0,0-3.26-2.206,3.221,3.221,0,0,0-3.055,2.228.237.237,0,0,1-.46-.082V186.093a3.516,3.516,0,0,0-3.636-3.514,3.576,3.576,0,0,0-3.4,3.606v23.573a.873.873,0,0,1-1.473.634l-3.811-3.606a3.782,3.782,0,0,0-5.475.292,2.807,2.807,0,0,0,0,3.616l1.6,1.912a11.981,11.981,0,0,1,2.133,3.729,16.161,16.161,0,0,0,4.7,6.945,6.556,6.556,0,0,1,2.322,4.994v3.692l.6,1.2h24.318l.865-.976v-5.225a14.116,14.116,0,0,1,1.112-5.6,15.037,15.037,0,0,0,1.232-5.961V202.881A3.584,3.584,0,0,0,341.2,199.262Z" transform="translate(-244.555 -145.067)" fill="#ffdecf"/>
      <g id="Group_96847" data-name="Group 96847" transform="translate(60.574 37.511)">
        <path id="Path_151468" data-name="Path 151468" d="M354.5,210.767a2.876,2.876,0,0,0,4.852-2.089V186.186a3.654,3.654,0,0,1,1.465-2.927,3.5,3.5,0,0,0-2.194-.679,3.576,3.576,0,0,0-3.4,3.606v23.573a.872.872,0,0,1-.87.874Z" transform="translate(-343.81 -182.578)" fill="#ffcebe"/>
        <path id="Path_151469" data-name="Path 151469" d="M320.67,313.271a6.556,6.556,0,0,0-2.322-4.994,16.16,16.16,0,0,1-4.7-6.945,11.977,11.977,0,0,0-2.133-3.728l-1.484-1.774a3.034,3.034,0,0,1-.413-3.3c.4-.8.938-1,1.537-.841a3.778,3.778,0,0,0-5.366.385,2.807,2.807,0,0,0,0,3.616l1.6,1.912a11.981,11.981,0,0,1,2.133,3.729,16.161,16.161,0,0,0,4.7,6.945,6.556,6.556,0,0,1,2.322,4.994v3.692l.6,1.2h4.124l-.6-1.2Z" transform="translate(-305.128 -267.575)" fill="#ffcebe"/>
      </g>
      <path id="Path_151470" data-name="Path 151470" d="M415.08,446.572H399.04l-1.142.843v8.737a2.978,2.978,0,0,0,2.084,2.832h13.586a2.912,2.912,0,0,0,2.9-2.9v-8.551Z" transform="translate(-317.448 -352.499)" fill="#60b9fe"/>
      <path id="Path_151471" data-name="Path 151471" d="M360.949,456.08v-8.551l1.3-.957H352.089l-1.3.957v8.551a2.912,2.912,0,0,0,2.9,2.9h10.156A2.912,2.912,0,0,1,360.949,456.08Z" transform="translate(-280.435 -352.499)" fill="#1ca8ff"/>
      <path id="Path_151472" data-name="Path 151472" d="M413.591,411.7H400.206a2.97,2.97,0,0,0-2.279,2.878v5.551h18.568V414.6A2.912,2.912,0,0,0,413.591,411.7Z" transform="translate(-317.47 -325.1)" fill="#dbedff"/>
      <path id="Path_151473" data-name="Path 151473" d="M363.852,411.7H353.7a2.912,2.912,0,0,0-2.9,2.9v5.525h10.156V414.6A2.912,2.912,0,0,1,363.852,411.7Z" transform="translate(-280.435 -325.1)" fill="#b5dcff"/>
    </g>
    <g id="Group_96849" data-name="Group 96849" transform="translate(14.856 0)">
      <path id="Path_151474" data-name="Path 151474" d="M98.537,0H28.118A5.819,5.819,0,0,0,22.3,5.812V6.2h-2.88a4.574,4.574,0,0,0-4.569,4.569V59.092A10.018,10.018,0,0,0,24.863,69.1h7.49a1.607,1.607,0,0,0,0-3.214h-7.49a6.8,6.8,0,0,1-6.793-6.793V10.766a1.357,1.357,0,0,1,1.355-1.355H22.3V57.089a4.574,4.574,0,0,0,4.569,4.569H77.485a4.529,4.529,0,0,0-2.035,4.227h-.839A6.923,6.923,0,0,0,68.5,69.563a5.854,5.854,0,0,1-10.336,0,6.923,6.923,0,0,0-6.116-3.678H39.851a1.607,1.607,0,1,0,0,3.214H52.043a3.715,3.715,0,0,1,3.28,1.976,9.068,9.068,0,0,0,16.008,0,3.715,3.715,0,0,1,3.28-1.976h2.551l.9,1.079a10.342,10.342,0,0,1,1.848,3.228,17.682,17.682,0,0,0,5.18,7.64,4.942,4.942,0,0,1,1.755,3.769v2.827a4.5,4.5,0,0,0-1.634,3.471v14.076a4.515,4.515,0,0,0,4.51,4.51h22.859a4.516,4.516,0,0,0,4.51-4.51V91.112A4.491,4.491,0,0,0,115.844,88v-4.5a12.442,12.442,0,0,1,.98-4.963,16.548,16.548,0,0,0,1.364-6.6V69.994a1.607,1.607,0,0,0-3.214,0v1.951a13.354,13.354,0,0,1-1.1,5.324,15.633,15.633,0,0,0-1.243,6.237v3.1H90.062V84.814A8.151,8.151,0,0,0,87.174,78.6a14.47,14.47,0,0,1-4.226-6.25,13.542,13.542,0,0,0-2.417-4.23l-1.6-1.912a1.207,1.207,0,0,1-.013-1.542,2.173,2.173,0,0,1,3.148-.167L85.877,68.1a2.482,2.482,0,0,0,4.185-1.8V42.726a1.973,1.973,0,0,1,1.842-2,1.907,1.907,0,0,1,1.976,1.908V57.949a1.844,1.844,0,0,0,3.568.656A1.647,1.647,0,0,1,99,57.41a1.9,1.9,0,0,1,1.769,1.2,1.881,1.881,0,0,0,3.373.247,2.047,2.047,0,0,1,1.89-1.445,1.9,1.9,0,0,1,1.769,1.2,1.879,1.879,0,0,0,3.493,0,2.375,2.375,0,0,1,.178-.333,1.911,1.911,0,0,1,3.5,1.147v3.074a1.607,1.607,0,1,0,3.214,0V59.421a5.158,5.158,0,0,0-6.389-5.064V10.766A4.574,4.574,0,0,0,107.229,6.2h-2.88V5.813A5.819,5.819,0,0,0,98.537,0ZM88.428,91.112a1.3,1.3,0,0,1,1.3-1.3h22.86a1.3,1.3,0,0,1,1.3,1.3v3.918H88.428Zm0,7.132H113.88v6.944a1.3,1.3,0,0,1-1.3,1.3H89.724a1.3,1.3,0,0,1-1.3-1.3ZM61.72,58.445H26.874a1.357,1.357,0,0,1-1.355-1.355V5.813a2.6,2.6,0,0,1,2.6-2.6h33.6Zm25.128,6.149L84.275,62.16a6.158,6.158,0,0,0-.612-.5h3.185Zm14.288-9.937a5.065,5.065,0,0,0-4.042-.078V42.634a5.1,5.1,0,0,0-9.754-2.115H73.181a1.607,1.607,0,0,0,0,3.214H86.848V48.05H73.181a1.607,1.607,0,0,0,0,3.214H86.848v7.181H64.934V3.214h33.6a2.6,2.6,0,0,1,2.6,2.6ZM107.23,9.411a1.357,1.357,0,0,1,1.355,1.355V54.872a5.2,5.2,0,0,0-4.235-.394V9.411Z" transform="translate(-14.856 0)"/>
      <path id="Path_151475" data-name="Path 151475" d="M97.222,51.731H116.93a1.607,1.607,0,1,0,0-3.214H97.222a1.607,1.607,0,1,0,0,3.214Z" transform="translate(-78.312 -38.122)"/>
      <path id="Path_151476" data-name="Path 151476" d="M97.222,86.881H116.93a1.607,1.607,0,1,0,0-3.214H97.222a1.607,1.607,0,1,0,0,3.214Z" transform="translate(-78.312 -65.741)"/>
      <path id="Path_151477" data-name="Path 151477" d="M97.222,122.03H116.93a1.607,1.607,0,0,0,0-3.214H97.222a1.607,1.607,0,0,0,0,3.214Z" transform="translate(-78.312 -93.359)"/>
      <path id="Path_151478" data-name="Path 151478" d="M97.222,157.18H116.93a1.607,1.607,0,0,0,0-3.214H97.222a1.607,1.607,0,0,0,0,3.214Z" transform="translate(-78.312 -120.978)"/>
      <path id="Path_151479" data-name="Path 151479" d="M97.222,192.33H116.93a1.607,1.607,0,0,0,0-3.214H97.222a1.607,1.607,0,1,0,0,3.214Z" transform="translate(-78.312 -148.597)"/>
      <path id="Path_151480" data-name="Path 151480" d="M97.222,227.48H116.93a1.607,1.607,0,1,0,0-3.214H97.222a1.607,1.607,0,1,0,0,3.214Z" transform="translate(-78.312 -176.216)"/>
      <path id="Path_151481" data-name="Path 151481" d="M300.9,48.517H281.189a1.607,1.607,0,1,0,0,3.214H300.9a1.607,1.607,0,0,0,0-3.214Z" transform="translate(-222.864 -38.122)"/>
      <path id="Path_151482" data-name="Path 151482" d="M300.9,83.667H281.189a1.607,1.607,0,1,0,0,3.214H300.9a1.607,1.607,0,0,0,0-3.214Z" transform="translate(-222.864 -65.741)"/>
      <path id="Path_151483" data-name="Path 151483" d="M300.9,118.816H281.189a1.607,1.607,0,1,0,0,3.214H300.9a1.607,1.607,0,0,0,0-3.214Z" transform="translate(-222.864 -93.359)"/>
      <path id="Path_151484" data-name="Path 151484" d="M300.9,153.966H281.189a1.607,1.607,0,1,0,0,3.214H300.9a1.607,1.607,0,0,0,0-3.214Z" transform="translate(-222.864 -120.978)"/>
    </g>
  </g>
</svg>
